<svg id="Grupo_61514" data-name="Grupo 61514" xmlns="http://www.w3.org/2000/svg" xmlns:xlink="http://www.w3.org/1999/xlink" width="230.253" height="216.25" viewBox="0 0 230.253 216.25">
  <defs>
    <clipPath id="clip-path">
      <path id="SVGID" d="M5992.276,14398.743s-2.288,3.649-1.66,6.65,6.227,16.081,10.366,28.095,3.32,25.1,3.32,28.97-.2,6.641,2.693,8.145,7.45.648,8.7-2.133,2.076-20.581-.2-31.319-10.365-29.6-12.44-33.885S5999.949,14393,5992.276,14398.743Z" transform="translate(-5990.507 -14396.375)" fill="none" opacity="0"/>
    </clipPath>
    <clipPath id="clip-path-2">
      <rect id="SVGID-2" data-name="SVGID" width="44.975" height="11.994" rx="3.04" transform="translate(0 1.35) rotate(-1.72)" fill="none" opacity="0"/>
    </clipPath>
  </defs>
  <rect id="Rectángulo_12839" data-name="Rectángulo 12839" width="227.854" height="216.25" transform="translate(2.4)" fill="#aed3f2" opacity="0"/>
  <g id="Grupo_61513" data-name="Grupo 61513" transform="translate(0 7.173)">
    <g id="freepik--background-simple--inject-80" transform="translate(14.166 13.931)">
      <path id="Trazado_127996" data-name="Trazado 127996" d="M6128.919,14401.671c4.339-36.042-16.643-83.863-38.406-103.621-39.279-35.675-71.931-28.774-97.29-16s-29,55.438-46.533,74.736-27.487,45.26-.9,71.1,48.041,12.715,75.841,11.072,64.677,11.265,84.6.05C6120.15,14431.223,6127.014,14417.6,6128.919,14401.671Z" transform="translate(-5929.451 -14271.717)" fill="#ffd99d"/>
    </g>
    <g id="freepik--Clouds--inject-80" transform="translate(25.439 13.931)">
      <path id="Trazado_127997" data-name="Trazado 127997" d="M6031.688,14345.951c-3.294-1.8-4.787-.3-5.982-1.8s3.293-5.384-5.68-9.3c0,0-.6-8.376-12.867-8.65s-8.975,8.385-12.254,10.476-4.188-1.19-7.481.9-1.788,6.279-4.484,6.877-6.286-2.69-9.573-.6-3.294,3.893-4.787,3.893-4.491-1.2-6.286,0-3.893,2.7-3.893,2.7h75.688S6034.967,14347.753,6031.688,14345.951Z" transform="translate(-5958.4 -14307.308)" fill="#f57c00"/>
      <path id="Trazado_127998" data-name="Trazado 127998" d="M6116.2,14317.4c-1.326-.72-1.938-.128-2.422-.72s1.334-2.163-2.307-3.762c0,0-.245-3.4-5.219-3.525s-3.647,3.4-4.981,4.254-1.7-.49-3.035.366-.721,2.545-1.823,2.79-2.552-1.1-3.885-.245-1.334,1.587-1.946,1.587-1.817-.489-2.545,0-1.578,1.089-1.578,1.089h30.729a1.579,1.579,0,0,0-.987-1.832Z" transform="translate(-5937.923 -14309.386)" fill="#f57c00"/>
      <path id="Trazado_127999" data-name="Trazado 127999" d="M6056.288,14404.8c-1.34-.722-1.939-.122-2.429-.722s1.333-2.162-2.306-3.771c0,0-.239-3.4-5.22-3.518s-3.646,3.4-4.98,4.246-1.7-.482-3.035.368-.721,2.552-1.817,2.8-2.552-1.095-3.892-.244-1.334,1.585-1.939,1.585-1.824-.483-2.551,0-1.58,1.095-1.58,1.095h30.722A1.6,1.6,0,0,0,6056.288,14404.8Z" transform="translate(-5947.506 -14306.631)" fill="#f57c00"/>
      <g id="Grupo_61506" data-name="Grupo 61506" transform="translate(0 18.891)" style="isolation: isolate">
        <path id="Trazado_128000" data-name="Trazado 128000" d="M6031.688,14345.951c-3.294-1.8-4.787-.3-5.982-1.8s3.293-5.384-5.68-9.3c0,0-.6-8.376-12.867-8.65s-8.975,8.385-12.254,10.476-4.188-1.19-7.481.9-1.788,6.279-4.484,6.877-6.286-2.69-9.573-.6-3.294,3.893-4.787,3.893-4.491-1.2-6.286,0-3.893,2.7-3.893,2.7h75.688S6034.967,14347.753,6031.688,14345.951Z" transform="translate(-5958.4 -14326.199)" fill="#f57c00"/>
      </g>
      <g id="Grupo_61507" data-name="Grupo 61507" transform="translate(148.537)" style="isolation: isolate">
        <path id="Trazado_128001" data-name="Trazado 128001" d="M6116.2,14317.4c-1.326-.72-1.938-.128-2.422-.72s1.334-2.163-2.307-3.762c0,0-.245-3.4-5.219-3.525s-3.647,3.4-4.981,4.254-1.7-.49-3.035.366-.721,2.545-1.823,2.79-2.552-1.1-3.885-.245-1.334,1.587-1.946,1.587-1.817-.489-2.545,0-1.578,1.089-1.578,1.089h30.729a1.579,1.579,0,0,0-.987-1.832Z" transform="translate(-6086.46 -14309.386)" fill="#f57c00"/>
      </g>
      <g id="Grupo_61508" data-name="Grupo 61508" transform="translate(79.032 90.154)" style="isolation: isolate">
        <path id="Trazado_128002" data-name="Trazado 128002" d="M6056.288,14404.8c-1.34-.722-1.939-.122-2.429-.722s1.333-2.162-2.306-3.771c0,0-.239-3.4-5.22-3.518s-3.646,3.4-4.98,4.246-1.7-.482-3.035.368-.721,2.552-1.817,2.8-2.552-1.095-3.892-.244-1.334,1.585-1.939,1.585-1.824-.483-2.551,0-1.58,1.095-1.58,1.095h30.722A1.6,1.6,0,0,0,6056.288,14404.8Z" transform="translate(-6026.538 -14396.784)" fill="#f57c00"/>
      </g>
    </g>
    <g id="freepik--Window--inject-80" transform="translate(14.884 24.399)">
      <rect id="Rectángulo_12840" data-name="Rectángulo 12840" width="203.67" height="1.752" transform="translate(0 64.573)" fill="#344154"/>
      <line id="Línea_742" data-name="Línea 742" y1="83.617" transform="translate(156.217 12.758)" fill="none" opacity="0"/>
      <line id="Línea_743" data-name="Línea 743" y1="96.375" transform="translate(64.231)" fill="none" opacity="0"/>
      <line id="Línea_744" data-name="Línea 744" x2="191.524" transform="translate(5.204 48.8)" fill="none" opacity="0"/>
    </g>
    <g id="freepik--Lamp--inject-80" transform="translate(100.911 14.524)">
      <path id="Trazado_128003" data-name="Trazado 128003" d="M6060.33,14290.5h5.161a1.708,1.708,0,0,1,1.716,1.716h0v5.211H6058.6v-5.211a1.716,1.716,0,0,1,1.715-1.718Z" transform="translate(-6045.906 -14277.553)" fill="#344154"/>
      <ellipse id="Elipse_4539" data-name="Elipse 4539" cx="4.001" cy="4.001" rx="4.001" ry="4.001" transform="translate(12.903 22.31)" fill="#094309"/>
      <ellipse id="Elipse_4540" data-name="Elipse 4540" cx="4.001" cy="4.001" rx="4.001" ry="4.001" transform="translate(12.903 22.31)" fill="#6595bf" opacity="0.4"/>
      <path id="Trazado_128004" data-name="Trazado 128004" d="M6446.02,14519.219h-34.03l12.766-6.921h8.47Z" transform="translate(-6411.99 -14492.763)" fill="#344154"/>
      <rect id="Rectángulo_12841" data-name="Rectángulo 12841" width="1.442" height="13.912" transform="translate(16.298)" fill="#344154"/>
    </g>
    <g id="freepik--Plant--inject-80" transform="translate(174.672 29.83)">
      <path id="Trazado_128005" data-name="Trazado 128005" d="M6143.8,14372.2a9.575,9.575,0,0,0,2.746.309s-.415-1.277-.458-1.352c-.426-.9-1.777-2.373-2.875-2.224a1.3,1.3,0,0,0-.843.531,1.29,1.29,0,0,0-.221.971.941.941,0,0,0,0,.148,2.773,2.773,0,0,0,1.649,1.618Z" transform="translate(-6142.131 -14363.043)" fill="#344154"/>
      <path id="Trazado_128006" data-name="Trazado 128006" d="M6169.293,14365.954c-1.064-.126-2.415,1.394-2.819,2.29,0,.074-.438,1.362-.416,1.362h0l-.66.753c-.437.545-.916,1.141-1.395,1.831a25.581,25.581,0,0,0-1.458,2.277,19.266,19.266,0,0,0-1.235,2.787v-1.309c-.127-.979-.948-2.8-2.043-3a1.3,1.3,0,0,0-1.5,1.066.8.8,0,0,0,0,.168,2.744,2.744,0,0,0,1.064,2.055,9.316,9.316,0,0,0,2.491,1.139,21.163,21.163,0,0,0-.765,3.044c-.108.6-.193,1.2-.278,1.8v-.575c-.117-.968-.947-2.8-2.032-3a1.331,1.331,0,0,0-1.511,1.063.822.822,0,0,0,0,.139,2.766,2.766,0,0,0,1.064,2.054,8.83,8.83,0,0,0,2.427,1.063l-.1.692c-.127,1.064-.255,2.224-.415,3.311-.053.384-.128.755-.192,1.128v-.491c-.138-.978-.957-2.8-2.043-3a1.308,1.308,0,0,0-1.511,1.063v.16a2.785,2.785,0,0,0,1.064,2.053,8.679,8.679,0,0,0,2.34,1.066c-.074.381-.159.755-.255,1.126s-.128.5-.213.766-.149.491-.234.765c-.16.458-.331.927-.5,1.375s-.233.6-.362.884c.064-.373.161-1.128.161-1.183a5.076,5.076,0,0,0-.672-2.48v-.286a1.311,1.311,0,0,0-1.47-1.139l-.138,0c-1.064.289-1.755,2.13-1.8,3.194a8.224,8.224,0,0,0,.063,1.063c-.052-.222-.1-.456-.16-.69-.116-.479-.234-.947-.372-1.449-.074-.245-.148-.49-.223-.766s-.171-.489-.256-.755c-.214-.585-.458-1.159-.713-1.736a8.543,8.543,0,0,0,2.47-.925,2.776,2.776,0,0,0,1.2-1.97,1.32,1.32,0,0,0-1.289-1.348l-.127,0c-1.064.118-2.054,1.873-2.289,2.842,0,.064-.074.757-.1,1.161-.159-.342-.318-.694-.489-1.066-.5-.989-1.064-1.978-1.522-2.967l-.478-.917a9.01,9.01,0,0,0,2.564-.937,2.744,2.744,0,0,0,1.2-1.966,1.3,1.3,0,0,0-1.278-1.342h-.139c-1.064.116-2.053,1.883-2.288,2.852,0,.064-.107,1.065-.117,1.352-.352-.672-.691-1.331-.989-2.011a22.482,22.482,0,0,1-1.064-2.79,9.4,9.4,0,0,0,2.575-.956,2.732,2.732,0,0,0,1.2-1.96,1.314,1.314,0,0,0-1.288-1.36l-.126,0c-1.065.118-2.064,1.873-2.289,2.852,0,.075-.117,1.17-.117,1.373a.5.5,0,0,0-.064-.16,18.521,18.521,0,0,1-.553-2.959c-.064-.554-.086-1.063-.106-1.595a8.412,8.412,0,0,0,2.6-.659,2.739,2.739,0,0,0,1.427-1.819,1.342,1.342,0,0,0-1.065-1.514h-.264c-1.064,0-2.255,1.639-2.553,2.586,0,.052-.129.585-.214.979v-.693a15.331,15.331,0,0,1,.107-2.289,7.007,7.007,0,0,1,.116-1.064,9.26,9.26,0,0,0,1.99-1.777,2.7,2.7,0,0,0,.416-2.287,1.331,1.331,0,0,0-1.682-.819l-.127,0c-.979.511-1.246,2.489-1.064,3.468,0,.085.394,1.383.4,1.362h0c0,.319-.086.649-.127,1.064-.064.672-.139,1.447-.149,2.276a23.148,23.148,0,0,0,.063,2.724,17.123,17.123,0,0,0,.5,3h0a7.336,7.336,0,0,0-.766-1.064c-.649-.757-2.341-1.811-3.364-1.373a1.311,1.311,0,0,0-.65,1.736l.065.116a2.758,2.758,0,0,0,2.012,1.141,9.4,9.4,0,0,0,2.714-.428,22.186,22.186,0,0,0,1.063,2.916c.245.554.5,1.064.767,1.649l-.33-.469c-.649-.755-2.341-1.809-3.362-1.373a1.306,1.306,0,0,0-.639,1.733l.064.12a2.735,2.735,0,0,0,2.012,1.137,8.684,8.684,0,0,0,2.617-.4l.319.63c.5,1,1,2,1.468,2.989.171.351.319.7.469,1.063-.139-.2-.267-.371-.288-.392-.648-.757-2.342-1.811-3.352-1.386a1.322,1.322,0,0,0-.649,1.746l.064.116a2.7,2.7,0,0,0,2.012,1.126,8.234,8.234,0,0,0,2.553-.369c.149.361.288.755.416,1.064a4.571,4.571,0,0,1,.234.765l.2.755c.117.479.234.961.34,1.427s.128.639.192.948a10.568,10.568,0,0,0-.523-1.064c-.532-.842-2.031-2.13-3.106-1.874a1.31,1.31,0,0,0-.915,1.617s0,.1,0,.139a2.749,2.749,0,0,0,1.821,1.425,8.9,8.9,0,0,0,2.713,0c.106.511.2,1.011.276,1.521.3,1.651.479,3.055.585,3.99a1.412,1.412,0,0,0,0,.479h-3.342l1.222,23.766h5.684l1.224-23.766h-3.117l.075-.147c.425-.895,1.065-2.128,1.66-3.725.2-.5.4-1.064.618-1.576a9.179,9.179,0,0,0,2.7.213,2.778,2.778,0,0,0,1.927-1.285,1.324,1.324,0,0,0-.606-1.761l-.117,0c-1.064-.353-2.661.84-3.246,1.639,0,0-.352.595-.554.947l.256-.67.488-1.416c.075-.245.139-.489.214-.755s.128-.513.2-.768c.149-.605.256-1.224.362-1.842a8.375,8.375,0,0,0,2.576.585,2.723,2.723,0,0,0,2.129-.969,1.327,1.327,0,0,0-.33-1.839l-.118-.066c-.979-.511-2.746.427-3.449,1.128,0,0-.488.6-.766.917.064-.374.128-.766.171-1.129.138-1.063.244-2.223.352-3.33a8.29,8.29,0,0,1,.106-1.064,9.083,9.083,0,0,0,2.661.616,2.721,2.721,0,0,0,2.129-.979,1.317,1.317,0,0,0-.319-1.827l-.116-.066c-.991-.513-2.757.427-3.459,1.128a10.579,10.579,0,0,0-.841,1.064c.075-.766.16-1.522.277-2.226a22.676,22.676,0,0,1,.638-2.927,9.151,9.151,0,0,0,2.672.618,2.7,2.7,0,0,0,2.127-.968,1.319,1.319,0,0,0-.329-1.842l-.106-.062c-.989-.512-2.756.425-3.459,1.126-.053.054-.755.917-.862,1.066a1.067,1.067,0,0,0,.053-.162,16.269,16.269,0,0,1,1.16-2.767c.244-.5.521-.958.756-1.392a8.712,8.712,0,0,0,2.532.882,2.743,2.743,0,0,0,2.193-.755,1.331,1.331,0,0,0-.129-1.862l-.105-.085c-.927-.608-2.778.126-3.556.765l-.712.7.372-.585c.469-.692.926-1.3,1.352-1.841.245-.31.468-.575.682-.819a8.916,8.916,0,0,0,2.639-.386,2.731,2.731,0,0,0,1.6-1.659,1.308,1.308,0,0,0-1.022-1.417Zm-12.2,29.608c-.67,1.533-1.287,2.8-1.725,3.661l-.234.479h-.085a3.737,3.737,0,0,0-.073-.563c-.128-.979-.342-2.375-.672-4.034-.105-.522-.223-1.063-.352-1.648a15.837,15.837,0,0,0,1.523-.714,9.887,9.887,0,0,0,2.2,1.429c-.212.476-.4.967-.6,1.392Z" transform="translate(-6142.125 -14363.399)" fill="#344154"/>
      <path id="Trazado_128007" data-name="Trazado 128007" d="M6162.36,14372.7s.35-1.287.362-1.381c.137-.971-.17-2.949-1.172-3.438a1.312,1.312,0,0,0-1.01-.027,1.328,1.328,0,0,0-.735.7v.094a2.752,2.752,0,0,0,.479,2.289A9.055,9.055,0,0,0,6162.36,14372.7Z" transform="translate(-6141.002 -14363.118)" fill="#344154"/>
    </g>
    <g id="freepik--Characters--inject-80" transform="translate(0)">
      <path id="Trazado_128010" data-name="Trazado 128010" d="M6401.417,14577.3l-11.738,1.6,9.184,2.342" transform="translate(-6357.995 -14546.147)" fill="none" opacity="0"/>
      <path id="Trazado_128011" data-name="Trazado 128011" d="M6029.39,14348.8s4.1,6.82.34,13.837" transform="translate(-5986.309 -14334.508)" fill="none" opacity="0"/>
      <line id="Línea_745" data-name="Línea 745" y1="1.171" x2="7.833" transform="translate(70.497 32.215)" fill="none" opacity="0"/>
      <line id="Línea_746" data-name="Línea 746" x2="10.387" y2="1.596" transform="translate(70.838 34.025)" fill="none" opacity="0"/>
      <path id="Trazado_128019" data-name="Trazado 128019" d="M6048.245,14336a3.9,3.9,0,0,0-1.065,1" transform="translate(-5985.165 -14335.328)" fill="none" opacity="0"/>
      <path id="Trazado_128020" data-name="Trazado 128020" d="M6061.729,14342.533a17.792,17.792,0,0,1-6.523-4.812,5.91,5.91,0,0,0-5.577-2.29" transform="translate(-5985.007 -14335.369)" fill="none" opacity="0"/>
      <path id="Trazado_128021" data-name="Trazado 128021" d="M6054.969,14343.234s-1.524-5.268-7.91-3.562" transform="translate(-5985.173 -14335.114)" fill="none" opacity="0"/>
      <path id="Trazado_128028" data-name="Trazado 128028" d="M5992.276,14398.743s-2.288,3.649-1.66,6.65,6.227,16.081,10.366,28.095,3.32,25.1,3.32,28.97-.2,6.641,2.693,8.145,7.45.648,8.7-2.133,2.076-20.581-.2-31.319-10.365-29.6-12.44-33.885S5999.949,14393,5992.276,14398.743Z" transform="translate(-5988.806 -14331.45)" fill="#6595bf"/>
      <g id="Grupo_61510" data-name="Grupo 61510" transform="translate(1.701 64.924)" clip-path="url(#clip-path)">
        <g id="Grupo_61509" data-name="Grupo 61509" transform="translate(-3.047)">
          <path id="Trazado_128029" data-name="Trazado 128029" d="M5992.276,14398.743s-2.288,3.649-1.66,6.65,6.227,16.081,10.366,28.095,3.32,25.1,3.32,28.97-.2,6.641,2.693,8.145,7.45.648,8.7-2.133,2.076-20.581-.2-31.319-10.365-29.6-12.44-33.885S5999.949,14393,5992.276,14398.743Z" transform="translate(-5987.46 -14396.375)" fill="#344154" opacity="0.25"/>
          <path id="Trazado_128030" data-name="Trazado 128030" d="M5989.406,14400.947s-2.288,3.658-1.648,6.659,6.214,16.081,10.365,28.1,3.31,25.1,3.31,28.968-.2,6.643,2.7,8.142,7.45.649,8.706-2.128,2.129-20.585-.2-31.323-10.376-29.6-12.441-33.883S5997.079,14395.093,5989.406,14400.947Z" transform="translate(-5987.645 -14396.236)" fill="#344154" opacity="0.25"/>
        </g>
      </g>
      <path id="Trazado_128031" data-name="Trazado 128031" d="M5992.276,14398.743s-2.288,3.649-1.66,6.65,6.227,16.081,10.366,28.095,3.32,25.1,3.32,28.97-.2,6.641,2.693,8.145,7.45.648,8.7-2.133,2.076-20.581-.2-31.319-10.365-29.6-12.44-33.885S5999.949,14393,5992.276,14398.743Z" transform="translate(-5988.806 -14331.45)" fill="none" opacity="0"/>
      <path id="Trazado_128033" data-name="Trazado 128033" d="M5988.911,14405.658s2.363-5.087,4.97-5.95" transform="translate(-5988.911 -14331.233)" fill="none" opacity="0"/>
      <path id="Trazado_128034" data-name="Trazado 128034" d="M5989.511,14402.848a18.869,18.869,0,0,1,3.9-4.119" transform="translate(-5988.873 -14331.298)" fill="none" opacity="0"/>
      <rect id="Rectángulo_12842" data-name="Rectángulo 12842" width="2.778" height="26.809" transform="translate(44.625 136.725)" fill="#6595bf"/>
      <path id="Trazado_128035" data-name="Trazado 128035" d="M6408.6,14702.977v-4.575h-7.067v4.575l-28.255,10.854v5.427h1.927v-4.149l29.968-6.277,29.172,6.277v4.149h1.873v-5.427Z" transform="translate(-6359.05 -14538.368)" fill="#6595bf"/>
      <rect id="Rectángulo_12843" data-name="Rectángulo 12843" width="13.91" height="8.557" transform="translate(39.069 136.725)" fill="#6595bf"/>
      <ellipse id="Elipse_4541" data-name="Elipse 4541" cx="2.991" cy="2.991" rx="2.991" ry="2.991" transform="translate(8.238 178.114)" fill="#344154"/>
      <path id="Trazado_128036" data-name="Trazado 128036" d="M6000.837,14505.579a1.3,1.3,0,1,0-1.3,1.286A1.3,1.3,0,0,0,6000.837,14505.579Z" transform="translate(-5988.31 -14324.517)" fill="#6595bf"/>
      <ellipse id="Elipse_4542" data-name="Elipse 4542" cx="2.991" cy="2.991" rx="2.991" ry="2.991" transform="translate(77.393 178.114)" fill="#344154"/>
      <ellipse id="Elipse_4543" data-name="Elipse 4543" cx="1.288" cy="1.288" rx="1.288" ry="1.288" transform="translate(79.096 179.817)" fill="#6595bf"/>
      <path id="Trazado_128037" data-name="Trazado 128037" d="M6404.574,14719.463h-2.352l-1.181-15.962h4.715Z" transform="translate(-6357.268 -14538.041)" fill="#6595bf"/>
      <rect id="Rectángulo_12844" data-name="Rectángulo 12844" width="2.352" height="6.641" transform="translate(44.838 178.018)" fill="#344154"/>
      <path id="Trazado_128038" data-name="Trazado 128038" d="M6040.777,14421s18.8-2.957,20.582-3.256,5.183,2.076,6.811,3.256,9.036,5.631,8.152,5.926-3.852-.881-5.778-1.627-3.406-1.33-3.406-1.33a23.5,23.5,0,0,0,2.362,2.809c.767.6.458,1.066-1.617.148a10.136,10.136,0,0,1-4.461-3.555c-.765-1.182-1.926-3.254-1.926-3.254s-16.283,6.1-18.954,6.959-6.812.883-6.662-1.926S6040.777,14421,6040.777,14421Z" transform="translate(-5985.892 -14330.079)" fill="#efcebc"/>
      <path id="Trazado_128039" data-name="Trazado 128039" d="M6067.344,14421c-1.628-1.184-5.034-3.555-6.812-3.256-.936.158-6.661,1.063-11.833,1.869l.66,4.7c5.32-1.947,11.323-4.191,11.323-4.191s1.192,2.072,1.927,3.254a10.228,10.228,0,0,0,4.448,3.555c2.076.883,2.363.449,1.619-.148a23.658,23.658,0,0,1-2.364-2.809s1.48.594,3.406,1.33,4.885,1.924,5.78,1.627S6068.972,14422.17,6067.344,14421Z" transform="translate(-5985.067 -14330.079)" fill="#efcebc"/>
      <line id="Línea_747" data-name="Línea 747" x2="7.12" y2="4.257" transform="translate(83.31 92.559)" fill="none" opacity="0"/>
      <path id="Trazado_128040" data-name="Trazado 128040" d="M6056.3,14377.624s4.14-2.673,3.405-5.63-13.026-7.449-18.954-6.1-7.843,7.449-9.483,11.846-8.279,23.553-8.279,23.553,4.884,5.469,11.1,2.657,11.846-18.089,14.666-21.166a25.333,25.333,0,0,1,7.546-5.164Z" transform="translate(-5986.72 -14333.424)" fill="#344154"/>
      <path id="Trazado_128041" data-name="Trazado 128041" d="M6050.3,14367.9s2.639,1.862,3.415,3.564a2.306,2.306,0,0,1-.159,2.639" transform="translate(-5984.963 -14333.279)" fill="none" opacity="0"/>
      <path id="Trazado_128042" data-name="Trazado 128042" d="M6053.605,14369.5a36.984,36.984,0,0,1-11.026,7.905c-6.385,2.8-10.706,5.121-12.771,7.449" transform="translate(-5986.28 -14333.177)" fill="none" opacity="0"/>
      <path id="Trazado_128043" data-name="Trazado 128043" d="M6027.941,14387.6a21.909,21.909,0,0,0-.863,2.287" transform="translate(-5986.456 -14332.014)" fill="none" opacity="0"/>
      <path id="Trazado_128044" data-name="Trazado 128044" d="M6045.949,14370.1a41.334,41.334,0,0,1-4.385,3.682c-4.321,3.193-9.674,7.376-12.834,13.131" transform="translate(-5986.351 -14333.139)" fill="none" opacity="0"/>
      <path id="Trazado_128045" data-name="Trazado 128045" d="M6047.252,14367.5a9.133,9.133,0,0,1-.863,1.157" transform="translate(-5985.216 -14333.304)" fill="none" opacity="0"/>
      <path id="Trazado_128046" data-name="Trazado 128046" d="M6033.913,14391.509s-10.642,4.575-13.771,6.226-3.692,4.882-3.692,7.694,4,23.986,4,23.986h17.465s3.106-6.214,5.32-8.29,3.991-6.215,3.108-9.033-1.777-4.26-1.777-7.111-.585-6.384-2.819-8.588S6038.32,14390.658,6033.913,14391.509Z" transform="translate(-5987.14 -14331.771)" fill="#ffa726"/>
      <path id="Trazado_128047" data-name="Trazado 128047" d="M6067.676,14468.717c.383,1.938,1.926,4.33,2.693,6.172,1.522,3.725,4.331,9.631,6.023,13.3,2.394,5.225,4.193,11.993,3.874,12.452a11.224,11.224,0,0,0-1.128,3.691c0,.927.639,8.771.639,8.771h1.128l.809-4.619s2.554.16,3.363.927,1.757,2.458,3.193,3.192,8,1.063,8,1.063,1.128-.605-.318-1.839a28.468,28.468,0,0,1-4.96-4.771c-1.276-1.842-4.958-6.3-4.958-6.3s-8.333-45.667-8.972-47.637-2.725-6.3-4.64-6.757-8.515-1.116-8.515-1.116l-.318,7.875s1.533-.3,3.278,3.193C6067.964,14458.5,6066.569,14462.971,6067.676,14468.717Z" transform="translate(-5984.11 -14328.31)" fill="#ffe6d8"/>
      <path id="Trazado_128048" data-name="Trazado 128048" d="M6092.184,14505.935c-3.81,1.268-7.758-2.512-9.493-4.49a10.345,10.345,0,0,0-4.013-2.717,8.982,8.982,0,0,0-.479,2.13c0,.928.64,8.772.64,8.772h1.127l.81-4.62s2.554.159,3.362.927,1.756,2.458,3.193,3.191,8,1.064,8,1.064,1.126-.605-.32-1.842A35.765,35.765,0,0,1,6092.184,14505.935Z" transform="translate(-5983.172 -14324.871)" fill="#344154"/>
      <path id="Trazado_128049" data-name="Trazado 128049" d="M6073.272,14443.4s6.972,1.947,6.536,3.459-10.91,32.854-14.836,40.208-5.375,13.207-4.948,15.007,4.086,7.661,5.235,8.514,4.076,2.405,3.64,2.555a61.609,61.609,0,0,1-9.3,0c-.724-.075-4.8-4.95-5.534-5.26l-.756-.3v5.406h-1.544l-.575-8.258a12.665,12.665,0,0,1,2.129-4.26,17.927,17.927,0,0,0,4.258-7.947c1.32-4.5,6.1-27.607,6.864-32.257a36.344,36.344,0,0,1,2.576-8.686Z" transform="translate(-5984.908 -14328.428)" fill="#ffe6d8"/>
      <path id="Trazado_128050" data-name="Trazado 128050" d="M6065.264,14507.152a6.839,6.839,0,0,1-1.064-1.183,7.157,7.157,0,0,1-3.321-.593c-1.883-1.065-3.628-3.461-5.236-5.262a9.651,9.651,0,0,0-3-2.127,13.778,13.778,0,0,0-1.522,3.3l.575,8.257h1.607v-5.428l.756.3c.766.307,4.81,5.183,5.534,5.257a61.367,61.367,0,0,0,9.3,0C6069.34,14509.6,6066.435,14508.11,6065.264,14507.152Z" transform="translate(-5984.913 -14324.921)" fill="#344154"/>
      <path id="Trazado_128051" data-name="Trazado 128051" d="M6020.3,14427.2s-1.342,16.453-1.522,21.8,4.256,10.515,10.366,11.1,42.229-4.32,42.229-4.32l5.928-10.8s-17.476-4.448-23.414-6.1-11.547-2.672-11.547-2.672l-4.576-9.035Z" transform="translate(-5986.99 -14329.472)" fill="#ffa726"/>
      <path id="Trazado_128052" data-name="Trazado 128052" d="M6039.313,14399.915l2.969,5.183s-1.064-5.471-1.639-7.449-2.214-1.331-2.214-.288a14.9,14.9,0,0,0,.607,3.045" transform="translate(-5985.728 -14331.449)" fill="#094309"/>
      <path id="Trazado_128053" data-name="Trazado 128053" d="M6039.949,14382.85l-5.108,8.173,4.428,10.376s2.724-6.288,4.085-7.822,3.747-3.758,3.747-3.758-4.257-5.106-4.576-6.461S6040.332,14381.467,6039.949,14382.85Z" transform="translate(-5985.958 -14332.372)" fill="#ffe6d8"/>
      <path id="Trazado_128054" data-name="Trazado 128054" d="M6405.131,14601.7l-2.661,2.658,4.738,13.621,3.553-4.894Z" transform="translate(-6357.175 -14544.582)" fill="#094309"/>
      <path id="Trazado_128055" data-name="Trazado 128055" d="M6018.53,14408.37c5.6,14.119,7.868,19.226,9.5,22.78s5.184,4.255,8.44,4.255,23.658-.572,23.658-.572,11.25.436,13.175,0,5.034-3.119,5.63-3.119,3.853,2.96,4.576,2.96,1.181-.438.6-1.479-2.97-5.62-4.576-5.767-8.589,4.436-8.589,4.436-.476-.066-1.765-.259c-2.7-.4-11.017-1.7-15.86-3-6.563-.365-15.323-1.182-15.323-1.182-2.018-3.721-4.072-11.679-5.706-15.583-1.628-4.32-1.916-10.067-4.885-12.429s-6.25-.557-8.012,1.082" transform="translate(-5987.17 -14331.374)" fill="#ffe6d8"/>
      <path id="Trazado_128056" data-name="Trazado 128056" d="M6076.922,14425.6c-1.64-.149-8.588,4.438-8.588,4.438s-5.791-.809-11.325-1.862l.139,4.843h.34s11.249.438,13.175,0,5.034-3.117,5.63-3.117,3.853,2.957,4.576,2.957,1.181-.436.6-1.479S6078.538,14425.813,6076.922,14425.6Z" transform="translate(-5984.533 -14329.571)" fill="#ffe6d8"/>
      <path id="Trazado_128057" data-name="Trazado 128057" d="M6075.439,14428.1s3.991,2.82,4.885,4.151" transform="translate(-5983.349 -14329.412)" fill="none" opacity="0"/>
      <line id="Línea_748" data-name="Línea 748" x2="3.555" y2="2.98" transform="translate(92.527 97.348)" fill="none" opacity="0"/>
      <path id="Trazado_128058" data-name="Trazado 128058" d="M6054.733,14373.7a47.06,47.06,0,0,1,1.128,5c.17,1.52-1.065,2.381-.511,3.189s1.82,3.523,1.139,3.863a5.286,5.286,0,0,1-1.873.341s-3.119,5.8-3.81,6.864-5.449-1.362-7.673-2.381-2.374-5.963-2.374-5.963l-.18-3.405S6051.328,14377.212,6054.733,14373.7Z" transform="translate(-5985.588 -14332.905)" fill="#ffe6d8"/>
      <path id="Trazado_128059" data-name="Trazado 128059" d="M6051.531,14378.967c2.214-2.682,2.181.286,2.181.286" transform="translate(-5984.887 -14332.639)" fill="#344154"/>
      <path id="Trazado_128060" data-name="Trazado 128060" d="M6052.582,14381.977c-.191.631-.554,1.064-.8.991s-.3-.651-.108-1.279.565-1.062.81-.977S6052.774,14381.34,6052.582,14381.977Z" transform="translate(-5984.884 -14332.458)" fill="#344154"/>
      <path id="Trazado_128061" data-name="Trazado 128061" d="M6041.941,14382.214s-1.192-4.258-2.554-3.418-2.043,4.088-.681,5.8,3.576.681,3.576.681" transform="translate(-5985.759 -14332.587)" fill="#ffe6d8"/>
      <rect id="Rectángulo_12845" data-name="Rectángulo 12845" width="44.975" height="11.994" rx="3.04" transform="translate(24.418 128.838) rotate(-1.72)" fill="#6595bf"/>
      <g id="Grupo_61512" data-name="Grupo 61512" transform="translate(24.418 127.488)" clip-path="url(#clip-path-2)">
        <g id="Grupo_61511" data-name="Grupo 61511" transform="translate(-0.105 0)">
          <rect id="Rectángulo_12846" data-name="Rectángulo 12846" width="44.975" height="11.994" rx="3.04" transform="translate(0.105 1.35) rotate(-1.72)" fill="#344154" opacity="0.25"/>
          <rect id="Rectángulo_12847" data-name="Rectángulo 12847" width="44.954" height="11.994" rx="3.04" transform="matrix(1, -0.032, 0.032, 1, 0, 4.434)" fill="#344154" opacity="0.25"/>
        </g>
      </g>
      <rect id="Rectángulo_12848" data-name="Rectángulo 12848" width="44.975" height="11.994" rx="3.04" transform="translate(24.418 128.838) rotate(-1.72)" fill="none" opacity="0"/>
      <path id="Trazado_128062" data-name="Trazado 128062" d="M6041.947,14463.857a1.466,1.466,0,0,1-.6-.124,1.523,1.523,0,0,1-.862-1.985h0c2.5-6.022,5.321-16.769,2.437-19.976-.691-.469-4.821-1.479-27.095.566l-1.619.147c-1.522.118-2.884,2.128-3.193,2.789a1.554,1.554,0,1,1-2.767-1.394c.212-.425,2.2-4.26,5.757-4.492l1.575-.137c23.733-2.128,28.289-1.065,29.662.413,5.236,5.718-1.065,21.5-1.852,23.276a1.525,1.525,0,0,1-1.448.913Z" transform="translate(-5987.68 -14328.771)" fill="#6595bf"/>
    </g>
    <g id="freepik--Desk--inject-80" transform="translate(76.546 59.974)">
      <rect id="Rectángulo_12849" data-name="Rectángulo 12849" width="122.197" height="8.557" transform="translate(3.001 45.036)" fill="#f57c00"/>
      <rect id="Rectángulo_12850" data-name="Rectángulo 12850" width="26.606" height="5.79" transform="translate(26.085 41.63)" fill="#6595bf"/>
      <rect id="Rectángulo_12851" data-name="Rectángulo 12851" width="26.606" height="4.289" transform="translate(77.679 36.096)" fill="#ffa726"/>
      <rect id="Rectángulo_12852" data-name="Rectángulo 12852" width="26.606" height="4.289" transform="translate(78.755 31.839)" fill="#ffa726"/>
      <rect id="Rectángulo_12853" data-name="Rectángulo 12853" width="26.606" height="7.077" transform="translate(79.287 40.353)" fill="#ffa726"/>
      <rect id="Rectángulo_12854" data-name="Rectángulo 12854" width="122.197" height="4.076" transform="translate(3.001 45.249)" fill="#344154"/>
      <path id="Trazado_128063" data-name="Trazado 128063" d="M6053.464,14513.8h0a.859.859,0,0,1-.852-.85l-.553-78.755h2.81l-.554,78.755A.849.849,0,0,1,6053.464,14513.8Z" transform="translate(-6049.794 -14388.992)" fill="#f57c00"/>
      <path id="Trazado_128064" data-name="Trazado 128064" d="M6166.964,14513.8h0a.849.849,0,0,1-.851-.85l-.555-78.755h2.811l-.555,78.755A.87.87,0,0,1,6166.964,14513.8Z" transform="translate(-6042.5 -14388.992)" fill="#f57c00"/>
      <path id="Trazado_128065" data-name="Trazado 128065" d="M6115.688,14434.276h-13.164a.958.958,0,1,1,0-1.906h13.164a2.29,2.29,0,0,0,2.129-2.885l-4.672-16.771a.959.959,0,0,1,.661-1.17v0a.959.959,0,0,1,1.17.662l4.673,16.771a4.173,4.173,0,0,1-2.9,5.131,4.44,4.44,0,0,1-1.118.148Z" transform="translate(-6046.62 -14390.45)" fill="#6595bf"/>
      <rect id="Rectángulo_12855" data-name="Rectángulo 12855" width="38.834" height="3.001" transform="matrix(0.119, -0.993, 0.993, 0.119, 59.743, 38.558)" fill="#6595bf"/>
      <path id="Trazado_128066" data-name="Trazado 128066" d="M6113.61,14392a58.158,58.158,0,0,1-4.63,38.557Z" transform="translate(-6046.137 -14391.706)" fill="#344154"/>
      <path id="Trazado_128067" data-name="Trazado 128067" d="M6089.875,14431.218a3.417,3.417,0,0,1-1.585-.425,4.138,4.138,0,0,1-2.288-3.946,2.6,2.6,0,0,1,1.065-1.96,4.793,4.793,0,0,1,3.544-.439.767.767,0,1,1-.373,1.48,3.392,3.392,0,0,0-2.287.193,1.066,1.066,0,0,0-.406.85,2.6,2.6,0,0,0,1.447,2.477,1.356,1.356,0,0,0,1.373.087.764.764,0,0,1,1.066.1.754.754,0,0,1-.1,1.062A2.287,2.287,0,0,1,6089.875,14431.218Z" transform="translate(-6047.614 -14389.629)" fill="#213a52"/>
      <path id="Trazado_128068" data-name="Trazado 128068" d="M6096.624,14432.548a5.645,5.645,0,0,1-5.151,0c-1.767-1.471-1.713-9.036-1.713-9.036h8.578S6098.391,14431.162,6096.624,14432.548Z" transform="translate(-6047.37 -14389.683)" fill="#213a52"/>
      <rect id="Rectángulo_12856" data-name="Rectángulo 12856" width="128.2" height="3.555" transform="translate(0 43.333)" fill="#f57c00"/>
    </g>
    <g id="freepik--Floor--inject-80" transform="translate(14.106 184.568)">
      <rect id="Rectángulo_12857" data-name="Rectángulo 12857" width="202.387" height="3.453" fill="#344154"/>
    </g>
  </g>
</svg>
