<svg xmlns="http://www.w3.org/2000/svg" width="145" height="145" viewBox="0 0 145 145">
  <g id="Grupo_141992" data-name="Grupo 141992" transform="translate(-502 2389)">
    <circle id="Elipse_4900" data-name="Elipse 4900" cx="72.5" cy="72.5" r="72.5" transform="translate(502 -2389)" fill="#fff"/>
    <g id="Grupo_73923" data-name="Grupo 73923" transform="translate(-812.903 -6100.553)">
      <path id="Trazado_108947" data-name="Trazado 108947" d="M1464.625,3825.944a.916.916,0,0,0,.143-.351A2.267,2.267,0,0,1,1464.625,3825.944Z" transform="translate(-33.769 -21.55)" fill="#f57c00"/>
      <path id="Trazado_108948" data-name="Trazado 108948" d="M1414.438,3816.211c0-1.158,0-1.146-1.157-1.252a9.61,9.61,0,0,1-8.917-6.588c-2.184-5.891-4.513-11.735-6.784-17.586q-7.654-19.8-15.285-39.605a1.038,1.038,0,0,0-1.222-.814,21.673,21.673,0,0,1-2.893,0,1.131,1.131,0,0,0-1.336.879l0,.01q-8.1,20.945-16.26,41.865c-2.052,5.244-4.008,10.528-6.313,15.67a9.621,9.621,0,0,1-6.683,5.684c-1.216.308-2.453.44-3.682.649v4.768c.31-.017.62-.048.93-.048h11.759c4.4,0,8.8-.017,13.2.016.691,0,.875-.194.836-.855-.055-.934-.014-1.873-.014-2.809,0-1.149,0-1.152-1.186-1.223a19.95,19.95,0,0,1-6.542-1.374c-1.753-.734-2.061-1.3-1.817-3.2.048-.367.078-.734.161-1.1a107.8,107.8,0,0,1,3.975-12.177c.184-.519.53-.482.931-.482q10.523,0,21.046-.011a.906.906,0,0,1,1.029.713c1.6,4.415,3.289,8.8,4.853,13.231,1,2.838.981,2.846-1.98,3.68a27.327,27.327,0,0,1-5.3.733c-.537.042-.717.218-.7.769.047,1.1.058,2.216,0,3.322-.039.675.207.783.818.779,4.119-.025,8.237-.012,12.355-.012,5.134,0,10.283-.011,15.423.012.6,0,.789-.15.757-.755C1414.4,3818.144,1414.438,3817.173,1414.438,3816.211Zm-29.6-25.238q-8.215-.039-16.429,0c-.523,0-.781,0-.519-.673q4.28-11.029,8.509-22.082c.04-.1.092-.2.205-.447,1.265,3.252,2.464,6.333,3.667,9.41,1.694,4.347,3.377,8.7,5.1,13.033.268.651.158.761-.531.757Z" transform="translate(0 -0.5)" fill="#f57c00"/>
      <path id="Trazado_108949" data-name="Trazado 108949" d="M1455.578,3759.177c-2.147-3.5-4.256-7.021-6.434-10.624l-8.948,14.788c2.053,0,3.957.041,5.855-.02.761-.024.929.183.928.934q-.039,18.734-.019,37.466c0,2.074,0,2.074-2.061,2.074h-4.711l8.954,14.8,1.793-2.954,6.848-11.241a2.3,2.3,0,0,0,.143-.351c.017-.183-.141-.264-.521-.258-1.788.028-3.578,0-5.365.02-.532,0-.733-.1-.733-.7q.029-19.552,0-39.1c0-.612.236-.679.745-.675,2.017.017,4.034,0,6.05-.011v-.171A33.146,33.146,0,0,1,1455.578,3759.177Z" transform="translate(-26.934 0)" fill="#f57c00"/>
      <path id="Trazado_108950" data-name="Trazado 108950" d="M1456.358,3769.07c-.508,0-.746.063-.745.675q.029,19.552,0,39.1c0,.595.2.706.734.7,1.789-.027,3.579,0,5.367-.02.377,0,.535.072.519.258.117-.4-.07-.549-.689-.577-1.388-.076-2.779-.022-4.17-.028-1.509,0-1.513,0-1.513-1.481v-37.277c0-.99.088-1.07,1.067-1.078,1.417-.012,2.836,0,4.255,0a1.685,1.685,0,0,0,1.214-.271C1460.391,3769.067,1458.375,3769.087,1456.358,3769.07Z" transform="translate(-31.248 -5.739)" fill="#f57c00"/>
    </g>
  </g>
</svg>
