<svg xmlns="http://www.w3.org/2000/svg" width="145" height="145" viewBox="0 0 145 145">
  <g id="Grupo_141781" data-name="Grupo 141781" transform="translate(-694 -9303)">
    <circle id="Elipse_4897" data-name="Elipse 4897" cx="72.5" cy="72.5" r="72.5" transform="translate(694 9303)" fill="#fff"/>
    <path id="Trazado_156452" data-name="Trazado 156452" d="M37.366-15.2H15.157L9.889,0H1.743L23.02-59.008h6.849L50.7,0H42.554Zm-19.9-6.687H35.1L26.5-47.214h-.243ZM85.229,0q-.405-1.986-.628-3.506a25.731,25.731,0,0,1-.263-3.06,18.616,18.616,0,0,1-5.816,5.289A14.873,14.873,0,0,1,70.8.851q-6.849,0-10.436-3.506T56.779-12.32a11.325,11.325,0,0,1,5.086-9.828q5.086-3.546,13.8-3.546h8.673v-4.336a8.044,8.044,0,0,0-2.351-6.1,9.23,9.23,0,0,0-6.646-2.249,9.644,9.644,0,0,0-6.282,1.945,5.837,5.837,0,0,0-2.391,4.661l-7.579.081-.081-.243q-.284-4.782,4.478-8.754t12.3-3.972q7.457,0,12,3.789T92.321-29.95V-8.835A41.1,41.1,0,0,0,92.564-4.3,23.34,23.34,0,0,0,93.456,0ZM71.977-5.836A14.21,14.21,0,0,0,79.8-8.065a10.6,10.6,0,0,0,4.539-5.106V-20.3H75.381a11.618,11.618,0,0,0-7.72,2.432,7.272,7.272,0,0,0-2.9,5.714,6.013,6.013,0,0,0,1.824,4.62A7.635,7.635,0,0,0,71.977-5.836Z" transform="translate(716 9404)" fill="#f57c00"/>
  </g>
</svg>
