<svg xmlns="http://www.w3.org/2000/svg" xmlns:xlink="http://www.w3.org/1999/xlink" width="363" height="240" viewBox="0 0 363 240">
  <defs>
    <filter id="Trazado_156420" x="75.544" y="36.554" width="218.961" height="187.231" filterUnits="userSpaceOnUse">
      <feOffset dy="3" input="SourceAlpha"/>
      <feGaussianBlur stdDeviation="3" result="blur"/>
      <feFlood flood-opacity="0.161"/>
      <feComposite operator="in" in2="blur"/>
      <feComposite in="SourceGraphic"/>
    </filter>
  </defs>
  <g id="Grupo_141725" data-name="Grupo 141725" transform="translate(-1020 -8913)">
    <rect id="Rectángulo_37138" data-name="Rectángulo 37138" width="363" height="240" transform="translate(1020 8913)" fill="#b1f7fd"/>
    <g transform="matrix(1, 0, 0, 1, 1020, 8913)" filter="url(#Trazado_156420)">
      <path id="Trazado_156420-2" data-name="Trazado 156420" d="M178.62-21.526,167.17-17.4q-.687.229-6.3,1.6T147.934-12.6q-6.641,1.145-13.511,1.718t-13.511.572q-3.206,0-6.527-.114t-6.527-.344a.2.2,0,0,1-.229-.229h-2.061l-.229-.229h-1.6a.66.66,0,0,0-.458-.229h-.916a.2.2,0,0,1-.229-.229H100.76l-.229-.229H99.386v-.229H98.47a.66.66,0,0,1-.458-.229H97.1v.229a.66.66,0,0,1,.458.229.2.2,0,0,1,.229.229.66.66,0,0,1,.458.229h.229a.66.66,0,0,0,.458.229l.229.229.229.229h.458l.229.229h.229a.66.66,0,0,0,.458.229h.229a.2.2,0,0,0,.229.229.66.66,0,0,1,.458.229h.458a.66.66,0,0,0,.458.229h.229a.2.2,0,0,0,.229.229h.229a.66.66,0,0,1,.458.229h.458a.2.2,0,0,1,.229.229h.916l.229.229h.687Q91.829,11.221,78.318,22.442v.229l-1.145.687Q59.54,37.785,42.823,37.785a34.951,34.951,0,0,1-6.87-.687q-15.8-2.748-23.129-17.862A49.158,49.158,0,0,1,8.358,4.694,74.928,74.928,0,0,1,7.786-12.48a96.924,96.924,0,0,1,3.321-18.549A103.448,103.448,0,0,1,18.32-49.693,135.841,135.841,0,0,1,27.594-65.38,130.743,130.743,0,0,1,39.273-80.15,84.059,84.059,0,0,1,52.9-92.173a63.869,63.869,0,0,1,14.885-7.9h.229a39.9,39.9,0,0,1,6.412-1.717,36.408,36.408,0,0,1,6.412-.573h1.374a43.9,43.9,0,0,1,4.809.344,24.674,24.674,0,0,1,6.183,1.6,25.448,25.448,0,0,1,6.3,3.664,18.659,18.659,0,0,1,5.152,6.527q3.664,6.87,2.29,16.259l-.458-.687-.229.229v.229h-.229v.229l.458.458h.229l.229-.229a38.683,38.683,0,0,1-.687,4.122q-.458,2.061-.916,3.893h-.458a.2.2,0,0,0-.229-.229.2.2,0,0,1-.229.229.2.2,0,0,1-.229.229v.229h.229a.2.2,0,0,0,.229.229q.229,0,.229-.114t.229-.115a32.042,32.042,0,0,1-1.6,4.58.2.2,0,0,1-.229.229v.229h-.229v.458h.229a71.371,71.371,0,0,1-6.756,12.6,47.915,47.915,0,0,1-8.588,9.847,39.028,39.028,0,0,1-13.969,8.473H73.28l.687.229q5.267.458,10.305.916t10.3.916h.229l8.473-13.053q7.786-12.137,15.687-24.16a259.549,259.549,0,0,1,16.373-22.327l3.206-3.893V-90a.2.2,0,0,1,.229.229H139v.229h.916q.229,0,.229-.114t.229-.115a.933.933,0,0,0,.229-.687v-.458l-.229-.229v-.229h-.458V-91.6h-.229l1.374-1.6v.229a.2.2,0,0,1,.229.229h.458v-.916h-.229q1.6-1.832,2.977-3.435t2.977-3.206a1.012,1.012,0,0,0,1.145,1.145h.687l.229-.229a1.32,1.32,0,0,0,.458-.916q0-1.145-1.374-1.145h-.229l10.763-10.534h.458l.458-.458a.66.66,0,0,1,.229-.458l.458-.229h.229v-.229h.458v-.229h.229l.229-.229v-.687l.687-.458h.687v-.229a.2.2,0,0,0,.229-.229l.229-.229v-.229l1.6-1.374h.229v-.229h.229l.687-.687h.458a1.812,1.812,0,0,0,1.145-.229.933.933,0,0,0,.229-.687v-.458a91.785,91.785,0,0,1,15.114-9.389v-.229h.458v-.229h.687v-.229h.458l.229-.229h.458a.2.2,0,0,1,.229-.229h.458v-.229h.687l.229-.229h.687v-.229h1.145a.2.2,0,0,1,.229-.229h.687a.2.2,0,0,0,.229-.229h1.6l.229-.229h3.664a.2.2,0,0,0,.229.229l.229-.229q.229,0,.229.115t.229.114a8.514,8.514,0,0,1,2.061.229,16.238,16.238,0,0,1,2.061.687l2.977,1.374v.687l.458.458v.229l.229-.229h.229v-.229l.229-.229a.2.2,0,0,1,.229.229q2.977,1.832,3.206,4.122a6.733,6.733,0,0,1-.916,4.809,29.681,29.681,0,0,1-2.519,3.664,7.815,7.815,0,0,1-1.6,1.6,50.5,50.5,0,0,0-5.725,5.725H197.4l-.229.229v.229l-2.29,2.977h-.687l-.229-.229v1.6l-2.519,3.664-.229.229h-.229v.229h-.229v.229h-.229v.229a.2.2,0,0,1,.229.229,31.418,31.418,0,0,0-3.664,6.183h-.458q-.458,0-.458.687v.458l.229.229-1.832,2.977-.229-.229q-.229,0-.229-.115t-.229-.115l-.458.458h.229l.458.687.229.229a4.971,4.971,0,0,0-.916,1.832H183.2v-.458a.66.66,0,0,0-.458-.229h-.458v.229h-.229l-.229.229a.4.4,0,0,0-.458.458v.916h.229v.229h.229v.229h.229v.229h.229v.229A128.882,128.882,0,0,0,177.132-71.1q-1.947,5.382-3.092,8.587h-.229v.229h-.229v.229h-.229v.916h.229l-.458,1.374a.66.66,0,0,0-.229.458l-.229-.229h-.687a.467.467,0,0,0-.344.114.467.467,0,0,1-.343.114h-.458l-.229.229q-.229,0-.229.458a.933.933,0,0,0,.229.687l.458.458h.229a.66.66,0,0,0,.458.229h.458q-1.374,4.351-2.29,8.473t-1.6,8.015H167.17l-.458.458v.687h.229l.229.229h.687l.229-.229q-.458,2.519-.687,4.923t-.458,4.924a25.9,25.9,0,0,1,3.549-.573,8.917,8.917,0,0,0,2.633-.573H174.5a3.515,3.515,0,0,1,1.374.458q.229,0,.687.458a16.193,16.193,0,0,1,2.29,2.29,9.112,9.112,0,0,1,1.374,2.29,5.328,5.328,0,0,1,.916,1.374V-22.9l-.229.229a.2.2,0,0,1-.229.229Zm-92.058,7.1h-.229a33.91,33.91,0,0,1-5.153-1.259q-2.4-.8-4.694-1.489a16.475,16.475,0,0,1-5.954-3.435l-.687-.687-.916-.916-.916-.916v-.229a2.255,2.255,0,0,1-.573-.8,6.283,6.283,0,0,0-.343-.8q-.229,0-.229-.458a1.32,1.32,0,0,1-.458-.916,5.278,5.278,0,0,1,.344-4.236,7.237,7.237,0,0,1,1.717-2.176v-.229L68.7-33.2A105.438,105.438,0,0,0,79-45.685a118.772,118.772,0,0,0,10.076-16.6.2.2,0,0,0,.229.229v.229a.2.2,0,0,1,.229.229h.229L90-61.83l.229-.229A.66.66,0,0,0,90-62.517a.66.66,0,0,1-.229-.458h-.229q1.6-3.435,2.977-6.756a60.7,60.7,0,0,0,2.29-6.526h.229l.229-.229h.229v-.229a.2.2,0,0,1,.229-.229.66.66,0,0,0,.229-.458l.229-.458a.2.2,0,0,0-.229-.229l-.229-.229h-.687q2.29-10.992-5.267-13.053a13.457,13.457,0,0,0-3.206-.458,17.559,17.559,0,0,0-7.671,1.946,46.425,46.425,0,0,0-7.9,4.924A68.554,68.554,0,0,0,63.433-78.2q-3.664,3.779-6.641,7.214-3.206,3.893-5.954,7.557t-4.809,6.641a70.137,70.137,0,0,0-4.351,6.641Q27.938-26.793,24.5-9.618a45.8,45.8,0,0,0-.458,19.236,14.16,14.16,0,0,0,1.145,3.664.467.467,0,0,0,.115.344.467.467,0,0,1,.115.343,19.917,19.917,0,0,0,4.236,6.412,27.872,27.872,0,0,0,4.237,3.435l.687.458q1.6.916,1.6.687,1.145.229,2.29.344t2.29.115q10.534,0,22.671-11.45A106.881,106.881,0,0,0,74.082,2.519Q79.692-4.351,86.333-14.2Zm58.4-12.137v-.229a.2.2,0,0,0,.229-.229,3.93,3.93,0,0,1,1.6-.229h.229v-2.29a.66.66,0,0,0,.458.229h.229v-.229h.229v-.229h-.229L147.476-30h-.229a.2.2,0,0,1-.229.229v-2.863a21.867,21.867,0,0,1,.229-3.091v-.229h.229v-.687a.2.2,0,0,1-.229-.229q.458-3.664.8-7.214a69.945,69.945,0,0,1,1.031-6.985l.458-2.29q1.6-7.328,3.091-12.481t1.947-6.756q2.061-6.87,4.58-13.167t5.267-12.252h.229v.229h.687a.2.2,0,0,0,.229-.229h.229v.458a.66.66,0,0,1,.229.458q0,.229.458.229h.229a.2.2,0,0,1,.229-.229.66.66,0,0,0,.458-.229l.229-.229v-.229q.229-.229-.458-.916h-.458v-.229h-.229v-.229h.458v-.229h.229l.229-.229v-.687h-.229v-.229h-.229v-.229l-.229-.229h-.229v-.229l-.229-.229,1.374-2.748.687-.916-1.145,1.145v-.687l.229-.229v-.458l-.229-.229h-.687l-.229.229v.229h-.229l.229.229v.229l-.458-.458v-.229q-.458-.458-.687-.229h-.229l-.229.229-.229.229v.229q0,.229.458.687v.229h.229q0,.229.114.229t.115.229a.2.2,0,0,1,.229.229.2.2,0,0,1,.229.229h.458l-5.725,6.87v-.458l.229-.229v-.458q0-.458-.229-.458h-.916v-.458l-.229-.229V-98.7h-.229l-.458.229h-.458v.229h-.229v.229h.229l.229.229h.229v.458a.2.2,0,0,0-.229.229.66.66,0,0,1-.458-.229h-.229a.66.66,0,0,1-.458-.229h-.229l-.458-.229h-.229a1.554,1.554,0,0,0-1.145.458.2.2,0,0,0-.229.229q-.687.229,0,.916v.229l.458.458a.2.2,0,0,0,.229.229.66.66,0,0,0,.458.229q.916-.458.916-.916l.229-.229,2.29,1.145-.687.916H158.7a.2.2,0,0,0-.229.229.2.2,0,0,1-.229.229.2.2,0,0,1-.229.229h-.229v.229h-.229v.229h-.229v.229a.66.66,0,0,0,.229.458,239.72,239.72,0,0,0-15,22.785q-6.984,12.023-13.4,23.473-2.977,5.267-5.84,10.305t-5.611,9.618v.229h.229q6.183,0,12.481-.344t12.48-.8v.687h1.832Zm22.671,14.885.229.229q2.061,10.076,7.557,16.488a24.633,24.633,0,0,0,9.618,7.1,6.743,6.743,0,0,1,3.664,2.977,2.611,2.611,0,0,1-.916,2.748q0,.229-1.26,1.374a9.186,9.186,0,0,1-3.32,1.832,13.039,13.039,0,0,1-5.267.916,19.492,19.492,0,0,1-6.183-.916,25.239,25.239,0,0,1-10.076-5.153,32.417,32.417,0,0,1-6.87-8.244,47.173,47.173,0,0,1-4.351-9.847,64.091,64.091,0,0,1-2.29-9.962h.458v-.229h.687a.2.2,0,0,0,.229-.229h.916l.229-.229h.916l.229-.229H153.2a.66.66,0,0,1,.458-.229h1.832a.2.2,0,0,1,.229-.229h4.809l.229.229h1.6a.66.66,0,0,0,.458.229h.916a.2.2,0,0,0,.229.229h.687l.229.229h.458a.66.66,0,0,0,.458.229h.229l.229.229h.229a.66.66,0,0,1,.458.229h.229l.229.229Zm-75.8,8.7a.4.4,0,0,0,.458-.458.66.66,0,0,1-.229-.458v-.229l-.229-.229a1.016,1.016,0,0,0-.114-.458,1.016,1.016,0,0,1-.115-.458h-.229a1.32,1.32,0,0,0-.458-.916l-.229-.229H90v-.229a.2.2,0,0,1-.229-.229v-.458a.2.2,0,0,0-.229-.229q0-.229-.458-.229-.458-.229-.573.115a1.437,1.437,0,0,1-.343.573v.687l-.229.229a1.326,1.326,0,0,0-.229.916v.229a.4.4,0,0,0,.458.458q0,.229.458.229a1.812,1.812,0,0,0,1.145.229.467.467,0,0,1,.344.114.906.906,0,0,0,.572.115q.229,0,.229.115t.229.114a.2.2,0,0,0,.229.229v.458Zm64.578-60.456a.933.933,0,0,0,.229.687.66.66,0,0,0,.229.458.2.2,0,0,1,.229.229h.687a1.32,1.32,0,0,0,.916-.458,3.189,3.189,0,0,0,.229-1.374l-.687-.687q-.229,0-.229-.114t-.229-.115q-.458,0-.458-.229l-.229-.229-1.145-.687q-.458,0-.458.229a.2.2,0,0,0-.229.229l-.229.458a.2.2,0,0,0-.229.229v.229a.2.2,0,0,0,.229.229.2.2,0,0,0,.229.229l.229.229h.687A.66.66,0,0,0,156.407-63.433Zm21.068-15.114v-.229h.229v-.916l-.229-.458-.229-.229v-.229l.687-.687q.458-.458.687-.458a.66.66,0,0,0,.458-.229v-.687h-.687l-.229.229h-.687v-.229h-.458l-.229.229h-.229a1.016,1.016,0,0,0-.458.115,1.016,1.016,0,0,1-.458.115.2.2,0,0,0-.229.229h-.229v.229q0,.229.115.229t.114.229a.467.467,0,0,0,.115.343.467.467,0,0,1,.115.343q.229,0,.229.458a.66.66,0,0,1,.229.458.933.933,0,0,1,.229.687h.229a.4.4,0,0,0,.458.458ZM70.761-95.951a.4.4,0,0,0-.458.458.2.2,0,0,0-.229.229l-.229.229v.458a.933.933,0,0,0-.229.687v.458q.229,0,.229.458l.229.229a.2.2,0,0,1,.229.229h.916a.467.467,0,0,0,.344-.114.467.467,0,0,1,.344-.115.2.2,0,0,1,.229-.229v-1.6a.66.66,0,0,0,.229-.458v-.229a.4.4,0,0,0-.458-.458q0-.458-.687-.458H70.99Zm85.417,36.182v-1.145a.66.66,0,0,1-.229-.458q0-.229-.458-.458v-.229l-.229-.229.229-.229v-.916h-.229v.229H154.8l-.229.229q0,.229-.458.229l-.229.229a.4.4,0,0,0-.458.458.2.2,0,0,0-.229.229v.229q.458,1.145.687,1.145l.458.458a.933.933,0,0,1,.687.229.66.66,0,0,1,.458.229h.458v-.229Zm25.19-46.487a.2.2,0,0,1,.229.229q.687.458.687.687v1.374a.2.2,0,0,0,.229.229h.687v-.229h.229l.458-.458v-.458l-.458-.458H183.2q-.458-.458-.458-.687v-.229q-.229,0-.229-.458v-.229q.687-.229-.229-1.145h-.229q-.458-.458-.687-.458l-.458.229a.2.2,0,0,1-.229.229l-.229.229a.66.66,0,0,0-.229.458l.458.687Q181.139-106.256,181.368-106.256Zm-27.709,2.29a.66.66,0,0,0-.229.458v.229l.458.458v.229a.2.2,0,0,1,.229.229h.687l.229-.229q.229,0,.229-.115t.229-.114l.687-.458.229-.458v-.229q0-1.374-.916-1.374a1.326,1.326,0,0,0-.916.229.2.2,0,0,1-.229.229q0,.229-.115.229t-.115.229v.229Zm3.664,46.029.229.458h.458q.229,0,.229-.115t.229-.114h.229a.933.933,0,0,0,.229-.687v-.229a.2.2,0,0,0-.229-.229v-1.374l-.229-.229h-.229a.2.2,0,0,0-.229-.229h-.916a3.515,3.515,0,0,0-.458,1.374.933.933,0,0,1,.229.687l-.229.458v.687l.458-.458Zm15.114-6.87h-.687v.229a.933.933,0,0,0-.687.229H170.6a.66.66,0,0,1-.458.229.66.66,0,0,0-.229.458q0,.458.229.458.458,0,.458.229a.2.2,0,0,1,.229.229.9.9,0,0,0,.916.687h.458a.2.2,0,0,1,.229-.229.66.66,0,0,0,.229-.458q0-.229.114-.229t.115-.229v-.229l.229-.229v-.458Zm15.8-54.044a1.326,1.326,0,0,0,.229.916l.229.229h1.145a.467.467,0,0,0,.343-.115.467.467,0,0,1,.344-.114v-1.6q0-.229-.687-.916h-.916q-.458,0-.458.229h-.229Zm-2.977,7.786h.229l.229-.229a.933.933,0,0,0,.229-.687v-.916l-.458-.458h-.916l-.229.229-.229-.458-.229-.229h-.229l-.229-.229H183.2v.229a.66.66,0,0,0-.229.458v.229a.66.66,0,0,1,.229.458.2.2,0,0,1,.229.229v.229l.458.687.458.229a.467.467,0,0,1,.344.114.467.467,0,0,0,.344.115Zm-19.923.229a.66.66,0,0,0-.458-.229h-.229a.2.2,0,0,0-.229.229.2.2,0,0,1-.229.229.467.467,0,0,0,.114.344.466.466,0,0,1,.115.343v.229a.2.2,0,0,1,.229.229q.229.229-.458.916a.933.933,0,0,0-.229.687.2.2,0,0,1,.229.229l.229.229.229.229h.229a.2.2,0,0,1,.229-.229v-.229q.458,0,.458-.229v-.458q.229,0,.229-.115t.229-.115h.229l.229-.229v-.458a.2.2,0,0,0-.229-.229.66.66,0,0,0-.229-.458v-.229H165.8v-.229h-.229A.66.66,0,0,0,165.338-110.836Zm6.412,29.541q-.687.687-1.145.458l-.458.458h.229v.229h.229l.229.229h.229v.458a.2.2,0,0,1,.229.229h.229l.229.229h-.229l-.458.458v1.374l.916-.916v-.687L171.75-79h.458l.687-.458a.66.66,0,0,1,.229-.458v-.687a.66.66,0,0,0-.458-.229v-.229l-.229-.229a.2.2,0,0,0-.229-.229q-.229,0-.229.115T171.75-81.295Zm9.618-16.259a.2.2,0,0,1-.229-.229l-.229-.458a.2.2,0,0,1-.229-.229h-.458v.229h-.229v.229q-.458.458-.687,0a.2.2,0,0,0-.229-.229h-.458q-.229,0-.229.114t-.229.115a.66.66,0,0,0-.458.229.933.933,0,0,0-.687.229v.229a.933.933,0,0,0,.229.687v.229l.229.229a.2.2,0,0,1,.229-.229h.229l.229-.229a1.866,1.866,0,0,1,1.374-.458h.229l.229.229h.229a.66.66,0,0,0,.458.229h.229a.4.4,0,0,0,.458-.458Zm6.641-6.183q0,.229.458.229v.229h.229a.2.2,0,0,1,.229.229h.229l.229.229h.458a.2.2,0,0,0,.229.229l.229.229a.2.2,0,0,0,.229.229h.458q.229,0,.229-.114t.229-.115v-.229l.229-.229h-.229a.66.66,0,0,0-.229-.458l-.687-.916a.933.933,0,0,0-.687-.229l-.229-.229h-.458q-.687-.458-1.145.458Zm-20.381-12.137a4.017,4.017,0,0,0-1.145-.458.286.286,0,0,0-.458,0,.933.933,0,0,0-.229.687.467.467,0,0,0,.115.343.467.467,0,0,1,.115.344v.687a.2.2,0,0,1,.229.229.66.66,0,0,1,.458.229h.458q0-.229.115-.229t.115-.229h.458l.458.458q.229,0,.229-.114t.229-.115A.66.66,0,0,0,169-114.5v-.687h-.229l-.229-.229q-.229,0-.229.115t-.229.114q-.458.458-.687,0v-.229l.229-.229Zm9.16,5.5q-1.145,0-1.145.916-.229,0-.229.458,0,.229.458.687t.687.458q1.6,0,1.6-1.374a.467.467,0,0,0-.115-.343.467.467,0,0,1-.115-.343H177.7A1.32,1.32,0,0,0,176.788-110.378Zm-2.977-9.389v.229h-.229v.458q0,.229.458.687a.2.2,0,0,1,.229.229h.229q.687,0,.687-.458v-.229h.229l.229-.229v.229h.229v.229a.66.66,0,0,1,.458.229h.229l.229-.229h.229v-.229l-.229-.229a.2.2,0,0,1-.229-.229.2.2,0,0,1-.229-.229H176.1v-.916h-1.145l-.229.229-.458.229h-.229Zm-7.328,55.418q0-.229.458-.229l.687.458H169q0-.229.115-.229t.115-.229v-.687q-.229,0-.229-.115t-.229-.115a.2.2,0,0,1-.229-.229h-.229a.467.467,0,0,0-.344.114.467.467,0,0,1-.343.115l-.229.229-.229-.229v-.229a.66.66,0,0,0-.458-.229h-.229q-.229,0-.687.458v.687l.458.458ZM89.768-97.325l-.229.229v.229a.2.2,0,0,0-.229.229l-.229.229v.229l.229.229.229.229v.229h.229q.229,0,.229.114t.229.115h.229l.458-.458a.66.66,0,0,0,.229-.458l-.229-.458a.2.2,0,0,1-.229-.229.66.66,0,0,1,.229-.458v-.687a.2.2,0,0,1-.229-.229H90l-.229.229Zm70.074-11.908q-.458.458,0,.687v.229a1.553,1.553,0,0,0,1.145.458.2.2,0,0,1,.229.229,1.32,1.32,0,0,0,.916-.458v-.687l-.229-.458a.4.4,0,0,0-.458-.458H160.3q-.229,0-.229.115t-.229.115Zm9.847,14.427-.229.229h-.229q-.229,0-.229.114t-.229.115l-.229.458a.2.2,0,0,0-.229.229q0,.229.114.229t.115.229l.458.458h.458l.229-.229q.229,0,.687-.458l.229-.229q.458-.458.229-.687v-.229l-.458-.458h-.458ZM147.705-24.732q.687,0,1.145-.916v-.229l-.229-.458-.229-.229q0-.458-.687-.458h-.229l-.458.458a.933.933,0,0,0-.229.687Q146.789-24.732,147.705-24.732ZM157.094-109q0,.458.916.916h.458a.66.66,0,0,0,.458.229q.458,0,.458-.229a.933.933,0,0,0,.229-.687l-.229-.229h-.229v-.229a.2.2,0,0,1-.229-.229.2.2,0,0,1-.229-.229h-.229a.2.2,0,0,0-.229-.229,1.554,1.554,0,0,0-1.145.458ZM149.537-87.02a.2.2,0,0,1-.229.229l-.229.229-.229.458q0,.229.458.687l.229.229q.229,0,.229.115t.229.114a1.32,1.32,0,0,0,.916-.458.2.2,0,0,0,.229-.229V-86.1q0-.916-1.145-.916Zm44.884-30.228q0-1.145-.916-1.145h-.229a.933.933,0,0,0-.687.229.933.933,0,0,0-.229.687.2.2,0,0,0-.229.229l.458.687a.933.933,0,0,0,.687.229,1.32,1.32,0,0,0,.916-.458q0-.229.115-.229T194.421-117.248Zm3.206,6.87a.933.933,0,0,0-.229-.687l-.458-.229h-.229a.467.467,0,0,0-.344.114.467.467,0,0,1-.344.115q-.458,0-.458.229a.933.933,0,0,0-.229.687q0,.229.115.229t.114.229q0,.229.458.229h1.145l.229-.229h.229ZM96.409-69.387q.458.458.687.458a.2.2,0,0,0,.229.229h.229q.687,0,.687-.229a.933.933,0,0,0,.229-.687v-.229q0-.229-.114-.229t-.115-.229a.66.66,0,0,1-.458-.229h-.229a.66.66,0,0,0-.458-.229h-.229v.229a.933.933,0,0,0-.687.229v.229l.229.458Zm51.067-24.045q0,.229.458.687v.229a.933.933,0,0,0,.687.229h.458l.229-.229q.458-.458.458-.687-.687-1.145-1.374-1.145a.9.9,0,0,0-.916.687Zm22.9-8.931a.2.2,0,0,0-.229-.229l-.229-.229h-.229a.66.66,0,0,1-.458.229H169q-.229,0-.687.916v.229l.229.229v.229a.66.66,0,0,1,.229.458H169a.2.2,0,0,0,.229.229h.229a.66.66,0,0,0,.229-.458l.458-.687v-.687ZM75.341-92.745A1.012,1.012,0,0,0,76.486-91.6q.229,0,.687-.458,0-.229.114-.229t.115-.229v-.458a.2.2,0,0,0-.229-.229v-.229a.933.933,0,0,0-.687-.229H75.8l-.229.229a.66.66,0,0,1-.229.458ZM91.371-59.54a.2.2,0,0,1-.229-.229A.2.2,0,0,1,90.913-60h-.229q-.916-.458-1.145.229a.2.2,0,0,0-.229.229v1.374h.229v.687H90v-.229q.687,0,.229-.458l.229-.229v-.229h.229v-.229a.66.66,0,0,0,.458-.229l.229-.229Zm86.1-60.227h1.6a.66.66,0,0,0,.458-.229.66.66,0,0,1,.229-.458v-.229h.229q.229,0,.229-.114t.229-.115v-.229h.229l-.229-.229a.66.66,0,0,0-.458-.229h-.916l-.229.229q-.229,0-.229.114t-.229.115v.229l-.458.458Zm-9.618,47.174q.458-.458.687-.458a.933.933,0,0,1,.687-.229v-.229h.229v-.458h-.229L169-74.2a.467.467,0,0,1-.343-.115.906.906,0,0,0-.572-.114l-.229-.229-.687.458q-.229,0-.229.458l.458.916.229.229ZM80.837.229a1,1,0,0,0,.229-1.374.2.2,0,0,0-.229-.229L80.608-1.6h-.229a1.32,1.32,0,0,0-.916.458v.229a.933.933,0,0,0-.229.687.66.66,0,0,1,.229.458.467.467,0,0,1,.344.114.467.467,0,0,0,.343.115q.458,0,.458-.115T80.837.229ZM199.23-122.286q-.229,0-.229.114t-.229.115v.687H199v.229h1.6a.467.467,0,0,0,.343-.115.467.467,0,0,1,.344-.114v-.229h.229v-.229a.2.2,0,0,0-.229-.229v-.229h-.229a.933.933,0,0,0-.687-.229q-.458,0-.458.229h-.229v-.229h-.229ZM172.666-76.257h.458a.66.66,0,0,0,.229-.458h.229v-.229l-.229-.229V-77.4a.2.2,0,0,0-.229-.229v-.229h-.687l-.916.458-.229.458h-.229v.229l.229.229a1.326,1.326,0,0,0,.916.229l.229.229h.229Zm-18.32,46.716a.467.467,0,0,0,.343-.115.467.467,0,0,1,.343-.114h.687a.2.2,0,0,1,.229-.229v-.458l-.229-.229a.2.2,0,0,0-.229-.229h-1.832a.2.2,0,0,1-.229.229v.229a.2.2,0,0,0-.229.229.66.66,0,0,0,.229.458.467.467,0,0,1,.344.114.466.466,0,0,0,.343.115ZM70.761,13.511a.2.2,0,0,0,.229-.229.2.2,0,0,0,.229-.229v-.916h-.458q0-.229-.458-.229v.229h-.229a.2.2,0,0,0-.229.229h-.229l-.229.229v.229l-.229.229q0,.229.115.229t.115.229v.229h1.374Zm112.9-129.156v.458a.2.2,0,0,0,.229.229v.229a.607.607,0,0,0,.687.687v-.229q.229,0,.687-.458v-.687a.467.467,0,0,0-.115-.344.467.467,0,0,1-.114-.343.933.933,0,0,0-.687-.229h-.458a.2.2,0,0,1-.229.229Zm-3.664,29.312q.229,0,.229.114t.229.115a.2.2,0,0,0,.229.229.2.2,0,0,1,.229-.229l.229-.229v-.687h-.229v-1.145h-.229l-.229-.229a.923.923,0,0,0-.916.458v.458a.2.2,0,0,0,.229.229v.229h.229ZM88.852-.687a.66.66,0,0,0-.229-.458.66.66,0,0,0-.458-.229h-.229a.933.933,0,0,0-.687.229Q86.562-.458,87.02,0V.229a.66.66,0,0,1,.458.229,1.016,1.016,0,0,0,.458-.115,1.016,1.016,0,0,1,.458-.114L88.623,0a.467.467,0,0,1,.114-.343A.467.467,0,0,0,88.852-.687Zm82.669-109.691a.2.2,0,0,0-.229-.229l-.229-.229h-.229a.2.2,0,0,0-.229-.229h-.229a.2.2,0,0,1-.229.229.2.2,0,0,0-.229.229v.458a.2.2,0,0,0,.229.229l.229.229h.687a.607.607,0,0,1,.687.687.66.66,0,0,1,.458.229.2.2,0,0,0,.229-.229h.229v-.229l-.229-.229v-.229Zm6.412-6.87q0-.916-1.145-.916-.916,0-.916.687v.229l.229.229v.229h.229q.458.458.687.458.687,0,.687-.458A.66.66,0,0,0,177.933-117.248Zm-25.19,90.913-.229-.229v-.458a.66.66,0,0,1-.458-.229.2.2,0,0,0-.229.229H151.6v.229a.66.66,0,0,1-.229.458.66.66,0,0,0-.229.458h-.229v.458l.229.229.229.229h.687l.229-.229a.933.933,0,0,0,.229-.687l.229-.229Zm30-68.242a.607.607,0,0,0,.687-.687.933.933,0,0,0-.229-.687.66.66,0,0,0-.229-.458l-.229-.229h-.229a.2.2,0,0,0-.229.229,1.32,1.32,0,0,0-.458.916v.687h.229q0,.229.458.229Zm14.2-23.358a.2.2,0,0,1-.229.229v.229q-.229,0-.229.458v.229q.458.458.687.458t.687-.458l.229-.229v-1.374h-.229v-.229h-.687v.458A.2.2,0,0,1,196.94-117.935ZM96.409-65.036q-.229,0-.229-.114t-.229-.115a.2.2,0,0,0-.229-.229.2.2,0,0,1-.229-.229h-.229l-.229-.229h-.229v-.229l-.229-.229v1.145a1.32,1.32,0,0,1,.458.916l.229.229a.66.66,0,0,0,.458.229h.458v-.229h.229Zm89.081-57.479a.607.607,0,0,0-.687.687.2.2,0,0,0-.229.229.467.467,0,0,0,.115.344.467.467,0,0,1,.114.343,1.326,1.326,0,0,0,.916.229h.229l.458-.458v-.229a1.32,1.32,0,0,0-.458-.916Q185.948-122.515,185.49-122.515ZM154.117-43.281a.933.933,0,0,0,.229.687v.229l.229.229h.229l.229.229q.229,0,.229-.115t.229-.114v-.229h.229l-.229-.229v-1.145L154.8-44.2l-.229-.229v.229l-.229.229v.229a.2.2,0,0,0-.229.229Zm26.106-70.761q0-1.145-.458-1.374l-.458-.229h-.229a.2.2,0,0,1-.229.229.66.66,0,0,0-.229.458v.458l.229.229.687.687a.66.66,0,0,0,.458-.229ZM73.738,17.633a.2.2,0,0,1-.229-.229.933.933,0,0,0-.687-.229h-.229l-.458.458v.458a.2.2,0,0,0,.229.229v.458h.229q.229,0,.229.115t.229.115h.458l.229-.229Zm94.119-125.492v.229a.2.2,0,0,1,.229.229h.229l.229.229q.229,0,.687-.458a.66.66,0,0,0,.229-.458v-.687q-.229,0-.229-.114t-.458-.115q-.687,0-1.145.916v.229ZM190.3-98.7q0-.916-1.145-.916a.4.4,0,0,0-.458.458v.458a.933.933,0,0,0,.229.687l.458.229h.229A.9.9,0,0,0,190.3-98.7ZM87.478-99.844l-.229.458q0,.916,1.145.916a.2.2,0,0,0,.229-.229q.229,0,.687-.458v-.229a.2.2,0,0,0-.229-.229.2.2,0,0,0-.229-.229h-.229a.2.2,0,0,0-.229-.229h-.458q-.229,0-.229.114T87.478-99.844Zm95.951-23.129v-.229h.229l.916-.687.229-.458a.66.66,0,0,0-.229-.458h-.229v-.229h-.229a.2.2,0,0,1-.229.229l-.458.458-.458.458-.229.229v.687ZM168.086-99.157q-.229.458-.115.572a.467.467,0,0,1,.115.344.933.933,0,0,0,.687.229H169a.66.66,0,0,0,.229-.458.2.2,0,0,0,.229-.229v-.458a.2.2,0,0,1-.229-.229v-.229L169-99.844l-.229-.229h-.229a.2.2,0,0,0-.229.229l-.229.229ZM187.322-114.5q-.458,0-.458-.229h-.458q0,.229-.115.229t-.115.229a.572.572,0,0,0,0,.916l.229.229a.2.2,0,0,0,.229.229l.458.458v-.458a.2.2,0,0,0,.229-.229.2.2,0,0,1,.229-.229v-.687A.66.66,0,0,0,187.322-114.5ZM98.241-59.54q.916,0,.916-.687,0-.229-.458-.687,0-.229-.458-.229h-.458q-.458.458-.458.687,0,.458.229.458v.229a.66.66,0,0,0,.458.229Zm86.333-68.242q-.916,0-.916,1.145a.607.607,0,0,0,.687.687h.229q.458,0,.458-.229a1.326,1.326,0,0,0,.229-.916v-.229l-.229-.229a.2.2,0,0,1-.229-.229ZM146.1-21.984a.607.607,0,0,0-.687-.687q-.229,0-.687.458v.229a.2.2,0,0,0-.229.229.66.66,0,0,0,.229.458v.229a.467.467,0,0,1,.343.115.467.467,0,0,0,.343.115h.229l.458-.458Zm45.342-106.485h.229v.229q0,.458.229.458,0,.687.458.687h.229l.458-.458v-.229l-.687-1.145v-.229l-.229-.229H191.9l-.229.229a.2.2,0,0,0-.229.229Zm-.916,14.427a1.32,1.32,0,0,0-.458.916l.229.458a.933.933,0,0,0,.687.229h.229a1.32,1.32,0,0,0,.458-.916v-.458q-.229,0-.229-.114t-.458-.115ZM156.636-67.1v-.229a.2.2,0,0,1-.229-.229.2.2,0,0,1-.229-.229.2.2,0,0,1-.229-.229h-.229v.229h-.229l-.229.229h-.229v.229H154.8a.66.66,0,0,1-.458.229l-.229.229.229.229a.2.2,0,0,0,.229.229h.229a.66.66,0,0,0,.458-.229l.458-.458.458.458h.458v-.229a.2.2,0,0,0,.229-.229Zm24.045-47.4a.2.2,0,0,0-.229.229v.229q0,.229.115.229t.115.229h.229q0,.229.458.229h.458l.458-.458v-.229q0-.687-.916-.687h-.458ZM155.033-72.364q-.687,0-.687,1.145v.229l.458.458q.458,0,.916-.687v-.687Q155.262-72.364,155.033-72.364ZM164.422-33.2a.2.2,0,0,1,.229.229l.229.229h.458v-.229h.458a.66.66,0,0,1,.229-.458v-.458H165.8v-.229q-.229,0-.229-.114t-.229-.115h-.458q-.458,0-.458.687Zm13.74-54.96a.933.933,0,0,0-.687-.229h-.229q0,.229-.115.229t-.115.229a1.326,1.326,0,0,0,.229.916h.229l.458.229q.458,0,.458-.229.229,0,.229-.458l-.229-.458Zm16.488-30.457.916.458.229-.229h.229q.458,0,.458-.229a.66.66,0,0,0,.229-.458q-.458-.458-.687-.458,0-.229-.229,0h-.458a.2.2,0,0,1-.229.229l-.229.229a.2.2,0,0,1-.229.229ZM94.577-89.768v.229h.458A.66.66,0,0,0,95.264-90h.229l-.229-.229v-.229l-.229-.229h.229l.229-.229a.66.66,0,0,0,.229-.458l-.229-.458v-.229h-.229a.2.2,0,0,0-.229.229l-.229.229v.229h-.229q0,.458.229.458v.229l-.229.229-.229.229v.458Zm2.29,13.053-.458.458H96.18v.229a.66.66,0,0,0,.229.458v.229l.229.229h.229a.933.933,0,0,0,.687-.229l.229-.229v-.458a.607.607,0,0,0-.687-.687Zm71.448,10.763h.229l.458.458h.687a.2.2,0,0,1,.229-.229v-.229a1.346,1.346,0,0,0-.687-1.145q-.687,0-.687.458a.66.66,0,0,0-.229.458Zm-17.633,38.93a.4.4,0,0,0,.458-.458v-.229q0-.458-.916-.458l-.458.229-.458.458v.229h-.229l.916.458h.458Zm44.655-85.417a.66.66,0,0,1,.458-.229l.229-.229-.229-.229v-.229a.2.2,0,0,1-.229-.229h-.916q-.458,0-.458.229a.2.2,0,0,0-.229.229v.229l.229.229q0,.229.458.229ZM66.41-93.89q-.229,0-.229.458,0,.916.687.916H67.1a.607.607,0,0,0,.687-.687q0-.458-.229-.458a.2.2,0,0,0-.229-.229Zm114.5-25.877a.66.66,0,0,0,.229.458h.458a.2.2,0,0,0,.229-.229h.458l-.229-.229V-120l-.229-.229v-.229q0-.229-.115-.229t-.115-.229v-.229a.2.2,0,0,1-.229-.229h-.229a.2.2,0,0,0-.229.229ZM72.364-93.2v.916q0,.229.458.229h.229a.2.2,0,0,0,.229.229l.229-.229.229-.229v-.458l-.229-.229V-93.2H73.28a.66.66,0,0,1-.458-.229h-.229Zm99.157,8.7a.607.607,0,0,0,.687.687.933.933,0,0,0,.687-.229.2.2,0,0,1,.229-.229l.229-.229h-.229v-.229a.2.2,0,0,1-.229-.229.933.933,0,0,0-.687-.229h-.229l-.229.229h-.229Zm6.87,9.389a.66.66,0,0,0,.229-.458.2.2,0,0,0,.229-.229.66.66,0,0,0-.229-.458q0-.229-.458-.229h-.229l-.229.229h-.229l-.229.229v.229l.229.229q0,.229.458.687A.66.66,0,0,0,178.391-75.112Zm-12.824-36.182h.229q0,.229.458.229a.607.607,0,0,0,.687-.687v-.458l-.458-.229-.229-.229h-.229v.229l-.229.229-.229.458ZM150.453-21.526l-.229-.229v-.229h-.229q-.458-.458-.458,0h-.916a.2.2,0,0,1-.229.229v.229a.2.2,0,0,0,.229.229q0,.229.458.229h.916a.2.2,0,0,0,.229-.229h.229Zm14.2-80.15q0-.458-.229-.458h-.687v.229q-.458,0-.458.229l-.229.229v.458h.458l.229.229h.458v-.229a.4.4,0,0,0,.458-.458Zm8.7-15.572a.607.607,0,0,0,.687.687h.229l.229-.229q.229,0,.229-.458a.607.607,0,0,0-.687-.687h-.229a.66.66,0,0,0-.458.229Zm-12.6,14.885q.687,0,.687-.458v-.229q.229-.687-.687-.687H160.3v.229q-.229,0-.229.458,0,.229.458.687ZM68.929-98.012a.4.4,0,0,0,.458.458v.229h.229v.229l.687-.687v-.229q0-.458-.687-.916-.229,0-.687.458Zm130.759-13.282q-.229,0-.229-.115t-.229-.114l-.458-.458q-.229,0-.687.458l-.229.229q0,.458.229.458,0,.229.458.229h.229a.66.66,0,0,0,.458-.229l.229-.229h.229ZM165.567-70.761a.66.66,0,0,0,.458.229q.458.458.687.458h.916v-.687q-.458-.458-.687-.229h-1.374l-.229.229Zm-9.618,46.487V-24.5h-.229l-.229-.229.229-.229v-.229a.2.2,0,0,0-.229-.229v-.229a.2.2,0,0,1-.229-.229h-.229a.2.2,0,0,1-.229.229v.229l-.229.229v.229a.2.2,0,0,1,.229.229h.229v.229h.229l.229-.229v.458a.2.2,0,0,0-.229.229v.229h.229v.229h.229v-.229h.229l.229-.229ZM85.188-2.977a1.326,1.326,0,0,0-.229-.916l-.229-.229q-.229,0-.687.458v.687a.66.66,0,0,0,.458.229v.229h.687Zm84.043-66.181h.229v.229l.229.229h.458l.229-.229a1.32,1.32,0,0,0,.458-.916H170.6v-.229h-.458q-.458.458-.687.458a.2.2,0,0,1-.229.229Zm-9.618,31.831a.4.4,0,0,0-.458-.458q-.458,0-.458.229h-.229a.467.467,0,0,1-.114.344.466.466,0,0,0-.115.343l.229.229v.229h.229v.229h.229a.2.2,0,0,1,.229-.229v-.229a.2.2,0,0,0,.229-.229.2.2,0,0,0,.229-.229ZM174.04-67.1h-.229v-.458q0-.229-.458-.229h-.229a.2.2,0,0,1-.229.229v.458l.458.916h.458a.2.2,0,0,0,.229-.229Zm-4.122,5.954V-61.6l-.229-.229h-.229q-.229,0-.229-.114T169-62.059l-.687.687h.229a.2.2,0,0,0,.229.229q.458.458.687.458.458,0,.458-.229Zm-14.2,39.388q.229-.229-.687-.687H154.8l-.229.229-.229.229v.229l.687.687q.229,0,.687-.458Zm39.388-99.386.458.458.458.229v-.229a.2.2,0,0,0,.229-.229.4.4,0,0,0,.458-.458.4.4,0,0,0-.458-.458v-.229h-.229Zm6.183,7.786q0-.458-.687-.458l-.229-.229v.229h-.229v.229a.2.2,0,0,0-.229.229v.229q0,.458.687.458h.458v-.229a.2.2,0,0,0,.229-.229ZM168.315-21.3a.2.2,0,0,1-.229-.229h-.229l-.229-.229a.2.2,0,0,0-.229.229l-.687.687-.229.458h.229v.229h.229l.229-.229q0-.229.458-.229a.4.4,0,0,0,.458-.458h.229Zm2.519-84.5a.66.66,0,0,0,.229-.458v-.229l-.229-.229-.229-.229-.229-.229-.916.916h.229l.458.458Zm-6.412,37.1q.458-.687,0-1.145h-.229a.933.933,0,0,0-.687.229v.687h.229a.2.2,0,0,0,.229.229.2.2,0,0,0,.229.229l.229.229Zm6.87,1.6q.458.458.458.687a.2.2,0,0,0,.229.229v.229h.458v-.229h.229v-.458l-.229-.229q-.458-.458-.458-.687h-.229v.229h-.458ZM150.453-29.083h.229v-.229l.458-.458V-30a.2.2,0,0,0-.229-.229v-.229h-.229v-.229l-.916.916Zm20.61-84.272h-.229v-.229a.2.2,0,0,1-.229-.229h-.229v.229a.2.2,0,0,0-.229.229l-.229.458.229.458.229.229h.229a.2.2,0,0,1,.229-.229v-.229a.2.2,0,0,0,.229-.229ZM79.921,9.16l.229-.229V8.7a.2.2,0,0,0,.229-.229V7.786l-.229.229h-.687l-.229.229V9.16Zm81.066-82.9v-.229h.229a.66.66,0,0,1,.229-.458v-.458h-.229v-.229a.2.2,0,0,1-.229-.229h-.229q0,.229-.115.229t-.115.229q-.229,0-.229.458v.229a.2.2,0,0,1,.229.229h.229v.229ZM169-58.853l-.687-.916-.458.458q0,.229-.114.229t-.115.229a.66.66,0,0,1,.229.458h.458q.458,0,.458-.229H169Zm4.122-47.174h-.916q-.687.687-.687.916v.458a.2.2,0,0,0,.229.229v-.229a.2.2,0,0,0,.229-.229v-.229l.229-.229h.458l.229-.229h.229Zm-68.7,32.289.229.458a.2.2,0,0,1,.229.229h.458v-.229a.2.2,0,0,0,.229-.229v-.229a.66.66,0,0,0-.229-.458l-.229-.229h-.229l-.229.229h-.229ZM72.593-96.18v.229l.229.229a.66.66,0,0,0,.458.229.66.66,0,0,0,.458-.229l.458-.458h-.229l-.229-.229a.66.66,0,0,0-.458-.229.66.66,0,0,0-.458.229ZM166.025-24.5a.66.66,0,0,0-.229-.458.2.2,0,0,1-.229-.229l-.229-.229-.687.916h.229v.229a.66.66,0,0,0,.458.229Q166.025-24.045,166.025-24.5ZM160.3-61.6q-.458-.229-.573-.114a.467.467,0,0,1-.343.114.2.2,0,0,1-.229.229v.916h.458a.2.2,0,0,0,.229-.229q.229,0,.229-.458h.229ZM72.364,7.328V6.87a.2.2,0,0,0-.229-.229L70.99,7.786v.229h.229a.906.906,0,0,0,.573-.115.467.467,0,0,1,.344-.114l.229-.229ZM83.814.458q.229-.229,0-.229V-.229H82.9V.687l-.229.229h.687q.458,0,.458-.229ZM71.219-98.47l.229.458.229.229h.229a.2.2,0,0,1,.229-.229v-.229h.229v-.687h-.229a.2.2,0,0,0-.229-.229h-.229v.229h-.229q0,.229-.114.229T71.219-98.47ZM174.5-104.195a.2.2,0,0,0-.229-.229q-.229,0-.229-.114t-.229-.115h-.229l-.229.229v.229h-.229v.229h.229v.229q.229,0,.229.115t.229.115h.229a.2.2,0,0,1,.229-.229l.229-.229Zm26.793-12.366a.66.66,0,0,0-.229-.458.2.2,0,0,1-.229-.229l-.229-.229v.229h-.229v.229a.66.66,0,0,0-.229.458v.229a.2.2,0,0,1,.229.229h.229v.229l.229-.229Zm-17.862,18.32-.229-.229a.2.2,0,0,1-.229.229l-.229.229v.687h.229a.2.2,0,0,0,.229.229.66.66,0,0,0,.458-.229l.229-.229Zm-12.137-.687-.687-.687-.229.229a.66.66,0,0,1-.229.458v.229q0,.229.115.229t.115.229l.229.229ZM67.326-98.7v.229h.229v.229l.229-.229.229-.229v-.229h.229v-.229l-.229-.229h-.229v-.229h-.458a.2.2,0,0,1-.229.229v.687Zm83.356,48.548a.66.66,0,0,0,.458-.229l.229-.229h.229v-.229h-.229l-.229-.229q-.229,0-.229-.114t-.229-.115l-.229.229h-.229v.229Q150.224-50.151,150.682-50.151Zm29.083-29.77-.229-.229-.229-.229-.229-.229h-.229a.4.4,0,0,0-.458.458v.458q.229,0,.229.115t.229.115q.229,0,.229-.115t.229-.115l.229-.229ZM162.59-58.853v.229l.458.458.229.229.229-.229a.2.2,0,0,1,.229-.229v-.229q0-.229-.115-.229t-.115-.229h-.229v-.229h-.229v.229h-.229v.229Zm13.053-37.785h.229v.229h.229l.229-.229h.229v-.229h.229V-97.1l-.687-.687v.229l-.229.229a.66.66,0,0,0-.229.458ZM161.9-98.7a.66.66,0,0,0-.229-.458l-.229-.229h-.458a.66.66,0,0,0-.229.458.2.2,0,0,0,.229.229v.229l.229.229h.229a.2.2,0,0,1,.229-.229ZM98.241-73.967q-.458,0-.458.229h-.229v.229l.458.687.916-.687H98.7v-.229l-.229-.229Zm61.6,16.03a.4.4,0,0,0,.458-.458v-.229h-.229v-.229l-.229-.229h-.229a.2.2,0,0,1-.229.229v.229l-.229.229v.229h.229a.4.4,0,0,0,.458.458Zm4.809-14.427-.229-.229v-.229l-.229-.229h-.229v.229h-.229l-.229.229v.229l.229.229v.229h.229l.229.229v-.229a.2.2,0,0,0,.229-.229Zm11.221-31.373h.229v.229q.229,0,.229.114t.229.115l.458-.458v-.229l-.458-.458a.66.66,0,0,0-.458.229.2.2,0,0,0-.229.229h-.229ZM174.04-89.768h-.229a.66.66,0,0,0-.458-.229q-.229,0-.229.115t-.229.115v.458l.229.229h.229v.229a.2.2,0,0,1,.229-.229.2.2,0,0,0,.229-.229h.229Zm1.145-31.6.229.458h.229v.229h.229v-.229h.229a.66.66,0,0,1,.229-.458q0-.458-.687-.458h-.229a.2.2,0,0,1-.229.229Zm-10.992,7.786a.2.2,0,0,1,.229.229h.229v-.229h.229v-.229h.229a.66.66,0,0,0-.229-.458l-.458-.458v.229l-.229.229-.229.458Zm-.229,3.435-.458.458h-.229l.458.916.458-.458.229-.229a.66.66,0,0,0-.229-.458Zm33.663-2.29a.66.66,0,0,0,.229-.458v-.229l-.229-.229h-.458l-.229.229v.229a.66.66,0,0,0,.229.458l.229.229v.229l.229-.229ZM92.287-92.516h.229a.2.2,0,0,0,.229.229.66.66,0,0,0,.458.229q.229,0,.229-.115t.229-.115v-.458a.2.2,0,0,1-.229-.229h-.458l-.229.229h-.229Zm95.493-17.633-.229-.229h-.229v-.229h-.458a.2.2,0,0,0-.229.229.2.2,0,0,0-.229.229v.229l.458.229a.66.66,0,0,0,.458-.229l.229-.229ZM161.9-64.349v-.229l-.229-.229v-.229l-.229.229a.2.2,0,0,0-.229.229v.229a.2.2,0,0,0-.229.229h.229v.229l.229.229h.229l.458-.687Zm7.786-50.609.458.458h.229l.229-.229h.229l.229-.229v-.229h-.229l-.229-.229h-.458l-.229.229v.229ZM187.78-97.783l-.458.458h.229v.229l.458.458v-.229l.229-.229.229-.229v-.229l-.229-.229a.2.2,0,0,1-.229-.229h-.229Zm-19.923-19.236a.2.2,0,0,0,.229.229l.229.229a.66.66,0,0,0,.458-.229l.229-.229h.229l-.229-.229h-.229v-.229h-.458l-.229.229h-.229Zm-1.6,89.31-.229-.229v-.229H165.8V-28.4l-.687.687v.229h.229l.229.229h.229q.229,0,.229-.114t.229-.115ZM80.379,17.175v-.229l-.229-.458h-.687V17.4h.458a.2.2,0,0,1,.229.229Zm74.2-84.73h.229v-.229l.458-.458q0-.229-.114-.229t-.115-.229h-.458a.66.66,0,0,1-.229.458l-.229.229Zm8.015-44.2v.229h-.229v.229l.458.458h.229l.229-.229h.229l.229-.229h-.229v-.229h-.229a.66.66,0,0,0-.458-.229Zm-63.2,28.4.229-.229a.66.66,0,0,0,.229-.458.2.2,0,0,0-.229-.229.2.2,0,0,0-.229-.229h-.229a.2.2,0,0,1-.229.229v.229H98.7ZM148.621-38.7h-.229v-.229h-.229a.2.2,0,0,1-.229.229q0,.229-.115.229t-.115.229q0,.229.115.229t.115.229h.458v-.229a.2.2,0,0,0,.229-.229Zm31.373-44.2q0-.229-.115-.229t-.115-.229h-.229l-.229-.229v.229h-.229v.687h.458v.229l.229.229v-.229h.229Zm9.16-31.373q.229,0,.229.115t.229.114l.229-.229a.2.2,0,0,0,.229-.229h.229v-.229h-.229l-.458-.458-.458.458Zm-36.869,93.2v-.458l-.229-.229-.229-.229-.229.229h-.229v.229q0,.229.114.229t.115.229l.229.229v.229l.229-.229v-.229Zm25.19-68.471a.2.2,0,0,1-.229-.229h-.229l-.229.229v.229h-.229v.229h.229l.229.229h.458l.229-.229h.229ZM158.239-40.075h.229l.229.229a.2.2,0,0,1,.229-.229l.458-.458h-.229a.2.2,0,0,0-.229-.229l-.229-.229a.2.2,0,0,0-.229.229.2.2,0,0,0-.229.229Zm-6.183-58.166a.4.4,0,0,0,.458.458h.458l.229-.229h.229l-.229-.229h-.229v-.229q-.229,0-.229-.115t-.229-.114h-.229v.229Zm-8.015,75.57a.66.66,0,0,0,.458-.229h.229v-.229a.2.2,0,0,1-.229-.229.66.66,0,0,0-.458-.229l-.229.229h-.229v.229l.229.229A.2.2,0,0,0,144.041-22.671ZM102.134-68.929l.458.229.458-.229.229-.229v-.229h-.229l-.229-.229h-.229l-.458.458Zm64.12,22.442a.2.2,0,0,1-.229-.229H165.8l-.229-.229a.2.2,0,0,0-.229.229l-.229.229q0,.229.114.229t.115.229h.687a.2.2,0,0,1,.229-.229Zm-2.061,17.175-.229-.229L163.506-30v.229h-.229v.229l-.229.229a.2.2,0,0,1,.229.229l.458.229a.66.66,0,0,0,.458-.229Zm8.473-85.188h.229l.458-.458v-.229h-.229l-.229-.229a.66.66,0,0,0-.458.229h-.229v.229Zm20.61-15.114a.2.2,0,0,0,.229.229v.229h.229l.229-.229.229-.229a.66.66,0,0,0-.229-.458l-.229-.229h-.229v.229A.66.66,0,0,0,193.276-129.614Zm-11.221,7.328a.2.2,0,0,0-.229.229v.229h.229v.229h.229a.4.4,0,0,0,.458-.458.66.66,0,0,0-.229-.458v-.229h-.229v.229h-.229Zm-14.2,11.908v.229h-.229l-.229.229v.229l.229.229h.229v.229l.458-.458h.229v-.229ZM183.2-93.2a.2.2,0,0,0-.229-.229v-.229a.2.2,0,0,0-.229.229h-.229v.458a.2.2,0,0,0,.229.229v.229l.229.229v-.229l.229-.229v-.229l.229-.229Zm8.7-11.908h-.229q-.229,0-.229.115t-.229.114v.458q.229,0,.229.115t.229.115l.229-.229h.229v-.229h.229ZM164.88-96.638l.229.687.458-.229h.229l-.458-.916h-.458Zm-26.564,8.931a.4.4,0,0,0,.458.458H139v-.229a.2.2,0,0,0,.229-.229h.229l-.229-.229H139q0-.229-.458-.229l-.229.229Zm30.457-31.831a.2.2,0,0,0,.229.229.2.2,0,0,0,.229.229h.229v-.229h.229v-.229a.2.2,0,0,0-.229-.229V-120H169a.2.2,0,0,1-.229.229ZM191.215-109l-.229-.229a.2.2,0,0,0-.229-.229.2.2,0,0,0-.229.229.66.66,0,0,0-.229.458h.229a.2.2,0,0,0,.229.229l.229.229v-.229l.229-.229ZM170.834-70.761l.458-.229.229-.458a.2.2,0,0,1-.229-.229h-.458l-.229.229-.229.229ZM72.593-87.249h-.229l-.229-.229-.229.229h-.229l-.229.229.687.458h.229v-.229h.229Zm99.386-26.564q-.229.229.229.687h.458l-.229-1.145h-.229l-.229.229Zm9.389,32.06q0-.229-.458-.229h-.229l-.229.229v.458h.229v.229h.229l.229-.229q0-.229.114-.229T181.368-81.753ZM174.04-96.867a.66.66,0,0,0-.458-.229h-.229v.229h-.229v.229h.229a.2.2,0,0,0,.229.229v.229h.229v-.229h.229l.229-.229Zm12.137,2.29h-.229l-.229.229-.458.229.229.229q.229,0,.229.115t.229.114l.229-.229a.2.2,0,0,0,.229-.229ZM161.9-33.2l-.458-.458a.4.4,0,0,0-.458.458v.229a.66.66,0,0,0,.458.229l.229-.229h.229l.229-.229Zm3.206-79.463a.2.2,0,0,0-.229-.229.4.4,0,0,0-.458.458l.229.229v.229l.229.229v-.229l.229-.229.229-.229v-.229ZM150.224-40.075a.2.2,0,0,0,.229.229h.229a.2.2,0,0,1,.229-.229l.229-.229-.687-.458-.458.687Zm6.87-31.373h.229a.2.2,0,0,0,.229.229h.458l.229-.229v-.229h-.229a.66.66,0,0,0-.458-.229h-.229v.229h-.229Zm17.4-26.564-.458-.687v.229h-.229q0,.229-.115.229t-.115.229l.229.229v.229h.229ZM78.547,20.61v-.458l-.229-.229H77.86v.229h-.229v.229a.2.2,0,0,0,.229.229Zm-3.893-8.7a.66.66,0,0,0-.458-.229l-.229.229v.458q0,.229.458.229h.229Zm131.9-136.255h.687l.229-.229h.229l-.229-.229h-.229a.66.66,0,0,0-.458-.229l-.229.229Zm-5.038,8.7-.229-.229v-.229h-.229a.2.2,0,0,1-.229.229v.458l.229.229v.229l.229-.229h.229Zm-30,18.091.229.229q.229,0,.229-.114t.229-.115l.229-.229-.458-.458h-.229v.229h-.229ZM84.959,14.427H84.5a.2.2,0,0,0-.229.229v.687H84.5v-.229h.458Zm95.493-127.553v-.229l-.229-.229v.229l-.229.229v.687h.458v-.229a.2.2,0,0,0,.229-.229ZM165.8-62.059v-.229h-.458l-.229.229-.229.229h.229a.66.66,0,0,0,.458.229h.229a.2.2,0,0,1,.229-.229v-.229ZM79.463-100.3a.66.66,0,0,0,.458.229h.229a.2.2,0,0,0,.229-.229h.229l-.229-.229H80.15a.2.2,0,0,0-.229-.229h-.229l-.229.229Zm79.463-2.977v-.229H158.7q-.458,0-.458.229v.229l.229.229v.229h.229a.2.2,0,0,1,.229-.229v-.229l.229-.229Zm39.617-24.5.229.229H199a.2.2,0,0,0,.229-.229l.229-.229a.2.2,0,0,0-.229-.229l-.229-.229v.229h-.229a.2.2,0,0,1-.229.229ZM72.135,16.946a.2.2,0,0,0-.229-.229v-.458h-.687v.229a.66.66,0,0,0,.229.458ZM165.567-95.035h.458l.229-.229v-.458h-.229a.66.66,0,0,1-.458.229h-.458Zm-7.1,53.586h.229l-.229-.229h-.229v-.229h-.229a.2.2,0,0,0-.229.229h-.229v.229a.2.2,0,0,1,.229.229h.687Zm.458-17.862h.229l.229.229.458-.458h.229l-.229-.229h-.916Zm-3.893-34.808a.2.2,0,0,0-.229.229h-.229v.229l.458.229h.229v-.229l.458-.458Zm8.244,46.258v-.687l-.229-.229h-.229v.229a.66.66,0,0,0-.229.458q0,.229.458.229ZM153.2-36.411q-.229,0,0,.229l.229.229h.229v-.229l.229-.229v-.229a.2.2,0,0,1-.229-.229h-.229l-.229.229Zm32.747-86.562.229.229v.229l.229.229v-.229l.229-.229v-.229a.2.2,0,0,0-.229-.229v-.229h-.229l-.229.229ZM162.361-61.83l.229.229h.229v-.229a.66.66,0,0,0,.229-.458l-.458-.229h-.229Zm30.915-59.54h-.229l-.229-.229a.2.2,0,0,1-.229.229v.229h-.229l.458.458h.229a.2.2,0,0,1,.229-.229ZM99.386-72.593a.66.66,0,0,0-.458-.229H98.7l-.229.229.229.229v.229h.229l.229-.229h.458Zm74.883-48.777h.229a.2.2,0,0,0,.229-.229l.229-.229v-.229q-.229,0-.229-.115t-.229-.114l-.229.458Zm17.4,1.145a.66.66,0,0,0,.229.458.66.66,0,0,0,.458-.229v-.229l-.458-.458h-.229ZM177.246-99.157v-.229h-.229a.2.2,0,0,0-.229-.229.2.2,0,0,1-.229.229l-.229.229.229.229.229.229ZM164.193-68.013v-.229l-.229-.229-.458.458h-.229l.458.458.687-.458ZM75.341-95.722h.229v.229H75.8l.229-.229.229-.458h-.916Zm101.905-5.954.229-.229.458-.229-.458-.229-.229-.229-.229.229v.229l.229.229ZM97.1-12.366l-.229-.229h-.229l.229.229ZM84.959,14.2v.229l.229-.229Z" transform="translate(77 174)" fill="#26ccda"/>
    </g>
  </g>
</svg>
