<svg xmlns="http://www.w3.org/2000/svg" width="145" height="145" viewBox="0 0 145 145">
  <g id="Grupo_141991" data-name="Grupo 141991" transform="translate(-1108 -9303)">
    <circle id="Elipse_4898" data-name="Elipse 4898" cx="72.5" cy="72.5" r="72.5" transform="translate(1108 9303)" fill="#fff"/>
    <g id="jcsZDC" transform="translate(-2336.81 5621.591)">
      <g id="Grupo_141783" data-name="Grupo 141783" transform="translate(3471.744 3718.409)">
        <path id="Trazado_156453" data-name="Trazado 156453" d="M3562.876,3759.883a30.245,30.245,0,0,1-.842,3.16,13.152,13.152,0,0,1-8.823,8.237c-.307.1-.619.176-1,.283v26.888h-48.392v-31.982h-.994c-5.872,0-11.743.015-17.615,0a13.31,13.31,0,0,1-13.433-13.96,12.919,12.919,0,0,1,4.345-9.243c.279-.259.568-.507.906-.808-.241-.225-.445-.424-.659-.613a13.338,13.338,0,0,1,8.777-23.422q32.16-.018,64.321,0a13.306,13.306,0,0,1,13.254,11.345,1.976,1.976,0,0,0,.157.4v3.2a3.524,3.524,0,0,0-.168.484,13.235,13.235,0,0,1-9.873,10.844c-.518.154-1.059.233-1.589.346a.979.979,0,0,0,.552.263,13.26,13.26,0,0,1,10.637,9.772c.177.586.3,1.189.441,1.784Zm-56.308-14.772a2.025,2.025,0,0,0,.13.346,14.266,14.266,0,0,1,2.443,8.472c-.033,12.72-.014,25.439-.014,38.159v1.009h37.731v-.95q0-19.258,0-38.515c0-5.145-3.378-8.52-8.522-8.521q-14.143,0-28.286,0Zm-10.716-5.339h.643q26.47,0,52.94-.011a8.654,8.654,0,0,0,2.107-.266,7.99,7.99,0,0,0-1.937-15.728q-26.6-.038-53.206-.01a4.421,4.421,0,0,0-.51.063A13.7,13.7,0,0,1,3495.852,3739.771Zm-2.747-8.027a8.006,8.006,0,1,0-8.032,8.024A8.028,8.028,0,0,0,3493.105,3731.744Zm0,21.372a8.006,8.006,0,1,0-8.048,8.01A8.027,8.027,0,0,0,3493.105,3753.116Zm2.789-7.927q5.154,7.933-.015,15.895h7.853c0-3,.013-5.958-.014-8.915a5.132,5.132,0,0,0-.292-1.387C3502.438,3747.47,3499.042,3744.934,3495.895,3745.189Zm56.265,20.711c3.126-.733,5.5-4.26,5.368-7.818-.124-3.27-2.712-6.643-5.368-7.083Z" transform="translate(-3471.744 -3718.409)" fill="#f57c00"/>
        <path id="Trazado_156454" data-name="Trazado 156454" d="M3496.718,3738.134v5.225h-5.229v-5.225Z" transform="translate(-3480.73 -3727.386)" fill="#f57c00"/>
        <path id="Trazado_156455" data-name="Trazado 156455" d="M3496.7,3782.556h-5.233v-5.249h5.233Z" transform="translate(-3480.72 -3745.214)" fill="#f57c00"/>
      </g>
    </g>
  </g>
</svg>
