<svg xmlns="http://www.w3.org/2000/svg" width="105" height="105" viewBox="0 0 105 105">
  <g id="Grupo_141994" data-name="Grupo 141994" transform="translate(-1220 -845)">
    <g id="Grupo_141814" data-name="Grupo 141814" transform="translate(0 -23)">
      <g id="Elipse_4887" data-name="Elipse 4887" transform="translate(1220 868)" fill="#fff" stroke="#f57c00" stroke-width="3">
        <circle cx="52.5" cy="52.5" r="52.5" stroke="none"/>
        <circle cx="52.5" cy="52.5" r="51" fill="none"/>
      </g>
      <g id="Grupo_141808" data-name="Grupo 141808" transform="translate(599.25 194)">
        <g id="Rectángulo_38033" data-name="Rectángulo 38033" transform="translate(639 704)" fill="#fff" stroke="#f57c00" stroke-width="3">
          <rect width="37" height="46" stroke="none"/>
          <rect x="1.5" y="1.5" width="34" height="43" fill="none"/>
        </g>
        <g id="Grupo_141806" data-name="Grupo 141806" transform="translate(0 -1.5)">
          <line id="Línea_898" data-name="Línea 898" x2="27" transform="translate(680.5 708.5)" fill="none" stroke="#f57c00" stroke-width="3"/>
          <line id="Línea_899" data-name="Línea 899" x2="27" transform="translate(680.5 718.5)" fill="none" stroke="#f57c00" stroke-width="3"/>
          <line id="Línea_900" data-name="Línea 900" x2="27" transform="translate(680.5 728.5)" fill="none" stroke="#f57c00" stroke-width="3"/>
        </g>
      </g>
    </g>
    <path id="Trazado_156539" data-name="Trazado 156539" d="M11.24-8.5a6.224,6.224,0,0,1-.5-1.174,9,9,0,0,1-.313-1.372,6.3,6.3,0,0,1-1.654,2.1,3.993,3.993,0,0,1-2.569.785A5.712,5.712,0,0,1,2.175-9.5,4.713,4.713,0,0,1,.734-13.138a4.4,4.4,0,0,1,1.845-3.789,9.564,9.564,0,0,1,5.6-1.334h2.119v-1.174a2.35,2.35,0,0,0-.5-1.616,1.96,1.96,0,0,0-1.54-.564,1.858,1.858,0,0,0-1.334.419,1.739,1.739,0,0,0-.435,1.3l-5-.015L1.451-20a4.3,4.3,0,0,1,1.883-3.774A8.438,8.438,0,0,1,8.587-25.29a7.683,7.683,0,0,1,4.963,1.525,5.269,5.269,0,0,1,1.9,4.361v6.221a12.691,12.691,0,0,0,.221,2.44,13.064,13.064,0,0,0,.663,2.257ZM7.611-11.842a3.139,3.139,0,0,0,1.67-.442,2.531,2.531,0,0,0,1.014-1.052v-2.18H8.221a2.33,2.33,0,0,0-1.784.595,2.139,2.139,0,0,0-.549,1.509,1.46,1.46,0,0,0,.48,1.136A1.781,1.781,0,0,0,7.611-11.842Z" transform="translate(1283.516 952.168)" fill="#f57c00"/>
  </g>
</svg>
