<svg xmlns="http://www.w3.org/2000/svg" width="610" height="416" viewBox="0 0 610 416">
  <g id="Grupo_139924" data-name="Grupo 139924" transform="translate(-810.5 -1726)">
    <rect id="Rectángulo_37165" data-name="Rectángulo 37165" width="610" height="416" transform="translate(810.5 1726)" fill="#fff"/>
    <g id="Grupo_139923" data-name="Grupo 139923" transform="translate(437 -458.965)">
      <g id="Rectángulo_37166" data-name="Rectángulo 37166" transform="translate(424.5 2258.964)" fill="none" stroke="#707070" stroke-width="1">
        <rect width="191" height="268" stroke="none"/>
        <rect x="0.5" y="0.5" width="190" height="267" fill="none"/>
      </g>
      <g id="Rectángulo_37167" data-name="Rectángulo 37167" transform="translate(624.5 2258.964)" fill="none" stroke="#707070" stroke-width="1">
        <rect width="47" height="69" stroke="none"/>
        <rect x="0.5" y="0.5" width="46" height="68" fill="none"/>
      </g>
      <g id="Rectángulo_37174" data-name="Rectángulo 37174" transform="translate(678.5 2282.964)" fill="none" stroke="#707070" stroke-width="1">
        <rect width="31" height="45" stroke="none"/>
        <rect x="0.5" y="0.5" width="30" height="44" fill="none"/>
      </g>
      <g id="Rectángulo_37175" data-name="Rectángulo 37175" transform="translate(715.5 2292.964)" fill="none" stroke="#707070" stroke-width="1">
        <rect width="24" height="35" stroke="none"/>
        <rect x="0.5" y="0.5" width="23" height="34" fill="none"/>
      </g>
      <g id="Rectángulo_37176" data-name="Rectángulo 37176" transform="translate(746.5 2300.964)" fill="none" stroke="#707070" stroke-width="1">
        <rect width="18" height="27" stroke="none"/>
        <rect x="0.5" y="0.5" width="17" height="26" fill="none"/>
      </g>
      <g id="Rectángulo_37171" data-name="Rectángulo 37171" transform="translate(624.5 2338.964)" fill="none" stroke="#707070" stroke-width="1">
        <rect width="129" height="188" stroke="none"/>
        <rect x="0.5" y="0.5" width="128" height="187" fill="none"/>
      </g>
      <g id="Rectángulo_37172" data-name="Rectángulo 37172" transform="translate(761.5 2393.964)" fill="none" stroke="#707070" stroke-width="1">
        <rect width="94" height="133" stroke="none"/>
        <rect x="0.5" y="0.5" width="93" height="132" fill="none"/>
      </g>
      <g id="Rectángulo_37173" data-name="Rectángulo 37173" transform="translate(863.5 2432.964)" fill="none" stroke="#707070" stroke-width="1">
        <rect width="68" height="94" stroke="none"/>
        <rect x="0.5" y="0.5" width="67" height="93" fill="none"/>
      </g>
      <text id="A1" transform="translate(491.5 2413.965)" fill="#12263f" font-size="47" font-family="Roboto-Bold, Roboto" font-weight="700"><tspan x="0" y="0">A1</tspan></text>
      <text id="A2" transform="translate(666.5 2446.965)" fill="#12263f" font-size="39" font-family="Roboto-Bold, Roboto" font-weight="700"><tspan x="0" y="0">A2</tspan></text>
      <text id="A3" transform="translate(789.5 2471.965)" fill="#12263f" font-size="32" font-family="Roboto-Bold, Roboto" font-weight="700"><tspan x="0" y="0">A3</tspan></text>
      <text id="A4" transform="translate(879.5 2490.965)" fill="#12263f" font-size="30" font-family="Roboto-Bold, Roboto" font-weight="700"><tspan x="0" y="0">A4</tspan></text>
      <text id="A5" transform="translate(634.5 2300.965)" fill="#12263f" font-size="22" font-family="Roboto-Bold, Roboto" font-weight="700"><tspan x="0" y="0">A5</tspan></text>
      <text id="A6" transform="translate(684.5 2310.965)" fill="#12263f" font-size="15" font-family="Roboto-Bold, Roboto" font-weight="700"><tspan x="0" y="0">A6</tspan></text>
      <text id="A7" transform="translate(721.5 2313.965)" fill="#12263f" font-size="10" font-family="Roboto-Bold, Roboto" font-weight="700"><tspan x="0" y="0">A7</tspan></text>
      <text id="A8" transform="translate(751.5 2315.965)" fill="#12263f" font-size="7" font-family="Roboto-Bold, Roboto" font-weight="700"><tspan x="0" y="0">A8</tspan></text>
    </g>
    <g id="Rectángulo_37177" data-name="Rectángulo 37177" transform="translate(833.5 1748)" fill="none" stroke="#f57c00" stroke-width="2" stroke-dasharray="8">
      <rect width="564" height="372" stroke="none"/>
      <rect x="1" y="1" width="562" height="370" fill="none"/>
    </g>
  </g>
</svg>
