<svg xmlns="http://www.w3.org/2000/svg" width="80.874" height="80.874" viewBox="0 0 80.874 80.874">
  <g id="Grupo_139917" data-name="Grupo 139917" transform="translate(-651 -1275.518)">
    <path id="Trazado_113533" data-name="Trazado 113533" d="M40.437,0A40.437,40.437,0,1,1,0,40.437,40.437,40.437,0,0,1,40.437,0Z" transform="translate(651 1275.518)" fill="#ffa726"/>
    <g id="Grupo_62200" data-name="Grupo 62200" transform="translate(-1513.274 -1385.723)">
      <g id="Grupo_60261" data-name="Grupo 60261" transform="translate(2181.274 2678.24)">
        <path id="Trazado_130867" data-name="Trazado 130867" d="M2223.642,2695.637a.75.75,0,0,0-1.153-.641c-.095.05-.179.119-.356.239v-16.007c0-.721-.254-.988-.946-.988h-32.9c-.678,0-.943.266-.945.94,0,1.071-.012,2.143.006,3.214.005.3-.068.394-.383.39-1.512-.018-3.025-.008-4.539-.008-.938,0-1.137.2-1.137,1.131v37.109a3.8,3.8,0,0,0,4.115,4.12h31.1c.189,0,.378,0,.567-.008a5.313,5.313,0,0,0,4.872-3.929,14.9,14.9,0,0,0,.183-3.338c.007-.191,0-.384,0-.62a2.226,2.226,0,0,1,.2.107.783.783,0,0,0,.92.123.858.858,0,0,0,.4-.845q-.007-9.857,0-19.713C2223.647,2696.485,2223.663,2696.059,2223.642,2695.637Zm-36.3,25.667a2.268,2.268,0,0,1-4.533.126c0-.042,0-.083,0-.126q-.007-9.122,0-18.246,0-9.146-.01-18.294c0-.391.087-.5.482-.486,1.228.03,2.458.021,3.687,0,.308,0,.386.077.386.386q-.016,18.317-.013,36.638Zm33.279-1.479a3.766,3.766,0,0,1-3.745,3.787h-.036q-14.228.014-28.452,0h-.308a4.263,4.263,0,0,0,.783-2.61q-.013-20.372-.018-40.745c0-.445.129-.522.54-.522q15.363.018,30.724,0c.435,0,.522.12.522.537q-.022,7.775,0,15.551a.8.8,0,0,1-.4.76c-1.608,1.1-3.2,2.229-4.8,3.354a1.19,1.19,0,0,1-.736.238c-1.512-.014-3.025-.01-4.538-.005a4.525,4.525,0,0,0-4.656,4.388q0,.13,0,.26a23.092,23.092,0,0,0,.076,3.68,4.327,4.327,0,0,0,2.6,3.357.5.5,0,0,1,.348.555c-.012,1.67-.009,3.34-.005,5.01a3.028,3.028,0,1,0,6.048.309c0-.1.005-.193,0-.289,0-1.545,0-3.088.005-4.633,0-.174-.1-.435.076-.514a.724.724,0,0,1,.7.15c.931.673,1.877,1.323,2.818,1.981.709.5,1.412,1,2.131,1.483a.636.636,0,0,1,.33.609C2220.609,2717.622,2220.63,2718.726,2220.618,2719.825Zm-4.54-18.234a.452.452,0,0,1,.217-.425c.917-.631,1.827-1.271,2.784-1.938v13.988c-.957-.672-1.865-1.316-2.784-1.948a.447.447,0,0,1-.214-.424q.007-4.624,0-9.251Zm-3.021,13.517v2.36a1.515,1.515,0,1,1-3.023-.011c0-1.6,0-3.21-.006-4.815,0-.261.02-.392.343-.38.783.028,1.574.021,2.36,0,.273-.006.338.081.333.342-.016.838-.007,1.672-.007,2.506Zm-2.959-4.351a3.023,3.023,0,0,1-3.086-2.959c0-.036,0-.072,0-.108-.008-.992-.01-1.983,0-2.975a3.018,3.018,0,0,1,3-3.031h.022c1.385-.012,2.771.007,4.155-.01.305,0,.392.074.388.385-.017,1.4-.008,2.8-.008,4.2,0,1.354-.01,2.708.008,4.061,0,.331-.046.456-.423.447-1.355-.027-2.709,0-4.062-.011Zm12.025,4.583c-.488-.34-.927-.656-1.378-.957-.156-.1-.118-.243-.118-.376v-15.595a.4.4,0,0,1,.174-.4c.435-.28.846-.584,1.326-.917Z" transform="translate(-2181.274 -2678.24)" fill="#fff"/>
        <path id="Trazado_130868" data-name="Trazado 130868" d="M2295.009,2735.179c.167.191.277.169.444,0,.6-.62,1.218-1.226,1.827-1.838.065-.065.122-.14.192-.219-.062-.07-.11-.13-.165-.184-.222-.224-.458-.435-.663-.671-.169-.195-.28-.174-.446.005-.4.422-.821.823-1.228,1.239-.261.268-.745.575-.716.813C2294.3,2734.632,2294.753,2734.885,2295.009,2735.179Z" transform="translate(-2250.816 -2711.41)" fill="#fff"/>
        <path id="Trazado_130869" data-name="Trazado 130869" d="M2296.013,2754.539c-.268-.261-.571-.745-.812-.717-.311.036-.566.492-.861.748-.187.163-.179.275,0,.444.466.444.916.907,1.372,1.362.685.685.682.682,1.374,0a3.619,3.619,0,0,1,.427-.313c-.149-.165-.219-.248-.3-.324C2296.816,2755.339,2296.418,2754.936,2296.013,2754.539Z" transform="translate(-2250.785 -2724.762)" fill="#fff"/>
        <path id="Trazado_130870" data-name="Trazado 130870" d="M2298.4,2745.374c-.01-.2-.057-.271-.265-.265-.535.014-1.071,0-1.606,0-1.238,0-1.232,0-1.166,1.251.01.2.056.273.266.265.409-.016.818,0,1.228,0h.378C2298.475,2746.625,2298.469,2746.625,2298.4,2745.374Z" transform="translate(-2251.486 -2719.399)" fill="#fff"/>
        <path id="Trazado_130871" data-name="Trazado 130871" d="M2205.981,2699.718h26.7c.734,0,.985-.254.985-1V2687.1c0-.741-.25-.993-.988-.993h-26.745c-.768,0-1.009.244-1.009,1.02v11.53C2204.923,2699.491,2205.147,2699.718,2205.981,2699.718Zm.445-11.676c0-.353.083-.435.435-.435q12.432.017,24.864,0c.348,0,.435.08.435.435q-.024,4.872,0,9.737c0,.354-.082.435-.435.435-4.144-.014-8.288-.008-12.432-.008-4.128,0-8.256-.006-12.385.01-.392,0-.486-.087-.484-.483Q2206.452,2692.888,2206.426,2688.042Z" transform="translate(-2195.83 -2683.081)" fill="#fff"/>
        <path id="Trazado_130872" data-name="Trazado 130872" d="M2217.552,2725.448h-11.669c-.705,0-.962.26-.963.969V2739.6c0,.731.254.976,1.005.976h11.622c.735,0,.987-.254.987-.995v-13.132C2218.534,2725.7,2218.285,2725.448,2217.552,2725.448Zm-.521,13.235c0,.308-.078.387-.386.386q-4.916-.018-9.832,0c-.308,0-.389-.077-.386-.386.015-1.89.008-3.781.008-5.672s.007-3.781-.008-5.672c0-.308.077-.387.386-.386q4.916.018,9.832,0c.308,0,.387.078.386.386q-.015,5.672,0,11.344Z" transform="translate(-2195.829 -2707.298)" fill="#fff"/>
        <path id="Trazado_130873" data-name="Trazado 130873" d="M2221.09,2768.706q-7.539.017-15.078.008c-1.116,0-1.1,0-1.117,1.115-.005.339.093.407.417.405,2.631-.014,5.262-.008,7.894-.008h7.279c1.063,0,1.044,0,1.071-1.067C2221.565,2768.778,2221.448,2768.705,2221.09,2768.706Z" transform="translate(-2195.813 -2733.924)" fill="#fff"/>
        <path id="Trazado_130874" data-name="Trazado 130874" d="M2213.2,2778.095h7.279c1.068,0,1.051,0,1.075-1.062.009-.369-.087-.461-.458-.459q-7.54.019-15.078.008c-1.121,0-1.106,0-1.122,1.109,0,.332.078.414.411.412C2207.941,2778.088,2210.573,2778.095,2213.2,2778.095Z" transform="translate(-2195.816 -2738.767)" fill="#fff"/>
        <path id="Trazado_130875" data-name="Trazado 130875" d="M2221.09,2784.444q-7.539.017-15.078.008c-1.116,0-1.1,0-1.117,1.115-.005.339.093.407.417.406,2.631-.014,5.262-.008,7.894-.008h7.279c1.063,0,1.044,0,1.071-1.067C2221.565,2784.517,2221.448,2784.443,2221.09,2784.444Z" transform="translate(-2195.813 -2743.611)" fill="#fff"/>
        <path id="Trazado_130876" data-name="Trazado 130876" d="M2212.78,2700.368c0,1.172,0,1.157,1.17,1.157.314,0,.348-.109.348-.378-.013-1.213-.006-2.426-.006-3.639l.08-.033c.73,1.168,1.464,2.333,2.187,3.5.226.364.5.635.957.5s.563-.484.56-.924c-.01-1.812,0-3.624,0-5.436,0-1.206,0-1.194-1.194-1.178-.287,0-.326.105-.323.353.012,1.119.008,2.238,0,3.356,0,.108.075.249-.076.338-.729-1.164-1.46-2.321-2.175-3.485-.224-.363-.489-.648-.948-.527-.474.125-.585.5-.582.957C2212.788,2696.744,2212.78,2698.556,2212.78,2700.368Z" transform="translate(-2200.664 -2687.904)" fill="#fff"/>
        <path id="Trazado_130877" data-name="Trazado 130877" d="M2244.254,2697.262v3.448a.728.728,0,0,0,.615.783.715.715,0,0,0,.838-.458c.08-.174.147-.348.218-.522.189-.466.376-.933.6-1.487.275.678.516,1.239.728,1.811.159.428.4.721.9.663.424-.05.641-.387.642-.95v-5.432c0-1.205,0-1.194-1.194-1.178-.284,0-.329.1-.324.348.015.777.005,1.555.005,2.386-.574-.609-.965-.609-1.513.043v-1.6c0-1.207,0-1.2-1.19-1.181-.279,0-.332.093-.328.348C2244.262,2695.28,2244.254,2696.273,2244.254,2697.262Z" transform="translate(-2220.034 -2687.902)" fill="#fff"/>
        <path id="Trazado_130878" data-name="Trazado 130878" d="M2230.49,2700.647a.772.772,0,0,0,.659.87.782.782,0,0,0,.211,0c.583.007,1.166,0,1.749,0,1.2,0,1.193,0,1.168-1.2-.005-.242-.059-.325-.312-.316-.522.02-1.044-.017-1.559.014-.332.019-.418-.075-.413-.409.016-1.111,0-1.112,1.12-1.112,1.238,0,1.232,0,1.165-1.254-.011-.206-.063-.269-.268-.261-.535.013-1.073-.019-1.606.013-.337.02-.414-.087-.41-.413.016-1.108,0-1.108,1.123-1.108,1.2,0,1.188,0,1.163-1.209-.005-.255-.081-.312-.32-.308-.851.013-1.7,0-2.552.006-.644,0-.913.274-.916.921v2.835C2230.488,2698.694,2230.484,2699.67,2230.49,2700.647Z" transform="translate(-2211.563 -2687.911)" fill="#fff"/>
        <path id="Trazado_130879" data-name="Trazado 130879" d="M2260.015,2701.442c.129.239.667.052,1.021.078.094.007.189,0,.283,0v-.028a8.122,8.122,0,0,0,1.271-.01,2.257,2.257,0,0,0,1.9-2.388,2.287,2.287,0,0,0-2.157-2.111c-.557-.041-.88-.336-.862-.787s.358-.721.921-.727h.944c1.2,0,1.19,0,1.165-1.2-.005-.241-.058-.324-.312-.316-.629.019-1.258,0-1.888.007a2.27,2.27,0,0,0-.162,4.536h0c.533.04.843.321.839.762,0,.458-.343.747-.9.751-.613,0-1.227,0-1.841,0-.131,0-.295-.051-.287.187C2259.968,2700.622,2259.838,2701.112,2260.015,2701.442Z" transform="translate(-2229.683 -2687.91)" fill="#fff"/>
      </g>
    </g>
  </g>
</svg>
