<svg xmlns="http://www.w3.org/2000/svg" xmlns:xlink="http://www.w3.org/1999/xlink" width="271.857" height="168" viewBox="0 0 271.857 168">
  <defs>
    <filter id="Rectángulo_38155" x="108.857" y="0" width="80" height="104" filterUnits="userSpaceOnUse">
      <feOffset dy="3" input="SourceAlpha"/>
      <feGaussianBlur stdDeviation="3" result="blur"/>
      <feFlood flood-opacity="0.161"/>
      <feComposite operator="in" in2="blur"/>
      <feComposite in="SourceGraphic"/>
    </filter>
    <filter id="Rectángulo_38156" x="129.857" y="64" width="80" height="104" filterUnits="userSpaceOnUse">
      <feOffset dy="3" input="SourceAlpha"/>
      <feGaussianBlur stdDeviation="3" result="blur-2"/>
      <feFlood flood-opacity="0.161"/>
      <feComposite operator="in" in2="blur-2"/>
      <feComposite in="SourceGraphic"/>
    </filter>
    <filter id="Rectángulo_38157" x="152.857" y="12" width="80" height="104" filterUnits="userSpaceOnUse">
      <feOffset dy="3" input="SourceAlpha"/>
      <feGaussianBlur stdDeviation="3" result="blur-3"/>
      <feFlood flood-opacity="0.161"/>
      <feComposite operator="in" in2="blur-3"/>
      <feComposite in="SourceGraphic"/>
    </filter>
    <filter id="Rectángulo_38158" x="191.857" y="43" width="80" height="104" filterUnits="userSpaceOnUse">
      <feOffset dy="3" input="SourceAlpha"/>
      <feGaussianBlur stdDeviation="3" result="blur-4"/>
      <feFlood flood-opacity="0.161"/>
      <feComposite operator="in" in2="blur-4"/>
      <feComposite in="SourceGraphic"/>
    </filter>
  </defs>
  <g id="Grupo_141957" data-name="Grupo 141957" transform="translate(-620.643 -6552)">
    <g transform="matrix(1, 0, 0, 1, 620.64, 6552)" filter="url(#Rectángulo_38155)">
      <rect id="Rectángulo_38155-2" data-name="Rectángulo 38155" width="62" height="86" transform="translate(117.86 6)" fill="#f6f6f6"/>
    </g>
    <g transform="matrix(1, 0, 0, 1, 620.64, 6552)" filter="url(#Rectángulo_38156)">
      <rect id="Rectángulo_38156-2" data-name="Rectángulo 38156" width="62" height="86" transform="translate(138.86 70)" fill="#fff"/>
    </g>
    <g transform="matrix(1, 0, 0, 1, 620.64, 6552)" filter="url(#Rectángulo_38157)">
      <rect id="Rectángulo_38157-2" data-name="Rectángulo 38157" width="62" height="86" transform="translate(161.86 18)" fill="#fff"/>
    </g>
    <g transform="matrix(1, 0, 0, 1, 620.64, 6552)" filter="url(#Rectángulo_38158)">
      <rect id="Rectángulo_38158-2" data-name="Rectángulo 38158" width="62" height="86" transform="translate(200.86 49)" fill="#f6f6f6"/>
    </g>
    <g id="Grupo_141956" data-name="Grupo 141956" transform="translate(446.648 6819.691)">
      <g id="Grupo_141948" data-name="Grupo 141948" transform="translate(206.329 -234.741)">
        <path id="Trazado_156988" data-name="Trazado 156988" d="M229.687-218.536c7.557,0,13.691-2.087,13.691-4.659s-6.135-4.659-13.691-4.659-13.692,2.088-13.692,4.659,6.135,4.659,13.692,4.659" transform="translate(-215.406 228.509)" fill="#6d99c8"/>
        <path id="Trazado_156989" data-name="Trazado 156989" d="M225.4-228.467c-.475.049-.949.11-1.42.178-.648.093-1.327.216-2.011.365l-.148.038-.149.035q-.591.132-1.171.3a14.3,14.3,0,0,0-2.411.89,6.5,6.5,0,0,0-2.111,1.443,2.69,2.69,0,0,0-.707,1.355,2.155,2.155,0,0,0-.026.514V-196.7h28.746v-26.663a.43.43,0,0,0-.082-.245,1.746,1.746,0,0,0-.078-.488,2.38,2.38,0,0,0-.239-.549,3.353,3.353,0,0,0-.455-.61,5.806,5.806,0,0,0-1.226-.955,10.738,10.738,0,0,0-1.663-.8,19.73,19.73,0,0,0-3.567-1.017,34.377,34.377,0,0,0-3.689-.513c-1.146-.1-2.282-.147-3.382-.147a41.323,41.323,0,0,0-4.212.222m-2.666,1.282c.616-.12,1.226-.216,1.837-.3.4-.055.794-.1,1.194-.139,1.223-.12,2.5-.181,3.789-.181q.75,0,1.5.029a33.377,33.377,0,0,1,3.554.295,22.159,22.159,0,0,1,5.677,1.419l-.078-.08a11.654,11.654,0,0,1,1.834,1.075,4.092,4.092,0,0,1,.648.633,2.694,2.694,0,0,1,.256.426,2.334,2.334,0,0,1,.087.354,1.928,1.928,0,0,1,0,.3,1.951,1.951,0,0,1-.094.342,2.673,2.673,0,0,1-.254.432,4.015,4.015,0,0,1-.643.62,8.865,8.865,0,0,1-1.827,1.021,23.25,23.25,0,0,1-5.7,1.407,38.471,38.471,0,0,1-4.935.313,39.083,39.083,0,0,1-5.04-.326,22.879,22.879,0,0,1-5.617-1.4,9.308,9.308,0,0,1-1.8-1.007,4.361,4.361,0,0,1-.638-.623,2.611,2.611,0,0,1-.266-.438,2.14,2.14,0,0,1-.083-.317,1.986,1.986,0,0,1-.007-.343,2.313,2.313,0,0,1,.09-.335,2.508,2.508,0,0,1,.256-.433,4.616,4.616,0,0,1,.648-.632,8.958,8.958,0,0,1,1.675-.949c.285-.119.5-.207.723-.287l.082-.029.122-.042.078-.029a20.932,20.932,0,0,1,2.64-.71.754.754,0,0,1,.129-.029l.168-.045s-.01.006-.007.01v0Z" transform="translate(-215.243 228.689)" fill="#b1c8de"/>
      </g>
      <g id="Grupo_141949" data-name="Grupo 141949" transform="translate(239.251 -227.634)">
        <path id="Trazado_156990" data-name="Trazado 156990" d="M268.489-211.716c5.885,0,10.662-1.625,10.662-3.628s-4.777-3.628-10.662-3.628-10.662,1.626-10.662,3.628,4.777,3.628,10.662,3.628" transform="translate(-257.369 219.482)" fill="#6d99c8"/>
        <path id="Trazado_156991" data-name="Trazado 156991" d="M265.155-219.452c-.372.038-.739.087-1.108.139-.506.074-1.032.171-1.565.284l-.117.033-.115.025c-.308.068-.611.146-.914.236a11.413,11.413,0,0,0-1.875.694,4.946,4.946,0,0,0-1.644,1.124,2.074,2.074,0,0,0-.552,1.055,1.643,1.643,0,0,0-.019.4v20.718h22.384v-20.734a.349.349,0,0,0-.062-.191,1.391,1.391,0,0,0-.061-.377,1.835,1.835,0,0,0-.183-.43,2.989,2.989,0,0,0-.356-.477,4.567,4.567,0,0,0-.958-.742,8.422,8.422,0,0,0-1.292-.62,15.815,15.815,0,0,0-2.779-.794,26.719,26.719,0,0,0-2.873-.4c-.89-.078-1.778-.116-2.633-.116-1.055,0-2.159.058-3.279.171m-.649.765c.31-.042.62-.074.93-.107.955-.093,1.946-.142,2.953-.142.391,0,.778.006,1.169.023a27.15,27.15,0,0,1,2.766.229,17.317,17.317,0,0,1,4.422,1.107l-.062-.064a9.137,9.137,0,0,1,1.431.839,3.657,3.657,0,0,1,.506.491,2.342,2.342,0,0,1,.2.332,2.384,2.384,0,0,1,.068.274,1.968,1.968,0,0,1,0,.236,1.646,1.646,0,0,1-.074.268,2.333,2.333,0,0,1-.2.335,3.444,3.444,0,0,1-.5.484,7.081,7.081,0,0,1-1.424.793,18.1,18.1,0,0,1-4.438,1.094,29.8,29.8,0,0,1-3.841.242,30.578,30.578,0,0,1-3.928-.252,17.772,17.772,0,0,1-4.373-1.094,7.026,7.026,0,0,1-1.4-.784,3.369,3.369,0,0,1-.5-.484,2.206,2.206,0,0,1-.206-.343,1.334,1.334,0,0,1-.065-.245,1.849,1.849,0,0,1-.006-.264,2.223,2.223,0,0,1,.071-.265,2.129,2.129,0,0,1,.2-.335,3.5,3.5,0,0,1,.5-.491,6.916,6.916,0,0,1,1.307-.742c.219-.093.39-.161.561-.223l.061-.023.1-.032.061-.022a15.876,15.876,0,0,1,2.053-.556.849.849,0,0,1,.1-.023l.129-.035s-.006.006,0,.009v0c.481-.093.955-.171,1.429-.235" transform="translate(-257.242 219.623)" fill="#b1c8de"/>
      </g>
      <g id="Grupo_141950" data-name="Grupo 141950" transform="translate(180.25 -227.873)">
        <path id="Trazado_156992" data-name="Trazado 156992" d="M193.221-212.019c5.885,0,10.662-1.625,10.662-3.628s-4.777-3.629-10.662-3.629-10.662,1.627-10.662,3.629,4.778,3.628,10.662,3.628" transform="translate(-182.1 219.787)" fill="#6d99c8"/>
        <path id="Trazado_156993" data-name="Trazado 156993" d="M189.884-219.754c-.368.039-.739.088-1.1.139-.506.074-1.032.171-1.568.285l-.114.029-.115.029c-.307.067-.614.145-.914.233a11.415,11.415,0,0,0-1.875.693,4.986,4.986,0,0,0-1.643,1.127,2.071,2.071,0,0,0-.552,1.052,1.842,1.842,0,0,0-.023.4v20.777a.331.331,0,0,0,.049.177h22.287a.325.325,0,0,0,.051-.177V-215.78a.357.357,0,0,0-.062-.194,1.578,1.578,0,0,0-.061-.378,1.861,1.861,0,0,0-.183-.426,2.852,2.852,0,0,0-.355-.477,4.6,4.6,0,0,0-.959-.743,8.228,8.228,0,0,0-1.292-.623,15.661,15.661,0,0,0-2.778-.79,26.8,26.8,0,0,0-2.873-.4c-.891-.078-1.779-.116-2.634-.116a32.318,32.318,0,0,0-3.282.174m-.646.765c.31-.042.62-.074.93-.11.952-.093,1.946-.139,2.953-.139.391,0,.778.006,1.169.024a25.129,25.129,0,0,1,2.766.229,17.357,17.357,0,0,1,4.422,1.1l-.062-.061a8.389,8.389,0,0,1,1.427.839,3.03,3.03,0,0,1,.506.491,2.151,2.151,0,0,1,.2.332,1.671,1.671,0,0,1,.064.274,1.5,1.5,0,0,1,0,.237,1.641,1.641,0,0,1-.074.267,2.223,2.223,0,0,1-.2.336,3.193,3.193,0,0,1-.5.481,6.865,6.865,0,0,1-1.424.794,17.991,17.991,0,0,1-4.438,1.1,29.951,29.951,0,0,1-3.843.241,30.108,30.108,0,0,1-3.929-.255,17.63,17.63,0,0,1-4.369-1.091,7.136,7.136,0,0,1-1.4-.784,3.27,3.27,0,0,1-.5-.488,2.055,2.055,0,0,1-.206-.339,1.26,1.26,0,0,1-.064-.248,1.187,1.187,0,0,1-.007-.265,1.647,1.647,0,0,1,.071-.262,2.384,2.384,0,0,1,.2-.339,3.666,3.666,0,0,1,.5-.49,6.8,6.8,0,0,1,1.3-.739c.223-.093.393-.161.564-.226l.061-.024.1-.032.061-.022a16.212,16.212,0,0,1,2.052-.552.5.5,0,0,1,.1-.024l.129-.034-.005.005,0,0c.481-.093.955-.168,1.429-.232" transform="translate(-181.974 219.928)" fill="#b1c8de"/>
      </g>
      <g id="Grupo_141951" data-name="Grupo 141951" transform="translate(266.544 -230.904)">
        <path id="Trazado_156994" data-name="Trazado 156994" d="M304.915-214.756c6.728,0,12.189-1.858,12.189-4.148s-5.461-4.147-12.189-4.147-12.189,1.858-12.189,4.147,5.461,4.148,12.189,4.148" transform="translate(-292.204 223.633)" fill="#6d99c8"/>
        <path id="Trazado_156995" data-name="Trazado 156995" d="M301.1-223.6c-.423.042-.842.1-1.262.158-.581.084-1.181.194-1.791.326l-.132.032-.132.032c-.351.078-.7.168-1.043.267a12.827,12.827,0,0,0-2.146.794,5.784,5.784,0,0,0-1.878,1.285,2.4,2.4,0,0,0-.629,1.2,1.985,1.985,0,0,0-.023.459l0,5.955v17.438H303.2l14.45.038v-23.448a.381.381,0,0,0-.071-.219,1.565,1.565,0,0,0-.071-.433,2.212,2.212,0,0,0-.209-.491,3.319,3.319,0,0,0-.408-.542,4.926,4.926,0,0,0-1.094-.849,9.169,9.169,0,0,0-1.478-.71,17.9,17.9,0,0,0-3.176-.907,30.162,30.162,0,0,0-3.282-.455c-1.021-.09-2.033-.132-3.012-.132a36.622,36.622,0,0,0-3.75.2m-2.372,1.139c.548-.1,1.09-.19,1.633-.264.355-.049.707-.088,1.062-.126,1.09-.107,2.227-.158,3.376-.158.445,0,.891.006,1.336.025a29.539,29.539,0,0,1,3.163.262,19.782,19.782,0,0,1,5.055,1.262l-.071-.071a10.208,10.208,0,0,1,1.634.959,3.8,3.8,0,0,1,.578.562,2.239,2.239,0,0,1,.226.381,1.809,1.809,0,0,1,.078.313,1.531,1.531,0,0,1,0,.268,1.722,1.722,0,0,1-.081.307,2.559,2.559,0,0,1-.227.384,3.722,3.722,0,0,1-.574.552,7.808,7.808,0,0,1-1.623.906,20.7,20.7,0,0,1-5.076,1.253,34.154,34.154,0,0,1-4.394.277,34.583,34.583,0,0,1-4.49-.291,20.148,20.148,0,0,1-5-1.248,8,8,0,0,1-1.6-.894,3.871,3.871,0,0,1-.568-.555,2.634,2.634,0,0,1-.239-.391,2.471,2.471,0,0,1-.074-.284,1.739,1.739,0,0,1,0-.3,2.033,2.033,0,0,1,.078-.3,2.646,2.646,0,0,1,.229-.387,4.258,4.258,0,0,1,.578-.562,7.846,7.846,0,0,1,1.491-.845c.252-.107.449-.184.642-.256l.074-.025.11-.039.068-.026a18.779,18.779,0,0,1,2.349-.633.878.878,0,0,1,.116-.026l.149-.038-.007.006v.007l0,0" transform="translate(-292.06 223.794)" fill="#b1c8de"/>
      </g>
      <path id="Trazado_156996" data-name="Trazado 156996" d="M300.38-256.691H174.465a.471.471,0,0,0-.47.47v125.914a.471.471,0,0,0,.47.47H300.38a.471.471,0,0,0,.471-.47V-256.221A.471.471,0,0,0,300.38-256.691Zm-80.048,13.5h78.136V-202.7l-20.782-.053H176.31q-.04-8.08-.081-16.16-.061-12.163-.122-24.328l5.685.049Zm31.311,112.417H174.888L174.915-158a.824.824,0,0,0,.791.657.835.835,0,0,0,.826-.826v-.158c0-.009,0-.019,0-.029q-.072-14.832-.147-29.665,0-.634-.006-1.269l2.515.017H298.468v32.682a.835.835,0,0,0,.827.826.815.815,0,0,0,.615-.294v25.34Z" fill="#ffd99d"/>
      <g id="Grupo_141952" data-name="Grupo 141952" transform="translate(184.471 -183.087)">
        <path id="Trazado_156997" data-name="Trazado 156997" d="M199.888-162.794q-.37,0-.741.012a21.011,21.011,0,0,0-3.8.488,20.405,20.405,0,0,0-3.626,1.162,17.537,17.537,0,0,0-2.174,1.124,12.339,12.339,0,0,0-1.982,1.459.44.44,0,0,0-.142.219.439.439,0,0,0-.058.327c.539,3.495,1.085,7.3,1.668,11.622l.048.35.046.349c0,.019.006.04.01.06l.008.069.045.33.048.371.108.809.095.7q.382,2.909.756,5.823.359,2.777.71,5.553l.046.366q.9,7.122,1.794,13.889a.3.3,0,0,0,.016.1q.221,1.687.457,3.375c.81,5.822,1.583,10.913,2.365,15.561a.333.333,0,0,0,.091.165,5.734,5.734,0,0,0,.633.37,10.25,10.25,0,0,0,1.036.454,12.993,12.993,0,0,0,1.375.379,15.853,15.853,0,0,0,3.379.35h.141a20.933,20.933,0,0,0,3.85-.357c.567-.139,1.115-.3,1.629-.473a16.414,16.414,0,0,0,3.686-1.823,13.511,13.511,0,0,0,1.694-1.348c-.64-6.115-1.228-12.317-1.8-18.315l-.048-.512-.085-.9-.285-3.017c-.785-8.267-1.565-16.356-2.49-24.427-.458-3.97-.9-7.565-1.362-10.99a.356.356,0,0,0-.019-.095c-.082-.651-.172-1.305-.262-1.959a.4.4,0,0,0-.187-.241.419.419,0,0,0-.2-.172,16.735,16.735,0,0,0-6.487-1.208" transform="translate(-187.36 162.794)" fill="#fefefe"/>
        <path id="Trazado_156998" data-name="Trazado 156998" d="M199.214-161.766a20.875,20.875,0,0,0-2.132.219,17.846,17.846,0,0,0-2.044.433c-.449.122-.891.269-1.328.427a7.692,7.692,0,0,0-1.256.568,2.993,2.993,0,0,0-.5.368,1.232,1.232,0,0,0-.335.469.9.9,0,0,0-.052.241.712.712,0,0,0,.024.246.924.924,0,0,0,.089.212,1.008,1.008,0,0,0,.131.167,1.214,1.214,0,0,0,.3.219,2.223,2.223,0,0,0,.449.166,3.924,3.924,0,0,0,.5.094c.207.027.415.042.622.051a12.475,12.475,0,0,0,1.37-.031c.482-.034.959-.089,1.438-.153.818-.111,1.633-.256,2.437-.447.333-.08.658-.177.983-.287.192-.066.385-.139.571-.219a3.5,3.5,0,0,0,.437-.219.785.785,0,0,0,.385-.407.323.323,0,0,0-.022-.225.455.455,0,0,0-.156-.171.934.934,0,0,0-.234-.114,2.139,2.139,0,0,0-.336-.095,6.254,6.254,0,0,0-.891-.112,11.567,11.567,0,0,0-1.288-.01,13.367,13.367,0,0,0-1.36.127,8.325,8.325,0,0,0-1.252.272,3.167,3.167,0,0,0-.947.438.135.135,0,0,0-.064.112.135.135,0,0,0,.1.126c.11.042.222.08.339.112a3.27,3.27,0,0,0,.351.068,4.136,4.136,0,0,0,.756.042,9.772,9.772,0,0,0,1.509-.193.144.144,0,0,0,.1-.176.146.146,0,0,0-.177-.1c-.274.053-.547.1-.824.141l.038-.006a5.549,5.549,0,0,1-1.339.039c-.117-.018-.23-.04-.343-.067l-.077-.02c.082-.044.165-.084.251-.12l-.03.012a7.012,7.012,0,0,1,1.775-.437l-.036.006a13.51,13.51,0,0,1,1.561-.114,10,10,0,0,1,1.42.07h-.011a2.932,2.932,0,0,1,.723.175l-.034-.016a1.038,1.038,0,0,1,.173.1c.008.008.016.016.024.024l.015.024v.01l0,.013a.3.3,0,0,1-.025.038.737.737,0,0,1-.1.092,2.538,2.538,0,0,1-.522.275l.036-.013a10.218,10.218,0,0,1-1.711.521c-.684.149-1.376.263-2.068.357l.013,0c-.6.08-1.206.142-1.812.176a9.522,9.522,0,0,1-1.717-.042l.05.005a3.165,3.165,0,0,1-.749-.182,1.325,1.325,0,0,1-.234-.131.918.918,0,0,1-.109-.105.648.648,0,0,1-.056-.092.717.717,0,0,1-.037-.125.633.633,0,0,1,0-.095.6.6,0,0,1,.032-.111.932.932,0,0,1,.073-.124,1.681,1.681,0,0,1,.256-.251,4.632,4.632,0,0,1,.992-.536l0,0c.238-.1.478-.186.722-.268.291-.1.582-.193.876-.277a18.274,18.274,0,0,1,2.656-.549l-.014,0,.048-.006.014,0h0a19.163,19.163,0,0,1,4.873-.038l-.007,0,.029,0,.031,0h-.01a7.161,7.161,0,0,1,1.694.4,2.048,2.048,0,0,1,.375.209,1.369,1.369,0,0,1,.114.11,1.036,1.036,0,0,1,.06.1.616.616,0,0,1,.021.079.751.751,0,0,1,0,.084,1.037,1.037,0,0,1-.033.117,1.5,1.5,0,0,1-.135.223,3.136,3.136,0,0,1-.511.483l.019-.014-.03.023-.01.008.005,0a8.654,8.654,0,0,1-1.771.992l.03-.013a13.873,13.873,0,0,1-3.423.887l.042-.006a24.378,24.378,0,0,1-3.848.18,35.5,35.5,0,0,1-3.792-.321l.036.005q-1.46-.2-2.907-.5a.128.128,0,0,0-.157.089.128.128,0,0,0,.089.158,39.318,39.318,0,0,0,7.2.871,23.36,23.36,0,0,0,3.795-.216,15.157,15.157,0,0,0,1.8-.372,11.585,11.585,0,0,0,1.629-.578,8.125,8.125,0,0,0,1.575-.911,3.292,3.292,0,0,0,.534-.489,1.225,1.225,0,0,0,.27-.5.734.734,0,0,0-.042-.462.991.991,0,0,0-.341-.4,2.541,2.541,0,0,0-.568-.3,5.65,5.65,0,0,0-.923-.259c-.31-.063-.625-.11-.938-.151-.35-.045-.7-.078-1.055-.1s-.71-.033-1.065-.033-.71.011-1.065.029m1.8,2.063-.015.019.015-.019m-8.645.159-.011.009.011-.009m3.237.171h0m-3.632.389a.193.193,0,0,1,0,.031l0-.031m10.358.609.014,0-.014,0m1.785-1,0,0,.011-.009-.016.012m-3.994-.672-.025,0,.025,0m-2.5-1.113-.034,0,.045-.005h-.011m4.927-.033-.021,0-.022,0,.043.005" transform="translate(-187.568 162.578)" fill="#e7e7e7"/>
        <path id="Trazado_156999" data-name="Trazado 156999" d="M192.226-153.464q.574,5.329,1.077,10.666t1.027,10.658q.256,2.663.519,5.324c.173,1.775.346,3.55.532,5.321.375,3.546.764,7.093,1.191,10.633q.349,2.87.748,5.735c.132.954.271,1.911.417,2.864.15.989.3,1.979.484,2.963a.369.369,0,0,0,.177.229.374.374,0,0,0,.292.038.384.384,0,0,0,.229-.175c.014-.031.026-.062.04-.092a.388.388,0,0,0,0-.2c-.151-1.1-.321-2.2-.484-3.293q-.253-1.7-.5-3.393-.493-3.392-.951-6.785c0,.03.008.063.012.092q-.357-2.654-.686-5.316c-.22-1.772-.427-3.546-.637-5.319-.423-3.546-.811-7.1-1.184-10.649q-1.014-9.649-2.048-19.3a.132.132,0,0,0-.128-.129.129.129,0,0,0-.129.129" transform="translate(-188.411 160.806)" fill="#e7e7e7"/>
      </g>
      <g id="Grupo_141953" data-name="Grupo 141953" transform="translate(210.473 -186.02)">
        <path id="Trazado_157000" data-name="Trazado 157000" d="M227.115-166.343q.366-.049.735-.089a20.936,20.936,0,0,1,3.827-.032,20.446,20.446,0,0,1,3.75.658,17.7,17.7,0,0,1,2.307.818,12.335,12.335,0,0,1,2.162,1.176.445.445,0,0,1,.171.2.444.444,0,0,1,.1.317c-.06,3.535-.085,7.376-.074,11.74v.353l0,.352c0,.02,0,.04,0,.061l0,.07v.332l0,.375,0,.815,0,.71q.016,2.935.042,5.872.021,2.8.051,5.6l0,.369c.049,4.786.094,9.458.11,14a.3.3,0,0,1,0,.1q.009,1.7.005,3.406c-.012,5.878-.086,11.026-.23,15.738a.33.33,0,0,1-.068.176,5.5,5.5,0,0,1-.577.452,10.255,10.255,0,0,1-.964.591,13.069,13.069,0,0,1-1.311.562,15.824,15.824,0,0,1-3.3.805l-.14.02a20.909,20.909,0,0,1-3.863.169c-.581-.06-1.145-.143-1.679-.248a16.388,16.388,0,0,1-3.9-1.3,13.491,13.491,0,0,1-1.861-1.105c-.2-6.146-.457-12.37-.709-18.39l-.022-.513-.038-.9-.127-3.027c-.346-8.3-.672-16.417-.852-24.539-.086-4-.133-7.619-.144-11.074a.363.363,0,0,1,.005-.1c-.008-.656-.007-1.316-.006-1.976a.4.4,0,0,1,.153-.264.415.415,0,0,1,.17-.2,16.732,16.732,0,0,1,6.262-2.079" transform="translate(-220.529 166.536)" fill="#fefefe"/>
        <path id="Trazado_157001" data-name="Trazado 157001" d="M228.6-165.437q-.53.045-1.058.116t-1.052.177c-.346.07-.69.149-1.031.242-.3.082-.611.171-.91.277a5.673,5.673,0,0,0-.879.382,2.539,2.539,0,0,0-.522.372.985.985,0,0,0-.284.444.731.731,0,0,0,.021.462,1.2,1.2,0,0,0,.336.46,3.316,3.316,0,0,0,.595.412,8.086,8.086,0,0,0,1.684.688,11.6,11.6,0,0,0,1.692.351,15,15,0,0,0,1.829.124,23.24,23.24,0,0,0,3.789-.3,39.318,39.318,0,0,0,7.014-1.841.128.128,0,0,0,.066-.169.127.127,0,0,0-.167-.066q-1.391.49-2.812.887l.035-.011a35.151,35.151,0,0,1-3.714.833,24.391,24.391,0,0,1-3.836.343h.042a13.849,13.849,0,0,1-3.512-.414l.031.009a8.583,8.583,0,0,1-1.889-.742l.006,0-.011-.006-.034-.018.021.011a3.121,3.121,0,0,1-.572-.409,1.4,1.4,0,0,1-.163-.2.884.884,0,0,1-.049-.112.485.485,0,0,1-.013-.083.568.568,0,0,1,.01-.081.983.983,0,0,1,.046-.106,1.383,1.383,0,0,1,.1-.125,2.031,2.031,0,0,1,.343-.258,7.159,7.159,0,0,1,1.624-.629l-.009,0,.031-.009.027-.008-.006,0a19.177,19.177,0,0,1,4.833-.625h.045a18.174,18.174,0,0,1,2.706.183c.3.043.6.1.906.155.252.049.5.1.752.167h0a4.655,4.655,0,0,1,1.057.4,1.734,1.734,0,0,1,.287.213.956.956,0,0,1,.089.114.623.623,0,0,1,.047.1.633.633,0,0,1,.016.094.8.8,0,0,1-.02.129.642.642,0,0,1-.043.1.806.806,0,0,1-.094.119,1.348,1.348,0,0,1-.214.162,3.188,3.188,0,0,1-.717.281l.049-.013a9.535,9.535,0,0,1-1.7.275c-.606.049-1.213.069-1.82.071h.014c-.7,0-1.4-.019-2.1-.074a10.175,10.175,0,0,1-1.766-.284l.038.009a2.525,2.525,0,0,1-.554-.2.73.73,0,0,1-.111-.078.261.261,0,0,1-.03-.035l0-.012,0-.009.012-.026.02-.027a1.129,1.129,0,0,1,.158-.119l-.031.02a2.99,2.99,0,0,1,.692-.271l-.01,0a9.921,9.921,0,0,1,1.4-.262,13.512,13.512,0,0,1,1.561-.1h-.036a7.019,7.019,0,0,1,1.818.191l-.031-.007a2.6,2.6,0,0,1,.265.085l-.073.031c-.11.042-.219.08-.332.114a5.542,5.542,0,0,1-1.332.143h.038c-.28,0-.557-.013-.836-.027a.145.145,0,0,0-.161.123.142.142,0,0,0,.123.161,9.752,9.752,0,0,0,1.521-.014,4.124,4.124,0,0,0,.743-.144,3.248,3.248,0,0,0,.339-.115c.111-.048.217-.1.321-.158a.133.133,0,0,0,.078-.138.133.133,0,0,0-.078-.1,3.17,3.17,0,0,0-1-.3,8.387,8.387,0,0,0-1.277-.1,13.033,13.033,0,0,0-1.365.06,11.423,11.423,0,0,0-1.275.184,6.281,6.281,0,0,0-.867.233,2.151,2.151,0,0,0-.321.139.929.929,0,0,0-.216.145.461.461,0,0,0-.132.19.32.32,0,0,0,.009.226.784.784,0,0,0,.437.351,3.569,3.569,0,0,0,.462.158c.2.054.4.1.6.139.336.065.672.117,1.013.15.822.08,1.649.114,2.475.112.484,0,.964-.013,1.446-.044a12.424,12.424,0,0,0,1.361-.157c.2-.036.408-.08.61-.134a3.914,3.914,0,0,0,.485-.161,2.259,2.259,0,0,0,.423-.227,1.2,1.2,0,0,0,.273-.258.984.984,0,0,0,.107-.183.909.909,0,0,0,.06-.223.728.728,0,0,0-.01-.248.877.877,0,0,0-.084-.231,1.221,1.221,0,0,0-.4-.419,2.941,2.941,0,0,0-.546-.3,7.581,7.581,0,0,0-1.321-.392c-.455-.1-.912-.183-1.374-.243a17.663,17.663,0,0,0-2.084-.151,21.016,21.016,0,0,0-2.142.073m-1.5,2.289.017.016-.017-.016m8.587-1.017.013.008-.013-.008m-3.183.609-.007,0,.007,0m3.651-.108v.031c0-.01,0-.021,0-.031m-10.18,2.011-.014,0,.014,0m-1.9-.746-.017-.009.013.007,0,0m3.865-1.208.025-.007-.025.007m2.329-1.442h0m-4.886.637.042-.012-.021.005-.021.006" transform="translate(-221.027 166.315)" fill="#e7e7e7"/>
        <path id="Trazado_157002" data-name="Trazado 157002" d="M241.146-158.552q.155,5.357.382,10.713t.43,10.7q.108,2.673.209,5.345c.071,1.783.141,3.564.2,5.345.111,3.564.207,7.13.264,10.7q.045,2.89.038,5.783c0,.963-.009,1.93-.024,2.894-.015,1-.034,2-.077,3a.368.368,0,0,1-.144.251.375.375,0,0,1-.285.078.391.391,0,0,1-.25-.142c-.019-.03-.034-.058-.053-.086a.391.391,0,0,1-.027-.2c0-1.11.02-2.219.031-3.328q.02-1.716.034-3.43.027-3.428.02-6.85c0,.03,0,.063,0,.092q-.006-2.677-.042-5.359c-.022-1.785-.059-3.572-.091-5.357-.063-3.571-.161-7.141-.274-10.711q-.307-9.7-.593-19.4a.132.132,0,0,1,.11-.144.128.128,0,0,1,.144.11" transform="translate(-224.93 164.834)" fill="#e7e7e7"/>
      </g>
      <g id="Grupo_141954" data-name="Grupo 141954" transform="translate(238.964 -185.603)">
        <path id="Trazado_157003" data-name="Trazado 157003" d="M281.739-164.874c-.233-.08-.468-.156-.7-.229a21,21,0,0,0-3.749-.77,20.472,20.472,0,0,0-3.807-.077,17.612,17.612,0,0,0-2.421.358,12.356,12.356,0,0,0-2.349.737.443.443,0,0,0-.205.161.442.442,0,0,0-.161.291c-.623,3.48-1.34,7.253-2.19,11.535l-.068.346-.07.345q-.006.029-.009.061l-.016.068-.065.326-.074.367-.16.8-.139.7q-.582,2.876-1.173,5.754-.561,2.743-1.129,5.483l-.075.361q-1.456,7.029-2.808,13.72a.351.351,0,0,0-.016.1q-.337,1.667-.662,3.341c-1.122,5.77-2.041,10.836-2.809,15.487a.33.33,0,0,0,.033.186,5.6,5.6,0,0,0,.479.555,10.139,10.139,0,0,0,.832.765,13.027,13.027,0,0,0,1.177.8,15.832,15.832,0,0,0,3.083,1.427l.133.045a20.843,20.843,0,0,0,3.758.911c.581.053,1.151.08,1.695.081a16.457,16.457,0,0,0,4.078-.528,13.5,13.5,0,0,0,2.039-.727c1.378-5.992,2.834-12.049,4.242-17.908l.12-.5.211-.876.709-2.947c1.939-8.074,3.823-15.979,5.566-23.914.854-3.9,1.6-7.45,2.276-10.838a.362.362,0,0,0,.013-.1c.134-.643.26-1.29.387-1.939a.4.4,0,0,0-.1-.288.427.427,0,0,0-.129-.226,16.739,16.739,0,0,0-5.745-3.247" transform="translate(-256.876 166.004)" fill="#fefefe"/>
        <path id="Trazado_157004" data-name="Trazado 157004" d="M284.016-164.159a21.14,21.14,0,0,0-2.087-.484,17.733,17.733,0,0,0-2.074-.253c-.465-.03-.93-.034-1.4-.027a7.684,7.684,0,0,0-1.372.13,2.953,2.953,0,0,0-.593.185,1.222,1.222,0,0,0-.47.335.9.9,0,0,0-.127.211.715.715,0,0,0-.057.241.909.909,0,0,0,.016.23,1.031,1.031,0,0,0,.07.2,1.192,1.192,0,0,0,.218.306,2.189,2.189,0,0,0,.371.3,3.892,3.892,0,0,0,.445.252c.187.092.379.175.572.249a12.207,12.207,0,0,0,1.306.415c.466.125.936.228,1.409.322.811.161,1.628.287,2.45.368.342.032.68.046,1.023.047.2,0,.409-.005.612-.021a3.466,3.466,0,0,0,.484-.065.786.786,0,0,0,.5-.26.32.32,0,0,0,.052-.219.456.456,0,0,0-.093-.212.944.944,0,0,0-.183-.183,2.149,2.149,0,0,0-.288-.2,6.341,6.341,0,0,0-.806-.4,11.625,11.625,0,0,0-1.215-.427c-.437-.13-.882-.236-1.328-.321a8.359,8.359,0,0,0-1.272-.148,3.151,3.151,0,0,0-1.038.107.134.134,0,0,0-.1.085.135.135,0,0,0,.05.151,3.527,3.527,0,0,0,.285.216,3.365,3.365,0,0,0,.31.179,4.145,4.145,0,0,0,.7.285,9.757,9.757,0,0,0,1.49.307.142.142,0,0,0,.152-.134.145.145,0,0,0-.135-.152c-.277-.04-.55-.083-.825-.134l.038.006a5.587,5.587,0,0,1-1.28-.4c-.1-.055-.2-.113-.3-.176-.023-.014-.044-.029-.066-.044.091-.016.183-.026.276-.033l-.032,0a7.047,7.047,0,0,1,1.821.162l-.036-.006a13.59,13.59,0,0,1,1.513.4,9.846,9.846,0,0,1,1.321.527l-.009,0a2.992,2.992,0,0,1,.626.4l-.027-.026a1.073,1.073,0,0,1,.132.147c0,.01.01.02.014.031l.007.028,0,.009-.008.011a.307.307,0,0,1-.035.028.76.76,0,0,1-.124.056,2.553,2.553,0,0,1-.583.091l.038,0a10.178,10.178,0,0,1-1.788-.061c-.7-.082-1.387-.2-2.072-.333l.013,0c-.595-.119-1.187-.256-1.772-.421a9.55,9.55,0,0,1-1.611-.6l.046.021a3.178,3.178,0,0,1-.649-.414,1.316,1.316,0,0,1-.179-.2.815.815,0,0,1-.07-.135.784.784,0,0,1-.023-.105.8.8,0,0,1,.006-.13.768.768,0,0,1,.033-.089.61.61,0,0,1,.067-.093.945.945,0,0,1,.109-.094,1.7,1.7,0,0,1,.323-.154,4.649,4.649,0,0,1,1.112-.185h0c.257-.015.513-.02.77-.02.307,0,.613.006.919.023a18.277,18.277,0,0,1,2.691.341l-.014,0,.047.01.014,0h0a19.168,19.168,0,0,1,4.621,1.544l-.005,0,.026.013.028.014-.009,0a7.167,7.167,0,0,1,1.472.93,2.055,2.055,0,0,1,.287.32,1.263,1.263,0,0,1,.073.141,1.032,1.032,0,0,1,.025.113.723.723,0,0,1-.005.082.557.557,0,0,1-.028.079,1.038,1.038,0,0,1-.069.1,1.4,1.4,0,0,1-.2.167,3.062,3.062,0,0,1-.64.291l.024-.006-.036.012-.013,0,.007,0a8.622,8.622,0,0,1-2,.365l.033,0a13.857,13.857,0,0,1-3.526-.271l.042.008a24.5,24.5,0,0,1-3.7-1.077,35.3,35.3,0,0,1-3.484-1.533l.032.017q-1.316-.661-2.588-1.413a.129.129,0,0,0-.177.033.129.129,0,0,0,.032.179,39.389,39.389,0,0,0,6.528,3.157,23.312,23.312,0,0,0,3.66,1.026,15.284,15.284,0,0,0,1.818.231,11.67,11.67,0,0,0,1.728-.019,8.1,8.1,0,0,0,1.785-.35,3.357,3.357,0,0,0,.664-.29,1.221,1.221,0,0,0,.419-.386.732.732,0,0,0,.11-.45.984.984,0,0,0-.193-.49,2.532,2.532,0,0,0-.441-.466,5.671,5.671,0,0,0-.789-.544c-.273-.161-.556-.307-.839-.447-.317-.157-.639-.3-.966-.437s-.662-.261-1-.376-.675-.22-1.016-.318m1.033,2.536-.02.013.02-.013m-8.23-2.653-.013,0,.013,0m3.006,1.211.006,0-.006,0m-3.561-.81a.226.226,0,0,1-.005.031l.005-.031m9.6,3.936h0m2.011-.365h.005l.013-.005-.018.006m-3.56-1.931-.024-.011.024.011m-2.008-1.864-.033-.007.044.009-.011,0m4.671,1.566-.019-.009-.02-.01.039.02" transform="translate(-260.251 165.771)" fill="#e7e7e7"/>
        <path id="Trazado_157005" data-name="Trazado 157005" d="M271.761-159.331q-1.184,5.227-2.439,10.438t-2.485,10.415q-.622,2.6-1.235,5.2c-.413,1.736-.825,3.471-1.223,5.207-.795,3.477-1.577,6.957-2.321,10.444q-.6,2.828-1.152,5.667-.277,1.419-.535,2.845c-.179.985-.353,1.97-.5,2.959a.369.369,0,0,0,.092.274.376.376,0,0,0,.265.131.386.386,0,0,0,.273-.092c.023-.025.045-.05.067-.074a.384.384,0,0,0,.066-.192c.214-1.089.408-2.182.611-3.272q.31-1.687.628-3.372.633-3.368,1.3-6.726l-.019.091q.522-2.626,1.075-5.25c.366-1.747.746-3.494,1.122-5.239q1.125-5.238,2.334-10.458,2.171-9.456,4.322-18.919a.132.132,0,0,0-.08-.163.128.128,0,0,0-.163.08" transform="translate(-257.523 164.58)" fill="#e7e7e7"/>
      </g>
      <g id="Grupo_141955" data-name="Grupo 141955" transform="translate(258.804 -180.922)">
        <path id="Trazado_157006" data-name="Trazado 157006" d="M307.072-159.67q.363.071.724.154a20.918,20.918,0,0,1,3.63,1.21,20.4,20.4,0,0,1,3.334,1.838,17.666,17.666,0,0,1,1.917,1.522,12.316,12.316,0,0,1,1.664,1.814.436.436,0,0,1,.1.242.442.442,0,0,1-.005.332c-1.2,3.324-2.472,6.949-3.879,11.082l-.114.334-.113.333a.467.467,0,0,1-.022.057l-.02.067-.107.315-.118.354-.263.773-.228.673q-.936,2.781-1.864,5.568-.888,2.655-1.768,5.312l-.116.35q-2.259,6.814-4.437,13.282a.324.324,0,0,1-.034.092q-.543,1.612-1.1,3.223c-1.917,5.557-3.658,10.4-5.321,14.814a.332.332,0,0,1-.122.144,5.681,5.681,0,0,1-.692.241,10.22,10.22,0,0,1-1.1.246,13.066,13.066,0,0,1-1.422.107,15.914,15.914,0,0,1-3.383-.308l-.138-.027a20.9,20.9,0,0,1-3.709-1.093c-.529-.245-1.036-.506-1.507-.778a16.462,16.462,0,0,1-3.266-2.5,13.592,13.592,0,0,1-1.4-1.65c1.807-5.877,3.578-11.849,5.293-17.626l.146-.492.256-.864.861-2.905c2.363-7.96,4.689-15.747,7.152-23.489,1.214-3.808,2.345-7.249,3.455-10.521a.36.36,0,0,1,.037-.089c.205-.623.42-1.247.635-1.872a.4.4,0,0,1,.23-.2.426.426,0,0,1,.225-.131,16.731,16.731,0,0,1,6.6.065" transform="translate(-282.186 160.033)" fill="#fefefe"/>
        <path id="Trazado_157007" data-name="Trazado 157007" d="M313.125-158.487c-.344-.086-.69-.165-1.039-.233s-.7-.127-1.053-.174-.7-.082-1.054-.105c-.314-.021-.633-.036-.95-.033a5.569,5.569,0,0,0-.955.076,2.518,2.518,0,0,0-.615.182.986.986,0,0,0-.412.328.731.731,0,0,0-.13.444,1.209,1.209,0,0,0,.169.544,3.314,3.314,0,0,0,.429.583,8.137,8.137,0,0,0,1.37,1.2,11.743,11.743,0,0,0,1.486.88,15.126,15.126,0,0,0,1.69.71,23.3,23.3,0,0,0,3.682.944,39.34,39.34,0,0,0,7.232.534.128.128,0,0,0,.118-.138.128.128,0,0,0-.137-.117c-.983.009-1.968-.015-2.947-.073l.036,0a35.418,35.418,0,0,1-3.783-.416,24.533,24.533,0,0,1-3.741-.919l.04.014a13.881,13.881,0,0,1-3.188-1.53l.027.018a8.631,8.631,0,0,1-1.547-1.315l0,.005-.009-.009-.025-.028.016.017a3.072,3.072,0,0,1-.408-.572,1.426,1.426,0,0,1-.089-.245.93.93,0,0,1-.009-.121.628.628,0,0,1,.015-.083.809.809,0,0,1,.036-.074,1.15,1.15,0,0,1,.078-.085,1.32,1.32,0,0,1,.133-.085,2.037,2.037,0,0,1,.408-.133,7.176,7.176,0,0,1,1.739-.068h-.009l.031,0,.029,0h-.006a19.188,19.188,0,0,1,4.774.976h0l.014,0,.046.016-.013,0a18.245,18.245,0,0,1,2.5,1.051c.274.14.54.288.807.441.223.129.441.261.656.4l0,0a4.668,4.668,0,0,1,.87.718,1.68,1.68,0,0,1,.2.295.907.907,0,0,1,.048.136.7.7,0,0,1,.01.114.651.651,0,0,1-.016.093.74.74,0,0,1-.06.116.7.7,0,0,1-.073.079.833.833,0,0,1-.127.082,1.3,1.3,0,0,1-.256.084,3.16,3.16,0,0,1-.769.034l.05,0a9.55,9.55,0,0,1-1.693-.29c-.589-.151-1.17-.328-1.745-.522l.013,0c-.662-.227-1.318-.471-1.96-.749a10.18,10.18,0,0,1-1.578-.841l.032.02a2.539,2.539,0,0,1-.459-.371.787.787,0,0,1-.079-.111.2.2,0,0,1-.016-.042l0-.013,0-.009.02-.021.027-.019a1.046,1.046,0,0,1,.189-.062l-.037.009a2.948,2.948,0,0,1,.743-.032l-.01,0a9.9,9.9,0,0,1,1.406.2,13.6,13.6,0,0,1,1.51.413l-.035-.013a7,7,0,0,1,1.658.771l-.027-.018a2.734,2.734,0,0,1,.223.166l-.078.005c-.118,0-.233,0-.35,0a5.522,5.522,0,0,1-1.307-.3l.036.013c-.263-.093-.522-.192-.782-.3a.146.146,0,0,0-.192.064.142.142,0,0,0,.063.193,9.652,9.652,0,0,0,1.444.48,4.088,4.088,0,0,0,.749.1,3.215,3.215,0,0,0,.358,0,3.484,3.484,0,0,0,.354-.045.134.134,0,0,0,.119-.105.132.132,0,0,0-.042-.122,3.133,3.133,0,0,0-.844-.612,8.3,8.3,0,0,0-1.176-.509,13.5,13.5,0,0,0-1.31-.386,11.649,11.649,0,0,0-1.266-.238,6.136,6.136,0,0,0-.9-.061,2.158,2.158,0,0,0-.349.027.935.935,0,0,0-.251.067.465.465,0,0,0-.186.137.323.323,0,0,0-.065.217.785.785,0,0,0,.3.473,3.553,3.553,0,0,0,.386.3c.168.114.343.223.52.325.3.171.6.328.909.471.753.342,1.523.643,2.305.909.458.155.916.3,1.382.427a12.525,12.525,0,0,0,1.338.294c.2.031.412.056.62.071a3.988,3.988,0,0,0,.512,0,2.2,2.2,0,0,0,.473-.077,1.208,1.208,0,0,0,.341-.155.959.959,0,0,0,.16-.139.882.882,0,0,0,.129-.191.713.713,0,0,0,.071-.237.891.891,0,0,0,0-.246,1.232,1.232,0,0,0-.238-.525,2.981,2.981,0,0,0-.421-.457,7.556,7.556,0,0,0-1.123-.8c-.4-.24-.8-.469-1.221-.676a17.876,17.876,0,0,0-1.923-.819,20.947,20.947,0,0,0-2.05-.626m-2.164,1.678.011.021-.011-.021m8.453,1.823.009.011-.009-.011m-3.208-.456h0m3.488,1.081-.01.03a.192.192,0,0,1,.01-.03m-10.281-1.4-.013-.008.013.008m-1.559-1.322-.013-.015.009.011,0,0m4.049.111.026,0-.026,0m2.671-.61-.01,0a.332.332,0,0,0,.042.014l-.032-.011m-4.829-.982a.431.431,0,0,0,.045,0l-.023,0-.022,0" transform="translate(-287.531 159.816)" fill="#e7e7e7"/>
        <path id="Trazado_157008" data-name="Trazado 157008" d="M318.334-148.28q-1.591,5.118-3.113,10.258t-3.063,10.261q-.764,2.563-1.536,5.123c-.512,1.709-1.023,3.418-1.548,5.12-1.051,3.407-2.116,6.812-3.219,10.2q-.9,2.748-1.84,5.482-.47,1.368-.961,2.73c-.339.941-.68,1.882-1.046,2.813a.368.368,0,0,1-.218.191.373.373,0,0,1-.294-.02.382.382,0,0,1-.19-.216c-.009-.034-.014-.066-.022-.1a.387.387,0,0,1,.039-.2c.36-1.05.738-2.094,1.109-3.139q.575-1.617,1.144-3.234,1.137-3.232,2.24-6.473c-.009.029-.02.06-.03.089q.863-2.535,1.7-5.083c.558-1.7,1.1-3.4,1.652-5.1,1.1-3.4,2.163-6.806,3.214-10.22q2.855-9.273,5.73-18.542a.132.132,0,0,1,.151-.1.129.129,0,0,1,.1.15" transform="translate(-286.314 157.526)" fill="#e7e7e7"/>
      </g>
    </g>
  </g>
</svg>
