<svg xmlns="http://www.w3.org/2000/svg" xmlns:xlink="http://www.w3.org/1999/xlink" width="715" height="331.774" viewBox="0 0 715 331.774">
  <defs>
    <clipPath id="clip-path">
      <path id="Trazado_157062" data-name="Trazado 157062" d="M715.134,380.353c-9.391,9.65-24.071,15.87-40.583,15.87s-31.194-6.219-40.584-15.87c-24.514,6.824-84.784,18.857-77.228,91.189H792.362C799.92,399.21,739.647,387.177,715.134,380.353Z" transform="translate(-556.088 -380.353)" fill="none"/>
    </clipPath>
  </defs>
  <g id="Grupo_141991" data-name="Grupo 141991" transform="translate(-442.5 -8841)">
    <g id="Grupo_141979" data-name="Grupo 141979" transform="translate(38 1)">
      <g id="Grupo_141978" data-name="Grupo 141978" transform="translate(673.745 8896.216)">
        <g id="Grupo_141968" data-name="Grupo 141968" transform="translate(0 140.171)">
          <g id="Grupo_141958" data-name="Grupo 141958" transform="translate(1.694)">
            <path id="Trazado_157009" data-name="Trazado 157009" d="M705.957,395.1c-13.416-7.319-9.758-42.693-9.758-42.693L676.106,353.7v-1.289l-2.15.644-2.15-.644V353.7l-20.093-1.294s3.659,35.374-9.758,42.693S549.262,406.08,557.8,487.8H790.113C798.651,406.08,719.373,402.42,705.957,395.1Z" transform="translate(-557.158 -352.41)" fill="#ffac9d"/>
            <path id="Trazado_157010" data-name="Trazado 157010" d="M615.157,385.978q24.072-3.59,48.115-7.4c-2.254-12.2-.813-26.164-.813-26.164L642.366,353.7v-1.289l-2.15.644-2.15-.644V353.7l-20.094-1.294S620.092,372.963,615.157,385.978Z" transform="translate(-523.418 -352.41)" fill="#cc887f"/>
          </g>
          <g id="Grupo_141967" data-name="Grupo 141967" transform="translate(0 44.199)">
            <path id="Trazado_157011" data-name="Trazado 157011" d="M715.134,380.353c-9.391,9.65-24.071,15.87-40.583,15.87s-31.194-6.219-40.584-15.87c-24.514,6.824-84.784,18.857-77.228,91.189H792.362C799.92,399.21,739.647,387.177,715.134,380.353Z" transform="translate(-556.088 -380.353)" fill="#6f96bd"/>
            <g id="Grupo_141966" data-name="Grupo 141966">
              <g id="Grupo_141965" data-name="Grupo 141965" clip-path="url(#clip-path)">
                <g id="Grupo_141964" data-name="Grupo 141964" transform="translate(-0.757 6.037)">
                  <g id="Grupo_141959" data-name="Grupo 141959">
                    <path id="Trazado_157012" data-name="Trazado 157012" d="M678.281,384.169l6.236,9.355-11.849,2.495Z" transform="translate(-487.512 -384.169)" fill="none" stroke="#352c38" stroke-miterlimit="10" stroke-width="0.302"/>
                    <path id="Trazado_157013" data-name="Trazado 157013" d="M663.648,384.169l6.237,9.355-11.849,2.495Z" transform="translate(-496.024 -384.169)" fill="none" stroke="#352c38" stroke-miterlimit="10" stroke-width="0.302"/>
                    <path id="Trazado_157014" data-name="Trazado 157014" d="M649.016,384.169l6.236,9.355L643.4,396.019Z" transform="translate(-504.536 -384.169)" fill="none" stroke="#352c38" stroke-miterlimit="10" stroke-width="0.302"/>
                    <path id="Trazado_157015" data-name="Trazado 157015" d="M634.384,384.169l6.237,9.355-11.849,2.495Z" transform="translate(-513.048 -384.169)" fill="none" stroke="#352c38" stroke-miterlimit="10" stroke-width="0.302"/>
                    <path id="Trazado_157016" data-name="Trazado 157016" d="M619.751,384.169l6.236,9.355-11.849,2.495Z" transform="translate(-521.561 -384.169)" fill="none" stroke="#352c38" stroke-miterlimit="10" stroke-width="0.302"/>
                    <path id="Trazado_157017" data-name="Trazado 157017" d="M605.119,384.169l6.237,9.355-11.849,2.495Z" transform="translate(-530.073 -384.169)" fill="none" stroke="#352c38" stroke-miterlimit="10" stroke-width="0.302"/>
                    <path id="Trazado_157018" data-name="Trazado 157018" d="M590.487,384.169l6.237,9.355-11.849,2.495Z" transform="translate(-538.585 -384.169)" fill="none" stroke="#352c38" stroke-miterlimit="10" stroke-width="0.302"/>
                    <path id="Trazado_157019" data-name="Trazado 157019" d="M575.854,384.169l6.236,9.355-11.849,2.495Z" transform="translate(-547.097 -384.169)" fill="none" stroke="#352c38" stroke-miterlimit="10" stroke-width="0.302"/>
                    <path id="Trazado_157020" data-name="Trazado 157020" d="M561.222,384.169l6.237,9.355-11.849,2.495Z" transform="translate(-555.609 -384.169)" fill="none" stroke="#352c38" stroke-miterlimit="10" stroke-width="0.302"/>
                    <path id="Trazado_157021" data-name="Trazado 157021" d="M692.913,384.169l6.237,9.355L687.3,396.019Z" transform="translate(-479 -384.169)" fill="none" stroke="#352c38" stroke-miterlimit="10" stroke-width="0.302"/>
                  </g>
                  <g id="Grupo_141960" data-name="Grupo 141960" transform="translate(13.539 19.962)">
                    <path id="Trazado_157022" data-name="Trazado 157022" d="M686.84,396.79l6.237,9.355-11.85,2.495Z" transform="translate(-496.071 -396.79)" fill="none" stroke="#352c38" stroke-miterlimit="10" stroke-width="0.302"/>
                    <path id="Trazado_157023" data-name="Trazado 157023" d="M672.207,396.79l6.237,9.355-11.849,2.495Z" transform="translate(-504.583 -396.79)" fill="none" stroke="#352c38" stroke-miterlimit="10" stroke-width="0.302"/>
                    <path id="Trazado_157024" data-name="Trazado 157024" d="M657.575,396.79l6.237,9.355-11.849,2.495Z" transform="translate(-513.096 -396.79)" fill="none" stroke="#352c38" stroke-miterlimit="10" stroke-width="0.302"/>
                    <path id="Trazado_157025" data-name="Trazado 157025" d="M642.943,396.79l6.237,9.355-11.849,2.495Z" transform="translate(-521.608 -396.79)" fill="none" stroke="#352c38" stroke-miterlimit="10" stroke-width="0.302"/>
                    <path id="Trazado_157026" data-name="Trazado 157026" d="M628.311,396.79l6.237,9.355L622.7,408.639Z" transform="translate(-530.12 -396.79)" fill="none" stroke="#352c38" stroke-miterlimit="10" stroke-width="0.302"/>
                    <path id="Trazado_157027" data-name="Trazado 157027" d="M613.678,396.79l6.237,9.355-11.85,2.495Z" transform="translate(-538.632 -396.79)" fill="none" stroke="#352c38" stroke-miterlimit="10" stroke-width="0.302"/>
                    <path id="Trazado_157028" data-name="Trazado 157028" d="M599.046,396.79l6.237,9.355-11.849,2.495Z" transform="translate(-547.144 -396.79)" fill="none" stroke="#352c38" stroke-miterlimit="10" stroke-width="0.302"/>
                    <path id="Trazado_157029" data-name="Trazado 157029" d="M584.414,396.79l6.237,9.355L578.8,408.639Z" transform="translate(-555.656 -396.79)" fill="none" stroke="#352c38" stroke-miterlimit="10" stroke-width="0.302"/>
                    <path id="Trazado_157030" data-name="Trazado 157030" d="M569.781,396.79l6.237,9.355-11.849,2.495Z" transform="translate(-564.169 -396.79)" fill="none" stroke="#352c38" stroke-miterlimit="10" stroke-width="0.302"/>
                    <path id="Trazado_157031" data-name="Trazado 157031" d="M701.472,396.79l6.237,9.355-11.849,2.495Z" transform="translate(-487.559 -396.79)" fill="none" stroke="#352c38" stroke-miterlimit="10" stroke-width="0.302"/>
                  </g>
                  <g id="Grupo_141961" data-name="Grupo 141961" transform="translate(0 39.924)">
                    <path id="Trazado_157032" data-name="Trazado 157032" d="M678.281,409.41l6.236,9.355-11.849,2.495Z" transform="translate(-487.512 -409.41)" fill="none" stroke="#352c38" stroke-miterlimit="10" stroke-width="0.302"/>
                    <path id="Trazado_157033" data-name="Trazado 157033" d="M663.648,409.41l6.237,9.355-11.849,2.495Z" transform="translate(-496.024 -409.41)" fill="none" stroke="#352c38" stroke-miterlimit="10" stroke-width="0.302"/>
                    <path id="Trazado_157034" data-name="Trazado 157034" d="M649.016,409.41l6.236,9.355L643.4,421.259Z" transform="translate(-504.536 -409.41)" fill="none" stroke="#352c38" stroke-miterlimit="10" stroke-width="0.302"/>
                    <path id="Trazado_157035" data-name="Trazado 157035" d="M634.384,409.41l6.237,9.355-11.849,2.495Z" transform="translate(-513.048 -409.41)" fill="none" stroke="#352c38" stroke-miterlimit="10" stroke-width="0.302"/>
                    <path id="Trazado_157036" data-name="Trazado 157036" d="M619.751,409.41l6.236,9.355-11.849,2.495Z" transform="translate(-521.561 -409.41)" fill="none" stroke="#352c38" stroke-miterlimit="10" stroke-width="0.302"/>
                    <path id="Trazado_157037" data-name="Trazado 157037" d="M605.119,409.41l6.237,9.355-11.849,2.495Z" transform="translate(-530.073 -409.41)" fill="none" stroke="#352c38" stroke-miterlimit="10" stroke-width="0.302"/>
                    <path id="Trazado_157038" data-name="Trazado 157038" d="M590.487,409.41l6.237,9.355-11.849,2.495Z" transform="translate(-538.585 -409.41)" fill="none" stroke="#352c38" stroke-miterlimit="10" stroke-width="0.302"/>
                    <path id="Trazado_157039" data-name="Trazado 157039" d="M575.854,409.41l6.236,9.355-11.849,2.495Z" transform="translate(-547.097 -409.41)" fill="none" stroke="#352c38" stroke-miterlimit="10" stroke-width="0.302"/>
                    <path id="Trazado_157040" data-name="Trazado 157040" d="M561.222,409.41l6.237,9.355-11.849,2.495Z" transform="translate(-555.609 -409.41)" fill="none" stroke="#352c38" stroke-miterlimit="10" stroke-width="0.302"/>
                    <path id="Trazado_157041" data-name="Trazado 157041" d="M692.913,409.41l6.237,9.355L687.3,421.259Z" transform="translate(-479 -409.41)" fill="none" stroke="#352c38" stroke-miterlimit="10" stroke-width="0.302"/>
                  </g>
                  <g id="Grupo_141962" data-name="Grupo 141962" transform="translate(0 79.848)">
                    <path id="Trazado_157042" data-name="Trazado 157042" d="M678.281,434.65l6.236,9.355L672.668,446.5Z" transform="translate(-487.512 -434.65)" fill="none" stroke="#352c38" stroke-miterlimit="10" stroke-width="0.302"/>
                    <path id="Trazado_157043" data-name="Trazado 157043" d="M663.648,434.65l6.237,9.355L658.035,446.5Z" transform="translate(-496.024 -434.65)" fill="none" stroke="#352c38" stroke-miterlimit="10" stroke-width="0.302"/>
                    <path id="Trazado_157044" data-name="Trazado 157044" d="M649.016,434.65l6.236,9.355L643.4,446.5Z" transform="translate(-504.536 -434.65)" fill="none" stroke="#352c38" stroke-miterlimit="10" stroke-width="0.302"/>
                    <path id="Trazado_157045" data-name="Trazado 157045" d="M634.384,434.65l6.237,9.355L628.771,446.5Z" transform="translate(-513.048 -434.65)" fill="none" stroke="#352c38" stroke-miterlimit="10" stroke-width="0.302"/>
                    <path id="Trazado_157046" data-name="Trazado 157046" d="M619.751,434.65l6.236,9.355L614.138,446.5Z" transform="translate(-521.561 -434.65)" fill="none" stroke="#352c38" stroke-miterlimit="10" stroke-width="0.302"/>
                    <path id="Trazado_157047" data-name="Trazado 157047" d="M605.119,434.65l6.237,9.355L599.506,446.5Z" transform="translate(-530.073 -434.65)" fill="none" stroke="#352c38" stroke-miterlimit="10" stroke-width="0.302"/>
                    <path id="Trazado_157048" data-name="Trazado 157048" d="M590.487,434.65l6.237,9.355L584.874,446.5Z" transform="translate(-538.585 -434.65)" fill="none" stroke="#352c38" stroke-miterlimit="10" stroke-width="0.302"/>
                    <path id="Trazado_157049" data-name="Trazado 157049" d="M575.854,434.65l6.236,9.355L570.242,446.5Z" transform="translate(-547.097 -434.65)" fill="none" stroke="#352c38" stroke-miterlimit="10" stroke-width="0.302"/>
                    <path id="Trazado_157050" data-name="Trazado 157050" d="M561.222,434.65l6.237,9.355L555.609,446.5Z" transform="translate(-555.609 -434.65)" fill="none" stroke="#352c38" stroke-miterlimit="10" stroke-width="0.302"/>
                    <path id="Trazado_157051" data-name="Trazado 157051" d="M692.913,434.65l6.237,9.355L687.3,446.5Z" transform="translate(-479 -434.65)" fill="none" stroke="#352c38" stroke-miterlimit="10" stroke-width="0.302"/>
                  </g>
                  <g id="Grupo_141963" data-name="Grupo 141963" transform="translate(13.539 59.886)">
                    <path id="Trazado_157052" data-name="Trazado 157052" d="M686.84,422.03l6.237,9.355-11.85,2.495Z" transform="translate(-496.071 -422.03)" fill="none" stroke="#352c38" stroke-miterlimit="10" stroke-width="0.302"/>
                    <path id="Trazado_157053" data-name="Trazado 157053" d="M672.207,422.03l6.237,9.355-11.849,2.495Z" transform="translate(-504.583 -422.03)" fill="none" stroke="#352c38" stroke-miterlimit="10" stroke-width="0.302"/>
                    <path id="Trazado_157054" data-name="Trazado 157054" d="M657.575,422.03l6.237,9.355-11.849,2.495Z" transform="translate(-513.096 -422.03)" fill="none" stroke="#352c38" stroke-miterlimit="10" stroke-width="0.302"/>
                    <path id="Trazado_157055" data-name="Trazado 157055" d="M642.943,422.03l6.237,9.355L637.33,433.88Z" transform="translate(-521.608 -422.03)" fill="none" stroke="#352c38" stroke-miterlimit="10" stroke-width="0.302"/>
                    <path id="Trazado_157056" data-name="Trazado 157056" d="M628.311,422.03l6.237,9.355L622.7,433.88Z" transform="translate(-530.12 -422.03)" fill="none" stroke="#352c38" stroke-miterlimit="10" stroke-width="0.302"/>
                    <path id="Trazado_157057" data-name="Trazado 157057" d="M613.678,422.03l6.237,9.355-11.85,2.495Z" transform="translate(-538.632 -422.03)" fill="none" stroke="#352c38" stroke-miterlimit="10" stroke-width="0.302"/>
                    <path id="Trazado_157058" data-name="Trazado 157058" d="M599.046,422.03l6.237,9.355-11.849,2.495Z" transform="translate(-547.144 -422.03)" fill="none" stroke="#352c38" stroke-miterlimit="10" stroke-width="0.302"/>
                    <path id="Trazado_157059" data-name="Trazado 157059" d="M584.414,422.03l6.237,9.355L578.8,433.88Z" transform="translate(-555.656 -422.03)" fill="none" stroke="#352c38" stroke-miterlimit="10" stroke-width="0.302"/>
                    <path id="Trazado_157060" data-name="Trazado 157060" d="M569.781,422.03l6.237,9.355-11.849,2.495Z" transform="translate(-564.169 -422.03)" fill="none" stroke="#352c38" stroke-miterlimit="10" stroke-width="0.302"/>
                    <path id="Trazado_157061" data-name="Trazado 157061" d="M701.472,422.03l6.237,9.355-11.849,2.495Z" transform="translate(-487.559 -422.03)" fill="none" stroke="#352c38" stroke-miterlimit="10" stroke-width="0.302"/>
                  </g>
                </g>
              </g>
            </g>
          </g>
        </g>
        <g id="Grupo_141977" data-name="Grupo 141977" transform="translate(13.411)">
          <g id="Grupo_141969" data-name="Grupo 141969" transform="translate(32.999 71.645)">
            <path id="Trazado_157063" data-name="Trazado 157063" d="M638.178,372.806s-20.248-5-37.943,2.428-15.223-42.78-13.84-44.539,34.049-21.608,34.049-21.608Z" transform="translate(-585.429 -309.087)" fill="#d3b9a3"/>
            <path id="Trazado_157064" data-name="Trazado 157064" d="M640.932,371.935s20.51-3.791,37.731,4.682,17.741-41.8,16.466-43.637-32.7-23.6-32.7-23.6Z" transform="translate(-553.141 -308.914)" fill="#d3b9a3"/>
          </g>
          <g id="Grupo_141970" data-name="Grupo 141970" transform="translate(42.489 19.304)">
            <path id="Trazado_157065" data-name="Trazado 157065" d="M614.735,323.212c-3.953-12.263-13.314-9.424-14.19-9.128-.919.106-10.595,1.544-8.923,14.319,1.681,12.853,9.139,19.818,16.131,17.772C614.95,345.033,618.711,335.547,614.735,323.212Z" transform="translate(-591.429 -254.125)" fill="#cc887f"/>
            <path id="Trazado_157066" data-name="Trazado 157066" d="M656.659,323.212c3.953-12.263,13.313-9.424,14.19-9.128.919.106,10.595,1.544,8.923,14.319-1.681,12.853-9.138,19.818-16.131,17.772C656.444,345.033,652.682,335.547,656.659,323.212Z" transform="translate(-554.421 -254.125)" fill="#cc887f"/>
            <path id="Trazado_157067" data-name="Trazado 157067" d="M600.336,326.5c4.9-53.763,45.772-50.752,49.627-50.347,3.855-.4,44.729-3.417,49.627,50.347,4.927,54.086-19.163,89.408-49.627,87.465C619.5,415.912,595.409,380.59,600.336,326.5Z" transform="translate(-586.62 -275.996)" fill="#ffac9d"/>
          </g>
          <g id="Grupo_141973" data-name="Grupo 141973" transform="translate(50.458 70.906)">
            <g id="Grupo_141971" data-name="Grupo 141971" transform="translate(0 0.997)">
              <path id="Trazado_157068" data-name="Trazado 157068" d="M596.467,315.981l13.755,10.587,33.264,1.658s9.755-10.81,20.3-.528l30.58.528,13.08-10.607" transform="translate(-596.467 -305.335)" fill="none" stroke="#765e69" stroke-miterlimit="10" stroke-width="1.434"/>
              <circle id="Elipse_4922" data-name="Elipse 4922" cx="16.628" cy="16.628" r="16.628" transform="translate(11.112 8.342) rotate(-11.287)" fill="#a9c7db" stroke="#765e69" stroke-miterlimit="10" stroke-width="1.339"/>
              <circle id="Elipse_4923" data-name="Elipse 4923" cx="16.627" cy="16.627" r="16.627" transform="translate(60.672 31.154) rotate(-69.523)" fill="#a9c7db" stroke="#765e69" stroke-miterlimit="10" stroke-width="1.339"/>
            </g>
            <g id="Grupo_141972" data-name="Grupo 141972" transform="translate(17.369)">
              <path id="Trazado_157069" data-name="Trazado 157069" d="M636.977,324.755l3.336,15.9-6.182,6.409" transform="translate(-591.925 -299.234)" fill="none" stroke="#cc887f" stroke-miterlimit="10" stroke-width="1.661"/>
              <path id="Trazado_157070" data-name="Trazado 157070" d="M658.882,344.964c-9.731,9.459-26.214,8.935-38.7.5" transform="translate(-600.04 -287.478)" fill="#fff"/>
              <path id="Trazado_157071" data-name="Trazado 157071" d="M665.272,315.91s-12.817-15.666-25.635-1.068" transform="translate(-588.722 -308.62)" fill="none" stroke="#352c38" stroke-miterlimit="10" stroke-width="2.701"/>
              <path id="Trazado_157072" data-name="Trazado 157072" d="M633.083,315.91s-12.817-15.666-25.635-1.068" transform="translate(-607.448 -308.62)" fill="none" stroke="#352c38" stroke-miterlimit="10" stroke-width="2.701"/>
              <path id="Trazado_157073" data-name="Trazado 157073" d="M628.614,329.089s-.737-10.332-9.593-9.593c-7.436.618-6.642,9.593-6.642,9.593" transform="translate(-604.594 -302.315)" fill="none" stroke="#352c38" stroke-miterlimit="10" stroke-width="1.195"/>
              <path id="Trazado_157074" data-name="Trazado 157074" d="M657.54,328.622s-.739-10.33-9.593-9.593c-7.436.62-6.642,9.593-6.642,9.593" transform="translate(-587.766 -302.587)" fill="none" stroke="#352c38" stroke-miterlimit="10" stroke-width="1.195"/>
            </g>
          </g>
          <g id="Grupo_141976" data-name="Grupo 141976">
            <path id="Trazado_157075" data-name="Trazado 157075" d="M601.36,276.863s15.291-19.508,45.87-6.854c17.4-11.072,30.58-5.8,43.234,3.69l-40.6,20.563Z" transform="translate(-543.162 -263.792)" fill="#fddec0"/>
            <g id="Grupo_141974" data-name="Grupo 141974" transform="translate(0 2.962)">
              <path id="Trazado_157076" data-name="Trazado 157076" d="M567.136,386.541c-4.7-15.662-5.837-36.886,22.594-50.195s12.115-51.47,39.569-65.9" transform="translate(-564.567 -262.886)" fill="none" stroke="#fddec0" stroke-miterlimit="10" stroke-width="2"/>
              <path id="Trazado_157077" data-name="Trazado 157077" d="M652.835,288.415s-17.983-9.821-24.191,7.007,1.036,31.088-24.748,47.748c-17.469,11.287,8.665,38.5-.263,51.819" transform="translate(-545.274 -254.088)" fill="none" stroke="#fddec0" stroke-miterlimit="10" stroke-width="2.9"/>
              <path id="Trazado_157078" data-name="Trazado 157078" d="M624.93,272.61c-26.361,16.346-7.38,53.252-34.8,68.543s-24.78,36.38-18.981,51.669c2.061,5.432,7.785,8.394,14.3,9.967-2.015-7.923-3.621-19.2-.7-30,0,0-2.083,18.413,4.182,30.7a73.644,73.644,0,0,0,9.932.9,33.812,33.812,0,0,1-.933-11.572,73.63,73.63,0,0,0,3.527,11.6,95.785,95.785,0,0,0,10.289-.531c10.545-12.654-15.291-41.652,4.219-51.669,28.8-14.789,22.144-29.526,30.053-45.87s22.564-5.274,22.564-5.274C671.221,269.975,651.293,256.266,624.93,272.61Z" transform="translate(-562.934 -265.665)" fill="#fddec0"/>
            </g>
            <g id="Grupo_141975" data-name="Grupo 141975" transform="translate(101.738 2.962)">
              <path id="Trazado_157079" data-name="Trazado 157079" d="M718.125,386.541c4.7-15.662,5.838-36.886-22.594-50.195s-12.113-51.47-39.567-65.9" transform="translate(-613.135 -262.886)" fill="none" stroke="#fddec0" stroke-miterlimit="10" stroke-width="2"/>
              <path id="Trazado_157080" data-name="Trazado 157080" d="M628.887,288.415s17.981-9.821,24.191,7.007-1.038,31.088,24.748,47.748c17.467,11.287-8.666,38.5.263,51.819" transform="translate(-628.887 -254.088)" fill="none" stroke="#fddec0" stroke-miterlimit="10" stroke-width="2.9"/>
              <path id="Trazado_157081" data-name="Trazado 157081" d="M707.9,341.154c-27.416-15.291-8.435-52.2-34.8-68.543s-44.289-2.635-41.652,28.471c0,0,12.654-11.072,20.563,5.274s1.254,31.081,30.053,45.87c19.508,10.017-6.327,39.015,4.219,51.669a97.612,97.612,0,0,0,17.591.24,76.258,76.258,0,0,0,4.554-19.221,48.333,48.333,0,0,1-1.227,18.862,49.457,49.457,0,0,0,7.053-1.43,46.307,46.307,0,0,0,2.083-7.942,48.015,48.015,0,0,1-.234,7.36c4.989-1.734,9.1-4.517,10.778-8.942C732.686,377.534,735.323,356.443,707.9,341.154Z" transform="translate(-627.543 -265.665)" fill="#fddec0"/>
            </g>
          </g>
        </g>
      </g>
      <path id="Trazado_157082" data-name="Trazado 157082" d="M13,0H264a13,13,0,0,1,13,13V61a13,13,0,0,1-13,13H57.066L2.871,112.432,26.822,74H13A13,13,0,0,1,0,61V13A13,13,0,0,1,13,0Z" transform="translate(842.5 8840)" fill="#b1f7fd"/>
      <path id="Trazado_157083" data-name="Trazado 157083" d="M302.445,0H14.893C6.668,0,0,5.82,0,13V61c0,7.18,6.668,13,14.893,13H251.962l62.087,38.432L286.611,74h15.835c8.225,0,14.893-5.82,14.893-13V13C317.338,5.82,310.67,0,302.445,0Z" transform="translate(404.5 8876.293)" fill="#ffd99d"/>
      <path id="Trazado_157106" data-name="Trazado 157106" d="M6.179,13.463a5.964,5.964,0,0,1-.268,2.026,3.026,3.026,0,0,1-.9,1.244l-.58.536A2.292,2.292,0,0,0,3.612,18.9a1.221,1.221,0,0,0,.294.91,1.046,1.046,0,0,0,.76.286,1.161,1.161,0,0,0,.918-.374,1.615,1.615,0,0,0,.347-1.059H8.912a3.6,3.6,0,0,1-1.121,2.742,4.411,4.411,0,0,1-3.054.976,4.535,4.535,0,0,1-3.028-.91A3.192,3.192,0,0,1,.642,18.9a2.953,2.953,0,0,1,.334-1.375,5.455,5.455,0,0,1,1.143-1.4l.747-.686A2.019,2.019,0,0,0,3.621,14.1l.044-.633ZM5,12.276a1.7,1.7,0,0,1-1.173-.417,1.448,1.448,0,0,1,0-2.136A1.7,1.7,0,0,1,5,9.306a1.674,1.674,0,0,1,1.182.426,1.446,1.446,0,0,1,0,2.118A1.674,1.674,0,0,1,5,12.276Zm15.486,2.391a4.673,4.673,0,0,1-.721,2.36,4.35,4.35,0,0,1-1.85,1.586,6.3,6.3,0,0,1-2.72.563,5.025,5.025,0,0,1-3.973-1.644,6.786,6.786,0,0,1-1.45-4.641v-.633a7.746,7.746,0,0,1,.655-3.292,4.961,4.961,0,0,1,1.885-2.18,5.26,5.26,0,0,1,2.848-.769,5.516,5.516,0,0,1,3.744,1.226,4.844,4.844,0,0,1,1.608,3.379H17.438a2.292,2.292,0,0,0-.589-1.679,2.422,2.422,0,0,0-1.687-.51,1.843,1.843,0,0,0-1.687.861,5.536,5.536,0,0,0-.562,2.751v.905a6.126,6.126,0,0,0,.514,2.927,1.882,1.882,0,0,0,1.771.879,2.369,2.369,0,0,0,1.626-.5,2.126,2.126,0,0,0,.6-1.591Zm.949-.51a5.613,5.613,0,0,1,.554-2.536,3.96,3.96,0,0,1,1.591-1.709,4.791,4.791,0,0,1,2.435-.6,4.373,4.373,0,0,1,3.366,1.323,5.076,5.076,0,0,1,1.23,3.6v.105a4.925,4.925,0,0,1-1.235,3.529,4.384,4.384,0,0,1-3.344,1.305,4.434,4.434,0,0,1-3.261-1.217,4.761,4.761,0,0,1-1.327-3.3Zm2.962.185a3.538,3.538,0,0,0,.413,1.934,1.376,1.376,0,0,0,1.222.615q1.582,0,1.617-2.435v-.3q0-2.558-1.635-2.558-1.485,0-1.608,2.206ZM26.42,5.5h3.129L27.105,8.26l-2.417,0Zm8.3,3.99.1,1.116a3.27,3.27,0,0,1,2.716-1.292,2.407,2.407,0,0,1,2.435,1.433,3.165,3.165,0,0,1,2.795-1.433q2.892,0,2.971,3.5V19H42.759V13a1.813,1.813,0,0,0-.246-1.063,1.048,1.048,0,0,0-.9-.334,1.4,1.4,0,0,0-1.31.782l.009.123V19H37.345V13.015a1.906,1.906,0,0,0-.237-1.081A1.045,1.045,0,0,0,36.2,11.6a1.42,1.42,0,0,0-1.3.782V19H31.939V9.49Zm12.331,4.667a5.613,5.613,0,0,1,.554-2.536,3.96,3.96,0,0,1,1.591-1.709,4.791,4.791,0,0,1,2.435-.6,4.373,4.373,0,0,1,3.366,1.323,5.076,5.076,0,0,1,1.23,3.6v.105a4.925,4.925,0,0,1-1.235,3.529,4.384,4.384,0,0,1-3.344,1.305,4.434,4.434,0,0,1-3.261-1.217,4.761,4.761,0,0,1-1.327-3.3Zm2.962.185a3.538,3.538,0,0,0,.413,1.934,1.376,1.376,0,0,0,1.222.615q1.582,0,1.617-2.435v-.3q0-2.558-1.635-2.558-1.485,0-1.608,2.206ZM65.136,19H62.165V5.5h2.971Zm1.45-4.843a5.613,5.613,0,0,1,.554-2.536A3.96,3.96,0,0,1,68.73,9.912a4.791,4.791,0,0,1,2.435-.6,4.373,4.373,0,0,1,3.366,1.323,5.076,5.076,0,0,1,1.23,3.6v.105a4.925,4.925,0,0,1-1.235,3.529,4.384,4.384,0,0,1-3.344,1.305,4.434,4.434,0,0,1-3.261-1.217,4.761,4.761,0,0,1-1.327-3.3Zm2.962.185a3.538,3.538,0,0,0,.413,1.934,1.376,1.376,0,0,0,1.222.615q1.582,0,1.617-2.435v-.3q0-2.558-1.635-2.558-1.485,0-1.608,2.206Zm15.794,1.134,1.5-5.985h3.12L86.862,19H83.839l-3.1-9.51h3.129ZM96.073,19a3.344,3.344,0,0,1-.281-.853,2.754,2.754,0,0,1-2.285,1.028,3.374,3.374,0,0,1-2.285-.813,2.588,2.588,0,0,1-.94-2.043,2.66,2.66,0,0,1,1.143-2.338,5.821,5.821,0,0,1,3.322-.791h.914v-.5q0-1.316-1.134-1.316a.927.927,0,0,0-1.055,1.042H90.51a2.655,2.655,0,0,1,1.173-2.239,4.931,4.931,0,0,1,2.993-.86,4.323,4.323,0,0,1,2.874.888,3.086,3.086,0,0,1,1.081,2.435v4.21a4.311,4.311,0,0,0,.4,2V19Zm-1.854-1.934a1.652,1.652,0,0,0,.918-.237,1.487,1.487,0,0,0,.523-.536V14.772H94.8q-1.547,0-1.547,1.389a.848.848,0,0,0,.272.655A.986.986,0,0,0,94.219,17.066Zm8.851-7.576.1,1.116a3.27,3.27,0,0,1,2.716-1.292,2.407,2.407,0,0,1,2.435,1.433,3.165,3.165,0,0,1,2.795-1.433q2.892,0,2.971,3.5V19h-2.971V13a1.813,1.813,0,0,0-.246-1.063,1.048,1.048,0,0,0-.9-.334,1.4,1.4,0,0,0-1.31.782l.009.123V19H105.7V13.015a1.906,1.906,0,0,0-.237-1.081,1.045,1.045,0,0,0-.905-.334,1.42,1.42,0,0,0-1.3.782V19h-2.962V9.49ZM115.4,14.157a5.613,5.613,0,0,1,.554-2.536,3.96,3.96,0,0,1,1.591-1.709,4.791,4.791,0,0,1,2.435-.6,4.373,4.373,0,0,1,3.366,1.323,5.076,5.076,0,0,1,1.23,3.6v.105a4.925,4.925,0,0,1-1.235,3.529A4.384,4.384,0,0,1,120,19.176a4.434,4.434,0,0,1-3.261-1.217,4.761,4.761,0,0,1-1.327-3.3Zm2.962.185a3.538,3.538,0,0,0,.413,1.934,1.376,1.376,0,0,0,1.222.615q1.582,0,1.617-2.435v-.3q0-2.558-1.635-2.558-1.485,0-1.608,2.206Zm12.5,1.986a.684.684,0,0,0-.4-.606,6.016,6.016,0,0,0-1.5-.475,6.853,6.853,0,0,1-1.828-.646,3.062,3.062,0,0,1-1.1-.971,2.319,2.319,0,0,1-.378-1.31,2.628,2.628,0,0,1,1.081-2.158,4.453,4.453,0,0,1,2.83-.848,4.934,4.934,0,0,1,3.023.853,2.666,2.666,0,0,1,1.143,2.241h-2.971q0-1.143-1.2-1.143a1.194,1.194,0,0,0-.782.259.8.8,0,0,0-.316.646.737.737,0,0,0,.387.642,3.654,3.654,0,0,0,1.235.4,10.671,10.671,0,0,1,1.49.378,2.706,2.706,0,0,1,2.145,2.646,2.491,2.491,0,0,1-1.156,2.118,5.068,5.068,0,0,1-2.993.817,5.172,5.172,0,0,1-2.18-.439,3.645,3.645,0,0,1-1.494-1.2,2.707,2.707,0,0,1-.536-1.591h2.769a1.145,1.145,0,0,0,.439.962,1.808,1.808,0,0,0,1.081.3,1.422,1.422,0,0,0,.91-.246A.787.787,0,0,0,130.86,16.328ZM144.94,19a3.344,3.344,0,0,1-.281-.853,2.754,2.754,0,0,1-2.285,1.028,3.374,3.374,0,0,1-2.285-.813,2.588,2.588,0,0,1-.94-2.043,2.66,2.66,0,0,1,1.143-2.338,5.821,5.821,0,0,1,3.322-.791h.914v-.5q0-1.316-1.134-1.316a.927.927,0,0,0-1.055,1.042h-2.962a2.655,2.655,0,0,1,1.173-2.239,4.931,4.931,0,0,1,2.993-.86,4.323,4.323,0,0,1,2.874.888,3.086,3.086,0,0,1,1.081,2.435v4.21a4.311,4.311,0,0,0,.4,2V19Zm-1.854-1.934a1.652,1.652,0,0,0,.918-.237,1.487,1.487,0,0,0,.523-.536V14.772h-.861q-1.547,0-1.547,1.389a.848.848,0,0,0,.272.655A.986.986,0,0,0,143.086,17.066Zm10.16-2.909a5.613,5.613,0,0,1,.554-2.536,3.96,3.96,0,0,1,1.591-1.709,4.791,4.791,0,0,1,2.435-.6,4.373,4.373,0,0,1,3.366,1.323,5.076,5.076,0,0,1,1.23,3.6v.105a4.925,4.925,0,0,1-1.235,3.529,4.384,4.384,0,0,1-3.344,1.305,4.434,4.434,0,0,1-3.261-1.217,4.761,4.761,0,0,1-1.327-3.3Zm2.962.185a3.538,3.538,0,0,0,.413,1.934,1.376,1.376,0,0,0,1.222.615q1.582,0,1.617-2.435v-.3q0-2.558-1.635-2.558-1.485,0-1.608,2.206Zm13.271-2.171-.976-.07a1.752,1.752,0,0,0-1.793.879V19h-2.962V9.49h2.777l.1,1.222a2.294,2.294,0,0,1,2.083-1.4,2.888,2.888,0,0,1,.826.105Zm.721,2a6.421,6.421,0,0,1,.475-2.549,3.821,3.821,0,0,1,1.362-1.709,3.591,3.591,0,0,1,2.065-.6,2.855,2.855,0,0,1,2.32,1l.105-.826h2.689V18.64a4.009,4.009,0,0,1-.584,2.184,3.75,3.75,0,0,1-1.692,1.424,6.219,6.219,0,0,1-2.566.5,5.365,5.365,0,0,1-2.026-.4,3.657,3.657,0,0,1-1.5-1.028l1.239-1.74a2.716,2.716,0,0,0,2.18.976,1.764,1.764,0,0,0,1.969-2.021v-.3a2.781,2.781,0,0,1-2.153.94,3.437,3.437,0,0,1-2.812-1.332A5.517,5.517,0,0,1,170.2,14.28Zm2.971.185a3.383,3.383,0,0,0,.439,1.85,1.387,1.387,0,0,0,1.23.681,1.573,1.573,0,0,0,1.4-.642v-4a1.534,1.534,0,0,0-1.38-.65,1.4,1.4,0,0,0-1.239.708A3.858,3.858,0,0,0,173.171,14.359ZM186.258,19a3.344,3.344,0,0,1-.281-.853,2.754,2.754,0,0,1-2.285,1.028,3.374,3.374,0,0,1-2.285-.813,2.588,2.588,0,0,1-.94-2.043,2.66,2.66,0,0,1,1.143-2.338,5.821,5.821,0,0,1,3.322-.791h.914v-.5q0-1.316-1.134-1.316a.927.927,0,0,0-1.055,1.042h-2.962a2.655,2.655,0,0,1,1.173-2.239,4.931,4.931,0,0,1,2.993-.86,4.323,4.323,0,0,1,2.874.888,3.086,3.086,0,0,1,1.081,2.435v4.21a4.311,4.311,0,0,0,.4,2V19ZM184.4,17.066a1.652,1.652,0,0,0,.918-.237,1.487,1.487,0,0,0,.523-.536V14.772h-.861q-1.547,0-1.547,1.389a.848.848,0,0,0,.272.655A.986.986,0,0,0,184.4,17.066Zm8.771-7.576.1,1.116a3.225,3.225,0,0,1,2.716-1.292,2.713,2.713,0,0,1,2.219.888,4.226,4.226,0,0,1,.76,2.672V19H196V13a1.6,1.6,0,0,0-.29-1.059,1.342,1.342,0,0,0-1.055-.338,1.413,1.413,0,0,0-1.292.686V19H190.4V9.49ZM203.73,19H200.76V9.49h2.971ZM200.584,7.038A1.322,1.322,0,0,1,201.041,6a1.943,1.943,0,0,1,2.373,0,1.322,1.322,0,0,1,.457,1.037,1.322,1.322,0,0,1-.457,1.037,1.943,1.943,0,0,1-2.373,0A1.322,1.322,0,0,1,200.584,7.038Zm8.464,9.677h4.333V19H205.3V17.348l4.219-5.572h-4.034V9.49h7.8v1.6ZM220.175,19a3.344,3.344,0,0,1-.281-.853,2.754,2.754,0,0,1-2.285,1.028,3.374,3.374,0,0,1-2.285-.813,2.588,2.588,0,0,1-.94-2.043,2.66,2.66,0,0,1,1.143-2.338,5.821,5.821,0,0,1,3.322-.791h.914v-.5q0-1.316-1.134-1.316a.927.927,0,0,0-1.055,1.042h-2.962a2.655,2.655,0,0,1,1.173-2.239,4.931,4.931,0,0,1,2.993-.86,4.323,4.323,0,0,1,2.874.888,3.086,3.086,0,0,1,1.081,2.435v4.21a4.311,4.311,0,0,0,.4,2V19Zm-1.854-1.934a1.652,1.652,0,0,0,.918-.237,1.487,1.487,0,0,0,.523-.536V14.772H218.9q-1.547,0-1.547,1.389a.848.848,0,0,0,.272.655A.986.986,0,0,0,218.32,17.066Zm11.8-4.9-.976-.07a1.752,1.752,0,0,0-1.793.879V19h-2.962V9.49h2.777l.1,1.222a2.294,2.294,0,0,1,2.083-1.4,2.888,2.888,0,0,1,.826.105Zm3.261,2.777a5.721,5.721,0,0,1,.29-2.026,3.168,3.168,0,0,1,.94-1.288,6.252,6.252,0,0,0,.989-1,1.628,1.628,0,0,0,.338-1q0-1.327-1.143-1.327a1.06,1.06,0,0,0-.853.387,1.645,1.645,0,0,0-.343,1.046h-2.971a3.544,3.544,0,0,1,1.107-2.738,4.415,4.415,0,0,1,3.059-.98,4.587,4.587,0,0,1,3.037.905,3.177,3.177,0,0,1,1.077,2.575,3,3,0,0,1-.29,1.327,4.485,4.485,0,0,1-.932,1.222l-1.011.94a2.378,2.378,0,0,0-.6.848,3.361,3.361,0,0,0-.185,1.1Zm-.36,2.672a1.364,1.364,0,0,1,.47-1.068,1.858,1.858,0,0,1,2.347,0,1.448,1.448,0,0,1,0,2.136,1.858,1.858,0,0,1-2.347,0A1.364,1.364,0,0,1,233.024,17.62Z" transform="translate(861.5 8864)" fill="#12263f"/>
      <path id="Trazado_157105" data-name="Trazado 157105" d="M6.179,13.463a5.964,5.964,0,0,1-.268,2.026,3.026,3.026,0,0,1-.9,1.244l-.58.536A2.292,2.292,0,0,0,3.612,18.9a1.221,1.221,0,0,0,.294.91,1.046,1.046,0,0,0,.76.286,1.161,1.161,0,0,0,.918-.374,1.615,1.615,0,0,0,.347-1.059H8.912a3.6,3.6,0,0,1-1.121,2.742,4.411,4.411,0,0,1-3.054.976,4.535,4.535,0,0,1-3.028-.91A3.192,3.192,0,0,1,.642,18.9a2.953,2.953,0,0,1,.334-1.375,5.455,5.455,0,0,1,1.143-1.4l.747-.686A2.019,2.019,0,0,0,3.621,14.1l.044-.633ZM5,12.276a1.7,1.7,0,0,1-1.173-.417,1.448,1.448,0,0,1,0-2.136A1.7,1.7,0,0,1,5,9.306a1.674,1.674,0,0,1,1.182.426,1.446,1.446,0,0,1,0,2.118A1.674,1.674,0,0,1,5,12.276Zm15.987.589a7.562,7.562,0,0,1-.589,3.1,5.385,5.385,0,0,1-1.626,2.123l2.065,1.635-1.907,1.617-2.751-2.215a5.718,5.718,0,0,1-.773.053,5.547,5.547,0,0,1-2.9-.756,5.141,5.141,0,0,1-1.973-2.162A7.343,7.343,0,0,1,9.8,13.023v-.677a7.572,7.572,0,0,1,.69-3.322A5.142,5.142,0,0,1,12.458,6.81a5.5,5.5,0,0,1,2.931-.782,5.479,5.479,0,0,1,2.9.773A5.211,5.211,0,0,1,20.272,9a7.362,7.362,0,0,1,.716,3.274Zm-3.138-.536a5.381,5.381,0,0,0-.637-2.9,2.044,2.044,0,0,0-1.824-.989,2.03,2.03,0,0,0-1.837.976,5.451,5.451,0,0,0-.624,2.856v.589a5.531,5.531,0,0,0,.624,2.9,2.043,2.043,0,0,0,1.854,1.006,2.014,2.014,0,0,0,1.806-.993,5.414,5.414,0,0,0,.637-2.856ZM28.09,17.972a3.054,3.054,0,0,1-2.54,1.2,3,3,0,0,1-2.369-.91,3.826,3.826,0,0,1-.8-2.615V9.49h2.962v6.179a1.065,1.065,0,0,0,1.187,1.222,1.548,1.548,0,0,0,1.45-.729V9.49h2.979V19H28.178Zm9.088,1.2a4.889,4.889,0,0,1-3.542-1.305,4.507,4.507,0,0,1-1.354-3.4v-.246a5.84,5.84,0,0,1,.541-2.575A3.955,3.955,0,0,1,34.4,9.925a4.763,4.763,0,0,1,2.461-.611,4.117,4.117,0,0,1,3.164,1.244,4.887,4.887,0,0,1,1.16,3.467v1.151H35.3a2.135,2.135,0,0,0,.694,1.257,2.066,2.066,0,0,0,1.389.457,2.662,2.662,0,0,0,2.2-.984l1.354,1.6a3.784,3.784,0,0,1-1.569,1.217A5.3,5.3,0,0,1,37.178,19.176ZM36.844,11.6q-1.3,0-1.547,1.723h2.988v-.229a1.467,1.467,0,0,0-.36-1.1A1.434,1.434,0,0,0,36.844,11.6Zm-.035-6.108h3.129l-2.443,2.76-2.417,0ZM51.46,19.176a4.889,4.889,0,0,1-3.542-1.305,4.507,4.507,0,0,1-1.354-3.4v-.246a5.84,5.84,0,0,1,.541-2.575,3.955,3.955,0,0,1,1.578-1.727,4.763,4.763,0,0,1,2.461-.611,4.117,4.117,0,0,1,3.164,1.244,4.887,4.887,0,0,1,1.16,3.467v1.151H49.579a2.135,2.135,0,0,0,.694,1.257,2.066,2.066,0,0,0,1.389.457,2.662,2.662,0,0,0,2.2-.984l1.354,1.6a3.784,3.784,0,0,1-1.569,1.217A5.3,5.3,0,0,1,51.46,19.176ZM51.126,11.6q-1.3,0-1.547,1.723h2.988v-.229a1.467,1.467,0,0,0-.36-1.1A1.434,1.434,0,0,0,51.126,11.6Zm10.512,4.729a.684.684,0,0,0-.4-.606,6.016,6.016,0,0,0-1.5-.475,6.853,6.853,0,0,1-1.828-.646,3.062,3.062,0,0,1-1.1-.971,2.319,2.319,0,0,1-.378-1.31,2.628,2.628,0,0,1,1.081-2.158,4.453,4.453,0,0,1,2.83-.848,4.934,4.934,0,0,1,3.023.853,2.666,2.666,0,0,1,1.143,2.241H61.541q0-1.143-1.2-1.143a1.194,1.194,0,0,0-.782.259.8.8,0,0,0-.316.646.737.737,0,0,0,.387.642,3.654,3.654,0,0,0,1.235.4,10.671,10.671,0,0,1,1.49.378,2.706,2.706,0,0,1,2.145,2.646,2.491,2.491,0,0,1-1.156,2.118,5.068,5.068,0,0,1-2.993.817,5.172,5.172,0,0,1-2.18-.439,3.645,3.645,0,0,1-1.494-1.2,2.707,2.707,0,0,1-.536-1.591H58.9a1.145,1.145,0,0,0,.439.962,1.808,1.808,0,0,0,1.081.3,1.422,1.422,0,0,0,.91-.246A.787.787,0,0,0,61.638,16.328ZM73.485,19H70.515V5.5h2.971Zm1.45-4.843a5.613,5.613,0,0,1,.554-2.536A3.96,3.96,0,0,1,77.08,9.912a4.791,4.791,0,0,1,2.435-.6,4.373,4.373,0,0,1,3.366,1.323,5.076,5.076,0,0,1,1.23,3.6v.105a4.925,4.925,0,0,1-1.235,3.529,4.384,4.384,0,0,1-3.344,1.305,4.434,4.434,0,0,1-3.261-1.217,4.761,4.761,0,0,1-1.327-3.3Zm2.962.185a3.538,3.538,0,0,0,.413,1.934,1.376,1.376,0,0,0,1.222.615q1.582,0,1.617-2.435v-.3q0-2.558-1.635-2.558-1.485,0-1.608,2.206Zm11.628-.193A5.709,5.709,0,0,1,90.51,10.6a3.233,3.233,0,0,1,2.716-1.283,2.761,2.761,0,0,1,2.338,1.2l.211-1.02h2.566V22.656H95.37V18.209a2.757,2.757,0,0,1-2.162.967,3.2,3.2,0,0,1-2.685-1.305A6.027,6.027,0,0,1,89.525,14.148Zm2.962.185q0,2.558,1.477,2.558a1.43,1.43,0,0,0,1.406-.773V12.355a1.4,1.4,0,0,0-1.389-.756q-1.38,0-1.485,2.206Zm13.192,3.639a3.054,3.054,0,0,1-2.54,1.2,3,3,0,0,1-2.369-.91,3.826,3.826,0,0,1-.8-2.615V9.49h2.962v6.179a1.065,1.065,0,0,0,1.187,1.222,1.548,1.548,0,0,0,1.45-.729V9.49h2.979V19h-2.777Zm9.088,1.2a4.889,4.889,0,0,1-3.542-1.305,4.507,4.507,0,0,1-1.354-3.4v-.246a5.84,5.84,0,0,1,.541-2.575,3.955,3.955,0,0,1,1.578-1.727,4.763,4.763,0,0,1,2.461-.611,4.117,4.117,0,0,1,3.164,1.244,4.887,4.887,0,0,1,1.16,3.467v1.151h-5.889a2.135,2.135,0,0,0,.694,1.257,2.066,2.066,0,0,0,1.389.457,2.662,2.662,0,0,0,2.2-.984l1.354,1.6a3.784,3.784,0,0,1-1.569,1.217A5.3,5.3,0,0,1,114.768,19.176Zm-.334-7.576q-1.3,0-1.547,1.723h2.988v-.229a1.467,1.467,0,0,0-.36-1.1A1.434,1.434,0,0,0,114.434,11.6Zm13.808,3.876,1.5-5.985h3.12l-3.1,9.51h-3.023l-3.1-9.51h3.129ZM138.973,19a3.344,3.344,0,0,1-.281-.853,2.754,2.754,0,0,1-2.285,1.028,3.374,3.374,0,0,1-2.285-.813,2.588,2.588,0,0,1-.94-2.043,2.66,2.66,0,0,1,1.143-2.338,5.821,5.821,0,0,1,3.322-.791h.914v-.5q0-1.316-1.134-1.316a.927.927,0,0,0-1.055,1.042h-2.962a2.655,2.655,0,0,1,1.173-2.239,4.931,4.931,0,0,1,2.993-.86,4.323,4.323,0,0,1,2.874.888,3.086,3.086,0,0,1,1.081,2.435v4.21a4.311,4.311,0,0,0,.4,2V19Zm-1.854-1.934a1.652,1.652,0,0,0,.918-.237,1.487,1.487,0,0,0,.523-.536V14.772H137.7q-1.547,0-1.547,1.389a.848.848,0,0,0,.272.655A.986.986,0,0,0,137.118,17.066Zm8.851-7.576.1,1.116a3.27,3.27,0,0,1,2.716-1.292,2.407,2.407,0,0,1,2.435,1.433,3.165,3.165,0,0,1,2.795-1.433q2.892,0,2.971,3.5V19h-2.971V13a1.813,1.813,0,0,0-.246-1.063,1.048,1.048,0,0,0-.9-.334,1.4,1.4,0,0,0-1.31.782l.009.123V19H148.6V13.015a1.906,1.906,0,0,0-.237-1.081,1.045,1.045,0,0,0-.905-.334,1.42,1.42,0,0,0-1.3.782V19h-2.962V9.49ZM158.3,14.157a5.613,5.613,0,0,1,.554-2.536,3.96,3.96,0,0,1,1.591-1.709,4.791,4.791,0,0,1,2.435-.6,4.373,4.373,0,0,1,3.366,1.323,5.076,5.076,0,0,1,1.23,3.6v.105a4.925,4.925,0,0,1-1.235,3.529,4.384,4.384,0,0,1-3.344,1.305,4.434,4.434,0,0,1-3.261-1.217,4.761,4.761,0,0,1-1.327-3.3Zm2.962.185a3.538,3.538,0,0,0,.413,1.934,1.376,1.376,0,0,0,1.222.615q1.582,0,1.617-2.435v-.3q0-2.558-1.635-2.558-1.485,0-1.608,2.206Zm12.5,1.986a.684.684,0,0,0-.4-.606,6.016,6.016,0,0,0-1.5-.475,6.853,6.853,0,0,1-1.828-.646,3.062,3.062,0,0,1-1.1-.971,2.319,2.319,0,0,1-.378-1.31,2.628,2.628,0,0,1,1.081-2.158,4.453,4.453,0,0,1,2.83-.848,4.934,4.934,0,0,1,3.023.853,2.666,2.666,0,0,1,1.143,2.241h-2.971q0-1.143-1.2-1.143a1.194,1.194,0,0,0-.782.259.8.8,0,0,0-.316.646.737.737,0,0,0,.387.642,3.654,3.654,0,0,0,1.235.4,10.671,10.671,0,0,1,1.49.378,2.706,2.706,0,0,1,2.145,2.646,2.491,2.491,0,0,1-1.156,2.118,5.068,5.068,0,0,1-2.993.817,5.172,5.172,0,0,1-2.18-.439,3.645,3.645,0,0,1-1.494-1.2,2.707,2.707,0,0,1-.536-1.591h2.769a1.145,1.145,0,0,0,.439.962,1.808,1.808,0,0,0,1.081.3,1.422,1.422,0,0,0,.91-.246A.787.787,0,0,0,173.76,16.328ZM187.84,19a3.344,3.344,0,0,1-.281-.853,2.754,2.754,0,0,1-2.285,1.028,3.374,3.374,0,0,1-2.285-.813,2.588,2.588,0,0,1-.94-2.043,2.66,2.66,0,0,1,1.143-2.338,5.821,5.821,0,0,1,3.322-.791h.914v-.5q0-1.316-1.134-1.316a.927.927,0,0,0-1.055,1.042h-2.962a2.655,2.655,0,0,1,1.173-2.239,4.931,4.931,0,0,1,2.993-.86,4.323,4.323,0,0,1,2.874.888,3.086,3.086,0,0,1,1.081,2.435v4.21a4.311,4.311,0,0,0,.4,2V19Zm-1.854-1.934a1.652,1.652,0,0,0,.918-.237,1.487,1.487,0,0,0,.523-.536V14.772h-.861q-1.547,0-1.547,1.389a.848.848,0,0,0,.272.655A.986.986,0,0,0,185.985,17.066ZM.457,39.157a5.613,5.613,0,0,1,.554-2.536A3.96,3.96,0,0,1,2.6,34.912a4.791,4.791,0,0,1,2.435-.6A4.373,4.373,0,0,1,8.4,35.637a5.076,5.076,0,0,1,1.23,3.6v.105A4.925,4.925,0,0,1,8.4,42.871a4.384,4.384,0,0,1-3.344,1.305,4.434,4.434,0,0,1-3.261-1.217,4.761,4.761,0,0,1-1.327-3.3Zm2.962.185a3.538,3.538,0,0,0,.413,1.934,1.376,1.376,0,0,0,1.222.615q1.582,0,1.617-2.435v-.3q0-2.558-1.635-2.558-1.485,0-1.608,2.206ZM16.69,37.171l-.976-.07a1.752,1.752,0,0,0-1.793.879V44H10.96V34.49h2.777l.1,1.222a2.294,2.294,0,0,1,2.083-1.4,2.888,2.888,0,0,1,.826.105Zm.721,2a6.421,6.421,0,0,1,.475-2.549,3.821,3.821,0,0,1,1.362-1.709,3.591,3.591,0,0,1,2.065-.6,2.855,2.855,0,0,1,2.32,1l.105-.826h2.689V43.64a4.009,4.009,0,0,1-.584,2.184,3.75,3.75,0,0,1-1.692,1.424,6.219,6.219,0,0,1-2.566.5,5.365,5.365,0,0,1-2.026-.4,3.657,3.657,0,0,1-1.5-1.028L19.3,44.58a2.716,2.716,0,0,0,2.18.976,1.764,1.764,0,0,0,1.969-2.021v-.3a2.781,2.781,0,0,1-2.153.94,3.437,3.437,0,0,1-2.812-1.332,5.517,5.517,0,0,1-1.072-3.564Zm2.971.185a3.383,3.383,0,0,0,.439,1.85,1.387,1.387,0,0,0,1.23.681,1.573,1.573,0,0,0,1.4-.642v-4a1.534,1.534,0,0,0-1.38-.65,1.4,1.4,0,0,0-1.239.708A3.858,3.858,0,0,0,20.382,39.359ZM33.469,44a3.344,3.344,0,0,1-.281-.853A2.754,2.754,0,0,1,30.9,44.176a3.374,3.374,0,0,1-2.285-.813,2.588,2.588,0,0,1-.94-2.043,2.66,2.66,0,0,1,1.143-2.338,5.821,5.821,0,0,1,3.322-.791h.914v-.5q0-1.316-1.134-1.316a.927.927,0,0,0-1.055,1.042H27.905a2.655,2.655,0,0,1,1.173-2.239,4.931,4.931,0,0,1,2.993-.86,4.323,4.323,0,0,1,2.874.888,3.086,3.086,0,0,1,1.081,2.435v4.21a4.311,4.311,0,0,0,.4,2V44Zm-1.854-1.934a1.652,1.652,0,0,0,.918-.237,1.487,1.487,0,0,0,.523-.536V39.772h-.861q-1.547,0-1.547,1.389a.848.848,0,0,0,.272.655A.986.986,0,0,0,31.614,42.066Zm8.771-7.576.1,1.116A3.225,3.225,0,0,1,43.2,34.314a2.713,2.713,0,0,1,2.219.888,4.226,4.226,0,0,1,.76,2.672V44H43.207V38a1.6,1.6,0,0,0-.29-1.059,1.342,1.342,0,0,0-1.055-.338,1.413,1.413,0,0,0-1.292.686V44H37.608V34.49ZM50.941,44H47.971V34.49h2.971ZM47.795,32.038A1.322,1.322,0,0,1,48.252,31a1.943,1.943,0,0,1,2.373,0,1.405,1.405,0,0,1,0,2.074,1.943,1.943,0,0,1-2.373,0A1.322,1.322,0,0,1,47.795,32.038Zm8.464,9.677h4.333V44H52.515V42.348l4.219-5.572H52.7V34.49h7.8v1.6ZM67.386,44a3.344,3.344,0,0,1-.281-.853,2.754,2.754,0,0,1-2.285,1.028,3.374,3.374,0,0,1-2.285-.813,2.588,2.588,0,0,1-.94-2.043,2.66,2.66,0,0,1,1.143-2.338,5.821,5.821,0,0,1,3.322-.791h.914v-.5q0-1.316-1.134-1.316a.927.927,0,0,0-1.055,1.042H61.822A2.655,2.655,0,0,1,63,35.175a4.931,4.931,0,0,1,2.993-.86,4.323,4.323,0,0,1,2.874.888,3.086,3.086,0,0,1,1.081,2.435v4.21a4.311,4.311,0,0,0,.4,2V44Zm-1.854-1.934a1.652,1.652,0,0,0,.918-.237,1.487,1.487,0,0,0,.523-.536V39.772h-.861q-1.547,0-1.547,1.389a.848.848,0,0,0,.272.655A.986.986,0,0,0,65.531,42.066Zm11.8-4.9-.976-.07a1.752,1.752,0,0,0-1.793.879V44H71.6V34.49h2.777l.1,1.222a2.294,2.294,0,0,1,2.083-1.4,2.888,2.888,0,0,1,.826.105ZM80.6,39.948a5.721,5.721,0,0,1,.29-2.026,3.168,3.168,0,0,1,.94-1.288,6.253,6.253,0,0,0,.989-1,1.628,1.628,0,0,0,.338-1q0-1.327-1.143-1.327a1.06,1.06,0,0,0-.853.387,1.645,1.645,0,0,0-.343,1.046H77.845a3.544,3.544,0,0,1,1.107-2.738,4.415,4.415,0,0,1,3.059-.98,4.587,4.587,0,0,1,3.037.905,3.177,3.177,0,0,1,1.077,2.575,3,3,0,0,1-.29,1.327,4.485,4.485,0,0,1-.932,1.222L83.892,38a2.378,2.378,0,0,0-.6.848,3.361,3.361,0,0,0-.185,1.1Zm-.36,2.672a1.364,1.364,0,0,1,.47-1.068,1.858,1.858,0,0,1,2.347,0,1.448,1.448,0,0,1,0,2.136,1.858,1.858,0,0,1-2.347,0A1.364,1.364,0,0,1,80.235,42.62Z" transform="translate(422.5 8891)" fill="#12263f"/>
    </g>
  </g>
</svg>
