<svg xmlns="http://www.w3.org/2000/svg" width="227" height="284" viewBox="0 0 227 284">
  <g id="Grupo_139958" data-name="Grupo 139958" transform="translate(-458.5 -8579)">
    <g id="Rectángulo_37193" data-name="Rectángulo 37193" transform="translate(458.5 8579)" fill="#fff4c6" stroke="#12263f" stroke-width="1">
      <rect width="227" height="284" stroke="none"/>
      <rect x="0.5" y="0.5" width="226" height="283" fill="none"/>
    </g>
    <g id="Rectángulo_37192" data-name="Rectángulo 37192" transform="translate(458.5 8627)" fill="#ffd99d" stroke="#12263f" stroke-width="1">
      <rect width="191" height="236" stroke="none"/>
      <rect x="0.5" y="0.5" width="190" height="235" fill="none"/>
    </g>
    <g id="Rectángulo_37191" data-name="Rectángulo 37191" transform="translate(458.5 8662)" fill="#fff4c6" stroke="#12263f" stroke-width="1">
      <rect width="162" height="201" stroke="none"/>
      <rect x="0.5" y="0.5" width="161" height="200" fill="none"/>
    </g>
    <g id="Rectángulo_37190" data-name="Rectángulo 37190" transform="translate(458.5 8721)" fill="#ffd99d" stroke="#12263f" stroke-width="1">
      <rect width="114" height="142" stroke="none"/>
      <rect x="0.5" y="0.5" width="113" height="141" fill="none"/>
    </g>
    <g id="Rectángulo_37189" data-name="Rectángulo 37189" transform="translate(458.5 8763)" fill="#fff4c6" stroke="#12263f" stroke-width="1">
      <rect width="82" height="100" stroke="none"/>
      <rect x="0.5" y="0.5" width="81" height="99" fill="none"/>
    </g>
    <g id="Rectángulo_37188" data-name="Rectángulo 37188" transform="translate(458.5 8792)" fill="#ffd99d" stroke="#12263f" stroke-width="1">
      <rect width="58" height="71" stroke="none"/>
      <rect x="0.5" y="0.5" width="57" height="70" fill="none"/>
    </g>
    <g id="Rectángulo_37187" data-name="Rectángulo 37187" transform="translate(458.5 8813)" fill="#fff4c6" stroke="#12263f" stroke-width="1">
      <rect width="42" height="50" stroke="none"/>
      <rect x="0.5" y="0.5" width="41" height="49" fill="none"/>
    </g>
    <text id="A6" transform="translate(471.5 8841)" fill="#12263f" font-size="14" font-family="Roboto-Bold, Roboto" font-weight="700"><tspan x="0" y="0">A6</tspan></text>
    <text id="A5" transform="translate(471.5 8808)" fill="#12263f" font-size="14" font-family="Roboto-Bold, Roboto" font-weight="700"><tspan x="0" y="0">A5</tspan></text>
    <text id="A4" transform="translate(471.5 8781)" fill="#12263f" font-size="14" font-family="Roboto-Bold, Roboto" font-weight="700"><tspan x="0" y="0">A4</tspan></text>
    <text id="_210_X_297_mm" data-name="210 X 297 mm" transform="translate(534.5 8828) rotate(-90)" fill="#12263f" font-size="9" font-family="Roboto-Bold, Roboto" font-weight="700"><tspan x="0" y="0">210 X 297 mm</tspan></text>
    <text id="_297_X_420_mm" data-name="297 X 420 mm" transform="translate(566 8786) rotate(-90)" fill="#12263f" font-size="9" font-family="Roboto-Bold, Roboto" font-weight="700"><tspan x="0" y="0">297 X 420 mm</tspan></text>
    <text id="_420_X_594_mm" data-name="420 X 594 mm" transform="translate(613 8731) rotate(-90)" fill="#12263f" font-size="9" font-family="Roboto-Bold, Roboto" font-weight="700"><tspan x="0" y="0">420 X 594 mm</tspan></text>
    <text id="_500_X_700_mm" data-name="500 X 700 mm" transform="translate(643 8691.5) rotate(-90)" fill="#12263f" font-size="9" font-family="Roboto-Bold, Roboto" font-weight="700"><tspan x="0" y="0">500 X 700 mm</tspan></text>
    <text id="_594_X_841_mm" data-name="594 X 841 mm" transform="translate(679 8645) rotate(-90)" fill="#12263f" font-size="9" font-family="Roboto-Bold, Roboto" font-weight="700"><tspan x="0" y="0">594 X 841 mm</tspan></text>
    <text id="A3" transform="translate(471.5 8744)" fill="#12263f" font-size="14" font-family="Roboto-Bold, Roboto" font-weight="700"><tspan x="0" y="0">A3</tspan></text>
    <text id="A2" transform="translate(471.5 8691)" fill="#12263f" font-size="14" font-family="Roboto-Bold, Roboto" font-weight="700"><tspan x="0" y="0">A2</tspan></text>
    <text id="B2" transform="translate(471.5 8650)" fill="#12263f" font-size="14" font-family="Roboto-Bold, Roboto" font-weight="700"><tspan x="0" y="0">B2</tspan></text>
    <text id="A1" transform="translate(471.5 8608)" fill="#12263f" font-size="14" font-family="Roboto-Bold, Roboto" font-weight="700"><tspan x="0" y="0">A1</tspan></text>
  </g>
</svg>
