<svg xmlns="http://www.w3.org/2000/svg" width="80.874" height="80.873" viewBox="0 0 80.874 80.873">
  <g id="Grupo_139961" data-name="Grupo 139961" transform="translate(-651 -1275.081)">
    <path id="Trazado_113533" data-name="Trazado 113533" d="M40.437,0A40.437,40.437,0,1,1,0,40.437,40.437,40.437,0,0,1,40.437,0Z" transform="translate(651 1275.081)" fill="#ffa726"/>
    <g id="_350jIN" data-name="350jIN" transform="translate(11.765 1030.764)">
      <g id="Grupo_141981" data-name="Grupo 141981" transform="translate(655.235 260.317)">
        <path id="Trazado_157096" data-name="Trazado 157096" d="M704.235,285.1a1.2,1.2,0,0,1-1.135.44c-.3-.017-.6,0-.957,0a22.483,22.483,0,0,1-21.693,21.679c0,.436.009.845,0,1.254-.015.526-.292.839-.718.837s-.7-.316-.712-.844c-.01-.4,0-.8,0-1.205-.959-.112-1.9-.158-2.814-.343-1.292-.262-2.566-.613-3.841-.955-.525-.141-.728-.5-.6-.914.133-.441.516-.613,1.037-.437a21.5,21.5,0,0,0,5.366,1.109c.253.018.506.033.841.054,0-.879.009-1.73-.016-2.581,0-.067-.236-.174-.368-.183a18.087,18.087,0,0,1-10.526-4.174c-.245-.2-.483-.41-.72-.612-.585.486-.943.54-1.27.208s-.266-.664.164-1.208c-.7-.967-1.433-1.89-2.058-2.884a17.342,17.342,0,0,1-2.661-8.377c-.019-.329-.122-.44-.451-.432-.748.02-1.5.006-2.353.006.09.851.131,1.673.269,2.477A20.756,20.756,0,0,0,669.657,303.2c.494.283.654.657.451,1.052-.212.413-.632.5-1.153.2a22.133,22.133,0,0,1-11.338-16.113c-.158-.906-.221-1.828-.334-2.8-.4,0-.809.012-1.218,0-.529-.019-.836-.3-.831-.728s.315-.69.85-.7c.4-.008.793,0,1.239,0a22.481,22.481,0,0,1,21.633-21.69c.213-.7-.249-1.545.49-2.1h.574c.738.552.277,1.394.489,2.1A22.479,22.479,0,0,1,702.142,284.1c.385,0,.72.02,1.051,0a1.107,1.107,0,0,1,1.042.43Zm-41.285.436a16.883,16.883,0,0,0,4.471,10.7c.239-.288.426-.548.649-.771a.721.721,0,1,1,.992,1.02c-.225.221-.489.4-.767.628a16.9,16.9,0,0,0,10.719,4.476c0-.349,0-.632,0-.914,0-.3-.01-.607.01-.909a.668.668,0,0,1,.654-.692.644.644,0,0,1,.734.54,2.7,2.7,0,0,1,.037.571c0,.454,0,.908,0,1.407a16.872,16.872,0,0,0,10.694-4.463c-.29-.251-.545-.444-.767-.669a.716.716,0,1,1,1.006-1,9.126,9.126,0,0,1,.634.813,16.906,16.906,0,0,0,4.494-10.737c-.616,0-1.156.013-1.7,0s-.831-.294-.824-.73.3-.689.849-.7,1.078,0,1.643,0a3.232,3.232,0,0,0,0-.573c-.281-1.4-.551-2.806-.872-4.2-.147-.639-.073-.993.393-1.15.437-.147.795.068.959.668.286,1.042.557,2.09.775,3.148.14.678.173,1.377.254,2.062h2.676c-.343-11.8-10.53-20.212-20.211-20.129,0,.8.006,1.592,0,2.388,0,.322.215.292.423.305a17.933,17.933,0,0,1,10.187,3.911c.358.283.7.58,1.051.867.544-.481.908-.539,1.238-.219s.283.692-.2,1.271c.14.164.3.323.427.5.6.822,1.211,1.639,1.789,2.478a.709.709,0,0,1-.161,1.084.748.748,0,0,1-1.051-.334c-.124-.185-.227-.386-.359-.564-.537-.722-1.082-1.438-1.643-2.182-.191.18-.306.288-.419.4s-.223.228-.34.337a.718.718,0,0,1-1.1.051.7.7,0,0,1,.087-1.057,9.409,9.409,0,0,1,.814-.637,17.072,17.072,0,0,0-10.742-4.491c0,.536,0,1,0,1.455,0,.736-.233,1.071-.73,1.064s-.7-.333-.707-1.086c0-.457,0-.915,0-1.363-2.8-.36-8.4,1.949-10.669,4.431.249.209.521.405.754.64a.714.714,0,1,1-1,1.01c-.238-.231-.444-.494-.7-.781a16.807,16.807,0,0,0-4.449,10.7c.609,0,1.133-.006,1.657,0,.549.008.847.251.862.684.015.449-.3.731-.858.745C664.09,285.548,663.565,285.538,662.95,285.538ZM679.012,263.9a20.889,20.889,0,0,0-20.2,20.155.489.489,0,0,0,.133.04c.717,0,1.435-.008,2.151.016.336.011.427-.11.447-.435a17.875,17.875,0,0,1,3.995-10.292c.255-.32.523-.63.781-.939-.484-.548-.545-.9-.231-1.237s.641-.289,1.218.122c1.12-.779,2.176-1.608,3.32-2.29a17.289,17.289,0,0,1,7.967-2.412c.21-.012.422.008.419-.311C679.006,265.521,679.012,264.725,679.012,263.9Zm14.123,33.277c.489.556.55.915.237,1.247s-.643.283-1.224-.125c-1.076.755-2.093,1.556-3.192,2.222a17.5,17.5,0,0,1-8.092,2.493c-.139.009-.385.134-.388.212-.028.836-.017,1.674-.017,2.511,11.5-.268,20.2-10.2,20.164-20.152h-2.666A18.3,18.3,0,0,1,693.136,297.176Z" transform="translate(-655.235 -260.317)" fill="#fff"/>
        <path id="Trazado_157097" data-name="Trazado 157097" d="M712.479,314.048a23.963,23.963,0,0,1,1.739,1.683,6.021,6.021,0,0,1,1.384,3.741c.023.533-.225.855-.657.887-.464.034-.735-.245-.773-.817a4.851,4.851,0,0,0-2.758-4.279,1.507,1.507,0,0,0-.754-.068c-.63.046-1.256.149-1.887.179a.45.45,0,0,0-.471.273c-.249.475-.554.92-.788,1.3a24.231,24.231,0,0,1,1.851,1.884,5.7,5.7,0,0,1,1.214,3.506c.013.578-.223.893-.675.909s-.725-.281-.757-.851a4.8,4.8,0,0,0-2.771-4.262,1.036,1.036,0,0,0-.707-.053,4.726,4.726,0,0,1-2.868-.006.974.974,0,0,0-.664.042,4.817,4.817,0,0,0-2.8,4.15,1.756,1.756,0,0,1-.137.645.636.636,0,0,1-.78.31.6.6,0,0,1-.51-.658,11.54,11.54,0,0,1,.368-2.151,6.094,6.094,0,0,1,2.744-3.351c-.31-.525-.6-1.045-.926-1.546-.055-.085-.233-.111-.358-.127-.688-.09-1.377-.175-2.068-.245a.954.954,0,0,0-.49.057,4.841,4.841,0,0,0-2.864,4.306c-.024.38-.108.7-.506.829-.53.169-.965-.23-.93-.871a6.293,6.293,0,0,1,2.769-5.047c.127-.09.255-.177.293-.2-.357-.751-.751-1.44-1.016-2.174a3.664,3.664,0,0,1,.028-2.307c.15-.509.492-.748.9-.638.439.12.61.486.477,1.029a3.008,3.008,0,0,0,2.7,3.853,5.828,5.828,0,0,0,.732-.03,4.565,4.565,0,0,1,2.274-3.982,2.96,2.96,0,0,0-3.526-1.928c-.108.026-.214.064-.322.09a.712.712,0,1,1-.421-1.36,4.365,4.365,0,0,1,2.773-.048,4.255,4.255,0,0,1,2.717,2.382c.129.283.282.313.567.343a1.62,1.62,0,0,0,1.761-.95,4.36,4.36,0,0,1,6.294-1.105,4.444,4.444,0,0,1,.836,6.36C712.637,313.859,712.544,313.968,712.479,314.048Zm-8.227-3.2a3,3,0,0,0-3.027,2.987,3.018,3.018,0,1,0,6.037.017A3,3,0,0,0,704.251,310.845Zm4.457,3.03a2.909,2.909,0,0,0,3.43-2.033,3.01,3.01,0,0,0-2.1-3.781,2.929,2.929,0,0,0-3.585,1.916A4.506,4.506,0,0,1,708.709,313.876Z" transform="translate(-679.745 -290.389)" fill="#fff"/>
      </g>
    </g>
  </g>
</svg>
