<svg xmlns="http://www.w3.org/2000/svg" width="80.874" height="80.873" viewBox="0 0 80.874 80.873">
  <g id="Grupo_139960" data-name="Grupo 139960" transform="translate(-651 -1275.081)">
    <path id="Trazado_113533" data-name="Trazado 113533" d="M40.437,0A40.437,40.437,0,1,1,0,40.437,40.437,40.437,0,0,1,40.437,0Z" transform="translate(651 1275.081)" fill="#ffa726"/>
    <g id="Grupo_141980" data-name="Grupo 141980" transform="translate(-1869.751 -2206.005)">
      <path id="Trazado_157084" data-name="Trazado 157084" d="M2582.166,3503.7a3.594,3.594,0,0,0-3.479-2.648c-.7-.017-1.4-.011-2.1,0-.353,0-.539-.121-.511-.493.005-.074,0-.149,0-.224a2.1,2.1,0,0,0-2.329-2.237c-.133.01-.269,0-.4,0a2.036,2.036,0,0,0-1.856,1.483,2.673,2.673,0,0,0-.075.709c-.009.755-.009.755-.78.756h-18c-1.122,0-.986.065-1.017-.973a2,2,0,0,0-2.007-1.976c-.194-.005-.388,0-.582,0a1.955,1.955,0,0,0-1.971,1.565,3.941,3.941,0,0,0-.1.843c-.014.488-.058.532-.55.54-.7.009-1.4-.015-2.1.008a3.617,3.617,0,0,0-3.543,3.625c.037,11.954.019,23.908.019,35.862a3.352,3.352,0,0,0,.073.89A3.2,3.2,0,0,0,2543.6,3544h35.65a4.134,4.134,0,0,0,1.2-.286,3.353,3.353,0,0,0,1.8-3.042q.007-18.066,0-36.131A3.482,3.482,0,0,0,2582.166,3503.7Zm-9.3-3.352c.01-.611.245-.858.823-.863.608-.005.871.25.885.859.019.859.019.859-.855.859S2572.853,3501.2,2572.866,3500.346Zm-24.42-.015c.015-.588.273-.846.85-.849.595,0,.844.239.857.829.02.89.02.89-.863.89C2548.425,3501.2,2548.425,3501.2,2548.446,3500.332Zm32.348,40.109a2.02,2.02,0,0,1-2.223,2.216h-34.124a2.044,2.044,0,0,1-2.149-1.462.863.863,0,0,1-.025-.519,4.227,4.227,0,0,0,2.689.644q13.054-.015,26.108,0a4.079,4.079,0,0,0,3.1-1.3c2.077-2.124,4.193-4.209,6.293-6.31.082-.082.156-.171.246-.27a.441.441,0,0,1,.08.37Q2580.8,3537.126,2580.794,3540.44Zm-7.548-2.271c0-1.358,0-2.716,0-4.073a1.532,1.532,0,0,1,1.666-1.671c1.209-.008,2.417,0,3.626,0a7.442,7.442,0,0,0,1.165-.039l-6.549,6.548A1.672,1.672,0,0,0,2573.247,3538.17Zm7.548-8.949c0,1.3-.554,1.858-1.844,1.859-1.314,0-2.627,0-3.941,0a2.886,2.886,0,0,0-3.106,3.136c0,1.358,0,2.717,0,4.075a1.537,1.537,0,0,1-1.663,1.678q-12.942,0-25.883,0a2,2,0,0,1-2.13-2.129q-.007-12.65-.009-25.3c0-.319.095-.395.4-.393,2.165.013,4.329.008,6.493.006a2.594,2.594,0,0,0,.534-.033.591.591,0,0,0,.5-.6.6.6,0,0,0-.474-.666,2.174,2.174,0,0,0-.533-.041c-2.15,0-4.3-.01-6.448.006-.353,0-.482-.055-.477-.45.024-1.866.008-3.732.012-5.6a2.034,2.034,0,0,1,2.224-2.223c.776,0,1.552.009,2.328-.006.249,0,.339.062.331.321-.019.552-.018,1.1,0,1.657a2.045,2.045,0,0,0,1.959,2.045.664.664,0,0,0,.749-.6.675.675,0,0,0-.624-.735c-.563-.1-.736-.3-.742-.865-.005-.492.016-.986-.008-1.477-.014-.289.091-.351.358-.345.731.017,1.463.006,2.194.006q9.986,0,19.972-.013c.489,0,.6.146.568.593a12.712,12.712,0,0,0,.007,1.611,2.009,2.009,0,0,0,1.929,1.827.672.672,0,1,0,.134-1.337c-.583-.11-.729-.278-.734-.861,0-.508.01-1.016-.006-1.522-.007-.235.07-.3.3-.3,1.866.009,3.732-.011,5.6.012a1.979,1.979,0,0,1,2.026,2.053c.016,1.955-.007,3.911.015,5.866,0,.4-.211.337-.447.337h-27.72c-.8,0-1.144.207-1.135.684.009.462.341.659,1.113.659q13.837,0,27.675-.009c.406,0,.515.1.514.51Q2580.783,3520.937,2580.795,3529.221Z" fill="#fff"/>
      <path id="Trazado_157085" data-name="Trazado 157085" d="M2558.448,3577.369q-1.63-.052-3.263,0a1.253,1.253,0,0,0-1.269,1.291c-.02,1.088-.022,2.177,0,3.264a1.25,1.25,0,0,0,1.3,1.252c.536.01,1.073,0,1.61,0,.507,0,1.013,0,1.52,0a1.285,1.285,0,0,0,1.37-1.287c.031-1.073.028-2.147,0-3.219A1.27,1.27,0,0,0,2558.448,3577.369Zm-.339,4.468c-.865-.01-1.73-.011-2.6,0-.225,0-.275-.078-.268-.283.013-.432,0-.865,0-1.3s.01-.836,0-1.253c-.007-.223.048-.315.295-.311q1.275.021,2.551,0c.246,0,.3.088.3.313q-.016,1.276,0,2.551C2558.392,3581.771,2558.325,3581.84,2558.11,3581.837Z" transform="translate(-8.994 -54.213)" fill="#fff"/>
      <path id="Trazado_157086" data-name="Trazado 157086" d="M2616.2,3577.37c-1.086-.035-2.176-.033-3.263,0a1.239,1.239,0,0,0-1.267,1.247c-.037,1.1-.038,2.206,0,3.307a1.254,1.254,0,0,0,1.346,1.254c.522.006,1.043,0,1.565,0s1.014,0,1.52,0a1.271,1.271,0,0,0,1.362-1.287c.025-1.073.023-2.146,0-3.219A1.258,1.258,0,0,0,2616.2,3577.37Zm-.34,4.469q-1.3-.018-2.595,0c-.22,0-.279-.074-.276-.284q.014-1.275,0-2.55c0-.225.055-.314.3-.311q1.275.021,2.551,0c.25,0,.3.094.293.314-.013.417,0,.835,0,1.253s-.01.865,0,1.3C2616.141,3581.769,2616.083,3581.842,2615.861,3581.838Z" transform="translate(-48.49 -54.213)" fill="#fff"/>
      <path id="Trazado_157087" data-name="Trazado 157087" d="M2587.3,3577.365q-1.608-.044-3.219,0a1.239,1.239,0,0,0-1.275,1.236q-.046,1.674,0,3.352a1.24,1.24,0,0,0,1.282,1.22c.537.011,1.073,0,1.61,0,.507,0,1.014,0,1.521,0a1.285,1.285,0,0,0,1.381-1.319q.037-1.586,0-3.174A1.277,1.277,0,0,0,2587.3,3577.365Zm-.03,4.193c0,.218-.069.281-.282.279-.865-.01-1.73-.012-2.595,0-.232,0-.269-.085-.267-.286q.014-1.275,0-2.551c0-.227.056-.319.3-.309.417.019.835.005,1.253.005s.835.012,1.253,0c.24-.01.345.046.34.315C2587.259,3579.858,2587.262,3580.708,2587.272,3581.558Z" transform="translate(-28.752 -54.212)" fill="#fff"/>
      <path id="Trazado_157088" data-name="Trazado 157088" d="M2553.915,3555.564a1.27,1.27,0,0,0,1.312,1.34q1.586.034,3.174,0a1.27,1.27,0,0,0,1.323-1.289q.043-1.608,0-3.219a1.239,1.239,0,0,0-1.229-1.283c-1.116-.038-2.235-.038-3.352,0a1.231,1.231,0,0,0-1.225,1.278c-.019.535,0,1.073,0,1.609h0C2553.913,3554.521,2553.9,3555.043,2553.915,3555.564Zm1.335-2.829c0-.233.068-.315.3-.306.417.016.834,0,1.25,0s.834.01,1.25,0c.239-.008.346.047.341.318q-.024,1.25,0,2.5c0,.261-.086.329-.334.326-.834-.012-1.667-.011-2.5,0-.222,0-.315-.046-.311-.292C2555.264,3554.433,2555.262,3553.584,2555.25,3552.736Z" transform="translate(-8.999 -36.251)" fill="#fff"/>
      <path id="Trazado_157089" data-name="Trazado 157089" d="M2584.2,3556.9c.492.01.984,0,1.475,0,.522,0,1.044.013,1.565,0a1.291,1.291,0,0,0,1.355-1.351c.021-1.028.019-2.057,0-3.085a1.291,1.291,0,0,0-1.377-1.376c-1.028-.021-2.057-.022-3.085,0a1.274,1.274,0,0,0-1.35,1.35q-.031,1.542,0,3.085A1.3,1.3,0,0,0,2584.2,3556.9Zm-.082-4.18c0-.24.083-.3.311-.3.833.01,1.667.012,2.5,0,.247,0,.346.063.334.324-.019.416-.005.833-.005,1.25,0,.4-.012.8,0,1.2.01.254-.042.375-.337.368-.833-.019-1.666-.013-2.5,0-.228,0-.312-.058-.309-.3Q2584.136,3553.995,2584.117,3552.722Z" transform="translate(-28.741 -36.242)" fill="#fff"/>
      <path id="Trazado_157090" data-name="Trazado 157090" d="M2613.016,3556.9q1.542.025,3.085,0a1.294,1.294,0,0,0,1.362-1.386c.011-.491,0-.984,0-1.475,0-.522.01-1.043,0-1.565a1.291,1.291,0,0,0-1.365-1.384q-1.542-.034-3.084,0a1.279,1.279,0,0,0-1.362,1.343q-.04,1.564,0,3.129A1.28,1.28,0,0,0,2613.016,3556.9Zm-.033-4.189c0-.207.058-.291.277-.289q1.294.014,2.589,0c.221,0,.281.085.276.29-.011.446,0,.893,0,1.339,0,.4-.011.8,0,1.205.009.227-.055.313-.3.31q-1.273-.019-2.545,0c-.239,0-.3-.082-.3-.31C2612.992,3554.406,2612.991,3553.558,2612.982,3552.71Z" transform="translate(-48.482 -36.242)" fill="#fff"/>
      <path id="Trazado_157091" data-name="Trazado 157091" d="M2641.811,3556.9q1.631.04,3.263,0a1.264,1.264,0,0,0,1.284-1.32c.014-.521,0-1.043,0-1.564s.01-1.043,0-1.565a1.252,1.252,0,0,0-1.257-1.343c-1.1-.036-2.205-.033-3.307,0a1.191,1.191,0,0,0-1.226,1.182c-.044,1.145-.044,2.294,0,3.439A1.2,1.2,0,0,0,2641.811,3556.9Zm.069-4.173c0-.2.045-.3.27-.3q1.3.014,2.591,0c.214,0,.288.069.281.282-.012.431,0,.863,0,1.295s-.009.834,0,1.25c.006.215-.032.321-.286.317-.848-.015-1.7-.012-2.546,0-.227,0-.315-.06-.312-.3C2641.89,3554.42,2641.887,3553.571,2641.879,3552.722Z" transform="translate(-68.254 -36.248)" fill="#fff"/>
      <path id="Trazado_157092" data-name="Trazado 157092" d="M2646.342,3579.361a1.254,1.254,0,0,0-1.269-1.333c-1.087-.034-2.176-.032-3.263,0a1.227,1.227,0,0,0-1.268,1.242c-.039,1.1-.04,2.206,0,3.307a1.242,1.242,0,0,0,1.309,1.249q1.586.033,3.174,0a1.274,1.274,0,0,0,1.317-1.336c.012-.521,0-1.043,0-1.565S2646.355,3579.882,2646.342,3579.361Zm-1.633,3.135c-.431-.018-.863-.005-1.3-.005s-.834-.011-1.25,0c-.239.009-.3-.083-.3-.312q.016-1.273,0-2.546c0-.213.067-.288.281-.285.863.008,1.727.009,2.59,0,.225,0,.273.091.271.292-.008.848-.01,1.7,0,2.546C2645.01,3582.418,2644.952,3582.506,2644.709,3582.5Z" transform="translate(-68.237 -54.664)" fill="#fff"/>
      <path id="Trazado_157093" data-name="Trazado 157093" d="M2558.387,3603.7c-1.059-.012-2.117-.015-3.176,0a1.254,1.254,0,0,0-1.293,1.262q-.036,1.632,0,3.265a1.273,1.273,0,0,0,1.318,1.287c.522.01,1.044,0,1.566,0s1.044.007,1.566,0a1.274,1.274,0,0,0,1.342-1.222c.042-1.131.043-2.267,0-3.4A1.256,1.256,0,0,0,2558.387,3603.7Zm0,4.2c0,.212-.059.283-.276.28q-1.3-.016-2.591,0c-.213,0-.285-.052-.277-.273.017-.446,0-.893,0-1.438.039-.4-.215-1.07.093-1.351.273-.248.933-.072,1.422-.077.446,0,.894.008,1.34,0,.207-.006.288.048.285.272C2558.378,3606.166,2558.379,3607.03,2558.389,3607.894Z" transform="translate(-8.994 -72.23)" fill="#fff"/>
      <path id="Trazado_157094" data-name="Trazado 157094" d="M2587.246,3603.7q-1.565-.018-3.131,0a1.262,1.262,0,0,0-1.32,1.284q-.041,1.631,0,3.264a1.269,1.269,0,0,0,1.337,1.268c.506.009,1.014,0,1.521,0s1.043.006,1.565,0a1.3,1.3,0,0,0,1.376-1.332q.036-1.587,0-3.175A1.285,1.285,0,0,0,2587.246,3603.7Zm.019,4.2c0,.216-.065.279-.28.277-.864-.011-1.728-.012-2.591,0-.219,0-.276-.062-.274-.277q.018-1.3,0-2.591c0-.212.05-.287.272-.278.431.018.864.006,1.3.006s.865.01,1.3,0c.213-.007.283.058.281.276Q2587.249,3606.6,2587.266,3607.9Z" transform="translate(-28.745 -72.231)" fill="#fff"/>
      <path id="Trazado_157095" data-name="Trazado 157095" d="M2617.448,3606.646c0-.567.021-1.134-.005-1.7a1.264,1.264,0,0,0-1.266-1.249c-1.088-.02-2.177-.017-3.265,0a1.268,1.268,0,0,0-1.227.987,4.116,4.116,0,0,0-.028,1.336.656.656,0,0,0,1.3-.026,3.72,3.72,0,0,0,.012-.67c-.019-.244.08-.3.307-.3.85.012,1.7.016,2.55,0,.254-.005.289.094.287.309-.009.85-.013,1.7,0,2.55,0,.248-.089.29-.308.287-.85-.01-1.7-.008-2.549,0a.3.3,0,0,1-.35-.234.608.608,0,0,0-.806-.37.637.637,0,0,0-.455.729,1.3,1.3,0,0,0,1.308,1.211c1.029.013,2.058.008,3.086,0a1.31,1.31,0,0,0,1.408-1.389c.012-.492,0-.984,0-1.476Z" transform="translate(-48.472 -72.229)" fill="#fff"/>
    </g>
  </g>
</svg>
