<svg xmlns="http://www.w3.org/2000/svg" width="242.878" height="250.028" viewBox="0 0 242.878 250.028">
  <g id="Grupo_141803" data-name="Grupo 141803" transform="translate(-642.687 -9997.507)">
    <path id="Trazado_156535" data-name="Trazado 156535" d="M225.81,359.822c-5.524-1.381-118.749-73.183-118.749-73.183s69.04,120.13,66.278,115.987S21.451,224.5,21.451,224.5L93.985,253.07,36.64,152.7S231.333,361.2,225.81,359.822Z" transform="translate(659.639 9844.806)" fill="#26ccda"/>
    <g id="Grupo_141802" data-name="Grupo 141802" transform="translate(94.979 9935.001)">
      <path id="Trazado_156456" data-name="Trazado 156456" d="M726.511,236.084a1.191,1.191,0,1,1-1.192-1.192A1.192,1.192,0,0,1,726.511,236.084Z" transform="translate(-40.417 -58.12)" fill="#fa7d3f"/>
      <g id="Grupo_141784" data-name="Grupo 141784" transform="translate(696.189 62.507)">
        <path id="Trazado_156457" data-name="Trazado 156457" d="M809.563,96.977c-3.4-2.4-7.876-4.035-11.715-2.413-3.722,1.572-5.732,5.891-5.6,9.929s2.036,7.812,4.283,11.17" transform="translate(-746.565 -73.095)" fill="none"/>
        <path id="Trazado_156458" data-name="Trazado 156458" d="M723.329,196.133l6.451-39.457c7.493.716,14.861-3.383,19.646-9.2,2.186-2.655,1.282-3.909,1.676-7.554.584-5.4-1.715-12.38-3.677-17.144-4.6-11.168-5.08-26.279,3.778-35.565,1.5-1.578,3.01-3.051,5.228-3.453,2.337-.424,5.431-.257,7.154,1.61,1.683,1.823,1.855,4.4,1.425,6.839-.505,2.873-3.094,5.681-5.519,7.3a12.5,12.5,0,0,1,3.643,13.747,51.421,51.421,0,0,1,9.131-14.494,14.893,14.893,0,0,1-.365-14.663c-3.824-1.812-10.679-3.5-13.343-6.788-2.522-3.113-4.173-7.078-1.872-10.851,1.734-2.842,5.46-4.257,8.714-3.909,4.992.534,10.612,4.018,13.629,8.032a3.318,3.318,0,0,1,1.763-1.78,11.316,11.316,0,0,1,17.177,10.157c4.541,2.3,6.353,7.857,7.2,12.876a16.613,16.613,0,0,1-4.347,14.064c8.022,4.682,5.287,14.953,1.709,22.026-5.373,10.621-13.1,19.8-21.343,28.3-8.353,8.623-16.9,17.32-26.24,24.879-8.471,6.855-19.623,14.4-31.129,11.992" transform="translate(-723.329 -62.507)" fill="#ffa726"/>
        <path id="Trazado_156459" data-name="Trazado 156459" d="M806.118,73.709c-1.137.671-8.947,11.9,5.088,17.324q-.436,6.153-.872,12.3a1.99,1.99,0,0,1-.16.774,2.159,2.159,0,0,1-.809.736,13.1,13.1,0,0,0-5.687,8.88" transform="translate(-750.166 -66.284)" fill="none" stroke="#240000" stroke-linecap="round" stroke-linejoin="round" stroke-width="0.763"/>
        <path id="Trazado_156460" data-name="Trazado 156460" d="M830.071,88.3a7.665,7.665,0,1,0-5.515,14.194c1.487,3.007-.86,5.989-.85,9.344a2.82,2.82,0,0,1-.227,1.485,2.769,2.769,0,0,1-1.416.931,11.244,11.244,0,0,0-6.567,8.116" transform="translate(-754.403 -70.936)" fill="none" stroke="#240000" stroke-linecap="round" stroke-linejoin="round" stroke-width="0.763"/>
        <path id="Trazado_156461" data-name="Trazado 156461" d="M826.887,127.791c-5.406-.794-10.476,4.159-8.546,9.591a6.367,6.367,0,0,0,2.562,3.29,36.912,36.912,0,0,1-8.669,6.572,19.985,19.985,0,0,0-8.985-11.556" transform="translate(-750.274 -84.489)" fill="none" stroke="#240000" stroke-linecap="round" stroke-linejoin="round" stroke-width="0.763"/>
        <path id="Trazado_156462" data-name="Trazado 156462" d="M787.384,149.531c-3.995,3.062-7,7.684-7.236,12.711s2.713,10.289,7.47,11.933" transform="translate(-742.481 -91.847)" fill="none" stroke="#240000" stroke-linecap="round" stroke-linejoin="round" stroke-width="0.763"/>
        <path id="Trazado_156463" data-name="Trazado 156463" d="M827.228,144.7a6.686,6.686,0,0,0,6.918,2.5" transform="translate(-758.359 -90.217)" fill="none" stroke="#240000" stroke-linecap="round" stroke-linejoin="round" stroke-width="0.763"/>
      </g>
      <g id="Grupo_141785" data-name="Grupo 141785" transform="translate(547.708 129.757)">
        <path id="Trazado_156464" data-name="Trazado 156464" d="M578.659,197.626c3.469-2.309,7.985-3.815,11.777-2.088,3.677,1.675,5.567,6.048,5.318,10.081s-2.252,7.752-4.591,11.046" transform="translate(-558.143 -174.357)" fill="none"/>
        <path id="Trazado_156465" data-name="Trazado 156465" d="M628.156,298.681l-5.355-39.62c-7.511.508-14.762-3.794-19.383-9.737-2.112-2.715-1.173-3.943-1.466-7.6-.434-5.416,2.057-12.328,4.151-17.036,4.908-11.036,5.807-26.128-2.791-35.656-1.46-1.619-2.924-3.133-5.13-3.6-2.325-.489-5.422-.408-7.2,1.411-1.733,1.776-1.976,4.343-1.614,6.8.426,2.886,2.936,5.765,5.315,7.454a12.5,12.5,0,0,0-4.023,13.641A51.423,51.423,0,0,0,581.937,200a14.892,14.892,0,0,0,.772-14.647c3.873-1.7,10.772-3.2,13.526-6.416,2.608-3.041,4.368-6.959,2.172-10.794-1.654-2.889-5.34-4.407-8.6-4.149-5.006.4-10.72,3.723-13.847,7.651a3.319,3.319,0,0,0-1.713-1.829,11.316,11.316,0,0,0-17.452,9.677c-4.6,2.174-6.569,7.678-7.556,12.672a16.615,16.615,0,0,0,3.955,14.179c-8.149,4.458-5.7,14.8-2.319,21.97,5.077,10.766,12.551,20.152,20.55,28.88,8.111,8.852,16.413,17.782,25.54,25.6,8.278,7.088,19.217,14.933,30.785,12.85" transform="translate(-547.708 -163.963)" fill="#ffa726"/>
        <path id="Trazado_156466" data-name="Trazado 156466" d="M587.144,174.546c1.118.7,8.613,12.142-5.567,17.175q.266,6.163.53,12.324a2,2,0,0,0,.139.778,2.16,2.16,0,0,0,.788.758,13.1,13.1,0,0,1,5.439,9.035" transform="translate(-559.127 -167.531)" fill="none" stroke="#240000" stroke-linecap="round" stroke-linejoin="round" stroke-width="0.763"/>
        <path id="Trazado_156467" data-name="Trazado 156467" d="M559.825,188.351a7.665,7.665,0,1,1,5.119,14.341c-1.57,2.964.693,6.011.591,9.363a2.828,2.828,0,0,0,.186,1.491,2.774,2.774,0,0,0,1.39.97,11.241,11.241,0,0,1,6.34,8.295" transform="translate(-551.793 -171.948)" fill="none" stroke="#240000" stroke-linecap="round" stroke-linejoin="round" stroke-width="0.763"/>
        <path id="Trazado_156468" data-name="Trazado 156468" d="M557.316,227.757c5.426-.644,10.356,4.448,8.276,9.824a6.361,6.361,0,0,1-2.652,3.217,36.913,36.913,0,0,0,8.484,6.81,19.984,19.984,0,0,1,9.3-11.3" transform="translate(-550.947 -185.453)" fill="none" stroke="#240000" stroke-linecap="round" stroke-linejoin="round" stroke-width="0.763"/>
        <path id="Trazado_156469" data-name="Trazado 156469" d="M604.068,250.8c3.908,3.172,6.78,7.875,6.881,12.907s-3,10.21-7.8,11.722" transform="translate(-566.401 -193.241)" fill="none" stroke="#240000" stroke-linecap="round" stroke-linejoin="round" stroke-width="0.763"/>
        <path id="Trazado_156470" data-name="Trazado 156470" d="M564.973,244.964a6.686,6.686,0,0,1-6.985,2.305" transform="translate(-551.174 -191.273)" fill="none" stroke="#240000" stroke-linecap="round" stroke-linejoin="round" stroke-width="0.763"/>
      </g>
      <g id="Grupo_141786" data-name="Grupo 141786" transform="translate(638.005 274.664)">
        <path id="Trazado_156471" data-name="Trazado 156471" d="M670.829,387.625c2.493,4.948,2.849,7.108,1.214,10.343-1.108,2.192-3.072,3.8-4.613,5.718a17.6,17.6,0,0,0-3.649,13.488l25.412-18.181-11.745-16.417Z" transform="translate(-662.832 -382.576)" fill="#e0c7b3"/>
        <path id="Trazado_156472" data-name="Trazado 156472" d="M667.43,407.517c1.541-1.913,3.505-3.526,4.613-5.718a8.85,8.85,0,0,0,.608-6.12c1.021.36,2.034.744,3.073,1.052a8.979,8.979,0,0,0,3.115.463,4.183,4.183,0,0,0,2.765-1.267,6.057,6.057,0,0,0,1.233-1.987l6.355,8.883-25.412,18.181A17.6,17.6,0,0,1,667.43,407.517Z" transform="translate(-662.832 -386.408)" fill="#efdece"/>
        <path id="Trazado_156473" data-name="Trazado 156473" d="M664.932,425.733l24.739-17.7a1.579,1.579,0,0,0,.365-2.2h0a1.578,1.578,0,0,0-2.2-.364l-24.74,17.7a1.578,1.578,0,0,0-.364,2.2h0A1.578,1.578,0,0,0,664.932,425.733Z" transform="translate(-662.445 -390.198)" fill="#e0c7b3"/>
        <path id="Trazado_156474" data-name="Trazado 156474" d="M680.006,401.744h0a.841.841,0,0,0-.69-.965l-6.623-1.1a.842.842,0,0,0-.965.691h0a.841.841,0,0,0,.69.965l6.622,1.1A.841.841,0,0,0,680.006,401.744Z" transform="translate(-665.571 -388.339)" fill="#e0c7b3"/>
        <path id="Trazado_156475" data-name="Trazado 156475" d="M678.133,407.106h0a.842.842,0,0,0-.691-.966l-6.622-1.1a.842.842,0,0,0-.965.691h0a.842.842,0,0,0,.691.965l6.622,1.1A.842.842,0,0,0,678.133,407.106Z" transform="translate(-664.939 -390.147)" fill="#e0c7b3"/>
      </g>
      <g id="Grupo_141787" data-name="Grupo 141787" transform="translate(713.344 255.826)">
        <path id="Trazado_156476" data-name="Trazado 156476" d="M759.127,362.35c5.18,1.965,6.9,3.318,7.881,6.807.664,2.364.3,4.881.461,7.332a17.6,17.6,0,0,0,6.42,12.41l6.459-30.571-19.75-4.173Z" transform="translate(-759.127 -354.156)" fill="#e0c7b3"/>
        <path id="Trazado_156477" data-name="Trazado 156477" d="M769.6,377.463c-.156-2.451.2-4.968-.461-7.332a8.851,8.851,0,0,0-3.685-4.924c1-.425,2-.826,2.976-1.3a8.993,8.993,0,0,0,2.61-1.763,4.176,4.176,0,0,0,1.183-2.8,6.064,6.064,0,0,0-.432-2.3l10.686,2.258-6.459,30.57A17.6,17.6,0,0,1,769.6,377.463Z" transform="translate(-761.262 -355.13)" fill="#efdece"/>
        <path id="Trazado_156478" data-name="Trazado 156478" d="M782.481,389.944l6.288-29.762a1.578,1.578,0,0,0-1.214-1.865h0a1.578,1.578,0,0,0-1.865,1.214L779.4,389.293a1.578,1.578,0,0,0,1.214,1.865h0A1.577,1.577,0,0,0,782.481,389.944Z" transform="translate(-765.952 -355.548)" fill="#e0c7b3"/>
        <path id="Trazado_156479" data-name="Trazado 156479" d="M771.159,369.06h0a.842.842,0,0,0-1.161-.245l-5.626,3.663a.842.842,0,0,0-.245,1.161h0a.842.842,0,0,0,1.161.245l5.626-3.663A.842.842,0,0,0,771.159,369.06Z" transform="translate(-760.767 -359.053)" fill="#e0c7b3"/>
        <path id="Trazado_156480" data-name="Trazado 156480" d="M773.4,374.278h0a.841.841,0,0,0-1.161-.245l-5.626,3.663a.842.842,0,0,0-.245,1.161h0a.842.842,0,0,0,1.161.245l5.626-3.664A.841.841,0,0,0,773.4,374.278Z" transform="translate(-761.523 -360.812)" fill="#e0c7b3"/>
      </g>
      <path id="Trazado_156481" data-name="Trazado 156481" d="M691.889,320.619l-9.646-11.256,14.405,3.5-.154-14.823,8.787,11.939,9.41-11.454-.943,14.794,14.571-2.726-10.232,10.727L731,328.6l-14.733,1.64,5.215,13.877-12.34-8.214-4.925,13.982-4.173-14.224-12.76,7.545,5.946-13.579L678.605,327.2Z" transform="translate(-25.167 -79.41)" fill="#ffb000"/>
      <g id="Grupo_141788" data-name="Grupo 141788" transform="translate(676.429 77.207)">
        <path id="Trazado_156482" data-name="Trazado 156482" d="M718.024,95.415l-4.584-5.349,6.845,1.662-.073-7.044,4.175,5.673,4.471-5.443-.448,7.03,6.924-1.3-4.862,5.1,6.137,3.458-7,.779,2.478,6.594-5.864-3.9-2.34,6.644L721.9,102.56l-6.064,3.585,2.826-6.453-6.95-1.151Z" transform="translate(-711.712 -84.685)" fill="#ffb000"/>
      </g>
      <g id="Grupo_141797" data-name="Grupo 141797" transform="translate(628.588 84.073)">
        <path id="Trazado_156483" data-name="Trazado 156483" d="M684.906,180.195s-7.574,10.53-10.453,17.417" transform="translate(-653.994 -123.752)" fill="none" stroke="#472a1c" stroke-linecap="round" stroke-linejoin="round" stroke-width="0.427"/>
        <path id="Trazado_156484" data-name="Trazado 156484" d="M714.964,179.981l-1.334,6.139,7.993-4.195Z" transform="translate(-667.202 -123.68)" fill="#ff8772"/>
        <g id="Grupo_141796" data-name="Grupo 141796">
          <g id="Grupo_141795" data-name="Grupo 141795">
            <g id="Grupo_141794" data-name="Grupo 141794">
              <g id="Grupo_141793" data-name="Grupo 141793">
                <g id="Grupo_141789" data-name="Grupo 141789" transform="translate(32.426 118.3)">
                  <path id="Trazado_156485" data-name="Trazado 156485" d="M739.867,339.006,741.561,326l-25.6-11.564-9.68-35.741a7.009,7.009,0,1,0-13.53,3.665l10.594,39.121a7.011,7.011,0,0,0,4.168,4.678Z" transform="translate(-692.506 -273.515)" fill="#261611"/>
                </g>
                <g id="Grupo_141790" data-name="Grupo 141790" transform="translate(15.663 42.576)">
                  <path id="Trazado_156486" data-name="Trazado 156486" d="M728.03,160.722c-.736,1.428-.637,15.771-1.138,17.3-.75,2.285-5.671-.736-4.554,1.394a8.006,8.006,0,0,1-5.018,1.68,7.73,7.73,0,0,1-4.817-1.955c-.359-.322-.687-.677-1.013-1.032l-1.2-1.306c3.2-3.01,6.2-6.5,6.873-10.836,1.113.117-1.836-6.805-.723-6.688.483.051,4.179.42,4.638.578C721.8,160.105,727.266,160.63,728.03,160.722Z" transform="translate(-681.738 -159.275)" fill="#ff8772"/>
                  <path id="Trazado_156487" data-name="Trazado 156487" d="M719.111,165.964a12.845,12.845,0,0,1-3.036,6.461c2.511-.368,4.646-.824,6.134-2.745,2.053-2.652,2.738-6.212,3.624-9.408a24.252,24.252,0,0,1-2.807-.418c-.459-.158-4.155-.527-4.638-.578C717.275,159.159,720.224,166.082,719.111,165.964Z" transform="translate(-683.69 -159.275)" fill="#300"/>
                  <path id="Trazado_156488" data-name="Trazado 156488" d="M671.144,256.928q-.081.357-.164.7c-1.645,6.748-2.4,13.792,1.392,20,4.545,7.44,13.958,12.83,22.373,8.275,6.04-3.268,8.2-12.367,10.115-18.942Z" transform="translate(-668.031 -192.199)" fill="#261611"/>
                  <path id="Trazado_156489" data-name="Trazado 156489" d="M670.073,204.028a127.542,127.542,0,0,0-2.75,18.538c-.167,2.132-.27,4.377.76,6.384,1.682,3.281,5.585,4.883,9.1,6.088,4.35,1.494,8.782,2.735,13.248,3.829,3.923.961,8.879,2.791,12.9,2.575,3.763-.2,5.515-3.357,6.628-6.166,1.723-4.348,2.875-8.814,4.834-13.075a103.783,103.783,0,0,1,7.432-12.723,39.011,39.011,0,0,0,4.382-7.909,11.512,11.512,0,0,0-.178-8.909c-1.327-2.725-3.961-4.834-6.754-6.475-8.3-4.88-17.986-7.008-27.464-9.09-3.278-.721-7.136-.821-9.988.53-2.175,1.029-3.419,3.093-4.462,5.1A88.947,88.947,0,0,0,670.073,204.028Z" transform="translate(-667.217 -165.107)" fill="#b1f7fd"/>
                </g>
                <g id="Grupo_141791" data-name="Grupo 141791" transform="translate(0 115.213)">
                  <path id="Trazado_156490" data-name="Trazado 156490" d="M662.791,354.076l10.534-9.776-13.479-27.669,16.864-36.9a7.679,7.679,0,0,0-13.969-6.384l-18.459,40.389a7.68,7.68,0,0,0,.237,6.86Z" transform="translate(-643.587 -268.859)" fill="#261611"/>
                </g>
                <g id="Grupo_141792" data-name="Grupo 141792" transform="translate(45.633 28.125)">
                  <path id="Trazado_156491" data-name="Trazado 156491" d="M729.7,148a4.008,4.008,0,0,0-4.124,3.526,8.889,8.889,0,0,0,1.747,5.753c1.444-2.038,2.583-3.874,4.028-5.913.542-.766,1.072-1.822.409-2.61A3.7,3.7,0,0,0,729.7,148Z" transform="translate(-716.847 -141.019)" fill="#2d201b"/>
                  <path id="Trazado_156492" data-name="Trazado 156492" d="M712.641,152.239c-.019.073-.036.146-.052.219-.008.037-.016.075-.024.112s-.009.046-.013.07c-.014.072-.026.142-.038.213l-.01.064c-.015.1-.028.208-.038.312s-.02.22-.025.331c0,.039,0,.078-.005.117,0,.023,0,.047,0,.071,0,.094,0,.188,0,.282a6.546,6.546,0,0,0,.044.677c.006.054.013.108.021.162a7.014,7.014,0,0,0,.351,1.413q.055.148.115.292c.021.052.044.1.066.155.038.086.078.169.119.253.1.2.212.4.332.6q.086.135.175.267a6.9,6.9,0,0,0,.838,1,6.732,6.732,0,0,0,.755.646c.058.044.118.086.178.127.042.03.086.059.129.087l.072.046.067.042c.071.044.142.088.215.129a6.867,6.867,0,0,0,1.392.6q.163.05.326.091a6.92,6.92,0,0,0,8.3-4.66l.479-1.56,1.41-4.588.441-1.435.609-1.98c.033-.109.064-.218.092-.327.013-.054.026-.108.039-.162s.02-.086.028-.129.018-.087.025-.131a.181.181,0,0,0,.006-.031c.005-.027.01-.054.015-.08s.011-.064.016-.1.006-.038.009-.058c.007-.047.013-.094.019-.142s.01-.08.014-.12c0-.023.005-.046.007-.07.01-.093.017-.186.021-.279,0-.052.006-.105.007-.157s0-.1,0-.145,0-.095,0-.143v0c0-.048,0-.095,0-.143s0-.1-.006-.144-.005-.1-.009-.143c-.007-.1-.017-.194-.027-.29,0-.019-.005-.037-.007-.056-.01-.079-.021-.158-.033-.237l-.009-.055c-.013-.082-.029-.162-.045-.243l-.008-.038a6.892,6.892,0,0,0-12.166-2.875,6.821,6.821,0,0,0-1.179,2.244l-2.94,9.562C712.7,152.017,712.67,152.128,712.641,152.239Z" transform="translate(-712.431 -137.473)" fill="#ff8772"/>
                </g>
                <path id="Trazado_156493" data-name="Trazado 156493" d="M712.049,138.6c-2.348.114-4.312-2.522-3.777-5.069.257-1.221.929-2.691.149-3.53a2.127,2.127,0,0,0-1.183-.522c-11.735-2.455-24.214-4.221-33.492-12.119a18.147,18.147,0,0,1-6.35-9.566c-.9-3.953.258-8.791,3.448-11.2,3.415-2.585,8.086-1.684,11.24.856s5.167,6.387,7.243,10.039a44.556,44.556,0,0,0,7.279,10.126,16.781,16.781,0,0,0,10.674,5.123,9.84,9.84,0,0,1,4.017.533,2.752,2.752,0,0,1,1.273,3.647c.606-1.1,2.559-.424,3.111.628a5.248,5.248,0,0,1,.021,3.64A28.91,28.91,0,0,1,712.049,138.6Z" transform="translate(-651.515 -95.043)" fill="#300"/>
                <path id="Trazado_156494" data-name="Trazado 156494" d="M737.41,159.487a2.657,2.657,0,1,1-1.758-3.321A2.657,2.657,0,0,1,737.41,159.487Z" transform="translate(-673.468 -115.611)" fill="#ff8772"/>
              </g>
              <path id="Trazado_156495" data-name="Trazado 156495" d="M720.214,158.012l-.459,1.291-1.035-.308.479,1.42" transform="translate(-668.918 -116.273)" fill="none" stroke="#472a1c" stroke-linecap="round" stroke-linejoin="round" stroke-width="0.427"/>
              <path id="Trazado_156496" data-name="Trazado 156496" d="M724.5,150.233a5.864,5.864,0,0,0,2.781,2.889" transform="translate(-670.866 -113.65)" fill="none" stroke="#2d1a14" stroke-linecap="round" stroke-linejoin="round" stroke-width="1.2"/>
              <path id="Trazado_156497" data-name="Trazado 156497" d="M718.274,148.461a5.612,5.612,0,0,1-3.461,1.513" transform="translate(-667.601 -113.053)" fill="none" stroke="#2d1a14" stroke-linecap="round" stroke-linejoin="round" stroke-width="1.2"/>
              <path id="Trazado_156498" data-name="Trazado 156498" d="M716.67,154.552l1.289,1.29s-1.658-.553-2.395.184" transform="translate(-667.854 -115.106)" fill="none" stroke="#472a1c" stroke-linecap="round" stroke-linejoin="round" stroke-width="0.427"/>
              <path id="Trazado_156499" data-name="Trazado 156499" d="M724.957,156.254l-1.778.409s1.7.412,1.933,1.427" transform="translate(-670.422 -115.68)" fill="none" stroke="#472a1c" stroke-linecap="round" stroke-linejoin="round" stroke-width="0.427"/>
            </g>
            <path id="Trazado_156500" data-name="Trazado 156500" d="M713.269,218.367l-1.924,5.252a159.073,159.073,0,0,0-29.795-9.989c-2.8-.668-6.283-1.042-8.07,1.218,2.627.756,4.706,2.27,7.035,3.7,5,3.071,8.988,7.5,13.154,11.64s8.753,8.125,14.336,9.935,12.4.95,16.253-3.475a17.1,17.1,0,0,0,2.537-4.12C722.138,227.947,717.563,223.291,713.269,218.367Z" transform="translate(-653.666 -134.851)" fill="#ff8772"/>
            <path id="Trazado_156501" data-name="Trazado 156501" d="M711,216.682l-1.542,4.211c-9.46-4.375-19.96-12.453-30.1-14.868-2.8-.668-9.682-1.984-11.469.276,2.628.756,8.408,8.09,10.737,9.52,5,3.071,8.988,7.5,13.154,11.64s8.753,8.125,14.336,9.935,12.4.95,16.253-3.475a21.694,21.694,0,0,0,3.395-6.1A76.675,76.675,0,0,1,711,216.682Z" transform="translate(-651.783 -132.126)" fill="#ff8772"/>
            <path id="Trazado_156502" data-name="Trazado 156502" d="M739.2,223.305a26.752,26.752,0,0,0,7.737,4.755c.292-.658.569-1.325.842-1.989,2.467-5.99,5.723-14.261,3.442-20.791a5.3,5.3,0,0,0-1.536-2.27c-2.537-2.215-7.05-2.118-9.712-.134-3.29,2.453-5.049,6.778-6.414,10.5q-.5,1.37-1,2.742A40.626,40.626,0,0,0,739.2,223.305Z" transform="translate(-673.584 -130.891)" fill="#b1f7fd"/>
            <path id="Trazado_156503" data-name="Trazado 156503" d="M732.374,220.7c-.294,1-.556,2.017-.794,3.036" transform="translate(-673.254 -137.407)" fill="none" stroke="#472a1c" stroke-linecap="round" stroke-linejoin="round" stroke-width="0.427"/>
            <path id="Trazado_156504" data-name="Trazado 156504" d="M744.916,201.384c-6.5,1.386-8.88,6.3-10.724,9.945" transform="translate(-674.135 -130.896)" fill="none" stroke="#472a1c" stroke-linecap="round" stroke-linejoin="round" stroke-width="0.427"/>
            <path id="Trazado_156505" data-name="Trazado 156505" d="M728.337,227.747c2.7,1.178,4.792,3.387,6.8,5.539" transform="translate(-672.161 -139.784)" fill="none" stroke="#472a1c" stroke-linecap="round" stroke-linejoin="round" stroke-width="0.427"/>
            <path id="Trazado_156506" data-name="Trazado 156506" d="M681.425,215.95a86.691,86.691,0,0,0-16.355-12.685,38.936,38.936,0,0,1,3.257-7.45l-12.415-3.694q-1.618,1.226-3.154,2.555a16.385,16.385,0,0,0-4.967,6.284c-1.8,4.79.7,10.352,4.639,13.613s9.041,4.71,14,5.96q10.549,2.658,21.26,4.612C686.669,221.535,684.094,218.587,681.425,215.95Z" transform="translate(-644.804 -127.773)" fill="#ff8772"/>
            <path id="Trazado_156507" data-name="Trazado 156507" d="M671.467,192.907c.473-.923.952-1.838,1.4-2.748,1.9-3.9,3.309-7.383,6.658-10.143-3.381-1.009-7,.32-10.152,1.9a61.7,61.7,0,0,0-10.887,6.971C662.749,190.43,667.085,191.752,671.467,192.907Z" transform="translate(-648.609 -123.573)" fill="#b1f7fd"/>
            <path id="Trazado_156508" data-name="Trazado 156508" d="M682.239,214.208c1.888,1.322,4.257,2.849,5.4,4.928" transform="translate(-656.619 -135.22)" fill="none" stroke="#472a1c" stroke-linecap="round" stroke-linejoin="round" stroke-width="0.427"/>
            <path id="Trazado_156509" data-name="Trazado 156509" d="M666.98,204.943c2.543,1.678,5.186,3.018,7.749,4.557" transform="translate(-651.474 -132.096)" fill="none" stroke="#472a1c" stroke-linecap="round" stroke-linejoin="round" stroke-width="0.427"/>
            <path id="Trazado_156510" data-name="Trazado 156510" d="M692.765,224.854l2.323,9.541,7.966,1.787Z" transform="translate(-660.168 -138.809)" fill="#300"/>
          </g>
        </g>
        <path id="Trazado_156511" data-name="Trazado 156511" d="M728.815,184.037l-13.8-4.108a1.2,1.2,0,0,1-.8-1.483h0a1.2,1.2,0,0,1,1.483-.8l13.8,4.107a1.2,1.2,0,0,1,.8,1.483h0A1.2,1.2,0,0,1,728.815,184.037Z" transform="translate(-667.38 -122.875)" fill="#b1f7fd"/>
      </g>
      <path id="Trazado_156536" data-name="Trazado 156536" d="M13.127,0A13.127,13.127,0,1,1,0,13.127,13.127,13.127,0,0,1,13.127,0Z" transform="translate(726.842 182.636) rotate(-67.114)" fill="#26ccda"/>
      <circle id="Elipse_4902" data-name="Elipse 4902" cx="7.166" cy="7.166" r="7.166" transform="matrix(0.323, -0.946, 0.946, 0.323, 583.029, 246.099)" fill="#6666c6"/>
      <path id="Trazado_156512" data-name="Trazado 156512" d="M599.209,323.627a7.165,7.165,0,1,0,10.2,9.357A30.879,30.879,0,0,1,599.209,323.627Z" transform="translate(-10.724 -88.037)" fill="#2d1a14"/>
      <path id="Trazado_156513" data-name="Trazado 156513" d="M798.921,225.8c-7.387,2.218-13.339,7.34-17.785,13.642a13.124,13.124,0,0,0,21.477-14.462A25.97,25.97,0,0,0,798.921,225.8Z" transform="translate(-46.63 -54.78)" fill="#300"/>
      <path id="Trazado_156514" data-name="Trazado 156514" d="M719.857,162.771c-.3.455-.4,1.173.064,1.467a1.11,1.11,0,0,0,1.165-.165,3.162,3.162,0,0,1,1.076-.608,4.509,4.509,0,0,1,1.092.075.851.851,0,0,0,.907-.463.719.719,0,0,0-.095-.559C723.227,161.082,720.642,161.591,719.857,162.771Z" transform="translate(-39.171 -33.424)" fill="#300"/>
      <path id="Trazado_156515" data-name="Trazado 156515" d="M723.827,217.683a2.682,2.682,0,0,1,.393-.889,2.618,2.618,0,0,1,.974-.678,57.127,57.127,0,0,1,5.783-2.423l-.881,2.37,6.329-2.25a3.834,3.834,0,0,1,1.674-.324,1.312,1.312,0,0,1,1.208,1.037c.084.795-.774,1.326-1.5,1.651l-5.25,2.337,6.191-.115c.739-.014,1.644.071,1.95.744a1.315,1.315,0,0,1-.581,1.543,3.835,3.835,0,0,1-1.711.478l-4.122.48,3.516,1.2a4.182,4.182,0,0,1,1.676.876,1.434,1.434,0,0,1,.308,1.733,1.8,1.8,0,0,1-1.821.514c-2.079-.345-3.891-1.871-6-1.878l2.529,3.531c-.9-1.715-2.772-2.663-4.56-3.413-1.932-.81-4.332-1.191-6.147-2.177C722.08,221.1,723.317,219.372,723.827,217.683Z" transform="translate(-38.522 -50.9)" fill="#ff8772"/>
      <path id="Trazado_156516" data-name="Trazado 156516" d="M733.978,212.1q1.231-4.83,2.9-9.532" transform="translate(-42.621 -47.223)" fill="none" stroke="#472a1c" stroke-linecap="round" stroke-linejoin="round" stroke-width="0.427"/>
      <path id="Trazado_156517" data-name="Trazado 156517" d="M731.1,202.4q.987,4.248,2.293,8.412" transform="translate(-42.023 -47.165)" fill="none" stroke="#472a1c" stroke-linecap="round" stroke-linejoin="round" stroke-width="0.427"/>
      <path id="Trazado_156518" data-name="Trazado 156518" d="M686.507,190q-4.454,3.231-9.068,6.234a51.847,51.847,0,0,1,.43-8.263" transform="translate(-29.217 -42.302)" fill="none" stroke="#472a1c" stroke-linecap="round" stroke-linejoin="round" stroke-width="0.427"/>
      <path id="Trazado_156519" data-name="Trazado 156519" d="M681.155,185.1l-3.666,10.614" transform="translate(-29.641 -41.332)" fill="none" stroke="#472a1c" stroke-linecap="round" stroke-linejoin="round" stroke-width="0.427"/>
      <path id="Trazado_156520" data-name="Trazado 156520" d="M728.505,227.783a25.969,25.969,0,0,1-5.779-2.68,61.287,61.287,0,0,0,5.688,7.131,8.6,8.6,0,0,0,4.262,2.936,2.909,2.909,0,0,0,1.994-.214,1.7,1.7,0,0,0,.9-1.7c-1.046.144-1.923-.738-2.609-1.541" transform="translate(-39.032 -54.82)" fill="#472a1c" stroke="#472a1c" stroke-linecap="round" stroke-linejoin="round" stroke-width="0.427"/>
      <rect id="Rectángulo_38032" data-name="Rectángulo 38032" width="2.894" height="12.68" rx="1.447" transform="translate(687.655 170.921) rotate(-45)" fill="#ff8772"/>
      <path id="Trazado_156521" data-name="Trazado 156521" d="M679.672,204.41c.254-.636.508-1.273.7-1.93a4.719,4.719,0,0,0,.231-2.064,4.335,4.335,0,0,0-2.426-2.946,35.941,35.941,0,0,0-3.7-1.405,2.872,2.872,0,0,0-1.421-.323c-.487.068-.95.559-.785,1.021-.678-.254-1.517-.351-2.2-.606a5.937,5.937,0,0,0-1.717-.454,2.01,2.01,0,0,0-1.623.578,1.232,1.232,0,0,0-.044,1.62c.23.234.573.351.754.626a1.767,1.767,0,0,0-1.22,2.042c3.883,2.657,7.631,5.465,12.031,7.131A15.132,15.132,0,0,0,679.672,204.41Z" transform="translate(-26.305 -44.906)" fill="#ff8772"/>
      <path id="Trazado_156522" data-name="Trazado 156522" d="M667.991,202.681a2.968,2.968,0,0,1,1.249-2.366,1.524,1.524,0,0,1-.856-2.063,1.16,1.16,0,0,1-1.049-1.767" transform="translate(-27.388 -45.171)" fill="none" stroke="#472a1c" stroke-linecap="round" stroke-linejoin="round" stroke-width="0.427"/>
      <line id="Línea_895" data-name="Línea 895" x2="4.067" y2="1.968" transform="translate(646.249 151.858)" fill="none" stroke="#472a1c" stroke-linecap="round" stroke-linejoin="round" stroke-width="0.427"/>
      <path id="Trazado_156523" data-name="Trazado 156523" d="M697.636,206.757c.276-.092,8.844-7.554,17.41-8.567" transform="translate(-33.008 -45.746)" fill="none" stroke="#472a1c" stroke-linecap="round" stroke-linejoin="round" stroke-width="0.427"/>
      <path id="Trazado_156524" data-name="Trazado 156524" d="M700.99,253.277c-.276-.092-12.712-14.647-12.8-14.923l21.145,13.983" transform="translate(-30.583 -59.287)" fill="none" stroke="#472a1c" stroke-linecap="round" stroke-linejoin="round" stroke-width="0.427"/>
      <ellipse id="Elipse_4903" data-name="Elipse 4903" cx="18.271" cy="7.601" rx="18.271" ry="7.601" transform="matrix(0.993, -0.121, 0.121, 0.993, 613.44, 114.805)" fill="#f9a813"/>
      <path id="Trazado_156525" data-name="Trazado 156525" d="M655.889,153.109h0a7.546,7.546,0,0,1-7.861-7.171h0a7.547,7.547,0,0,1,7.171-7.862h0a7.547,7.547,0,0,1,7.862,7.171h0A7.547,7.547,0,0,1,655.889,153.109Z" transform="translate(-22.235 -25.476)" fill="#300"/>
      <g id="Grupo_141798" data-name="Grupo 141798" transform="translate(721.939 206.46)">
        <ellipse id="Elipse_4904" data-name="Elipse 4904" cx="7.601" cy="18.271" rx="7.601" ry="18.271" transform="matrix(0.294, -0.956, 0.956, 0.294, 0, 14.529)" fill="#f9a813"/>
        <path id="Trazado_156526" data-name="Trazado 156526" d="M785.438,302.032h0a7.652,7.652,0,0,1-4.314-9.89h0a7.652,7.652,0,0,1,9.89-4.314h0a7.652,7.652,0,0,1,4.314,9.89h0A7.652,7.652,0,0,1,785.438,302.032Z" transform="translate(-768.388 -282.251)" fill="#300"/>
      </g>
      <path id="Trazado_156527" data-name="Trazado 156527" d="M742.668,157.161q1.076-.537,2.158-1.062" transform="translate(-44.689 -31.555)" fill="none" stroke="#472a1c" stroke-linecap="round" stroke-linejoin="round" stroke-width="0.427"/>
      <path id="Trazado_156528" data-name="Trazado 156528" d="M742.567,161.557q1.17.276,2.337.567" transform="translate(-44.647 -33.395)" fill="none" stroke="#472a1c" stroke-linecap="round" stroke-linejoin="round" stroke-width="0.427"/>
      <path id="Trazado_156529" data-name="Trazado 156529" d="M741.873,164.667q.782.914,1.554,1.836" transform="translate(-44.571 -34.444)" fill="none" stroke="#472a1c" stroke-linecap="round" stroke-linejoin="round" stroke-width="0.427"/>
      <path id="Trazado_156530" data-name="Trazado 156530" d="M707.7,148.969q-.818-.881-1.646-1.754" transform="translate(-36.341 -28.56)" fill="none" stroke="#472a1c" stroke-linecap="round" stroke-linejoin="round" stroke-width="0.427"/>
      <path id="Trazado_156531" data-name="Trazado 156531" d="M706.059,153.356q-1.192-.153-2.387-.293" transform="translate(-35.731 -30.531)" fill="none" stroke="#472a1c" stroke-linecap="round" stroke-linejoin="round" stroke-width="0.427"/>
      <path id="Trazado_156532" data-name="Trazado 156532" d="M705.758,156.661q-1.054.579-2.1,1.17" transform="translate(-35.751 -31.744)" fill="none" stroke="#472a1c" stroke-linecap="round" stroke-linejoin="round" stroke-width="0.427"/>
      <g id="Grupo_141799" data-name="Grupo 141799" transform="translate(583.029 232.538)">
        <circle id="Elipse_4905" data-name="Elipse 4905" cx="7.166" cy="7.166" r="7.166" transform="matrix(0.323, -0.946, 0.946, 0.323, 0, 13.561)" fill="#b1f7fd"/>
      </g>
      <g id="Grupo_141800" data-name="Grupo 141800" transform="translate(629.801 116.712)">
        <path id="Trazado_156533" data-name="Trazado 156533" d="M655.764,147.669l-1.446-1.688,2.16.525-.023-2.223,1.317,1.79,1.411-1.718-.141,2.218,2.185-.409-1.534,1.608,1.936,1.091-2.209.246.782,2.081-1.85-1.232-.739,2.1-.626-2.133-1.913,1.131.892-2.036-2.193-.363Z" transform="translate(-653.773 -144.283)" fill="#6666c6"/>
      </g>
      <g id="Grupo_141801" data-name="Grupo 141801" transform="translate(732.046 215.343)">
        <path id="Trazado_156534" data-name="Trazado 156534" d="M787.864,296.468l-1.446-1.688,2.16.524-.023-2.223,1.317,1.79,1.411-1.717-.141,2.218,2.185-.409-1.534,1.608,1.937,1.091-2.209.246.782,2.081-1.85-1.232-.739,2.1-.626-2.133-1.913,1.131.892-2.036-2.193-.363Z" transform="translate(-785.872 -293.082)" fill="#6666c6"/>
      </g>
    </g>
  </g>
</svg>
