<svg xmlns="http://www.w3.org/2000/svg" width="105" height="105" viewBox="0 0 105 105">
  <g id="Grupo_141812" data-name="Grupo 141812" transform="translate(-590 -868)">
    <g id="Elipse_4885" data-name="Elipse 4885" transform="translate(590 868)" fill="#fff" stroke="#f57c00" stroke-width="3">
      <circle cx="52.5" cy="52.5" r="52.5" stroke="none"/>
      <circle cx="52.5" cy="52.5" r="51" fill="none"/>
    </g>
    <g id="Grupo_141805" data-name="Grupo 141805" transform="translate(-23.5 160.404)">
      <path id="Trazado_156538" data-name="Trazado 156538" d="M16.546-.023A9.368,9.368,0,0,1,15.8-1.79a13.548,13.548,0,0,1-.47-2.065A9.488,9.488,0,0,1,12.84-.7,6.011,6.011,0,0,1,8.973.482,8.6,8.6,0,0,1,2.9-1.526,7.094,7.094,0,0,1,.734-7a6.62,6.62,0,0,1,2.777-5.7q2.777-2.008,8.422-2.008h3.19v-1.767a3.537,3.537,0,0,0-.757-2.433,2.95,2.95,0,0,0-2.318-.849,2.8,2.8,0,0,0-2.008.631,2.617,2.617,0,0,0-.654,1.962l-7.527-.023-.046-.138a6.477,6.477,0,0,1,2.834-5.68,12.7,12.7,0,0,1,7.906-2.283A11.565,11.565,0,0,1,20.023-23a7.93,7.93,0,0,1,2.857,6.563v9.363A19.1,19.1,0,0,0,23.213-3.4a19.664,19.664,0,0,0,1,3.4ZM11.084-5.049A4.725,4.725,0,0,0,13.6-5.714,3.81,3.81,0,0,0,15.124-7.3V-10.58H12a3.507,3.507,0,0,0-2.685.9,3.219,3.219,0,0,0-.826,2.272A2.2,2.2,0,0,0,9.214-5.7,2.681,2.681,0,0,0,11.084-5.049Z" transform="translate(653.266 750)" fill="#f57c00"/>
      <path id="Trazado_156537" data-name="Trazado 156537" d="M16.546-.023A9.368,9.368,0,0,1,15.8-1.79a13.548,13.548,0,0,1-.47-2.065A9.488,9.488,0,0,1,12.84-.7,6.011,6.011,0,0,1,8.973.482,8.6,8.6,0,0,1,2.9-1.526,7.094,7.094,0,0,1,.734-7a6.62,6.62,0,0,1,2.777-5.7q2.777-2.008,8.422-2.008h3.19v-1.767a3.537,3.537,0,0,0-.757-2.433,2.95,2.95,0,0,0-2.318-.849,2.8,2.8,0,0,0-2.008.631,2.617,2.617,0,0,0-.654,1.962l-7.527-.023-.046-.138a6.477,6.477,0,0,1,2.834-5.68,12.7,12.7,0,0,1,7.906-2.283A11.565,11.565,0,0,1,20.023-23a7.93,7.93,0,0,1,2.857,6.563v9.363A19.1,19.1,0,0,0,23.213-3.4a19.664,19.664,0,0,0,1,3.4ZM11.084-5.049A4.725,4.725,0,0,0,13.6-5.714,3.81,3.81,0,0,0,15.124-7.3V-10.58H12a3.507,3.507,0,0,0-2.685.9,3.219,3.219,0,0,0-.826,2.272A2.2,2.2,0,0,0,9.214-5.7,2.681,2.681,0,0,0,11.084-5.049Z" transform="translate(653.266 795)" fill="#f57c00"/>
      <line id="Línea_896" data-name="Línea 896" x2="63" transform="translate(634.5 750.5)" fill="none" stroke="#f57c00" stroke-width="1"/>
      <line id="Línea_897" data-name="Línea 897" x2="67" transform="translate(632.5 769.5)" fill="none" stroke="#f57c00" stroke-width="1"/>
    </g>
  </g>
</svg>
