<svg xmlns="http://www.w3.org/2000/svg" xmlns:xlink="http://www.w3.org/1999/xlink" width="400" height="288.33" viewBox="0 0 400 288.33">
  <defs>
    <clipPath id="clip-path">
      <path id="Trazado_156425" data-name="Trazado 156425" d="M605.933,418.352a79.032,79.032,0,0,1-40.808-1.343c.109-14.973-1.055-34.26-1.055-34.26h42.9S605.741,403.215,605.933,418.352Z" transform="translate(-564.07 -382.749)" fill="none"/>
    </clipPath>
    <clipPath id="clip-path-2">
      <path id="Trazado_156439" data-name="Trazado 156439" d="M588.248,362.757c-.376,2.066-2.716,3.8-5.5,3.8s-5.122-1.73-5.5-3.8c-.494-2.637,3.518-29.295,5.5-29.295C584.779,333.462,588.743,360.119,588.248,362.757Z" transform="translate(-577.212 -333.462)" fill="none"/>
    </clipPath>
  </defs>
  <g id="Grupo_141994" data-name="Grupo 141994" transform="translate(-285 -10512)">
    <rect id="Rectángulo_37143" data-name="Rectángulo 37143" width="400" height="288" rx="8" transform="translate(285 10512)" fill="#e2f4f6"/>
    <g id="Grupo_141780" data-name="Grupo 141780">
      <path id="Trazado_156450" data-name="Trazado 156450" d="M-984.013-920.8c9.592,12.473,332.935,37.094,342.682-39.508s109.461-93.37-19.234-127.982,27.852,51.224-19.727,75.487-118.138,61.737-140.76,0-107.639-212.236-135.187-109.469,15.615,93.609,22.592,127.747-19.007,29.21-33.633,42.848S-993.6-933.278-984.013-920.8Z" transform="translate(1276.412 11699)" fill="#fff4c6"/>
      <path id="Trazado_156451" data-name="Trazado 156451" d="M-962.223-972.468c-12.11-16.4-21.827-28.54,0-59.12s36.263-7.071,56.665-39.517,4.909-64.5,58.7-72.174,70.937.418,103.961,28.375,52.242,73.751,68.039,39.2,59.253-206.7,35.548-30.3,16.551,176.319-22.639,183.83S-709-901.035-746.774-912.056s-15.407-16.692-108.735-10.111S-962.025-895.8-962.223-933.283-962.223-972.468-962.223-972.468Z" transform="translate(1287 11700)" fill="#ffd99d"/>
      <g id="Grupo_141779" data-name="Grupo 141779" transform="translate(-117.92 10277.474)">
        <g id="Grupo_141731" data-name="Grupo 141731" transform="translate(499.438 300.077)">
          <g id="Grupo_141728" data-name="Grupo 141728" transform="translate(6.532)">
            <path id="Trazado_156421" data-name="Trazado 156421" d="M665.784,477.333c.013.734.038,1.456.063,2.178v.025a88.646,88.646,0,0,0,7.23,31.706H661.048a146.935,146.935,0,0,1-5.66-22.551,149.637,149.637,0,0,1,.469-52.94c0-.025-.025-.038-.038-.013a135.135,135.135,0,0,0-3.191,51.332,152.1,152.1,0,0,0,5.141,24.172h-82.1a130.039,130.039,0,0,0,.342-18.512c-.76-15.6-3.8-30.693-8.028-45.7a.012.012,0,0,0-.013.013c3.166,14.574,5.825,29.566,5.977,44.52a125.494,125.494,0,0,1-1.469,19.677h-9.205c.988-9.952.215-20.361-.912-29.857a296.338,296.338,0,0,0-7.648-38.366c-.7-4.292-1.469-8.572-2.229-12.865-.025-.114-.215-.089-.2.025.291,2.254.6,4.533.874,6.825-.038-.139-.076-.266-.114-.405a.059.059,0,1,0-.114.025c.165.912.329,1.811.506,2.722,1.912,16.233,3.014,33.048-.684,48.9-1.836,7.888-5.407,15.41-8.711,22.994H504.33s22.893-22.994,24.058-48.724c1.266-27.857-13.4-32.5-12.966-67.489s10.4-49.686,23.969-86.1c5.622-15.093,41.759-15.663,62.614-18.613s55.941-3.3,63.665,15.979c20.158,50.344,27.464,68.844,26.489,97.561-.848,24.906-13.675,35.859-13.675,58.663,0,24.058,19.158,48.724,19.158,48.724H682.156a76.744,76.744,0,0,1-16.081-31.63c-.063-.76-.152-1.507-.2-2.279C665.872,477.27,665.771,477.27,665.784,477.333Z" transform="translate(-504.33 -288.818)" fill="#33363d"/>
          </g>
          <g id="Grupo_141729" data-name="Grupo 141729" transform="translate(0 60.836)">
            <path id="Trazado_156422" data-name="Trazado 156422" d="M526,336.977c.037-.092-.121-.161-.162-.068-10.8,24.2-17.583,50.742-11.614,77.211,1.445,6.409,4.011,12.416,5.86,18.7a48.77,48.77,0,0,1,.61,24.753c-3.429,15.23-12.571,27.8-21.428,40.288-.405.571.529,1.3.979.755,8.37-10.227,16.259-21.372,20.63-33.949,4.574-13.164,3.913-25.555-.67-38.546C509.741,396.436,514.714,365.755,526,336.977Z" transform="translate(-499.171 -336.864)" fill="#33363d"/>
          </g>
          <g id="Grupo_141730" data-name="Grupo 141730" transform="translate(167.599 17.189)">
            <path id="Trazado_156423" data-name="Trazado 156423" d="M655.4,450.8c2.692-16.309,11.163-30.622,10.187-47.57-.958-16.659-7.544-32.523-13.209-48.012-6.47-17.693-13.4-35.392-20.682-52.769-.038-.09-.184-.058-.153.043,5.379,18.005,12.562,35.563,18.771,53.295,6.089,17.391,13.9,35.55,12.92,54.349-.9,17.219-10.36,32.472-10.6,49.97a88.864,88.864,0,0,0,10.436,43.478c.224.417.843.049.632-.37A84.652,84.652,0,0,1,655.4,450.8Z" transform="translate(-631.535 -302.393)" fill="#33363d"/>
          </g>
        </g>
        <g id="Grupo_141740" data-name="Grupo 141740" transform="translate(498.17 419.012)">
          <g id="Grupo_141732" data-name="Grupo 141732" transform="translate(2.278)">
            <path id="Trazado_156424" data-name="Trazado 156424" d="M705.2,486.242H499.969s7.192-25.452,29.343-39.137c18.63-11.507,42.781-11.211,50.836-16.28,1.465-.918,1.987-4.953,2.041-13.817.109-14.973-1.055-34.26-1.055-34.26h42.9s-1.233,20.466-1.041,35.6c.1,8.259.631,11.6,2.027,12.473,8.056,5.069,32.206,4.772,50.836,16.28C698.011,460.79,705.2,486.242,705.2,486.242Z" transform="translate(-499.969 -382.749)" fill="#c6866d"/>
          </g>
          <g id="Grupo_141735" data-name="Grupo 141735" transform="translate(83.443)" opacity="0.5" style="mix-blend-mode: multiply;isolation: isolate">
            <g id="Grupo_141734" data-name="Grupo 141734">
              <g id="Grupo_141733" data-name="Grupo 141733" clip-path="url(#clip-path)">
                <rect id="Rectángulo_38026" data-name="Rectángulo 38026" width="42.904" height="6.821" transform="translate(0 32.494)" fill="#a87054"/>
                <rect id="Rectángulo_38027" data-name="Rectángulo 38027" width="42.904" height="20.668" transform="translate(0 11.826)" fill="#a87054"/>
                <rect id="Rectángulo_38028" data-name="Rectángulo 38028" width="42.904" height="11.826" transform="translate(0 0)" fill="#a87054"/>
              </g>
            </g>
          </g>
          <g id="Grupo_141739" data-name="Grupo 141739" transform="translate(0 49.383)">
            <g id="Grupo_141736" data-name="Grupo 141736">
              <path id="Trazado_156426" data-name="Trazado 156426" d="M708.17,475.855h-210s2.735-17.917,24.691-35.745,52.889-18.36,52.889-18.36l27.413,18.36,27.426-18.36s30.933.532,52.889,18.36S708.17,475.855,708.17,475.855Z" transform="translate(-498.17 -421.75)" fill="#eabf73"/>
            </g>
            <g id="Grupo_141737" data-name="Grupo 141737" transform="translate(64.624)">
              <path id="Trazado_156427" data-name="Trazado 156427" d="M562.164,421.75l-12.956,38.936,40.37-20.576Z" transform="translate(-549.208 -421.75)" fill="#fff"/>
            </g>
            <g id="Grupo_141738" data-name="Grupo 141738" transform="translate(104.994)">
              <path id="Trazado_156428" data-name="Trazado 156428" d="M608.5,421.75l12.956,38.936L581.09,440.11Z" transform="translate(-581.09 -421.75)" fill="#fff"/>
            </g>
          </g>
        </g>
        <g id="Grupo_141778" data-name="Grupo 141778" transform="translate(522.24 246.526)">
          <g id="Grupo_141741" data-name="Grupo 141741" transform="translate(20.714 39.166)">
            <path id="Trazado_156429" data-name="Trazado 156429" d="M652,369.715c-.95,10.138-1.283,21.31-5.705,31.748-5.671,13.383-20.538,31.6-51.913,31.6-31.892,0-47.662-18.216-51.914-31.6-3.426-10.784-4.756-21.609-5.705-31.748-.786-8.44-8.2-37.186,2.563-62.125,8.039-18.62,32.01-30.378,55.057-30.128,23.047-.249,47.017,11.509,55.056,30.128C660.2,332.529,652.783,361.275,652,369.715Z" transform="translate(-533.539 -277.458)" fill="#c6866d"/>
          </g>
          <g id="Grupo_141763" data-name="Grupo 141763" transform="translate(26.413 94.819)">
            <g id="Grupo_141746" data-name="Grupo 141746" transform="translate(41.275 54.035)">
              <g id="Grupo_141743" data-name="Grupo 141743">
                <g id="Grupo_141742" data-name="Grupo 141742">
                  <path id="Trazado_156430" data-name="Trazado 156430" d="M598.311,369.939a3.879,3.879,0,0,1-.1.633,9.049,9.049,0,0,1-2.33,4.392c-2.19,2.369-5.888,4.2-11.37,4.2s-9.193-1.835-11.37-4.2a9.265,9.265,0,0,1-2.178-3.734,2.893,2.893,0,0,1-.114-.443c-.544-2.255-.013-4.395,1.393-5.508a3.931,3.931,0,0,1,.709-.494c3.1-1.823,6.42.494,11.56.494s8.446-2.317,11.548-.494a4,4,0,0,1,.722.494A5.026,5.026,0,0,1,598.311,369.939Z" transform="translate(-570.637 -364.086)" fill="#fff"/>
                </g>
              </g>
              <g id="Grupo_141744" data-name="Grupo 141744" transform="translate(0.21 6.701)" opacity="0.4">
                <path id="Trazado_156431" data-name="Trazado 156431" d="M580.73,370.2a84.981,84.981,0,0,1-9.813-.38,2.9,2.9,0,0,1-.114-.443c3.381.405,6.711.646,9.889.709C580.831,370.1,580.869,370.2,580.73,370.2Z" transform="translate(-570.803 -369.378)" fill="#33363d"/>
              </g>
              <g id="Grupo_141745" data-name="Grupo 141745" transform="translate(17.484 5.853)" opacity="0.4">
                <path id="Trazado_156432" data-name="Trazado 156432" d="M594.635,368.708a3.866,3.866,0,0,1-.1.633,47.1,47.1,0,0,1-10.041,1.152c-.063,0-.063-.114,0-.128A60.432,60.432,0,0,0,594.635,368.708Z" transform="translate(-584.445 -368.708)" fill="#33363d"/>
              </g>
            </g>
            <g id="Grupo_141747" data-name="Grupo 141747" transform="translate(0 35.197)" opacity="0.4">
              <circle id="Elipse_4895" data-name="Elipse 4895" cx="11.17" cy="11.17" r="11.17" transform="translate(0 7.101) rotate(-18.535)" fill="#9e5e4a"/>
            </g>
            <g id="Grupo_141748" data-name="Grupo 141748" transform="translate(80.826 34.757)" opacity="0.4">
              <circle id="Elipse_4896" data-name="Elipse 4896" cx="11.17" cy="11.17" r="11.17" transform="translate(0 8.503) rotate(-22.373)" fill="#9e5e4a"/>
            </g>
            <g id="Grupo_141752" data-name="Grupo 141752" transform="translate(76.182 26.62)">
              <g id="Grupo_141751" data-name="Grupo 141751">
                <g id="Grupo_141749" data-name="Grupo 141749">
                  <path id="Trazado_156433" data-name="Trazado 156433" d="M607.869,349.325c0,3.8-2.163,6.889-4.832,6.889s-4.832-3.086-4.832-6.889,2.163-6.891,4.832-6.891S607.869,345.518,607.869,349.325Z" transform="translate(-598.205 -342.434)" fill="#33363d"/>
                </g>
                <g id="Grupo_141750" data-name="Grupo 141750" transform="translate(4.487 0.053)">
                  <path id="Trazado_156434" data-name="Trazado 156434" d="M613.293,343.776a6.422,6.422,0,0,1-2.646,1.757,3.4,3.4,0,0,1-2.639-.376c-.852-.472-1.688-1.273-2.739-1.885a4.445,4.445,0,0,0-3.52-.66,6.79,6.79,0,0,1,2.777,1.673,16.455,16.455,0,0,0,2.678,2.277,4.1,4.1,0,0,0,3.934.144A4.294,4.294,0,0,0,613.293,343.776Z" transform="translate(-601.749 -342.476)" fill="#33363d"/>
                </g>
              </g>
            </g>
            <g id="Grupo_141756" data-name="Grupo 141756" transform="translate(18.066 26.62)">
              <g id="Grupo_141755" data-name="Grupo 141755">
                <g id="Grupo_141753" data-name="Grupo 141753" transform="translate(6.368)">
                  <path id="Trazado_156435" data-name="Trazado 156435" d="M557.336,349.325c0,3.8,2.163,6.889,4.832,6.889S567,353.128,567,349.325s-2.163-6.891-4.832-6.891S557.336,345.518,557.336,349.325Z" transform="translate(-557.336 -342.434)" fill="#33363d"/>
                </g>
                <g id="Grupo_141754" data-name="Grupo 141754" transform="translate(0 0.053)">
                  <path id="Trazado_156436" data-name="Trazado 156436" d="M552.307,343.776a6.422,6.422,0,0,0,2.646,1.757,3.4,3.4,0,0,0,2.639-.376c.852-.472,1.688-1.273,2.739-1.885a4.447,4.447,0,0,1,3.521-.66,6.773,6.773,0,0,0-2.777,1.673,16.527,16.527,0,0,1-2.679,2.277,4.1,4.1,0,0,1-3.934.144A4.294,4.294,0,0,1,552.307,343.776Z" transform="translate(-552.307 -342.476)" fill="#33363d"/>
                </g>
              </g>
            </g>
            <g id="Grupo_141757" data-name="Grupo 141757" transform="translate(13.263)">
              <path id="Trazado_156437" data-name="Trazado 156437" d="M572.959,327.09c-.777,3.53-6.9,2.028-13.08,2.732-7.191.821-11.307,4.372-11.365.572-.046-3.016,4.714-7.714,11.619-8.77C566.965,320.582,573.752,323.494,572.959,327.09Z" transform="translate(-548.514 -321.411)" fill="#33363d"/>
            </g>
            <g id="Grupo_141758" data-name="Grupo 141758" transform="translate(72.508)">
              <path id="Trazado_156438" data-name="Trazado 156438" d="M595.366,327.09c.777,3.53,6.9,2.028,13.08,2.732,7.192.821,11.307,4.372,11.365.572.046-3.016-4.713-7.714-11.617-8.77C601.362,320.582,594.574,323.494,595.366,327.09Z" transform="translate(-595.303 -321.411)" fill="#33363d"/>
            </g>
            <g id="Grupo_141761" data-name="Grupo 141761" transform="translate(49.601 15.26)" opacity="0.5" style="mix-blend-mode: multiply;isolation: isolate">
              <g id="Grupo_141760" data-name="Grupo 141760">
                <g id="Grupo_141759" data-name="Grupo 141759" clip-path="url(#clip-path-2)">
                  <rect id="Rectángulo_38029" data-name="Rectángulo 38029" width="11.983" height="20.795" transform="translate(-0.452 0)" fill="#a87054"/>
                  <rect id="Rectángulo_38030" data-name="Rectángulo 38030" width="11.983" height="8.343" transform="translate(-0.452 20.795)" fill="#a87054"/>
                  <rect id="Rectángulo_38031" data-name="Rectángulo 38031" width="11.983" height="3.952" transform="translate(-0.452 29.138)" fill="#a87054"/>
                </g>
              </g>
            </g>
            <g id="Grupo_141762" data-name="Grupo 141762" transform="translate(51.591 83.984)">
              <path id="Trazado_156440" data-name="Trazado 156440" d="M584.027,388.086a3.738,3.738,0,0,0-5.067,2.273c-.748,2.3.988,4.547,3.362,5.124.633.153.722-.239.147-.582-1.05-.628-2.049-1.243-2.335-2.53a2.652,2.652,0,0,1,1.512-3.1,2.1,2.1,0,0,1,2.858,1.359,1.066,1.066,0,0,1-1.2,1.46c-.514-.038-1.227-.856-1.365-1.364a.123.123,0,0,0-.236,0,2.157,2.157,0,0,0,3.223,2.331C586.734,391.775,585.719,388.929,584.027,388.086Z" transform="translate(-578.784 -387.738)" fill="#9e5e4a"/>
            </g>
          </g>
          <g id="Grupo_141767" data-name="Grupo 141767" transform="translate(13.731 34.269)">
            <g id="Grupo_141764" data-name="Grupo 141764">
              <path id="Trazado_156441" data-name="Trazado 156441" d="M537.7,366.846c7.176,0,8.975-31.484,8.975-31.484s10.13-3.8,21.209-14.561c0,0-7.914,13.612-6.014,14.561s40.151-1.583,55.023-22c0,0-8.015,17.41-5.641,18.993s19.784-.633,31.18-12.662c0,0,3.985,47.153,11.568,47.153s11.555-40.966,5.367-56.492c-8.705-21.842-31.339-29.281-31.339-29.281s-28.806-12.979-54.763-4.748a63.439,63.439,0,0,0-42.893,44.288C523.966,344.328,532.109,366.846,537.7,366.846Z" transform="translate(-528.023 -273.591)" fill="#33363d"/>
            </g>
            <g id="Grupo_141765" data-name="Grupo 141765" transform="translate(39.383 34.378)">
              <path id="Trazado_156442" data-name="Trazado 156442" d="M611.478,300.984c-12.681,17.8-30.046,28.458-52.18,29.58a.178.178,0,0,0,0,.356c21.128.243,42.551-10.732,53.1-29.4A.535.535,0,0,0,611.478,300.984Z" transform="translate(-559.127 -300.742)" fill="#33363d"/>
            </g>
            <g id="Grupo_141766" data-name="Grupo 141766" transform="translate(112.979 37.752)">
              <path id="Trazado_156443" data-name="Trazado 156443" d="M620.18,304.011c.132-.607-.78-.866-.935-.258-4.116,16.169-1.693,35.554,5.688,50.4.037.072.147.009.11-.065C617.717,339.652,616.794,319.658,620.18,304.011Z" transform="translate(-617.25 -303.406)" fill="#33363d"/>
            </g>
          </g>
          <g id="Grupo_141774" data-name="Grupo 141774" transform="translate(0 121.365)">
            <g id="Grupo_141770" data-name="Grupo 141770">
              <g id="Grupo_141768" data-name="Grupo 141768">
                <path id="Trazado_156444" data-name="Trazado 156444" d="M542.887,349.379s-8.842-9.255-19.32-6.487-7.371,20.345,4.271,26.689c10.978,5.982,17.937,1.247,17.937,1.247Z" transform="translate(-517.179 -342.376)" fill="#c6866d"/>
              </g>
              <g id="Grupo_141769" data-name="Grupo 141769" transform="translate(5.22 7.991)">
                <path id="Trazado_156445" data-name="Trazado 156445" d="M521.343,349.434a.067.067,0,0,0,.034.128c9.17-.994,13.886,7.674,14.7,9.043a11.9,11.9,0,0,0-1.559-.579,9.421,9.421,0,0,0-8.047,1.416c-.1.067,0,.243.11.187a9.325,9.325,0,0,1,7.278-.024,13.165,13.165,0,0,1,5.619,3.572C539.575,363.285,535.905,344.795,521.343,349.434Z" transform="translate(-521.302 -348.687)" fill="#9e5e4a"/>
              </g>
            </g>
            <g id="Grupo_141773" data-name="Grupo 141773" transform="translate(134.511)">
              <g id="Grupo_141771" data-name="Grupo 141771">
                <path id="Trazado_156446" data-name="Trazado 156446" d="M626.3,349.379s8.842-9.255,19.321-6.487,7.369,20.345-4.272,26.689c-10.978,5.982-17.936,1.247-17.936,1.247Z" transform="translate(-623.411 -342.376)" fill="#c6866d"/>
              </g>
              <g id="Grupo_141772" data-name="Grupo 141772" transform="translate(5.191 7.991)">
                <path id="Trazado_156447" data-name="Trazado 156447" d="M645.655,349.434a.067.067,0,0,1-.036.128c-9.17-.994-13.886,7.674-14.7,9.043a11.82,11.82,0,0,1,1.557-.579,9.421,9.421,0,0,1,8.047,1.416c.1.067,0,.243-.11.187a9.322,9.322,0,0,0-7.277-.024,13.161,13.161,0,0,0-5.621,3.572C627.421,363.285,631.091,344.795,645.655,349.434Z" transform="translate(-627.511 -348.687)" fill="#9e5e4a"/>
              </g>
            </g>
          </g>
          <g id="Grupo_141777" data-name="Grupo 141777" transform="translate(93.842)">
            <g id="Grupo_141775" data-name="Grupo 141775" transform="translate(4.458 3.071)">
              <path id="Trazado_156448" data-name="Trazado 156448" d="M609.77,295.082c-5.776-1.768-24.657-33.66-8.681-42.922s26.069,4.381,28.054,5.326,12.175,3.521,16.063,12.639C651.238,284.27,624.425,299.567,609.77,295.082Z" transform="translate(-594.813 -248.952)" fill="#33363d"/>
            </g>
            <g id="Grupo_141776" data-name="Grupo 141776">
              <path id="Trazado_156449" data-name="Trazado 156449" d="M623.936,256.543c-6.391-12.509-25.537-14.184-31.2.024-5.479,13.759,5.554,31.589,16.824,38.918.223.146.493-.195.287-.374-8.629-7.536-16.206-17.4-16.575-29.39-.556-18.118,20.438-22.211,30.2-8.909A.267.267,0,0,0,623.936,256.543Z" transform="translate(-591.292 -246.526)" fill="#33363d"/>
            </g>
          </g>
        </g>
      </g>
    </g>
  </g>
</svg>
