<svg xmlns="http://www.w3.org/2000/svg" xmlns:xlink="http://www.w3.org/1999/xlink" width="343" height="475" viewBox="0 0 343 475">
  <defs>
    <filter id="Rectángulo_38034" x="0" y="0" width="343" height="475" filterUnits="userSpaceOnUse">
      <feOffset dy="3" input="SourceAlpha"/>
      <feGaussianBlur stdDeviation="3" result="blur"/>
      <feFlood flood-opacity="0.161"/>
      <feComposite operator="in" in2="blur"/>
      <feComposite in="SourceGraphic"/>
    </filter>
  </defs>
  <g id="Grupo_141809" data-name="Grupo 141809" transform="translate(-629 -1935)">
    <g transform="matrix(1, 0, 0, 1, 629, 1935)" filter="url(#Rectángulo_38034)">
      <rect id="Rectángulo_38034-2" data-name="Rectángulo 38034" width="325" height="457" transform="translate(9 6)" fill="#f6f6f6"/>
    </g>
    <g id="Rectángulo_38036" data-name="Rectángulo 38036" transform="translate(743 1964)" fill="#26ccda" stroke="#707070" stroke-width="1">
      <rect width="12" height="410" stroke="none"/>
      <rect x="0.5" y="0.5" width="11" height="409" fill="none"/>
    </g>
    <rect id="Rectángulo_38041" data-name="Rectángulo 38041" width="99" height="90" transform="translate(844 2072)" fill="#e2f4f6"/>
    <rect id="Rectángulo_38042" data-name="Rectángulo 38042" width="85" height="408" transform="translate(658 1965)" fill="#b1f7fd"/>
    <rect id="Rectángulo_38043" data-name="Rectángulo 38043" width="189" height="196" transform="translate(755 2178)" fill="#fff4c6"/>
    <g id="Rectángulo_38040" data-name="Rectángulo 38040" transform="translate(657 2268)" fill="none" stroke="#707070" stroke-width="1">
      <rect width="287" height="16" stroke="none"/>
      <rect x="0.5" y="0.5" width="286" height="15" fill="none"/>
    </g>
    <g id="Rectángulo_38039" data-name="Rectángulo 38039" transform="translate(657 2162)" fill="#fdd835" stroke="#707070" stroke-width="1">
      <rect width="287" height="16" stroke="none"/>
      <rect x="0.5" y="0.5" width="286" height="15" fill="none"/>
    </g>
    <g id="Rectángulo_38038" data-name="Rectángulo 38038" transform="translate(657 2056)" fill="none" stroke="#707070" stroke-width="1">
      <rect width="287" height="16" stroke="none"/>
      <rect x="0.5" y="0.5" width="286" height="15" fill="none"/>
    </g>
    <g id="Rectángulo_38037" data-name="Rectángulo 38037" transform="translate(832 1964)" fill="none" stroke="#707070" stroke-width="1">
      <rect width="12" height="410" stroke="none"/>
      <rect x="0.5" y="0.5" width="11" height="409" fill="none"/>
    </g>
    <g id="Rectángulo_38035" data-name="Rectángulo 38035" transform="translate(657 1964)" fill="none" stroke="#707070" stroke-width="1">
      <rect width="287" height="410" stroke="none"/>
      <rect x="0.5" y="0.5" width="286" height="409" fill="none"/>
    </g>
    <text id="LÍNEAS_DE_FLUJO" data-name="LÍNEAS DE FLUJO" transform="translate(793 2172)" fill="#12263f" font-size="8" font-family="Roboto-Bold, Roboto" font-weight="700"><tspan x="-32.338" y="0">LÍNEAS DE FLUJO</tspan></text>
    <text id="MÓDULO" transform="translate(894 2126)" fill="#12263f" font-size="10" font-family="Roboto-Bold, Roboto" font-weight="700"><tspan x="-20.376" y="0">MÓDULO</tspan></text>
    <text id="COLUMNA" transform="translate(697 2008)" fill="#12263f" font-size="10" font-family="Roboto-Bold, Roboto" font-weight="700"><tspan x="-23.938" y="0">COLUMNA</tspan></text>
    <text id="ZONAS_ESPECIALES" data-name="ZONAS ESPECIALES" transform="translate(835 2249)" fill="#12263f" font-size="10" font-family="Roboto-Bold, Roboto" font-weight="700"><tspan x="-46.243" y="0">ZONAS ESPECIALES</tspan></text>
    <text id="MEDIANIL" transform="translate(801 2391)" fill="#12263f" font-size="10" font-family="Roboto-Bold, Roboto" font-weight="700"><tspan x="-22.959" y="0">MEDIANIL</tspan></text>
    <text id="MÁRGENES" transform="translate(801 1958)" fill="#12263f" font-size="10" font-family="Roboto-Bold, Roboto" font-weight="700"><tspan x="-26.57" y="0">MÁRGENES</tspan></text>
  </g>
</svg>
