<svg xmlns="http://www.w3.org/2000/svg" width="80.874" height="80.874" viewBox="0 0 80.874 80.874">
  <g id="Grupo_135988" data-name="Grupo 135988" transform="translate(-651 -1275.518)">
    <path id="Trazado_113533" data-name="Trazado 113533" d="M40.437,0A40.437,40.437,0,1,1,0,40.437,40.437,40.437,0,0,1,40.437,0Z" transform="translate(651 1275.518)" fill="#ffa726"/>
    <g id="Grupo_141828" data-name="Grupo 141828" transform="translate(638.912 -1388.191)">
      <g id="Grupo_141828-2" data-name="Grupo 141828" transform="translate(33.088 2677.708)">
        <path id="Trazado_156545" data-name="Trazado 156545" d="M71.9,2729.243H33.96a.872.872,0,0,1-.872-.872V2687.68a.872.872,0,0,1,.872-.872h7.168v-8.228a.872.872,0,0,1,.872-.872H71.9a.872.872,0,0,1,.872.872v49.791A.872.872,0,0,1,71.9,2729.243ZM34.832,2727.5h36.2v-48.047H42.871v8.228a.872.872,0,0,1-.872.872H34.832Z" transform="translate(-33.088 -2677.708)" fill="#fff"/>
      </g>
      <g id="Grupo_141829" data-name="Grupo 141829" transform="translate(39.838 2696.365)">
        <path id="Trazado_156546" data-name="Trazado 156546" d="M73.518,2723.816H50.012a.872.872,0,1,1,0-1.744H73.518a.872.872,0,0,1,0,1.744Z" transform="translate(-49.14 -2722.073)" fill="#fff"/>
      </g>
      <g id="Grupo_141830" data-name="Grupo 141830" transform="translate(39.838 2701.622)">
        <path id="Trazado_156547" data-name="Trazado 156547" d="M73.518,2736.316H50.012a.872.872,0,1,1,0-1.744H73.518a.872.872,0,0,1,0,1.744Z" transform="translate(-49.14 -2734.573)" fill="#fff"/>
      </g>
      <g id="Grupo_141831" data-name="Grupo 141831" transform="translate(39.838 2706.468)">
        <path id="Trazado_156548" data-name="Trazado 156548" d="M73.518,2747.838H50.012a.872.872,0,1,1,0-1.744H73.518a.872.872,0,0,1,0,1.744Z" transform="translate(-49.14 -2746.095)" fill="#fff"/>
      </g>
      <g id="Grupo_141832" data-name="Grupo 141832" transform="translate(40.167 2711.519)">
        <path id="Trazado_156549" data-name="Trazado 156549" d="M74.573,2759.851H50.793a.872.872,0,0,1,0-1.744H74.573a.872.872,0,0,1,0,1.744Z" transform="translate(-49.921 -2758.107)" fill="#fff"/>
      </g>
      <g id="Grupo_141833" data-name="Grupo 141833" transform="translate(33.088 2677.708)">
        <path id="Trazado_156550" data-name="Trazado 156550" d="M33.959,2688.551a.872.872,0,0,1-.653-1.449l8.04-9.1a.872.872,0,1,1,1.306,1.154l-8.04,9.1A.869.869,0,0,1,33.959,2688.551Z" transform="translate(-33.088 -2677.708)" fill="#fff"/>
      </g>
    </g>
  </g>
</svg>
