<svg xmlns="http://www.w3.org/2000/svg" width="85" height="81" viewBox="0 0 85 81">
  <g id="Grupo_141992" data-name="Grupo 141992" transform="translate(-600.5 -1286)">
    <rect id="Rectángulo_37162" data-name="Rectángulo 37162" width="85" height="81" rx="13" transform="translate(600.5 1286)" fill="#f57c00"/>
    <g id="Grupo_141900" data-name="Grupo 141900">
      <g id="Grupo_141897" data-name="Grupo 141897" transform="translate(471.541 -1378.708)">
        <path id="Trazado_156893" data-name="Trazado 156893" d="M163.683,2677.75c.026-.006.052-.009.079-.013C163.735,2677.742,163.708,2677.744,163.683,2677.75Z" transform="translate(-11.3 -0.016)" fill="#fff"/>
        <path id="Trazado_156894" data-name="Trazado 156894" d="M183.982,2731.547H144.844v-42.114h7.75a.943.943,0,0,0,.943-.943v-8.9h30.445v9.141a17.874,17.874,0,0,1,1.885.318v-10.4a.943.943,0,0,0-.943-.943h-32.33l-.026,0a.941.941,0,0,1,.733,1.564l-1.649,1.867v6.406h-5.66l-1.385,1.567a.939.939,0,0,1-1.643-.679c0,.019-.005.036-.005.055v44a.942.942,0,0,0,.943.942h41.023a.942.942,0,0,0,.943-.942v-8.3a17.874,17.874,0,0,1-1.885.318Z" transform="translate(0)" fill="#fff"/>
        <path id="Trazado_156895" data-name="Trazado 156895" d="M163.3,2677.859c.025-.011.052-.019.078-.028C163.353,2677.84,163.326,2677.848,163.3,2677.859Z" transform="translate(-11.092 -0.067)" fill="#fff"/>
        <path id="Trazado_156896" data-name="Trazado 156896" d="M162.951,2678.039c.024-.017.05-.031.075-.046C163,2678.008,162.975,2678.022,162.951,2678.039Z" transform="translate(-10.901 -0.156)" fill="#fff"/>
        <path id="Trazado_156897" data-name="Trazado 156897" d="M162.639,2678.285c.024-.025.049-.047.074-.069C162.688,2678.239,162.662,2678.261,162.639,2678.285Z" transform="translate(-10.731 -0.277)" fill="#fff"/>
        <path id="Trazado_156898" data-name="Trazado 156898" d="M159.011,2723.016a.942.942,0,0,0,.943.942h14.063a17.892,17.892,0,0,1,.909-1.885H159.954A.943.943,0,0,0,159.011,2723.016Z" transform="translate(-8.753 -24.191)" fill="#fff"/>
        <path id="Trazado_156899" data-name="Trazado 156899" d="M159.011,2735.516a.942.942,0,0,0,.943.942H172.7a18.121,18.121,0,0,1,.222-1.885H159.954A.943.943,0,0,0,159.011,2735.516Z" transform="translate(-8.753 -31.006)" fill="#fff"/>
        <path id="Trazado_156900" data-name="Trazado 156900" d="M159.011,2747.038a.943.943,0,0,0,.943.943H173.13a17.853,17.853,0,0,1-.331-1.886H159.954A.943.943,0,0,0,159.011,2747.038Z" transform="translate(-8.753 -37.289)" fill="#fff"/>
        <path id="Trazado_156901" data-name="Trazado 156901" d="M159.792,2759.05a.943.943,0,0,0,.943.943h15.084a18.025,18.025,0,0,1-1.028-1.886H160.735A.943.943,0,0,0,159.792,2759.05Z" transform="translate(-9.178 -43.839)" fill="#fff"/>
        <path id="Trazado_156902" data-name="Trazado 156902" d="M143.282,2689.2a.942.942,0,0,0,1.331-.082L146,2687.55l5.66-6.406,1.649-1.866a.941.941,0,0,0-.733-1.564c-.036,0-.071.006-.107.011a.778.778,0,0,0-.079.013.84.84,0,0,0-.1.03c-.026.009-.052.017-.078.028a.957.957,0,0,0-.085.046.856.856,0,0,0-.075.045.877.877,0,0,0-.068.056c-.025.022-.05.044-.074.069-.006.007-.014.012-.02.019l-8.693,9.839c-.012.014-.02.03-.032.044a.892.892,0,0,0-.061.085.783.783,0,0,0-.041.076.859.859,0,0,0-.039.087c-.011.029-.02.059-.028.089s-.015.057-.02.086a.952.952,0,0,0-.01.1A.936.936,0,0,0,143.282,2689.2Z" transform="translate(-0.005 -0.003)" fill="#fff"/>
        <path id="Trazado_156903" data-name="Trazado 156903" d="M207.04,2703.5a16.329,16.329,0,0,1,1.858.11,16.046,16.046,0,0,1,1.7.286,16.266,16.266,0,0,1,9.037,5.613,16.192,16.192,0,0,1,0,20.379,16.269,16.269,0,0,1-9.037,5.613,16.046,16.046,0,0,1-1.7.286,16.336,16.336,0,0,1-1.858.11,16.176,16.176,0,0,1-16.075-14.233,16.284,16.284,0,0,1-.123-1.966c0-.312.012-.647.038-1.054a16.188,16.188,0,0,1,16.16-15.144m0-1.811a18,18,0,0,0-17.967,16.838c-.025.388-.042.777-.042,1.171a18.2,18.2,0,0,0,.136,2.183,17.967,17.967,0,0,0,1.566,5.462,17.98,17.98,0,0,0,18.37,10.243,18.005,18.005,0,0,0,0-35.776,18.106,18.106,0,0,0-2.064-.121Z" transform="translate(-25.122 -13.077)" fill="#fff"/>
      </g>
      <path id="Trazado_156906" data-name="Trazado 156906" d="M.606-4.676a6.159,6.159,0,0,1,.976-3.63,3.165,3.165,0,0,1,2.742-1.38,2.7,2.7,0,0,1,1.406.36A3.156,3.156,0,0,1,6.768-8.3l.2-1.213H9.176V-.044a3.534,3.534,0,0,1-1.213,2.87A5.121,5.121,0,0,1,4.579,3.841a6.446,6.446,0,0,1-1.529-.2A7.1,7.1,0,0,1,1.556,3.1l.431-1.916A5.89,5.89,0,0,0,3.2,1.613a6.032,6.032,0,0,0,1.358.145,2.3,2.3,0,0,0,1.551-.439,1.74,1.74,0,0,0,.5-1.371V-.914A2.871,2.871,0,0,1,5.616-.1a2.928,2.928,0,0,1-1.31.281A3.227,3.227,0,0,1,1.582-1.1,5.462,5.462,0,0,1,.606-4.491Zm2.566.185A3.907,3.907,0,0,0,3.59-2.527a1.459,1.459,0,0,0,1.367.716,2.118,2.118,0,0,0,1-.215,1.645,1.645,0,0,0,.655-.628V-6.776a1.754,1.754,0,0,0-.655-.677,1.919,1.919,0,0,0-.98-.237A1.439,1.439,0,0,0,3.6-6.855a4.759,4.759,0,0,0-.431,2.18ZM16.146-7.3l-.94-.026a1.709,1.709,0,0,0-.94.237,1.5,1.5,0,0,0-.562.668V0H11.145V-9.51h2.382L13.641-8.1a3,3,0,0,1,.866-1.165,1.93,1.93,0,0,1,1.226-.417,1.918,1.918,0,0,1,.356.031q.163.031.33.075Zm6.478,4.667a.885.885,0,0,0-.409-.725A4.151,4.151,0,0,0,20.7-3.894,6.047,6.047,0,0,1,18.163-4.9,2.208,2.208,0,0,1,17.3-6.741a2.62,2.62,0,0,1,1.037-2.083,4.182,4.182,0,0,1,2.76-.861,4.513,4.513,0,0,1,2.887.861A2.517,2.517,0,0,1,25.022-6.68L25-6.627H22.526a1.245,1.245,0,0,0-.369-.932,1.461,1.461,0,0,0-1.063-.36,1.453,1.453,0,0,0-.976.308.957.957,0,0,0-.36.756.854.854,0,0,0,.374.716,4.158,4.158,0,0,0,1.516.5A6.17,6.17,0,0,1,24.253-4.61a2.265,2.265,0,0,1,.857,1.876,2.51,2.51,0,0,1-1.1,2.1,4.742,4.742,0,0,1-2.9.817,4.408,4.408,0,0,1-3-.962,2.691,2.691,0,0,1-1.05-2.193l.018-.053h2.347a1.334,1.334,0,0,0,.5,1.107,2.068,2.068,0,0,0,1.239.343,1.762,1.762,0,0,0,1.085-.286A.927.927,0,0,0,22.623-2.637Z" transform="translate(642.5 1332.159)" fill="#fff"/>
    </g>
  </g>
</svg>
