<svg xmlns="http://www.w3.org/2000/svg" width="520.561" height="151.581" viewBox="0 0 520.561 151.581">
  <g id="Grupo_139957" data-name="Grupo 139957" transform="translate(-353.906 -8065.843)">
    <path id="Trazado_149827" data-name="Trazado 149827" d="M5744.6-3609.327v-15.81l-59.14,6.487" transform="translate(-5331.5 11698.712)" fill="#fff4c6" stroke="#707070" stroke-width="1"/>
    <g id="Trazado_149826" data-name="Trazado 149826" transform="translate(354.417 8079.618)" fill="#fff4c6">
      <path d="M 63.43325424194336 117.4887542724609 L 0.5000079274177551 107.9434432983398 L 0.5000079274177551 0.5815432071685791 L 63.43325424194336 10.12685394287109 L 63.43325424194336 117.4887542724609 Z" stroke="none"/>
      <path d="M 0.9999923706054688 1.163101196289062 L 0.9999923706054688 107.513557434082 L 62.9332389831543 116.9071960449219 L 62.9332389831543 10.55673980712891 L 0.9999923706054688 1.163101196289062 M -7.62939453125e-06 -7.62939453125e-06 L 63.9332389831543 9.696975708007812 L 63.9332389831543 118.0703048706055 L -7.62939453125e-06 108.3733215332031 L -7.62939453125e-06 -7.62939453125e-06 Z" stroke="none" fill="#707070"/>
    </g>
    <g id="Trazado_149829" data-name="Trazado 149829" transform="translate(480.763 8071.998)" fill="#fff4c6">
      <path d="M -0.7514588236808777 116.4845199584961 L -0.7514588236808777 10.19855499267578 L 36.56143188476562 0.6441553831100464 L 36.56143188476562 103.7820281982422 L -0.7514588236808777 116.4845199584961 Z" stroke="none"/>
      <path d="M 36.06143188476562 1.288314819335938 L -0.2514572143554688 10.58665466308594 L -0.2514572143554688 115.7861328125 L 36.06143188476562 103.424072265625 L 36.06143188476562 1.288314819335938 M 37.06143188476562 -7.62939453125e-06 L 37.06143188476562 104.1399993896484 L -1.251457214355469 117.1829223632812 L -1.251457214355469 9.810455322265625 L 37.06143188476562 -7.62939453125e-06 Z" stroke="none" fill="#707070"/>
    </g>
    <path id="Trazado_149830" data-name="Trazado 149830" d="M5867.389-3627l-64.115,7.021,26.018,8.165v-4.872Z" transform="translate(-5349.564 11699.845)" fill="#fff4c6" stroke="#707070" stroke-width="1"/>
    <g id="Trazado_149828" data-name="Trazado 149828" transform="translate(454.324 8079.618)" fill="#fff4c6">
      <path d="M 40.87297821044922 121.1363067626953 L 0.4999949038028717 102.1294174194336 L 0.4999949038028717 0.6856438517570496 L 40.87297821044922 13.6456823348999 L 40.87297821044922 121.1363067626953 Z" stroke="none"/>
      <path d="M 1.000003814697266 1.371269226074219 L 1.000003814697266 101.8121566772461 L 40.37297058105469 120.348274230957 L 40.37297058105469 14.01030731201172 L 1.000003814697266 1.371269226074219 M 3.814697265625e-06 -7.62939453125e-06 L 41.37297058105469 13.28104400634766 L 41.37297058105469 121.9243316650391 L 3.814697265625e-06 102.446647644043 L 3.814697265625e-06 -7.62939453125e-06 Z" stroke="none" fill="#707070"/>
    </g>
    <g id="Trazado_149834" data-name="Trazado 149834" transform="translate(562.274 8077.925)" fill="#fff4c6">
      <path d="M 0.9181891083717346 99.51595306396484 L 0.5021070241928101 0.5000073909759521 L 60.88333129882812 0.5000073909759521 L 60.88333129882812 95.20795440673828 L 0.9181891083717346 99.51595306396484 Z" stroke="none"/>
      <path d="M 1.004203796386719 0.9999923706054688 L 1.415927886962891 98.97890472412109 L 60.38333129882812 94.74259185791016 L 60.38333129882812 0.9999923706054688 L 1.004203796386719 0.9999923706054688 M -3.814697265625e-06 -7.62939453125e-06 L 61.38333129882812 -7.62939453125e-06 L 61.38333129882812 95.67332458496094 L 0.4204368591308594 100.0529937744141 L -3.814697265625e-06 -7.62939453125e-06 Z" stroke="none" fill="#707070"/>
    </g>
    <g id="Trazado_149833" data-name="Trazado 149833" transform="translate(562.774 8080.656)" fill="#fff4c6">
      <path d="M 40.04926681518555 122.8480682373047 L 0.4220515787601471 105.3164520263672 L 0.002862120978534222 -0.5239714384078979 L 40.04926681518555 14.35095691680908 L 40.04926681518555 122.8480682373047 Z" stroke="none"/>
      <path d="M 0.5057220458984375 0.1961822509765625 L 0.9207687377929688 104.9903411865234 L 39.54926681518555 122.0801239013672 L 39.54926681518555 14.69860076904297 L 0.5057220458984375 0.1961822509765625 M -0.4999961853027344 -1.244140625 L 40.54926681518555 14.0032958984375 L 40.54926681518555 123.6160278320312 L -0.07666397094726562 105.6425628662109 L -0.4999961853027344 -1.244140625 Z" stroke="none" fill="#707070"/>
    </g>
    <path id="Trazado_149835" data-name="Trazado 149835" d="M5994.608-3622.075l-51.858-11.459v11.459Z" transform="translate(-5370.951 11700)" fill="#fff4c6" stroke="#707070" stroke-width="1"/>
    <path id="Trazado_149838" data-name="Trazado 149838" d="M6146.862-3619.294l-42.855-7.145-53.165,7.145v102.535l47.817,8.835,5.348-2.558h42.855Z" transform="translate(-5387.525 11698.912)" fill="#fff4c6" stroke="#707070" stroke-width="1"/>
    <g id="Trazado_149837" data-name="Trazado 149837" transform="translate(722.073 8103.274)" fill="#fff4c6">
      <path d="M -0.8203130960464478 101.8849487304688 L -0.8203130960464478 -5.385437488555908 L 36.76378631591797 -22.87213516235352 L 36.76378631591797 84.39824676513672 L -0.8203130960464478 101.8849487304688 Z" stroke="none"/>
      <path d="M 36.26378631591797 -22.08804321289062 L -0.3203125 -5.066596984863281 L -0.3203125 101.1008377075195 L 36.26378631591797 84.07939147949219 L 36.26378631591797 -22.08804321289062 M 37.26378631591797 -23.65625 L 37.26378631591797 84.71706390380859 L -1.3203125 102.6690444946289 L -1.3203125 -5.704269409179688 L 37.26378631591797 -23.65625 Z" stroke="none" fill="#707070"/>
    </g>
    <g id="Trazado_149836" data-name="Trazado 149836" transform="translate(663.451 8079.618)" fill="#fff4c6">
      <path d="M 46.91333770751953 110.2514114379883 L 0.5000078678131104 102.8665924072266 L 0.5000078678131104 0.4999963045120239 L 46.91333770751953 0.4999963045120239 L 46.91333770751953 110.2514114379883 Z" stroke="none"/>
      <path d="M 1.000003814697266 0.9999923706054688 L 1.000003814697266 102.4398422241211 L 46.41332626342773 109.6655426025391 L 46.41332626342773 0.9999923706054688 L 1.000003814697266 0.9999923706054688 M 3.814697265625e-06 -7.62939453125e-06 L 47.41332626342773 -7.62939453125e-06 L 47.41332626342773 110.8372421264648 L 3.814697265625e-06 103.2933197021484 L 3.814697265625e-06 -7.62939453125e-06 Z" stroke="none" fill="#707070"/>
    </g>
    <g id="Trazado_149842" data-name="Trazado 149842" transform="translate(814.581 8079.794)" fill="#fff4c6">
      <path d="M 0.4999962747097015 102.3263702392578 L 0.4999962747097015 -0.9784842729568481 L 59.38396072387695 -8.673980712890625 L 58.96763229370117 90.32511138916016 L 0.4999962747097015 102.3263702392578 Z" stroke="none"/>
      <path d="M 58.88157272338867 -8.104080200195312 L 0.9999961853027344 -0.5395736694335938 L 0.9999961853027344 101.7133178710938 L 58.46936798095703 89.91695404052734 L 58.88157272338867 -8.104080200195312 M 59.88636779785156 -9.243896484375 L 59.46593475341797 90.73323822021484 L -3.814697265625e-06 102.9394226074219 L -3.814697265625e-06 -1.417388916015625 L 59.88636779785156 -9.243896484375 Z" stroke="none" fill="#707070"/>
    </g>
    <path id="Trazado_149841" data-name="Trazado 149841" d="M5994.608-3622.075l-51.858-11.459v11.459Z" transform="translate(-5132.191 11713.152)" fill="#fff4c6" stroke="#707070" stroke-width="1"/>
    <g id="Trazado_149839" data-name="Trazado 149839" transform="translate(801.034 8091.077)" fill="#fff4c6">
      <path d="M 0.9181891083717346 99.51595306396484 L 0.5021070241928101 0.5000073909759521 L 60.88333129882812 0.5000073909759521 L 60.88333129882812 95.20795440673828 L 0.9181891083717346 99.51595306396484 Z" stroke="none"/>
      <path d="M 1.004203796386719 0.9999923706054688 L 1.415927886962891 98.97890472412109 L 60.38333129882812 94.74259185791016 L 60.38333129882812 0.9999923706054688 L 1.004203796386719 0.9999923706054688 M -3.814697265625e-06 -7.62939453125e-06 L 61.38333129882812 -7.62939453125e-06 L 61.38333129882812 95.67332458496094 L 0.4204368591308594 100.0529937744141 L -3.814697265625e-06 -7.62939453125e-06 Z" stroke="none" fill="#707070"/>
    </g>
    <g id="Trazado_149840" data-name="Trazado 149840" transform="translate(801.534 8093.808)" fill="#fff4c6">
      <path d="M 40.04926681518555 122.8480682373047 L 0.4220515787601471 105.3164520263672 L 0.002862120978534222 -0.5239714384078979 L 40.04926681518555 14.35095691680908 L 40.04926681518555 122.8480682373047 Z" stroke="none"/>
      <path d="M 0.5057220458984375 0.1961822509765625 L 0.9207687377929688 104.9903411865234 L 39.54926681518555 122.0801239013672 L 39.54926681518555 14.69860076904297 L 0.5057220458984375 0.1961822509765625 M -0.4999961853027344 -1.244140625 L 40.54926681518555 14.0032958984375 L 40.54926681518555 123.6160278320312 L -0.07666397094726562 105.6425628662109 L -0.4999961853027344 -1.244140625 Z" stroke="none" fill="#707070"/>
    </g>
  </g>
</svg>
