<svg xmlns="http://www.w3.org/2000/svg" width="80.874" height="80.873" viewBox="0 0 80.874 80.873">
  <g id="Grupo_139962" data-name="Grupo 139962" transform="translate(-651 -1275.081)">
    <path id="Trazado_113533" data-name="Trazado 113533" d="M40.437,0A40.437,40.437,0,1,1,0,40.437,40.437,40.437,0,0,1,40.437,0Z" transform="translate(651 1275.081)" fill="#ffa726"/>
    <g id="XjXlDN" transform="translate(-1926.247 1240.983)">
      <g id="Grupo_141982" data-name="Grupo 141982" transform="translate(2594.247 51.098)">
        <path id="Trazado_157098" data-name="Trazado 157098" d="M2613.233,89.948c-1.051-1.444-1.02-3.021-1-4.605.021-1.789,0-3.578.006-5.367a4.686,4.686,0,0,1,4.855-4.86q2.391-.007,4.781,0a2.726,2.726,0,0,1,2.739,1.931,2.756,2.756,0,0,1-1.179,3.1.767.767,0,0,0-.258.546c-.02,1.658-.035,3.318,0,4.976a6.687,6.687,0,0,1-1,4.278c.367,0,.634,0,.9,0,1.429.021,2.868-.047,4.286.091a5.792,5.792,0,0,1,4.323,2.7c.8,1.182,1.575,2.388,2.394,3.56a1.979,1.979,0,0,0,.788.658c1.832.794,3.681,1.547,5.523,2.319.752.316.874.618.568,1.367-.38.932-.753,1.867-1.152,2.791-.116.268-.105.459.134.622a2.783,2.783,0,0,1,1.189,2.915c-.07.529,0,1.08-.1,1.6a3.068,3.068,0,0,1-2.947,2.456.205.205,0,0,1-.049,0c-1.119-.271-1.642.294-1.895,1.306a7.909,7.909,0,0,1-.457,1.127c-.283.669-.577.809-1.259.583q-3.419-1.137-6.836-2.282c-.151-.051-.306-.092-.513-.153v2.52h-1.536v-2.971c-.915-.547-.989-.69-.562-1.66a6.74,6.74,0,0,0,.55-2.878c-.041-3.122-.011-6.245-.019-9.368,0-.458.07-.86.564-1.014.474-.148.756.135,1.006.492.588.837,1.188,1.665,1.844,2.58.133-.336.237-.6.34-.86q.4-1.021.8-2.041c.408-1.045.519-1.1,1.643-.817-1.085-1.622-1.905-3.43-4.012-3.908a8.536,8.536,0,0,0-1.641-.164c-.91-.026-1.821.007-2.731-.015a.493.493,0,0,0-.558.387c-.339.913-.714,1.813-1.076,2.716-.383.955-.916,1.069-1.634.351-.172-.172-.334-.353-.5-.53l-.171.03a5,5,0,0,0,.006.793c.457,2.79.917,5.579,1.4,8.364a1.119,1.119,0,0,1-.33,1.1c-.7.679-1.379,1.381-2.074,2.066a.812.812,0,0,1-1.345-.008c-.705-.7-1.4-1.406-2.107-2.1a1.015,1.015,0,0,1-.308-.97q.717-4.2,1.41-8.411a5.108,5.108,0,0,0,.006-.82l-.153-.054c-.208.219-.408.445-.625.654-.573.553-1.147.44-1.449-.294-.4-.976-.779-1.962-1.186-2.935-.056-.134-.223-.315-.338-.314-1.4,0-2.8-.036-4.187.088a3.914,3.914,0,0,0-2.909,1.781c-1.832,2.685-3.617,5.4-5.42,8.106a.569.569,0,0,0-.031.138c.111.007.214.021.318.021,1.463,0,2.927.012,4.39-.013a.842.842,0,0,0,.582-.3c1.114-1.521,2.206-3.058,3.3-4.6.261-.368.544-.675,1.042-.506s.544.576.543,1.029q-.01,5.562,0,11.125a7.99,7.99,0,0,0,.148,1.071h9.672c.866,0,1.1.234,1.1,1.095,0,.277,0,.553,0,.829,0,1.868-.884,2.76-2.736,2.76h-15.659c-1.09,0-2.179-.011-3.268,0a.915.915,0,0,1-.986-.683c-1.254-3.534-2.523-7.063-3.78-10.595-.268-.752.06-1.21.856-1.216.7-.006,1.4-.019,2.1.007a.674.674,0,0,0,.666-.358c1.838-2.779,3.7-5.54,5.534-8.322a6.327,6.327,0,0,1,5.7-3.041c1.138.015,2.277,0,3.415,0Zm13.3,19.817,7.894,2.63.547-1.328a2.444,2.444,0,0,1-2.441-2.829c0-.813,0-1.625,0-2.438,0-.762.259-1.017,1.027-1.019.692,0,1.385,0,2.1,0a2.063,2.063,0,0,1,.759-1.965,1.968,1.968,0,0,1,2.029-.178l.868-2.121-7.9-3.3Zm-16.987,2.823c-.069-.224-.109-.379-.163-.529-1-2.8-2-5.587-2.988-8.387a.574.574,0,0,0-.649-.462c-3,.017-6.01.009-9.015.009h-.514c.038.154.056.263.093.366,1.028,2.888,2.062,5.773,3.078,8.665.1.3.264.344.536.342,1.673-.009,3.346,0,5.02,0Zm12.046-32.008c-1.425,0-2.8,0-4.18.009a.617.617,0,0,0-.363.2c-1.016,1-2.03,2.012-3.029,3.034a.811.811,0,0,0-.211.5q-.031,1.291-.005,2.582a3.9,3.9,0,0,0,3.739,3.821,3.831,3.831,0,0,0,4.027-3.554C2621.664,85,2621.589,82.823,2621.589,80.58Zm-7.73,1.19c.808-.814,1.555-1.608,2.354-2.345a1.56,1.56,0,0,1,.935-.389c1.575-.039,3.153-.015,4.729-.019a1.234,1.234,0,0,0,1.283-1.187,1.152,1.152,0,0,0-1.243-1.151c-1.674-.007-3.348-.014-5.022,0a3.007,3.007,0,0,0-3.014,2.537A17.529,17.529,0,0,0,2613.859,81.77Zm20.232,24.572c0,.291,0,.517,0,.742,0,.536-.014,1.072.007,1.607a.758.758,0,0,0,.829.768c1.038.012,2.078.019,3.116,0a1.517,1.517,0,0,0,1.5-1.4c.043-.663.019-1.331.01-2a.476.476,0,0,0-.122-.3c-.533-.546-1.07-1.088-1.622-1.615a.44.44,0,0,0-.379-.1.463.463,0,0,0-.2.342c-.028.339-.006.681-.011,1.022-.01.637-.289.921-.923.927C2635.577,106.348,2634.865,106.343,2634.091,106.343Zm-16.4-1.042c.462-.484.865-.864,1.212-1.29a.971.971,0,0,0,.225-.67c-.4-2.533-.828-5.061-1.254-7.59a3.291,3.291,0,0,0-.183-.483,3.37,3.37,0,0,0-.168.448q-.644,3.841-1.273,7.685a.66.66,0,0,0,.11.483C2616.765,104.347,2617.2,104.783,2617.694,105.3Zm1.565,5.751h-8.578c.164.46.3.892.477,1.308a.42.42,0,0,0,.3.219q3.511.018,7.022,0a.752.752,0,0,0,.771-.779C2619.271,111.562,2619.259,111.321,2619.259,111.051Zm-12.5-9.429c.567.084.745.486.892.931.189.571.4,1.134.609,1.7l.051-.023V99.45Zm20.333,2.167.078.025c.338-.868.678-1.735,1.008-2.605a.332.332,0,0,0-.023-.264c-.322-.471-.658-.933-1.063-1.5Zm-12.24-10.59,1.19-1.162c-.631-.164-1.115-.7-1.847-.477Zm5.707,0,.652-1.64-.09-.148-1.782.6Zm-2.85-.534c-.644.527-.725.725-.339,1.062a.685.685,0,0,0,.664.007C2618.413,93.414,2618.327,93.188,2617.7,92.661Z" transform="translate(-2594.283 -67.309)" fill="#fff"/>
        <path id="Trazado_157099" data-name="Trazado 157099" d="M2599.728,58.855v.83c.228,0,.449-.006.669,0a.792.792,0,0,1,.873.881c.014.877.015,1.754.022,2.631,0,.012.014.024.018.029a5.1,5.1,0,0,1,.715-.13,1.514,1.514,0,0,1,1.582,1.4,1.562,1.562,0,0,1,.005.341,6.226,6.226,0,0,0,1.15,4.44c.695,1.031,1.237,2.164,1.871,3.293l-1.35.769-1.871-3.31-4.808,2.405,2.572,4.831-1.351.729c-.1-.167-.186-.3-.26-.438q-2.34-4.383-4.677-8.768a4.6,4.6,0,0,1,1.437-6.2.766.766,0,0,0,.254-.509c.036-.453.01-.91.012-1.365,0-.77.255-1.025,1.017-1.03.16,0,.32,0,.512,0,0-.3,0-.564,0-.832-2.31-.88-3.4-2.5-3.024-4.516a3.9,3.9,0,0,1,7.694.092C2603.125,56.37,2602,58.01,2599.728,58.855Zm-3.189,5.648a2.948,2.948,0,0,0-.39,3.327c.4.782.819,1.551,1.232,2.323.158.3.326.586.5.9l4.814-2.414c-1.068-1.182-.457-2.576-.709-3.979a7.263,7.263,0,0,0-1.317,1.56,6.72,6.72,0,0,0-.248,1.934h-1.468l-.049-.63C2597.256,67.24,2596.828,66.7,2596.539,64.5Zm4.729-9.513a2.339,2.339,0,1,0-2.353,2.35A2.346,2.346,0,0,0,2601.268,54.99Zm-1.558,6.3h-1.56c0,1.291-.007,2.542.008,3.792a.752.752,0,0,0,.172.531c.195.149.645.315.685.258a2.9,2.9,0,0,0,.664-1.257C2599.773,63.516,2599.711,62.408,2599.711,61.285Z" transform="translate(-2594.247 -51.098)" fill="#fff"/>
        <path id="Trazado_157100" data-name="Trazado 157100" d="M2706.176,86.442l-.943-1.281c1.293-1.358,1.893-3.114,2.949-4.678l-4.695-2.355-1.869,3.309-1.355-.762c.936-1.669,1.858-3.289,2.75-4.925a2.337,2.337,0,0,0,.257-.956c.039-.664.015-1.332.01-2a1.684,1.684,0,0,1,.546-1.256.833.833,0,0,0,.226-.529c.016-1.788.008-3.576.01-5.364a2.355,2.355,0,0,1,2.559-2.542q1.341,0,2.682,0a2.359,2.359,0,0,1,2.563,2.587c0,1.967-.005,3.934.009,5.9a1.53,1.53,0,0,0,.184.673,4.332,4.332,0,0,1,.08,4.3c-1.558,2.849-3.177,5.665-4.8,8.475A11.144,11.144,0,0,1,2706.176,86.442Zm.974-21.776h-.306c-1.02-.009-1.222.19-1.222,1.214,0,1.526.032,3.053-.015,4.578a1.683,1.683,0,0,0,.656,1.54c.466.366.789.992,1.3,1.2a5.048,5.048,0,0,0,1.782.054h.049c.61-.016.906-.292.908-.893q.01-3.409,0-6.819a.788.788,0,0,0-.876-.874c-.21-.006-.42,0-.652,0-.1.445-.328.77-.81.771S2707.258,65.108,2707.149,64.666Zm-2.934,12.083,4.722,2.361c.648-1.166,1.306-2.286,1.892-3.442a5.329,5.329,0,0,0,.3-1.283,12.424,12.424,0,0,1-1.57.414,12.8,12.8,0,0,1-1.615.015v1.433h-1.6a2.812,2.812,0,0,0-1.467-3.33C2704.671,74.184,2705.248,75.571,2704.215,76.749Z" transform="translate(-2665.813 -59.202)" fill="#fff"/>
        <path id="Trazado_157101" data-name="Trazado 157101" d="M2618.155,171.179a2.339,2.339,0,1,1-2.3-2.353A2.349,2.349,0,0,1,2618.155,171.179Zm-1.563,0a.777.777,0,1,0-.776.767A.786.786,0,0,0,2616.592,171.176Z" transform="translate(-2607.229 -130.571)" fill="#fff"/>
        <path id="Trazado_157102" data-name="Trazado 157102" d="M2664.3,110.23v1.517c-1.542-.035-3.139.315-4.408-1l1.133-1.016C2661.941,110.536,2663.148,110.055,2664.3,110.23Z" transform="translate(-2638.564 -90.678)" fill="#fff"/>
        <path id="Trazado_157103" data-name="Trazado 157103" d="M2662.308,99.157a.777.777,0,1,1-.787.766A.784.784,0,0,1,2662.308,99.157Z" transform="translate(-2639.661 -83.541)" fill="#fff"/>
        <path id="Trazado_157104" data-name="Trazado 157104" d="M2672.681,99.917a.777.777,0,1,1-.793-.76A.786.786,0,0,1,2672.681,99.917Z" transform="translate(-2646.146 -83.54)" fill="#fff"/>
      </g>
    </g>
  </g>
</svg>
