<svg xmlns="http://www.w3.org/2000/svg" width="205.171" height="134.397" viewBox="0 0 205.171 134.397">
  <g id="Grupo_142560" data-name="Grupo 142560" transform="translate(-308.383 -443.143)">
    <path id="Trazado_159152" data-name="Trazado 159152" d="M11.9-3.453H5.789L4.723,0H-.038L6.741-18.484h4.189L17.761,0H12.975Zm-5.04-3.44h3.974L8.836-13.3ZM19.106,0V-18.484h5.954a8.759,8.759,0,0,1,4.405,1.111,7.808,7.808,0,0,1,3.053,3.136A9.467,9.467,0,0,1,33.63-9.7v.851A9.522,9.522,0,0,1,32.557-4.3a7.842,7.842,0,0,1-3.021,3.148A8.566,8.566,0,0,1,25.188,0Zm4.456-15.044V-3.428h1.549a3.466,3.466,0,0,0,2.945-1.365,6.688,6.688,0,0,0,1.028-4.056v-.8a6.633,6.633,0,0,0-1.028-4.037,3.527,3.527,0,0,0-3-1.358ZM51.353,0H46.922L40.371-11.5V0H35.915V-18.484h4.456l6.538,11.5v-11.5h4.443Zm8.557-6.97a8.391,8.391,0,0,1,1.409-5.142,4.638,4.638,0,0,1,3.936-1.879,3.945,3.945,0,0,1,3.1,1.447V-19.5h4.291V0H68.8L68.58-1.473A4.051,4.051,0,0,1,65.229.254a4.63,4.63,0,0,1-3.885-1.879A8.657,8.657,0,0,1,59.909-6.97Zm4.278.267q0,3.656,2.133,3.656A2.106,2.106,0,0,0,68.352-4.24v-5.23a2.049,2.049,0,0,0-2.006-1.219q-1.98,0-2.146,3.2ZM81.72.254A7.061,7.061,0,0,1,76.6-1.631a6.51,6.51,0,0,1-1.955-4.907v-.355a8.436,8.436,0,0,1,.781-3.72,5.713,5.713,0,0,1,2.279-2.495,6.879,6.879,0,0,1,3.555-.882,5.946,5.946,0,0,1,4.57,1.8,7.059,7.059,0,0,1,1.676,5.008v1.663H79a3.084,3.084,0,0,0,1,1.815,2.984,2.984,0,0,0,2.006.66,3.845,3.845,0,0,0,3.174-1.422l1.955,2.311A5.465,5.465,0,0,1,84.875-.4,7.658,7.658,0,0,1,81.72.254Zm-.482-10.943Q79.358-10.689,79-8.2h4.316v-.33a2.119,2.119,0,0,0-.521-1.593A2.071,2.071,0,0,0,81.237-10.689ZM100.217,0H95.926V-19.5h4.291Zm10.372,0a4.831,4.831,0,0,1-.406-1.231,3.978,3.978,0,0,1-3.3,1.485,4.874,4.874,0,0,1-3.3-1.174,3.738,3.738,0,0,1-1.358-2.952,3.842,3.842,0,0,1,1.65-3.377,8.408,8.408,0,0,1,4.8-1.143h1.32v-.727q0-1.9-1.638-1.9a1.339,1.339,0,0,0-1.523,1.505h-4.278a3.835,3.835,0,0,1,1.695-3.233,7.122,7.122,0,0,1,4.323-1.243,6.245,6.245,0,0,1,4.151,1.282,4.458,4.458,0,0,1,1.562,3.517V-3.11a6.227,6.227,0,0,0,.584,2.895V0ZM107.91-2.793a2.386,2.386,0,0,0,1.327-.343,2.148,2.148,0,0,0,.755-.774v-2.2h-1.244q-2.234,0-2.234,2.006a1.225,1.225,0,0,0,.394.946A1.424,1.424,0,0,0,107.91-2.793ZM5.243,20.264l.14,1.612A4.723,4.723,0,0,1,9.306,20.01a3.477,3.477,0,0,1,3.517,2.069,4.571,4.571,0,0,1,4.037-2.069q4.177,0,4.291,5.053V34H16.859V25.329a2.619,2.619,0,0,0-.355-1.536,1.513,1.513,0,0,0-1.295-.482,2.027,2.027,0,0,0-1.892,1.13l.013.178V34H9.039V25.354A2.752,2.752,0,0,0,8.7,23.793a1.509,1.509,0,0,0-1.308-.482A2.052,2.052,0,0,0,5.51,24.44V34H1.231V20.264ZM31.332,34a4.831,4.831,0,0,1-.406-1.231,3.978,3.978,0,0,1-3.3,1.485,4.874,4.874,0,0,1-3.3-1.174,3.738,3.738,0,0,1-1.358-2.952,3.842,3.842,0,0,1,1.65-3.377,8.408,8.408,0,0,1,4.8-1.143h1.32v-.727q0-1.9-1.638-1.9a1.339,1.339,0,0,0-1.523,1.505H23.3a3.835,3.835,0,0,1,1.695-3.233,7.122,7.122,0,0,1,4.323-1.243,6.245,6.245,0,0,1,4.151,1.282,4.458,4.458,0,0,1,1.562,3.517V30.89a6.227,6.227,0,0,0,.584,2.895V34Zm-2.679-2.793a2.386,2.386,0,0,0,1.327-.343,2.148,2.148,0,0,0,.755-.774v-2.2H29.491q-2.234,0-2.234,2.006a1.225,1.225,0,0,0,.394.946A1.424,1.424,0,0,0,28.653,31.207Zm8.2-4.215a8.246,8.246,0,0,1,1.422-5.129A4.67,4.67,0,0,1,42.2,20.01a3.988,3.988,0,0,1,3.377,1.727l.3-1.473h3.707V39.281H45.3V32.857a3.982,3.982,0,0,1-3.123,1.4A4.629,4.629,0,0,1,38.3,32.369,8.705,8.705,0,0,1,36.854,26.992Zm4.278.267q0,3.694,2.133,3.694A2.065,2.065,0,0,0,45.3,29.836V24.4a2.021,2.021,0,0,0-2.006-1.092q-1.993,0-2.146,3.187Zm19.056,5.256a4.411,4.411,0,0,1-3.669,1.739A4.326,4.326,0,0,1,53.1,32.94a5.526,5.526,0,0,1-1.162-3.777v-8.9h4.278v8.925a1.538,1.538,0,0,0,1.714,1.765A2.236,2.236,0,0,0,60.023,29.9V20.264h4.3V34H60.315Zm13.127,1.739A7.061,7.061,0,0,1,68.2,32.369a6.51,6.51,0,0,1-1.955-4.907v-.355a8.436,8.436,0,0,1,.781-3.72A5.713,5.713,0,0,1,69.3,20.892a6.879,6.879,0,0,1,3.555-.882,5.946,5.946,0,0,1,4.57,1.8A7.059,7.059,0,0,1,79.1,26.814v1.663H70.6a3.084,3.084,0,0,0,1,1.815,2.984,2.984,0,0,0,2.006.66,3.845,3.845,0,0,0,3.174-1.422l1.955,2.311A5.465,5.465,0,0,1,76.47,33.6,7.658,7.658,0,0,1,73.315,34.254Zm-.482-10.943q-1.879,0-2.234,2.488h4.316v-.33a2.119,2.119,0,0,0-.521-1.593A2.071,2.071,0,0,0,72.833,23.311Zm12.975-6.462v3.415h2.26v2.971h-2.26v6.284a1.6,1.6,0,0,0,.279,1.079,1.5,1.5,0,0,0,1.1.3,6.276,6.276,0,0,0,1.066-.076v3.06a7.9,7.9,0,0,1-2.412.368,4.482,4.482,0,0,1-3.263-1.041,4.267,4.267,0,0,1-1.054-3.161V23.234H79.777V20.264h1.752V16.849ZM97.487,34a4.831,4.831,0,0,1-.406-1.231,3.978,3.978,0,0,1-3.3,1.485,4.874,4.874,0,0,1-3.3-1.174,3.738,3.738,0,0,1-1.358-2.952,3.842,3.842,0,0,1,1.65-3.377,8.408,8.408,0,0,1,4.8-1.143h1.32v-.727q0-1.9-1.638-1.9a1.339,1.339,0,0,0-1.523,1.505H89.451a3.835,3.835,0,0,1,1.695-3.233,7.122,7.122,0,0,1,4.323-1.243,6.245,6.245,0,0,1,4.151,1.282,4.458,4.458,0,0,1,1.562,3.517V30.89a6.227,6.227,0,0,0,.584,2.895V34Zm-2.679-2.793a2.386,2.386,0,0,0,1.327-.343,2.148,2.148,0,0,0,.755-.774v-2.2H95.646q-2.234,0-2.234,2.006a1.225,1.225,0,0,0,.394.946A1.424,1.424,0,0,0,94.809,31.207Zm14.549-.254a1.9,1.9,0,0,0,1.4-.489,1.792,1.792,0,0,0,.482-1.365h4.012a4.749,4.749,0,0,1-1.619,3.707,6.021,6.021,0,0,1-4.17,1.447,6.1,6.1,0,0,1-4.723-1.879,7.4,7.4,0,0,1-1.727-5.205v-.178a8.367,8.367,0,0,1,.768-3.675,5.592,5.592,0,0,1,2.215-2.45,6.605,6.605,0,0,1,3.428-.857,5.945,5.945,0,0,1,4.253,1.485,5.268,5.268,0,0,1,1.574,4.024h-4.012a2.348,2.348,0,0,0-.521-1.638,1.8,1.8,0,0,0-1.4-.571q-1.663,0-1.942,2.12a14.961,14.961,0,0,0-.089,1.854,5.876,5.876,0,0,0,.5,2.869A1.714,1.714,0,0,0,109.357,30.953ZM121.57,34h-4.291V20.264h4.291Zm-4.545-17.278a1.91,1.91,0,0,1,.66-1.5,2.807,2.807,0,0,1,3.428,0,2.03,2.03,0,0,1,0,3,2.807,2.807,0,0,1-3.428,0A1.91,1.91,0,0,1,117.025,16.722ZM123.665,27a8.107,8.107,0,0,1,.8-3.663,5.72,5.72,0,0,1,2.3-2.469,6.92,6.92,0,0,1,3.517-.863,6.316,6.316,0,0,1,4.862,1.911,7.332,7.332,0,0,1,1.777,5.2v.152a7.113,7.113,0,0,1-1.784,5.1,6.333,6.333,0,0,1-4.831,1.885,6.4,6.4,0,0,1-4.71-1.758,6.877,6.877,0,0,1-1.917-4.767Zm4.278.267a5.111,5.111,0,0,0,.6,2.793,1.988,1.988,0,0,0,1.765.889q2.285,0,2.336-3.517V27q0-3.694-2.361-3.694-2.146,0-2.323,3.187Zm2.92-12.771h4.52l-3.529,3.986-3.491-.006Zm11.87,5.764.14,1.612A4.658,4.658,0,0,1,146.8,20.01,3.919,3.919,0,0,1,150,21.292a6.1,6.1,0,0,1,1.1,3.859V34h-4.291V25.329a2.318,2.318,0,0,0-.419-1.53,1.938,1.938,0,0,0-1.523-.489A2.04,2.04,0,0,0,143,24.3V34h-4.278V20.264ZM7.846,68.254a7.061,7.061,0,0,1-5.116-1.885A6.51,6.51,0,0,1,.774,61.462v-.355a8.436,8.436,0,0,1,.781-3.72,5.713,5.713,0,0,1,2.279-2.495,6.879,6.879,0,0,1,3.555-.882,5.946,5.946,0,0,1,4.57,1.8,7.059,7.059,0,0,1,1.676,5.008v1.663H5.129a3.084,3.084,0,0,0,1,1.815,2.984,2.984,0,0,0,2.006.66,3.845,3.845,0,0,0,3.174-1.422l1.955,2.311A5.465,5.465,0,0,1,11,67.6,7.658,7.658,0,0,1,7.846,68.254ZM7.363,57.311q-1.879,0-2.234,2.488H9.445v-.33a2.119,2.119,0,0,0-.521-1.593A2.071,2.071,0,0,0,7.363,57.311Zm7.452,3.72a8.391,8.391,0,0,1,1.409-5.142A4.638,4.638,0,0,1,20.16,54.01a3.945,3.945,0,0,1,3.1,1.447V48.5h4.291V68H23.7l-.216-1.473a4.051,4.051,0,0,1-3.352,1.727,4.63,4.63,0,0,1-3.885-1.879A8.657,8.657,0,0,1,14.815,61.03Zm4.278.267q0,3.656,2.133,3.656a2.106,2.106,0,0,0,2.031-1.193v-5.23a2.049,2.049,0,0,0-2.006-1.219q-1.98,0-2.146,3.2Zm15.4,6.7H30.2V54.264h4.291ZM29.948,50.722a1.91,1.91,0,0,1,.66-1.5,2.807,2.807,0,0,1,3.428,0,2.03,2.03,0,0,1,0,3,2.807,2.807,0,0,1-3.428,0A1.91,1.91,0,0,1,29.948,50.722Zm12.162.127v3.415h2.26v2.971H42.11v6.284A1.6,1.6,0,0,0,42.39,64.6a1.5,1.5,0,0,0,1.1.3,6.276,6.276,0,0,0,1.066-.076v3.06a7.9,7.9,0,0,1-2.412.368,4.482,4.482,0,0,1-3.263-1.041,4.267,4.267,0,0,1-1.054-3.161V57.234H36.08V54.264h1.752V50.849ZM45.132,61a8.107,8.107,0,0,1,.8-3.663,5.72,5.72,0,0,1,2.3-2.469,6.92,6.92,0,0,1,3.517-.863,6.316,6.316,0,0,1,4.862,1.911,7.332,7.332,0,0,1,1.777,5.2v.152a7.113,7.113,0,0,1-1.784,5.1,6.333,6.333,0,0,1-4.831,1.885,6.4,6.4,0,0,1-4.71-1.758,6.877,6.877,0,0,1-1.917-4.767Zm4.278.267a5.111,5.111,0,0,0,.6,2.793,1.988,1.988,0,0,0,1.765.889q2.285,0,2.336-3.517V61q0-3.694-2.361-3.694-2.146,0-2.323,3.187Zm19.17-3.136-1.409-.1q-2.019,0-2.59,1.27V68H60.3V54.264h4.012l.14,1.765a3.313,3.313,0,0,1,3.009-2.019,4.172,4.172,0,0,1,1.193.152ZM74.636,68H70.345V54.264h4.291ZM70.091,50.722a1.91,1.91,0,0,1,.66-1.5,2.807,2.807,0,0,1,3.428,0,2.03,2.03,0,0,1,0,3,2.807,2.807,0,0,1-3.428,0A1.91,1.91,0,0,1,70.091,50.722ZM85.008,68a4.831,4.831,0,0,1-.406-1.231,3.978,3.978,0,0,1-3.3,1.485A4.874,4.874,0,0,1,78,67.08a3.738,3.738,0,0,1-1.358-2.952,3.842,3.842,0,0,1,1.65-3.377,8.408,8.408,0,0,1,4.8-1.143h1.32v-.727q0-1.9-1.638-1.9a1.339,1.339,0,0,0-1.523,1.505H76.972a3.835,3.835,0,0,1,1.695-3.233,7.122,7.122,0,0,1,4.323-1.243,6.245,6.245,0,0,1,4.151,1.282A4.458,4.458,0,0,1,88.7,58.809V64.89a6.227,6.227,0,0,0,.584,2.895V68Zm-2.679-2.793a2.386,2.386,0,0,0,1.327-.343,2.148,2.148,0,0,0,.755-.774v-2.2H83.167q-2.234,0-2.234,2.006a1.225,1.225,0,0,0,.394.946A1.424,1.424,0,0,0,82.329,65.207ZM95.583,68H91.292V48.5h4.291Z" transform="translate(362.454 489.143)" fill="#f57c00"/>
    <g id="Grupo_142015" data-name="Grupo 142015" transform="translate(308.383 443.143)">
      <g id="Grupo_141992" data-name="Grupo 141992" transform="translate(3.674 6.919)">
        <g id="Grupo_141991" data-name="Grupo 141991">
          <path id="Trazado_157105" data-name="Trazado 157105" d="M401.6,345.829a3.538,3.538,0,0,1-3.354-2.422c-2.285-6.85-4.108-25.941.552-38,1.656-4.286,5.657-8.471,10.3-13.321,7.966-8.334,17-17.779,12.745-27.49-.92-2.1-3.289-4.707-5.8-7.468a60.763,60.763,0,0,1-7.325-9.189,143.5,143.5,0,0,1-11.688-24.914,3.537,3.537,0,1,1,6.7-2.279,139.6,139.6,0,0,0,11.053,23.543,55.714,55.714,0,0,0,6.5,8.079c2.909,3.2,5.657,6.227,7.046,9.385,6.156,14.033-5.081,25.781-14.11,35.219-3.942,4.126-7.664,8.02-8.809,10.982-3.835,9.919-2.463,27.14-.439,33.207a3.541,3.541,0,0,1-2.238,4.476A3.462,3.462,0,0,1,401.6,345.829Z" transform="translate(-395.892 -218.351)" fill="#ffa726"/>
        </g>
      </g>
      <g id="Grupo_141993" data-name="Grupo 141993" transform="translate(20.573 78.797)">
        <path id="Trazado_157106" data-name="Trazado 157106" d="M425.541,357.342a.708.708,0,0,1-.706-.689l-.475-16.485a.71.71,0,0,1,.689-.73.7.7,0,0,1,.73.689l.475,16.485a.71.71,0,0,1-.689.73Z" transform="translate(-424.359 -339.437)"/>
      </g>
      <g id="Grupo_141994" data-name="Grupo 141994" transform="translate(7.929 119.269)">
        <path id="Trazado_157107" data-name="Trazado 157107" d="M403.766,417.134a.714.714,0,0,1-.683-.522.706.706,0,0,1,.5-.867l29.669-8.1a.7.7,0,0,1,.867.5.706.706,0,0,1-.5.867l-29.669,8.1A.652.652,0,0,1,403.766,417.134Z" transform="translate(-403.059 -407.615)"/>
      </g>
      <g id="Grupo_141995" data-name="Grupo 141995" transform="translate(6.705 116.218)">
        <path id="Trazado_157108" data-name="Trazado 157108" d="M401.705,406.058a.707.707,0,0,1-.047-1.413l32.512-2.167a.708.708,0,1,1,.095,1.413l-32.512,2.167Z" transform="translate(-400.998 -402.475)"/>
      </g>
      <g id="Grupo_141996" data-name="Grupo 141996" transform="translate(6.704 110.437)">
        <path id="Trazado_157109" data-name="Trazado 157109" d="M433.855,396.182h-.047l-32.15-2.036a.7.7,0,1,1,.089-1.407l32.15,2.036a.7.7,0,0,1-.042,1.407Z" transform="translate(-400.997 -392.737)"/>
      </g>
      <g id="Grupo_141997" data-name="Grupo 141997" transform="translate(6.71 103.539)">
        <path id="Trazado_157110" data-name="Trazado 157110" d="M428.576,387.8a1.063,1.063,0,0,1-.137-.012l-26.861-5.265a.708.708,0,1,1,.273-1.389l26.861,5.265a.7.7,0,0,1,.558.831A.715.715,0,0,1,428.576,387.8Z" transform="translate(-401.006 -381.116)"/>
      </g>
      <g id="Grupo_141998" data-name="Grupo 141998" transform="translate(10.761 91.574)">
        <path id="Trazado_157111" data-name="Trazado 157111" d="M425.069,371.859a.691.691,0,0,1-.35-.1l-16.532-9.48a.709.709,0,0,1,.706-1.229l16.532,9.48a.709.709,0,0,1-.356,1.324Z" transform="translate(-407.831 -360.961)"/>
      </g>
      <g id="Grupo_141999" data-name="Grupo 141999" transform="translate(7.928 97.444)">
        <path id="Trazado_157112" data-name="Trazado 157112" d="M421.313,374.839a.54.54,0,0,1-.1-.006l-17.547-2.576a.708.708,0,0,1,.2-1.4l17.547,2.576a.707.707,0,0,1-.1,1.407Z" transform="translate(-403.059 -370.849)"/>
      </g>
      <g id="Grupo_142000" data-name="Grupo 142000" transform="translate(6.703 67.855)">
        <path id="Trazado_157113" data-name="Trazado 157113" d="M401.7,329.55a.713.713,0,0,1-.677-.493.7.7,0,0,1,.463-.884l22.729-7.135a.706.706,0,0,1,.421,1.348l-22.729,7.141A1.174,1.174,0,0,1,401.7,329.55Z" transform="translate(-400.994 -321.004)"/>
      </g>
      <g id="Grupo_142001" data-name="Grupo 142001" transform="translate(8.099 72.795)">
        <path id="Trazado_157114" data-name="Trazado 157114" d="M404.055,337.6a.715.715,0,0,1-.665-.463.706.706,0,0,1,.421-.908l18.616-6.862a.708.708,0,1,1,.487,1.33L404.3,337.562A.836.836,0,0,1,404.055,337.6Z" transform="translate(-403.345 -329.325)"/>
      </g>
      <g id="Grupo_142002" data-name="Grupo 142002" transform="translate(12.144 81.026)">
        <path id="Trazado_157115" data-name="Trazado 157115" d="M410.867,349.18a.7.7,0,0,1-.558-.273.707.707,0,0,1,.125-.991l5.93-4.577a.707.707,0,0,1,.867,1.116l-5.93,4.577A.709.709,0,0,1,410.867,349.18Z" transform="translate(-410.161 -343.191)"/>
      </g>
      <g id="Grupo_142003" data-name="Grupo 142003" transform="translate(4.112 60.884)">
        <path id="Trazado_157116" data-name="Trazado 157116" d="M397.336,316.134a.707.707,0,0,1-.131-1.4l29.135-5.461a.712.712,0,0,1,.825.564.7.7,0,0,1-.564.825l-29.135,5.461A.9.9,0,0,1,397.336,316.134Z" transform="translate(-396.63 -309.26)"/>
      </g>
      <g id="Grupo_142004" data-name="Grupo 142004" transform="translate(4.059 55.568)">
        <path id="Trazado_157117" data-name="Trazado 157117" d="M425.84,302.38h-.018l-28.594-.659a.7.7,0,0,1-.689-.724.686.686,0,0,1,.724-.689l28.594.659a.7.7,0,0,1,.689.724A.713.713,0,0,1,425.84,302.38Z" transform="translate(-396.539 -300.306)"/>
      </g>
      <g id="Grupo_142005" data-name="Grupo 142005" transform="translate(3.702 47.22)">
        <path id="Trazado_157118" data-name="Trazado 157118" d="M423.353,291.019a.448.448,0,0,1-.089-.006l-26.707-3.366a.706.706,0,0,1,.178-1.4l26.707,3.366a.706.706,0,0,1-.089,1.407Z" transform="translate(-395.939 -286.241)"/>
      </g>
      <g id="Grupo_142006" data-name="Grupo 142006" transform="translate(5.034 37.607)">
        <path id="Trazado_157119" data-name="Trazado 157119" d="M421.641,281.185a.674.674,0,0,1-.279-.059L398.615,271.4a.706.706,0,1,1,.552-1.3l22.747,9.723a.7.7,0,0,1,.374.926A.687.687,0,0,1,421.641,281.185Z" transform="translate(-398.183 -270.047)"/>
      </g>
      <g id="Grupo_142007" data-name="Grupo 142007" transform="translate(9.655 31.997)">
        <path id="Trazado_157120" data-name="Trazado 157120" d="M419.984,270.613a.71.71,0,0,1-.386-.113l-13.309-8.6a.708.708,0,0,1,.772-1.187l13.309,8.6a.707.707,0,0,1-.386,1.3Z" transform="translate(-405.967 -260.597)"/>
      </g>
      <g id="Grupo_142008" data-name="Grupo 142008" transform="translate(21.041 19.794)">
        <path id="Trazado_157121" data-name="Trazado 157121" d="M425.862,258.852h-.036a.71.71,0,0,1-.677-.742l.807-17.393a.734.734,0,0,1,.742-.677.71.71,0,0,1,.677.742l-.807,17.393A.71.71,0,0,1,425.862,258.852Z" transform="translate(-425.149 -240.04)"/>
      </g>
      <g id="Grupo_142009" data-name="Grupo 142009" transform="translate(16.312 23.138)">
        <path id="Trazado_157122" data-name="Trazado 157122" d="M419.08,257.466a.706.706,0,0,1-.7-.629l-1.193-10.376a.708.708,0,1,1,1.407-.16l1.193,10.382a.7.7,0,0,1-.623.784Z" transform="translate(-417.181 -245.673)"/>
      </g>
      <g id="Grupo_142010" data-name="Grupo 142010" transform="translate(11.411 14.202)">
        <path id="Trazado_157123" data-name="Trazado 157123" d="M409.635,237.494a.707.707,0,0,1-.243-1.371l14.888-5.461a.708.708,0,0,1,.487,1.33l-14.888,5.461A.677.677,0,0,1,409.635,237.494Z" transform="translate(-408.925 -230.619)"/>
      </g>
      <g id="Grupo_142011" data-name="Grupo 142011" transform="translate(10.104 11.605)">
        <path id="Trazado_157124" data-name="Trazado 157124" d="M407.428,232.985a.7.7,0,0,1-.659-.457.714.714,0,0,1,.41-.914l14.039-5.325a.708.708,0,1,1,.5,1.324l-14.039,5.325A.8.8,0,0,1,407.428,232.985Z" transform="translate(-406.724 -226.244)"/>
      </g>
      <g id="Grupo_142012" data-name="Grupo 142012" transform="translate(8.267 5.963)">
        <path id="Trazado_157125" data-name="Trazado 157125" d="M404.336,224.237a.707.707,0,0,1-.184-1.389l22.813-6.085a.707.707,0,0,1,.368,1.365l-22.812,6.085A.917.917,0,0,1,404.336,224.237Z" transform="translate(-403.629 -216.739)"/>
      </g>
      <g id="Grupo_142014" data-name="Grupo 142014">
        <g id="Grupo_142013" data-name="Grupo 142013">
          <path id="Trazado_157126" data-name="Trazado 157126" d="M419.019,336.39a3.537,3.537,0,0,1-1.158-6.88c.131-.047,8.791-3.3,8.192-8.085-.22-1.739-5.55-6.6-9.438-10.145-9.338-8.512-22.13-20.171-25.2-35.065-3.965-19.2-3.853-34.34,32.435-68.556a3.536,3.536,0,0,1,4.85,5.147c-33.7,31.77-33.949,44.61-30.363,61.979,2.612,12.644,14.425,23.412,23.044,31.272,6.476,5.9,11.154,10.169,11.694,14.5,1.063,8.495-7.616,13.837-12.911,15.654A3.58,3.58,0,0,1,419.019,336.39Z" transform="translate(-389.702 -206.695)" fill="#26ccda"/>
        </g>
      </g>
    </g>
  </g>
</svg>
